<svg width="1440" height="1253" viewBox="0 0 1440 1253" fill="none" xmlns="http://www.w3.org/2000/svg">
<rect width="1440" height="1253" fill="#FFF1D8"/>
<ellipse cx="326" cy="580.5" rx="229" ry="152.5" fill="#FFDFAA"/>
<line x1="251.026" y1="602.284" x2="423.257" y2="175.954" stroke="#8F8265" stroke-width="18" stroke-linecap="round"/>
<path d="M191.081 468.449C191.305 465.455 195.695 465.455 195.919 468.449L202.545 557.355C202.73 559.836 206.085 560.463 207.154 558.217L245.45 477.708C246.739 474.997 250.833 476.583 249.96 479.455L224.022 564.752C223.299 567.132 226.2 568.929 228.009 567.22L292.802 505.981C294.983 503.92 298.228 506.878 296.376 509.24L241.377 579.407C239.843 581.365 241.899 584.089 244.203 583.149L326.742 549.451C329.521 548.317 331.479 552.247 328.898 553.781L252.266 599.342C250.128 600.614 251.062 603.897 253.549 603.852L342.688 602.247C345.689 602.193 346.094 606.565 343.134 607.063L255.219 621.865C252.765 622.278 252.45 625.676 254.786 626.533L338.485 657.237C341.303 658.271 340.101 662.494 337.161 661.89L249.835 643.933C247.398 643.432 245.877 646.487 247.746 648.13L314.701 706.996C316.955 708.978 314.309 712.482 311.786 710.856L236.844 662.566C234.752 661.219 232.23 663.518 233.379 665.725L274.548 744.803C275.934 747.465 272.201 749.777 270.436 747.349L217.998 675.248C216.535 673.236 213.352 674.469 213.626 676.942L223.449 765.552C223.78 768.535 219.464 769.342 218.694 766.441L195.844 680.266C195.207 677.861 191.793 677.861 191.156 680.266L168.305 766.441C167.536 769.342 163.22 768.535 163.551 765.552L173.374 676.942C173.648 674.469 170.465 673.236 169.002 675.248L116.564 747.349C114.799 749.777 111.066 747.465 112.452 744.803L153.621 665.725C154.77 663.518 152.248 661.219 150.156 662.566L75.214 710.856C72.6908 712.482 70.0447 708.978 72.299 706.996L139.254 648.13C141.123 646.487 139.602 643.432 137.165 643.933L49.8387 661.89C46.8986 662.494 45.697 658.271 48.515 657.237L132.214 626.533C134.55 625.676 134.235 622.278 131.781 621.865L43.8656 607.063C40.9057 606.565 41.3108 602.193 44.312 602.247L133.451 603.852C135.938 603.897 136.872 600.614 134.734 599.342L58.1015 553.781C55.5215 552.247 57.4787 548.317 60.2576 549.451L142.797 583.149C145.101 584.089 147.157 581.365 145.623 579.407L90.6238 509.24C88.7721 506.878 92.017 503.92 94.1984 505.981L158.991 567.22C160.8 568.929 163.701 567.132 162.978 564.752L137.04 479.455C136.167 476.583 140.261 474.997 141.55 477.708L179.846 558.217C180.915 560.463 184.27 559.836 184.455 557.355L191.081 468.449Z" fill="#FFB44A"/>
<circle cx="174.098" cy="629.414" r="18.7957" fill="white"/>
<circle cx="214.721" cy="619.106" r="19.402" fill="white"/>
<circle cx="177.13" cy="633.658" r="12.1262" fill="black"/>
<circle cx="214.721" cy="623.957" r="12.1262" fill="black"/>
<path d="M189 648.5C196.291 653.653 200.544 654.592 209 646" stroke="#4E4B45" stroke-width="6" stroke-linecap="round"/>
<path d="M331.299 499.128L170.354 425.084L161.93 375.426L148.186 389.171L87 212.708L181.439 77.9229L371.646 46L552.099 124.034L636.783 279.658L587.125 439.272L561.853 425.084L552.099 469.865L381.4 510.212L357.901 479.619L331.299 499.128Z" fill="#DBE5FF" stroke="#8CACFF" stroke-width="4.43373"/>
<path d="M358.345 480.949C380.891 372.069 389.456 305.053 388.494 161.72M388.494 161.72C466.433 241.726 506.397 296.456 564.957 427.745M388.494 161.72C484.501 185.444 538.862 205.034 639 277.441M388.494 161.72C469.807 125.911 509.704 112.757 551.212 125.364M388.494 161.72C391.536 97.2844 391.93 64.0405 373.863 46M388.494 161.72C308.791 96.8744 263.489 75.3176 180.995 77.4795M388.494 161.72C250.155 156.353 187.836 171.714 88.3301 213.152M388.494 161.72C300.012 225.911 249.485 272.833 157.94 375.427" stroke="#8CACFF" stroke-width="4.43373"/>
<path d="M519.289 336.853L377.41 368.776L224.889 301.383L174.788 181.229L239.077 80.1398L384.06 61.5181L514.856 120.93L571.607 232.66L519.289 336.853Z" stroke="#97ACFF" stroke-width="20.3952"/>
<path d="M169.467 394.492L350.364 483.166M371.646 490.704L554.315 449.027" stroke="#97ACFF" stroke-width="20.3952"/>
<path d="M1366 164.635C1366 185.069 1316.3 176.232 1255 176.232C1193.7 176.232 1144 185.069 1144 164.635C1144 144.2 1193.7 127.635 1255 127.635C1316.3 127.635 1366 144.2 1366 164.635Z" fill="#FFDFAA"/>
<path d="M1146.43 152.19C1145.13 152.985 1144.71 154.684 1145.51 155.985C1146.3 157.287 1148 157.698 1149.3 156.903L1147.87 154.546L1146.43 152.19ZM1147.87 154.546L1149.3 156.903C1210.87 119.311 1302.49 118.258 1361.73 156.86L1363.24 154.546L1364.75 152.233C1303.59 112.384 1209.67 113.573 1146.43 152.19L1147.87 154.546Z" fill="#FFCE7D"/>
<path d="M286 758.635C286 779.069 236.304 770.232 175 770.232C113.696 770.232 64 779.069 64 758.635C64 738.2 113.696 721.635 175 721.635C236.304 721.635 286 738.2 286 758.635Z" fill="#FFDFAA"/>
<path d="M66.4266 746.19C65.1251 746.985 64.7143 748.684 65.509 749.985C66.3038 751.287 68.0031 751.698 69.3046 750.903L67.8656 748.546L66.4266 746.19ZM67.8656 748.546L69.3046 750.903C130.865 713.311 222.492 712.258 281.731 750.86L283.239 748.546L284.746 746.233C223.592 706.384 129.666 707.573 66.4266 746.19L67.8656 748.546Z" fill="#FFCE7D"/>
<path d="M421.959 384.229C422.808 384.92 423.283 385.697 423.592 386.611C423.765 387.359 423.844 388.129 423.88 388.712C423.959 389.482 423.715 390.129 423.118 390.957C422.808 391.324 422.24 391.849 421.65 392.281C420.945 392.641 420.125 392.929 419.211 393.238C418.506 393.598 417.57 393.814 416.728 394.008L412.519 394.98L392.991 399.587L393.056 399.868L396.482 415.136C397.418 414.92 398.634 414.64 400.296 414.157C405.253 413.013 408.714 412.214 413.506 411.206L414.068 411.076C415.471 410.753 416.895 410.522 418.392 410.177C419.817 409.946 421.263 409.809 422.681 409.975C423.796 410.111 424.767 410.478 425.523 411.191C426.35 411.788 426.919 412.543 427.135 413.479C427.308 414.227 427.459 414.882 427.445 415.673C427.481 416.256 427.164 417.019 426.66 417.825C426.279 418.307 425.876 418.695 425.078 419.077C424.466 419.415 423.689 419.89 422.869 420.178C422.048 420.466 421.228 420.754 420.293 420.97L415.99 421.963L398.8 426.03L403.53 447.796L403.702 448.544C403.832 449.106 403.868 449.689 403.926 450.365C403.89 451.063 403.875 451.854 403.724 452.48C403.523 453.315 403.3 454.056 402.919 454.538C402.372 455.157 401.616 455.726 400.631 456.15C399.033 456.913 397.4 457.093 395.731 456.69C395.083 456.446 394.299 456.036 393.73 455.28C393.593 455.115 393.435 454.856 393.413 454.762L393.003 454.266C392.478 453.697 392.233 453.064 391.989 452.431C391.859 451.87 391.614 451.237 391.37 450.604C391.146 450.064 391.06 449.69 391.024 449.107L390.679 447.61L389.088 440.293L386.071 426.801C385.258 422.851 384.286 418.642 383.293 414.339C382.163 409.871 381.544 406.762 380.78 402.603L380.672 402.136C380.464 400.804 380.183 399.588 380.089 398.329C379.88 396.998 379.88 395.717 380.182 394.465C380.341 393.443 380.801 392.45 381.535 391.788C382.341 391.011 383.305 390.493 384.334 390.255C384.708 390.169 385.082 390.083 385.571 390.068L385.55 389.975C389.946 388.96 390.32 388.873 395.256 387.635C400.286 386.376 405.15 385.253 410.036 384.223L410.503 384.115C411.928 383.885 413.331 383.561 414.849 383.309C416.252 382.985 417.742 383.035 419.159 383.201C420.253 383.244 421.225 383.611 421.959 384.229ZM490.726 428.454C490.992 429.18 491.237 429.813 491.431 430.655C491.604 431.404 491.568 432.102 491.251 432.864C491.007 433.512 490.503 434.318 489.748 434.886C488.373 436.189 486.848 436.837 485.006 436.966C484.214 436.952 483.286 436.772 482.387 436.29C482.156 436.146 481.948 436.096 481.811 435.931C481.696 435.859 481.444 435.621 481.235 435.571C480.545 435.139 480.019 434.571 479.516 434.096C479.105 433.599 478.695 433.103 478.17 432.535C477.781 432.132 477.393 431.729 477.191 431.283C476.896 430.858 476.579 430.34 476.378 429.894L473.355 425.764C464.843 427.729 456.166 429.831 447.632 431.703L446.726 436.74C446.647 437.251 446.683 437.833 446.604 438.344C446.525 438.855 446.446 439.366 446.273 439.899C446.05 440.64 445.899 441.266 445.654 441.913C445.503 442.539 445.28 443.281 444.849 443.971C444.683 444.108 444.561 444.432 444.489 444.547C444.438 444.756 444.273 444.892 444.129 445.123C443.532 445.95 442.776 446.519 442.071 446.879C440.359 447.57 438.704 447.656 436.898 447.088C435.97 446.908 435.164 446.404 434.66 445.93C434.041 445.383 433.703 444.771 433.53 444.023C433.336 443.181 433.278 442.505 433.199 441.735C433.163 441.152 433.199 440.454 433.278 439.943C433.335 439.339 433.386 439.13 433.364 439.036L441.763 386.652L441.979 385.026C442.087 384.213 442.332 383.565 442.418 382.659C442.526 381.846 442.655 381.126 442.95 380.27C443.152 379.435 443.562 378.651 443.9 377.981C444.238 377.312 444.713 376.809 445.209 376.398C446.835 375.333 449.361 374.75 451.289 374.995C451.915 375.146 452.563 375.39 453.16 375.844C453.757 376.297 454.376 376.844 455.017 377.484C455.657 378.124 456.089 378.714 456.542 379.398C457.017 380.175 457.521 380.65 457.974 381.333L458.881 382.7L489.394 426.101C489.416 426.194 489.553 426.36 489.869 426.878C490.164 427.302 490.502 427.914 490.726 428.454ZM465.9 414.381L463.266 410.654C460.855 407.467 458.264 403.927 455.465 400.337C454.738 399.322 453.896 398.236 453.169 397.221C453.054 398.43 452.774 399.776 452.565 401.006C451.623 405.46 450.846 409.778 450.077 413.699L449.343 418.204L465.9 414.381ZM546.169 415.358C546.831 416.092 547.162 417.099 547.262 417.963C547.385 418.92 547.183 419.754 546.773 420.539C546.435 421.208 545.982 421.805 545.507 422.309C545.104 422.697 544.493 423.036 543.557 423.252C542.996 423.381 542.32 423.439 541.6 423.309C540.881 423.18 540.139 422.957 539.355 422.547C538.614 422.324 537.851 422.007 537.067 421.597L533.929 419.957C532.231 422.418 529.936 424.426 527.418 425.894C520.144 430.234 510.358 430.522 502.557 425.328C493.375 419.27 488.294 406.65 486.732 396.468C485.206 386.87 485.686 371.881 495.169 366.441C506.631 359.755 515.741 360.805 522.707 365.798C533.788 373.683 539.122 391.664 538.576 405.091L537.929 409.969C540.21 411.315 542.542 412.451 543.139 412.905C544.175 413.552 545.327 414.272 546.169 415.358ZM507.629 414.009C512.494 418.009 518.581 417.49 522.538 413.72C520.466 412.425 518.322 411.245 517.839 410.863C516.688 410.144 515.659 409.101 514.911 407.993C514.227 407.165 513.824 406.273 513.795 405.295C513.766 404.316 513.946 403.388 514.428 402.488C514.975 401.869 515.334 401.294 515.809 400.79C516.284 400.286 517.198 399.977 518.04 399.782C518.695 399.631 519.299 399.689 520.062 400.005C520.688 400.156 521.544 400.451 522.307 400.768C523.091 401.178 523.991 401.66 524.681 402.091C525.257 402.451 525.926 402.789 526.596 403.127C526.544 394.371 524.104 383.801 517.217 377.016C513.144 373.03 508.043 371.843 502.251 376.629C497.732 380.529 497.481 389.257 498.489 395.33C499.699 401.849 502.556 409.958 507.629 414.009Z" fill="#18265B"/>
</svg>
