<svg width="1440" height="1253" viewBox="0 0 1440 1253" fill="none" xmlns="http://www.w3.org/2000/svg">
<rect width="1440" height="1253" fill="#FFF1D8"/>
<!-- Coconut shadow -->
<ellipse cx="528.5" cy="956.5" rx="98.5" ry="33.5" fill="#FFF1D8" style="mix-blend-mode:multiply"/>
<!-- Red ball shadow -->
<ellipse cx="979.5" cy="345.5" rx="98.5" ry="33.5" fill="#FFF1D8" style="mix-blend-mode:multiply"/>
<ellipse cx="326" cy="580.5" rx="229" ry="152.5" fill="#FFDFAA"/>
<line x1="251.026" y1="602.284" x2="423.257" y2="175.954" stroke="#8F8265" stroke-width="18" stroke-linecap="round"/>
<path d="M191.081 468.449C191.305 465.455 195.695 465.455 195.919 468.449L202.545 557.355C202.73 559.836 206.085 560.463 207.154 558.217L245.45 477.708C246.739 474.997 250.833 476.583 249.96 479.455L224.022 564.752C223.299 567.132 226.2 568.929 228.009 567.22L292.802 505.981C294.983 503.92 298.228 506.878 296.376 509.24L241.377 579.407C239.843 581.365 241.899 584.089 244.203 583.149L326.742 549.451C329.521 548.317 331.479 552.247 328.898 553.781L252.266 599.342C250.128 600.614 251.062 603.897 253.549 603.852L342.688 602.247C345.689 602.193 346.094 606.565 343.134 607.063L255.219 621.865C252.765 622.278 252.45 625.676 254.786 626.533L338.485 657.237C341.303 658.271 340.101 662.494 337.161 661.89L249.835 643.933C247.398 643.432 245.877 646.487 247.746 648.13L314.701 706.996C316.955 708.978 314.309 712.482 311.786 710.856L236.844 662.566C234.752 661.219 232.23 663.518 233.379 665.725L274.548 744.803C275.934 747.465 272.201 749.777 270.436 747.349L217.998 675.248C216.535 673.236 213.352 674.469 213.626 676.942L223.449 765.552C223.78 768.535 219.464 769.342 218.694 766.441L195.844 680.266C195.207 677.861 191.793 677.861 191.156 680.266L168.305 766.441C167.536 769.342 163.22 768.535 163.551 765.552L173.374 676.942C173.648 674.469 170.465 673.236 169.002 675.248L116.564 747.349C114.799 749.777 111.066 747.465 112.452 744.803L153.621 665.725C154.77 663.518 152.248 661.219 150.156 662.566L75.214 710.856C72.6908 712.482 70.0447 708.978 72.299 706.996L139.254 648.13C141.123 646.487 139.602 643.432 137.165 643.933L49.8387 661.89C46.8986 662.494 45.697 658.271 48.515 657.237L132.214 626.533C134.55 625.676 134.235 622.278 131.781 621.865L43.8656 607.063C40.9057 606.565 41.3108 602.193 44.312 602.247L133.451 603.852C135.938 603.897 136.872 600.614 134.734 599.342L58.1015 553.781C55.5215 552.247 57.4787 548.317 60.2576 549.451L142.797 583.149C145.101 584.089 147.157 581.365 145.623 579.407L90.6238 509.24C88.7721 506.878 92.017 503.92 94.1984 505.981L158.991 567.22C160.8 568.929 163.701 567.132 162.978 564.752L137.04 479.455C136.167 476.583 140.261 474.997 141.55 477.708L179.846 558.217C180.915 560.463 184.27 559.836 184.455 557.355L191.081 468.449Z" fill="#FFB44A"/>
<circle cx="174.098" cy="629.414" r="18.7957" fill="white"/>
<circle cx="214.721" cy="619.106" r="19.402" fill="white"/>
<circle cx="177.13" cy="633.658" r="12.1262" fill="black"/>
<circle cx="214.721" cy="623.957" r="12.1262" fill="black"/>
<path d="M189 648.5C196.291 653.653 200.544 654.592 209 646" stroke="#4E4B45" stroke-width="6" stroke-linecap="round"/>
<path d="M331.299 499.128L170.354 425.084L161.93 375.426L148.186 389.171L87 212.708L181.439 77.9229L371.646 46L552.099 124.034L636.783 279.658L587.125 439.272L561.853 425.084L552.099 469.865L381.4 510.212L357.901 479.619L331.299 499.128Z" fill="#DBE5FF" stroke="#8CACFF" stroke-width="4.43373"/>
<path d="M358.345 480.949C380.891 372.069 389.456 305.053 388.494 161.72M388.494 161.72C466.433 241.726 506.397 296.456 564.957 427.745M388.494 161.72C484.501 185.444 538.862 205.034 639 277.441M388.494 161.72C469.807 125.911 509.704 112.757 551.212 125.364M388.494 161.72C391.536 97.2844 391.93 64.0405 373.863 46M388.494 161.72C308.791 96.8744 263.489 75.3176 180.995 77.4795M388.494 161.72C250.155 156.353 187.836 171.714 88.3301 213.152M388.494 161.72C300.012 225.911 249.485 272.833 157.94 375.427" stroke="#8CACFF" stroke-width="4.43373"/>
<path d="M519.289 336.853L377.41 368.776L224.889 301.383L174.788 181.229L239.077 80.1398L384.06 61.5181L514.856 120.93L571.607 232.66L519.289 336.853Z" stroke="#97ACFF" stroke-width="20.3952"/>
<path d="M169.467 394.492L350.364 483.166M371.646 490.704L554.315 449.027" stroke="#97ACFF" stroke-width="20.3952"/>
<path d="M1366 164.635C1366 185.069 1316.3 176.232 1255 176.232C1193.7 176.232 1144 185.069 1144 164.635C1144 144.2 1193.7 127.635 1255 127.635C1316.3 127.635 1366 144.2 1366 164.635Z" fill="#FFDFAA"/>
<path d="M1146.43 152.19C1145.13 152.985 1144.71 154.684 1145.51 155.985C1146.3 157.287 1148 157.698 1149.3 156.903L1147.87 154.546L1146.43 152.19ZM1147.87 154.546L1149.3 156.903C1210.87 119.311 1302.49 118.258 1361.73 156.86L1363.24 154.546L1364.75 152.233C1303.59 112.384 1209.67 113.573 1146.43 152.19L1147.87 154.546Z" fill="#FFCE7D"/>
<path d="M286 758.635C286 779.069 236.304 770.232 175 770.232C113.696 770.232 64 779.069 64 758.635C64 738.2 113.696 721.635 175 721.635C236.304 721.635 286 738.2 286 758.635Z" fill="#FFDFAA"/>
<path d="M66.4266 746.19C65.1251 746.985 64.7143 748.684 65.509 749.985C66.3038 751.287 68.0031 751.698 69.3046 750.903L67.8656 748.546L66.4266 746.19ZM67.8656 748.546L69.3046 750.903C130.865 713.311 222.492 712.258 281.731 750.86L283.239 748.546L284.746 746.233C223.592 706.384 129.666 707.573 66.4266 746.19L67.8656 748.546Z" fill="#FFCE7D"/>
</svg>
