<svg width="1440" height="1253" viewBox="0 0 1440 1253" fill="none" xmlns="http://www.w3.org/2000/svg">
<rect width="1440" height="1253" fill="#FFF1D8"/>
<ellipse cx="528.5" cy="956.5" rx="98.5" ry="33.5" fill="#FFF1D8" style="mix-blend-mode:multiply"/>
<g filter="url(#filter3_n_450_748)">
<path d="M623.535 885.649C623.535 918.764 605.9 956.19 547.116 957.366C488.919 955.015 471.284 918.764 471.284 885.649C471.284 852.534 506.209 842.737 547.116 842.737C588.023 842.737 623.535 852.534 623.535 885.649Z" fill="#5F4520"/>
</g>
<path d="M547.704 844.5C567.235 844.5 584.864 847.643 597.566 852.682C603.92 855.203 608.984 858.175 612.439 861.416C615.892 864.654 617.657 868.077 617.657 871.542C617.657 875.006 615.892 878.428 612.439 881.667C608.984 884.907 603.92 887.879 597.566 890.4C584.864 895.439 567.235 898.582 547.704 898.582C528.172 898.582 510.544 895.439 497.841 890.4C491.487 887.879 486.423 884.907 482.968 881.667C479.516 878.428 477.751 875.006 477.75 871.542C477.75 868.077 479.515 864.654 482.968 861.416C486.423 858.175 491.487 855.203 497.841 852.682C510.544 847.643 528.172 844.5 547.704 844.5Z" fill="white" stroke="#2A1D0B" stroke-width="2.35137"/>
<ellipse cx="547.703" cy="867.426" rx="52.318" ry="17.0474" fill="#ECECEC"/>
<line x1="564.97" y1="878.478" x2="605.782" y2="803.132" stroke="#B0FFAF" stroke-width="10.5812" stroke-linecap="round"/>
<line x1="567.573" y1="878.353" x2="631.855" y2="821.692" stroke="#AFFFFC" stroke-width="10.5812" stroke-linecap="round"/>
<path d="M485.98 856.257L498.325 872.717L525.953 835.095C486.005 822.019 472.581 830.823 456 859.784L475.399 867.426L485.98 856.257Z" fill="#F1FF5C"/>
<path d="M456 859.784C473.183 830.306 486.536 821.319 525.365 835.682" stroke="#9F995F" stroke-width="5.87843"/>
<path d="M458.352 860.372L485.98 856.257L475.399 867.426L458.352 860.372Z" fill="#FFE15C"/>
<ellipse cx="979.5" cy="345.5" rx="98.5" ry="33.5" fill="#FFF1D8" style="mix-blend-mode:multiply"/>
<ellipse cx="326" cy="580.5" rx="229" ry="152.5" fill="#FFDFAA"/>
<line x1="251.026" y1="602.284" x2="423.257" y2="175.954" stroke="#8F8265" stroke-width="18" stroke-linecap="round"/>
<path d="M191.081 468.449C191.305 465.455 195.695 465.455 195.919 468.449L202.545 557.355C202.73 559.836 206.085 560.463 207.154 558.217L245.45 477.708C246.739 474.997 250.833 476.583 249.96 479.455L224.022 564.752C223.299 567.132 226.2 568.929 228.009 567.22L292.802 505.981C294.983 503.92 298.228 506.878 296.376 509.24L241.377 579.407C239.843 581.365 241.899 584.089 244.203 583.149L326.742 549.451C329.521 548.317 331.479 552.247 328.898 553.781L252.266 599.342C250.128 600.614 251.062 603.897 253.549 603.852L342.688 602.247C345.689 602.193 346.094 606.565 343.134 607.063L255.219 621.865C252.765 622.278 252.45 625.676 254.786 626.533L338.485 657.237C341.303 658.271 340.101 662.494 337.161 661.89L249.835 643.933C247.398 643.432 245.877 646.487 247.746 648.13L314.701 706.996C316.955 708.978 314.309 712.482 311.786 710.856L236.844 662.566C234.752 661.219 232.23 663.518 233.379 665.725L274.548 744.803C275.934 747.465 272.201 749.777 270.436 747.349L217.998 675.248C216.535 673.236 213.352 674.469 213.626 676.942L223.449 765.552C223.78 768.535 219.464 769.342 218.694 766.441L195.844 680.266C195.207 677.861 191.793 677.861 191.156 680.266L168.306 766.441C167.536 769.342 163.22 768.535 163.551 765.552L173.374 676.942C173.648 674.469 170.465 673.236 169.002 675.248L116.564 747.349C114.799 749.777 111.066 747.465 112.452 744.803L153.621 665.725C154.77 663.518 152.248 661.219 150.156 662.566L75.214 710.856C72.6908 712.482 70.0447 708.978 72.299 706.996L139.254 648.13C141.123 646.487 139.602 643.432 137.165 643.933L49.8387 661.89C46.8986 662.494 45.697 658.271 48.515 657.237L132.214 626.533C134.55 625.676 134.235 622.278 131.781 621.865L43.8656 607.063C40.9057 606.565 41.3108 602.193 44.312 602.247L133.451 603.852C135.938 603.897 136.872 600.614 134.734 599.342L58.1015 553.781C55.5215 552.247 57.4787 548.317 60.2576 549.451L142.797 583.149C145.101 584.089 147.157 581.365 145.623 579.407L90.6238 509.24C88.7721 506.878 92.017 503.92 94.1984 505.981L158.991 567.22C160.8 568.929 163.701 567.132 162.978 564.752L137.04 479.455C136.167 476.583 140.261 474.997 141.55 477.708L179.846 558.217C180.915 560.463 184.27 559.836 184.455 557.355L191.081 468.449Z" fill="#FFB44A"/>
<circle cx="174.098" cy="629.414" r="18.7957" fill="white"/>
<circle cx="214.721" cy="619.106" r="19.402" fill="white"/>
<circle cx="177.13" cy="633.658" r="12.1262" fill="black"/>
<circle cx="214.721" cy="623.957" r="12.1262" fill="black"/>
<path d="M189 648.5C196.291 653.653 200.544 654.592 209 646" stroke="#4E4B45" stroke-width="6" stroke-linecap="round"/>
<path d="M331.299 499.128L170.354 425.084L161.93 375.426L148.186 389.171L87 212.708L181.439 77.9229L371.646 46L552.099 124.034L636.783 279.658L587.125 439.272L561.853 425.084L552.099 469.865L381.4 510.212L357.901 479.619L331.299 499.128Z" fill="#DBE5FF" stroke="#8CACFF" stroke-width="4.43373"/>
<path d="M358.345 480.949C380.891 372.069 389.456 305.053 388.494 161.72M388.494 161.72C466.433 241.726 506.397 296.456 564.957 427.745M388.494 161.72C484.501 185.444 538.862 205.034 639 277.441M388.494 161.72C469.807 125.911 509.704 112.757 551.212 125.364M388.494 161.72C391.536 97.2844 391.93 64.0405 373.863 46M388.494 161.72C308.791 96.8744 263.489 75.3176 180.995 77.4795M388.494 161.72C250.155 156.353 187.836 171.714 88.3301 213.152M388.494 161.72C300.012 225.911 249.485 272.833 157.94 375.427" stroke="#8CACFF" stroke-width="4.43373"/>
<path d="M519.289 336.853L377.41 368.776L224.889 301.383L174.788 181.229L239.077 80.1398L384.06 61.5181L514.856 120.93L571.607 232.66L519.289 336.853Z" stroke="#97ACFF" stroke-width="20.3952"/>
<path d="M169.467 394.492L350.364 483.166M371.646 490.704L554.315 449.027" stroke="#97ACFF" stroke-width="20.3952"/>
<path d="M435.866 378.392C436.697 379.105 437.152 379.894 437.438 380.815C437.591 381.568 437.651 382.339 437.672 382.923C437.731 383.695 437.47 384.336 436.852 385.148C436.533 385.507 435.951 386.017 435.35 386.433C434.636 386.775 433.809 387.042 432.887 387.328C432.173 387.669 431.233 387.861 430.386 388.033L426.153 388.897L406.513 392.999L406.57 393.281L409.602 408.633C410.543 408.441 411.766 408.192 413.44 407.752C418.425 406.736 421.906 406.026 426.722 405.142L427.286 405.027C428.697 404.74 430.127 404.546 431.633 404.239C433.063 404.046 434.512 403.946 435.925 404.148C437.036 404.313 437.998 404.705 438.735 405.436C439.547 406.055 440.096 406.825 440.287 407.765C440.441 408.518 440.575 409.176 440.54 409.967C440.561 410.551 440.225 411.305 439.701 412.098C439.307 412.57 438.895 412.948 438.086 413.309C437.466 413.631 436.677 414.086 435.85 414.352C435.023 414.619 434.195 414.886 433.254 415.078L428.927 415.96L411.639 419.583L415.806 441.463L415.959 442.216C416.074 442.78 416.095 443.364 416.136 444.041C416.082 444.738 416.047 445.529 415.88 446.151C415.657 446.98 415.415 447.715 415.021 448.187C414.459 448.792 413.689 449.341 412.693 449.74C411.076 450.461 409.439 450.599 407.78 450.154C407.139 449.893 406.366 449.462 405.817 448.693C405.684 448.524 405.533 448.261 405.514 448.166L405.116 447.66C404.606 447.078 404.377 446.439 404.149 445.799C404.034 445.235 403.806 444.596 403.577 443.956C403.368 443.411 403.292 443.035 403.271 442.451L402.964 440.946L401.562 433.59L398.894 420.026C398.183 416.056 397.32 411.823 396.438 407.496C395.423 403 394.884 399.877 394.229 395.699L394.133 395.229C393.958 393.893 393.709 392.67 393.648 391.409C393.473 390.073 393.506 388.792 393.84 387.549C394.025 386.531 394.511 385.55 395.261 384.907C396.087 384.151 397.064 383.658 398.099 383.447C398.475 383.37 398.851 383.294 399.341 383.292L399.322 383.198C403.743 382.296 404.119 382.22 409.085 381.109C414.146 379.98 419.037 378.982 423.948 378.079L424.418 377.983C425.848 377.79 427.259 377.502 428.783 377.289C430.194 377.001 431.682 377.09 433.095 377.292C434.187 377.363 435.149 377.755 435.866 378.392ZM503.471 424.374C503.719 425.107 503.947 425.746 504.12 426.593C504.273 427.345 504.219 428.042 503.883 428.796C503.622 429.437 503.098 430.23 502.328 430.779C500.92 432.046 499.379 432.654 497.534 432.736C496.743 432.701 495.82 432.498 494.933 431.993C494.707 431.843 494.499 431.787 494.367 431.618C494.254 431.543 494.008 431.3 493.801 431.244C493.121 430.795 492.611 430.213 492.12 429.725C491.722 429.218 491.325 428.711 490.814 428.13C490.436 427.717 490.058 427.304 489.868 426.853C489.584 426.421 489.281 425.895 489.091 425.444L486.176 421.237C477.616 422.983 468.887 424.86 460.308 426.511L459.273 431.523C459.18 432.032 459.201 432.616 459.109 433.124C459.017 433.633 458.925 434.142 458.738 434.669C458.496 435.405 458.329 436.027 458.068 436.668C457.901 437.29 457.659 438.025 457.21 438.704C457.041 438.837 456.91 439.157 456.835 439.27C456.779 439.478 456.61 439.61 456.461 439.837C455.842 440.649 455.073 441.197 454.358 441.539C452.629 442.186 450.972 442.229 449.181 441.615C448.258 441.411 447.465 440.887 446.974 440.399C446.369 439.837 446.047 439.217 445.893 438.464C445.721 437.617 445.681 436.94 445.621 436.168C445.6 435.585 445.654 434.888 445.746 434.379C445.82 433.776 445.875 433.569 445.856 433.475L455.602 381.325L455.86 379.705C455.989 378.895 456.25 378.253 456.359 377.349C456.488 376.539 456.636 375.823 456.953 374.975C457.176 374.146 457.606 373.372 457.961 372.712C458.316 372.052 458.804 371.56 459.311 371.163C460.964 370.14 463.504 369.622 465.425 369.916C466.047 370.083 466.688 370.345 467.274 370.813C467.859 371.282 468.464 371.844 469.087 372.501C469.711 373.157 470.128 373.758 470.563 374.453C471.018 375.242 471.509 375.73 471.945 376.425L472.816 377.815L502.201 421.987C502.22 422.081 502.352 422.25 502.656 422.776C502.94 423.208 503.262 423.828 503.471 424.374ZM479.016 409.667L476.479 405.873C474.151 402.624 471.653 399.019 468.947 395.358C468.246 394.325 467.433 393.217 466.732 392.184C466.586 393.39 466.271 394.728 466.031 395.952C464.974 400.381 464.086 404.677 463.216 408.577L462.367 413.061L479.016 409.667ZM559.233 412.711C559.876 413.461 560.181 414.477 560.26 415.343C560.357 416.302 560.134 417.132 559.704 417.905C559.349 418.566 558.881 419.151 558.393 419.642C557.98 420.02 557.36 420.343 556.419 420.534C555.855 420.65 555.177 420.69 554.461 420.542C553.745 420.394 553.01 420.152 552.237 419.722C551.502 419.48 550.747 419.144 549.974 418.713L546.88 416.993C545.119 419.409 542.773 421.357 540.217 422.76C532.834 426.911 523.044 426.947 515.38 421.554C506.357 415.261 501.602 402.514 500.303 392.296C499.024 382.661 499.891 367.69 509.511 362.496C521.141 356.107 530.221 357.391 537.056 362.562C547.931 370.73 552.799 388.843 551.908 402.251L551.135 407.112C553.381 408.515 555.682 409.712 556.268 410.18C557.287 410.854 558.419 411.603 559.233 412.711ZM520.741 410.369C525.501 414.493 531.6 414.132 535.653 410.464C533.615 409.116 531.501 407.881 531.029 407.488C529.897 406.739 528.895 405.669 528.175 404.543C527.513 403.698 527.133 402.795 527.13 401.816C527.126 400.837 527.33 399.914 527.835 399.027C528.397 398.423 528.772 397.857 529.259 397.365C529.747 396.874 530.668 396.588 531.515 396.416C532.173 396.281 532.776 396.354 533.531 396.69C534.152 396.858 535.001 397.174 535.755 397.511C536.529 397.941 537.416 398.446 538.095 398.895C538.661 399.269 539.321 399.625 539.982 399.98C540.156 391.225 537.989 380.595 531.279 373.635C527.31 369.546 522.241 368.228 516.328 372.863C511.71 376.645 511.234 385.364 512.086 391.461C513.127 398.009 515.774 406.189 520.741 410.369Z" fill="#18265B"/>
<circle cx="980.073" cy="241.073" r="108.611" transform="rotate(3.88042 980.073 241.073)" fill="#FF585B"/>
<path d="M911 210.5C927.385 228.778 937.471 228.408 956.5 215.5M1002.5 227.5C1007.14 249.599 1016 254.215 1041 251" stroke="black" stroke-width="6" stroke-linecap="round"/>
<ellipse cx="970.753" cy="256.987" rx="14" ry="19.5" transform="rotate(12.0142 970.753 256.987)" fill="#A40003"/>
<path d="M1366 164.635C1366 185.069 1316.3 176.232 1255 176.232C1193.7 176.232 1144 185.069 1144 164.635C1144 144.2 1193.7 127.635 1255 127.635C1316.3 127.635 1366 144.2 1366 164.635Z" fill="#FFDFAA"/>
<path d="M1146.43 152.19C1145.13 152.985 1144.71 154.684 1145.51 155.985C1146.3 157.287 1148 157.698 1149.3 156.903L1147.87 154.546L1146.43 152.19ZM1147.87 154.546L1149.3 156.903C1210.87 119.311 1302.49 118.258 1361.73 156.86L1363.24 154.546L1364.75 152.233C1303.59 112.384 1209.67 113.573 1146.43 152.19L1147.87 154.546Z" fill="#FFCE7D"/>
<path d="M286 758.635C286 779.069 236.304 770.232 175 770.232C113.696 770.232 64 779.069 64 758.635C64 738.2 113.696 721.635 175 721.635C236.304 721.635 286 738.2 286 758.635Z" fill="#FFDFAA"/>
<path d="M66.4266 746.19C65.1251 746.985 64.7143 748.684 65.509 749.985C66.3038 751.287 68.0031 751.698 69.3046 750.903L67.8656 748.546L66.4266 746.19ZM67.8656 748.546L69.3046 750.903C130.865 713.311 222.492 712.258 281.731 750.86L283.239 748.546L284.746 746.233C223.592 706.384 129.666 707.573 66.4266 746.19L67.8656 748.546Z" fill="#FFCE7D"/>
<defs>
<filter id="filter3_n_450_748" x="471.284" y="842.737" width="152.251" height="114.629" filterUnits="userSpaceOnUse" color-interpolation-filters="sRGB">
<feFlood flood-opacity="0" result="BackgroundImageFix"/>
<feBlend mode="normal" in="SourceGraphic" in2="BackgroundImageFix" result="shape"/>
<feTurbulence type="fractalNoise" baseFrequency="0.47253745794296265 0.47253745794296265" stitchTiles="stitch" numOctaves="3" result="noise" seed="4007" />
<feColorMatrix in="noise" type="luminanceToAlpha" result="alphaNoise" />
<feComponentTransfer in="alphaNoise" result="coloredNoise1">
<feFuncA type="discrete" tableValues="1 1 1 1 1 1 1 1 1 1 1 1 1 1 1 1 1 1 1 1 1 1 1 1 1 1 1 1 1 1 1 1 1 1 1 1 1 1 1 1 1 1 1 1 1 1 1 1 1 1 1 0 0 0 0 0 0 0 0 0 0 0 0 0 0 0 0 0 0 0 0 0 0 0 0 0 0 0 0 0 0 0 0 0 0 0 0 0 0 0 0 0 0 0 0 0 0 0 0 0 "/>
</feComponentTransfer>
<feComposite operator="in" in2="shape" in="coloredNoise1" result="noise1Clipped" />
<feFlood flood-color="rgba(0, 0, 0, 0.25)" result="color1Flood" />
<feComposite operator="in" in2="noise1Clipped" in="color1Flood" result="color1" />
<feMerge result="effect1_noise_450_748">
<feMergeNode in="shape" />
<feMergeNode in="color1" />
</feMerge>
</filter>
</defs>
</svg>
