<svg width="392" height="825" viewBox="0 0 392 825" fill="none" xmlns="http://www.w3.org/2000/svg">
<g clip-path="url(#clip0_704_597)">
<rect width="392" height="825" fill="#FFF1D8"/>
<ellipse cx="83.5902" cy="164.087" rx="70.3012" ry="46.8163" fill="#FFDFAA"/>
<line x1="60.5737" y1="170.775" x2="113.447" y2="39.8948" stroke="#8F8265" stroke-width="5.52586" stroke-linecap="round"/>
<path d="M60.2836 125.391C60.3521 124.472 61.7 124.472 61.7685 125.391L63.8028 152.684C63.8596 153.446 64.8896 153.638 65.2177 152.949L76.9742 128.233C77.37 127.401 78.6269 127.888 78.3588 128.769L70.3962 154.955C70.174 155.686 71.0648 156.237 71.6199 155.713L91.5109 136.913C92.1805 136.28 93.1767 137.188 92.6082 137.913L75.7241 159.454C75.2529 160.055 75.8843 160.891 76.5914 160.603L101.93 150.258C102.784 149.909 103.384 151.116 102.592 151.587L79.0669 165.574C78.4104 165.964 78.6971 166.972 79.4608 166.958L106.826 166.466C107.747 166.449 107.871 167.791 106.963 167.944L79.9732 172.488C79.22 172.615 79.1233 173.658 79.8404 173.921L105.535 183.347C106.4 183.665 106.032 184.961 105.129 184.775L78.3206 179.263C77.5724 179.109 77.1054 180.047 77.679 180.551L98.2338 198.623C98.9258 199.231 98.1135 200.307 97.3389 199.808L74.3323 184.983C73.6902 184.569 72.9159 185.275 73.2686 185.953L85.9072 210.229C86.3327 211.046 85.1866 211.756 84.6447 211.011L68.5468 188.876C68.0976 188.259 67.1206 188.637 67.2047 189.396L70.2202 216.599C70.3218 217.515 68.9967 217.762 68.7606 216.872L61.7457 190.417C61.55 189.678 60.5022 189.678 60.3064 190.417L53.2915 216.872C53.0554 217.762 51.7304 217.515 51.8319 216.599L54.8474 189.396C54.9316 188.637 53.9545 188.259 53.5053 188.876L37.4075 211.011C36.8655 211.756 35.7194 211.046 36.1449 210.229L48.7835 185.953C49.1362 185.275 48.3619 184.569 47.7199 184.983L24.7132 199.808C23.9386 200.307 23.1263 199.231 23.8183 198.623L44.3731 180.551C44.9467 180.047 44.4797 179.109 43.7315 179.263L16.9232 184.775C16.0206 184.961 15.6517 183.665 16.5168 183.347L42.2117 173.921C42.9288 173.658 42.8321 172.615 42.0789 172.488L15.0895 167.944C14.1808 167.791 14.3052 166.449 15.2265 166.466L42.5913 166.958C43.355 166.972 43.6418 165.964 42.9852 165.574L19.4598 151.587C18.6678 151.116 19.2686 149.909 20.1217 150.258L45.4607 160.603C46.1678 160.891 46.7992 160.055 46.3281 159.454L29.4439 137.913C28.8754 137.188 29.8716 136.28 30.5413 136.913L50.4322 155.713C50.9873 156.237 51.8781 155.686 51.6559 154.955L43.6933 128.769C43.4252 127.888 44.6821 127.401 45.078 128.233L56.8345 152.949C57.1625 153.638 58.1925 153.446 58.2493 152.684L60.2836 125.391Z" fill="#FFB44A"/>
<circle cx="55.0709" cy="174.806" r="5.77012" fill="white"/>
<circle cx="67.5412" cy="171.641" r="5.95626" fill="white"/>
<circle cx="56.001" cy="176.108" r="3.72266" fill="black"/>
<circle cx="67.541" cy="173.13" r="3.72266" fill="black"/>
<path d="M59.6455 180.665C61.8838 182.247 63.1896 182.535 65.7853 179.897" stroke="#4E4B45" stroke-width="1.84195" stroke-linecap="round"/>
<path d="M94.7951 156.873L39.076 131.239L36.1596 114.048L31.4012 118.806L10.2188 57.7145L42.9134 11.0517L108.763 0L171.236 27.0153L200.554 80.8924L183.362 136.151L174.613 131.239L171.236 146.742L112.14 160.71L104.005 150.119L94.7951 156.873Z" fill="#DBE5FF" stroke="#8CACFF" stroke-width="1.53496"/>
<path d="M104.159 150.58C111.964 112.885 114.93 89.6841 114.597 40.0624M114.597 40.0624C141.579 67.7602 155.415 86.708 175.688 132.16M114.597 40.0624C147.834 48.2755 166.654 55.0576 201.322 80.1249M114.597 40.0624C142.747 27.6653 156.56 23.1112 170.93 27.4758M114.597 40.0624C115.65 17.7547 115.786 6.24563 109.531 0M114.597 40.0624C87.0034 17.6127 71.3197 10.1498 42.7604 10.8982M114.597 40.0624C66.7034 38.2044 45.1286 43.5221 10.6797 57.868M114.597 40.0624C83.9641 62.2851 66.4714 78.5297 34.7786 114.048" stroke="#8CACFF" stroke-width="1.53496"/>
<path d="M159.878 100.693L110.759 111.745L57.9564 88.4137L40.6113 46.8162L62.8683 11.8191L113.061 5.37231L158.343 25.9408L177.99 64.6218L159.878 100.693Z" stroke="#97ACFF" stroke-width="7.06082"/>
<path d="M48.9863 119.472L104.504 146.687M111.036 149L167.098 136.209" stroke="#97ACFF" stroke-width="6.25938"/>

<path d="M172.417 268.786C172.417 274.348 158.892 271.943 142.208 271.943C125.525 271.943 112 274.348 112 268.786C112 263.225 125.525 258.717 142.208 258.717C158.892 258.717 172.417 263.225 172.417 268.786Z" fill="#FFDFAA"/>
<path d="M112.66 265.4C112.306 265.616 112.194 266.078 112.41 266.433C112.627 266.787 113.089 266.899 113.443 266.682L113.052 266.041L112.66 265.4ZM113.052 266.041L113.443 266.682C130.197 256.452 155.133 256.165 171.255 266.671L171.665 266.041L172.075 265.411C155.432 254.567 129.871 254.89 112.66 265.4L113.052 266.041Z" fill="#FFCE7D"/>
<path d="M75.4166 230.786C75.4166 236.348 61.8919 233.943 45.2083 233.943C28.5247 233.943 15 236.348 15 230.786C15 225.225 28.5247 220.717 45.2083 220.717C61.8919 220.717 75.4166 225.225 75.4166 230.786Z" fill="#FFDFAA"/>
<path d="M15.6611 227.4C15.3069 227.616 15.1951 228.078 15.4114 228.433C15.6277 228.787 16.0902 228.899 16.4444 228.682L16.0527 228.041L15.6611 227.4ZM16.0527 228.041L16.4444 228.682C33.1979 218.452 58.1338 218.165 74.2556 228.671L74.6659 228.041L75.0761 227.411C58.4332 216.567 32.8716 216.89 15.6611 227.4L16.0527 228.041Z" fill="#FFCE7D"/>

</g>
<defs>
<clipPath id="clip0_704_597">
<rect width="392" height="825" fill="white"/>
</clipPath>
</defs>
</svg>
