<svg width="393" height="984" viewBox="0 0 393 984" fill="none" xmlns="http://www.w3.org/2000/svg">
<g clip-path="url(#clip0_693_92)">
<rect width="393" height="984" fill="#FFEFDA"/>
<g filter="url(#filter0_n_693_92)">
<path d="M40.566 98.1218C43.7578 103.684 250.14 103.684 257.586 98.1218C265.033 92.5593 241.174 61.8348 199.076 71.4953C164.539 53.3913 141.795 51.375 102.268 71.4953C60.9279 62.1406 37.3743 92.5593 40.566 98.1218Z" fill="#FFCCA7"/>
</g>
<rect x="-27.3301" y="198.516" width="717.824" height="482.865" fill="#D1EAFF"/>
<path d="M-115.924 380.126C-68.3317 196.971 450.399 174.613 743.619 357.295C1036.84 539.978 -157.768 1221.32 -115.924 380.126Z" fill="#FFEFDA" stroke="#FFDFAA" stroke-width="3.83607"/>
<ellipse cx="33.2522" cy="10.4849" rx="33.2522" ry="10.4849" transform="matrix(-1 0 0 1 386.917 522.752)" fill="#FFDFAA"/>
<path d="M376.999 501.574L335.224 486.535L327.362 533.478L371.685 533.31L372.515 528.351L374.279 527.967L376.379 519.483L372.633 518.175L373.704 511.784L377.56 512.43L378.117 505.047L376.557 504.219L376.999 501.574Z" fill="#FF7C30"/>
<g filter="url(#filter1_d_693_92)">
<path d="M337.98 486.996L335.335 486.553C337.936 488.462 333.044 527.292 327.437 533.716L330.081 534.159C333.539 528.394 339.773 495.906 337.98 486.996Z" fill="#FFAD7D"/>
</g>
<ellipse cx="23.91" cy="2.90495" rx="23.91" ry="2.90495" transform="matrix(-0.165167 0.986266 0.986266 0.165167 332.376 485.945)" fill="#FF5100"/>
<path d="M373.361 503.004L376.556 504.219L376.999 501.574L373.361 503.004Z" fill="#FF5100"/>
<path d="M369.117 528.349L372.515 528.351L371.684 533.31L369.117 528.349Z" fill="#FF5100"/>
<path d="M336.38 487.748C377.595 491.931 369.708 524.143 328.997 533.185" stroke="#60FF21" stroke-width="1.78766"/>
<path d="M-46.2967 293.973C-17.6854 233.064 341.971 195.945 467.938 297.179C593.904 398.413 -71.4515 573.717 -46.2967 293.973Z" fill="#FFEFDA" stroke="#FFDFAA" stroke-width="3.83607"/>
<path d="M47.5987 355.28C39.5775 347.259 21.4003 333.394 13.3144 327.464C9.05236 307.4 9.01357 286.164 11.7611 265.029C13.8282 249.128 17.4725 233.283 22.0819 218.037C26.9647 201.887 32.9305 186.408 39.2521 172.244C44.358 160.804 49.696 150.221 54.8829 140.836C60.9524 129.854 66.8149 120.51 71.8565 113.349L86.4112 125.963C81.2742 135.777 76.6882 145.548 72.6028 155.221C68.0529 165.995 64.124 176.649 60.7464 187.109C56.1183 201.442 52.5256 215.411 49.7896 228.826C46.4153 245.371 44.344 261.074 43.2403 275.578C40.5412 311.048 43.6288 339.351 47.5987 355.28Z" fill="#88746C"/>
<path d="M54.8829 140.836C60.9524 129.854 66.8149 120.51 71.8565 113.349L86.4112 125.963C81.2742 135.777 76.6882 145.548 72.6028 155.221M54.8829 140.836C56.1868 146.031 61.5561 156.18 72.6028 155.221M54.8829 140.836C49.696 150.221 44.358 160.804 39.2521 172.244M72.6028 155.221C68.0529 165.995 64.124 176.649 60.7464 187.109M39.2521 172.244C40.6128 178.557 46.8165 190.369 60.7464 187.109M39.2521 172.244C32.9305 186.408 26.9647 201.887 22.0819 218.037M60.7464 187.109C56.1183 201.442 52.5256 215.411 49.7896 228.826M22.0819 218.037C24.7385 224.27 33.9992 235.155 49.7896 228.826M22.0819 218.037C17.4725 233.283 13.8282 249.128 11.7611 265.029M49.7896 228.826C46.4153 245.371 44.344 261.073 43.2403 275.578M11.7611 265.029C9.01357 286.164 9.05236 307.4 13.3144 327.464C21.4003 333.394 39.5775 347.259 47.5987 355.28C43.6288 339.351 40.5412 311.048 43.2403 275.578M11.7611 265.029C14.1311 271.342 23.7448 282.291 43.2403 275.578" stroke="#78645D" stroke-width="2.39754"/>
<path d="M94.0903 112.491C132.598 109.465 168.362 169.949 109.237 200.165L111.146 186.581C114.128 184.005 120.593 177.426 122.594 171.718L111.082 181.705L109.475 166.505C111.908 164.288 117.236 157.899 119.084 150.073L108.281 160.347L104.5 145.964C106.101 143.007 109.297 136.605 109.271 134.655L102.234 140.779L89.917 118.133L75.2338 109.269L45.7773 121.614L43.4278 114.358C42.4642 114.822 41.1874 120.533 40.6695 123.33C36.1427 124.64 27.5985 131.538 23.8923 134.824C23.47 133.566 22.1269 126.963 21.5081 123.819C19.9801 125.102 18.6217 134.145 18.1336 138.507L10.574 145.68C9.14442 144.132 8.32004 138.188 8.08654 135.41C6.77207 138.37 7.62748 144.892 8.21949 147.783L-0.271783 160.254C-17.6243 108.097 31.696 86.0679 56.3 97.8396L48.9901 93.4269L50.1629 90.4096L47.6506 92.3027C45.005 90.8826 35.1102 87.8573 31.3597 87.0182C31.1898 86.0959 36.5542 81.1345 38.7327 78.5081C36.53 78.1985 29.4903 83.4486 26.7707 86.3733L14.3692 85.3791C14.6529 83.36 17.9421 77.2708 19.4046 74.8558C15.3802 75.7877 10.4923 82.7752 8.86543 85.9159C0.474573 84.8864 -10.7507 90.0848 -14.9474 92.8643C9.28515 28.3225 71.665 58.6151 79.0479 100.646C78.8011 84.2889 63.9694 63.6484 56.5845 55.3727L64.8326 51.2908L55.1388 53.6721L45.0025 45.8833C46.8631 43.2996 52.4103 41.1217 54.9513 40.3556C50.2086 38.9403 43.6121 41.5698 40.9067 43.0615L25.7657 36.2539C78.9775 11.9114 95.9887 53.0491 92.3255 79.114C96.8401 66.6842 104.696 55.3149 117.708 51.9833C142.251 45.6991 153.396 64.4238 155.901 74.5718C151.388 72.5897 143.533 72.8959 140.17 73.2968C137.645 69.9471 133.219 67.7027 131.321 66.9993C135.692 71.0578 136.74 75.0609 136.717 76.5552L122.153 81.6214L115.688 74.3485L120.739 82.3586L98.7113 98.2406C118.715 84.5764 137.86 85.5199 145.236 87.8603C181.409 105.373 173.478 138.188 164.99 152.407C164.502 149.493 160.065 142.169 157.908 138.87C160.48 135.488 160.356 127.671 159.972 124.186C159.713 130.289 156.037 134.427 154.231 135.733L144.588 125.767C145.673 123.373 144.848 113.263 144.188 111.298L140.339 123.016C134.899 118.79 124.467 115.449 119.79 114.421L118.309 108.971C118.649 110.816 117.969 113.166 117.587 114.111C111.331 111.482 100.81 111.784 94.0903 112.491Z" fill="#339426"/>
<path d="M90.6101 112.939C130.361 105.798 170.14 169.04 109.237 200.165L111.146 186.581C114.128 184.005 120.593 177.426 122.594 171.718L111.082 181.705L109.475 166.505C111.908 164.288 117.236 157.899 119.084 150.073L108.281 160.347L104.5 145.964C106.101 143.007 109.297 136.605 109.271 134.655L102.234 140.779L89.917 118.133M90.6101 112.939L89.8878 118.079L89.917 118.133M90.6101 112.939C96.4799 112.018 110.093 110.962 117.587 114.111C117.969 113.166 118.649 110.816 118.309 108.971L119.79 114.421C124.467 115.449 134.899 118.79 140.339 123.016L144.188 111.298C144.848 113.263 145.673 123.373 144.588 125.767L154.231 135.733C156.037 134.427 159.713 130.289 159.972 124.186C160.356 127.671 160.48 135.488 157.908 138.87C160.065 142.169 164.502 149.493 164.99 152.407C173.478 138.188 181.409 105.373 145.236 87.8603C137.471 85.3963 116.66 84.4807 95.5363 100.53M90.6101 112.939L91.5951 110.458M95.5363 100.53L120.739 82.3586L115.688 74.3485L122.153 81.6214L136.717 76.5552C136.74 75.0609 135.692 71.0578 131.321 66.9993C133.219 67.7027 137.645 69.9471 140.17 73.2968C143.533 72.8959 151.388 72.5897 155.901 74.5718C153.396 64.4238 142.251 45.6991 117.708 51.9833C104.696 55.3149 96.8401 66.6842 92.3255 79.114M95.5363 100.53L91.5951 110.458M91.5951 110.458L86.9329 109.803C86.9365 107.958 87.0157 105.89 87.1871 103.662M92.3255 79.114C95.9887 53.0491 78.9775 11.9114 25.7657 36.2539L40.9067 43.0615C43.6121 41.5698 50.2086 38.9403 54.9513 40.3556C52.4103 41.1217 46.8631 43.2996 45.0025 45.8833L55.1388 53.6721L64.8326 51.2908L56.5845 55.3727C63.9694 63.6484 78.8011 84.2889 79.0479 100.646M92.3255 79.114C89.2678 87.5327 87.7429 96.4378 87.1871 103.662M79.0479 100.646L87.1871 103.662M79.0479 100.646C71.665 58.6151 9.28515 28.3225 -14.9474 92.8643C-10.7507 90.0848 0.474573 84.8864 8.86543 85.9159C10.4923 82.7752 15.3802 75.7877 19.4046 74.8558C17.9421 77.2708 14.653 83.36 14.3692 85.3791L26.7707 86.3733C29.4903 83.4486 36.53 78.1985 38.7327 78.5081C36.5542 81.1344 31.1898 86.0959 31.3597 87.0182C35.1102 87.8573 45.005 90.8826 47.6506 92.3027L50.1629 90.4096L48.9901 93.4269L60.5506 100.405M89.917 118.133L75.2338 109.269M60.5506 100.405C38.0362 83.4641 -18.695 104.879 -0.271784 160.254L8.21949 147.783C7.62748 144.892 6.77207 138.37 8.08654 135.41C8.32004 138.188 9.14442 144.132 10.574 145.68L18.1336 138.507C18.6217 134.145 19.9801 125.102 21.5081 123.819C22.1269 126.963 23.47 133.566 23.8923 134.824C27.5985 131.538 36.1427 124.64 40.6695 123.33C41.1874 120.533 42.4642 114.822 43.4278 114.358L45.7773 121.614L75.2338 109.269M60.5506 100.405L75.2338 109.269" stroke="#1E6315" stroke-width="1.43852"/>
<circle cx="66.1234" cy="95.4299" r="17.451" fill="#AC7B49" stroke="#A26E3A" stroke-width="1.43852"/>
<circle cx="93.7705" cy="100.17" r="17.7143" fill="#BB8855" stroke="#A56F3A" stroke-width="1.43852"/>
<circle cx="82.4461" cy="81.7365" r="12.4476" fill="#BE9163" stroke="#9B632E" stroke-width="1.43852"/>
<path d="M191.805 358.131C191.805 379.184 140.603 370.079 77.4418 370.079C14.281 370.079 -36.9209 379.184 -36.9209 358.131C-36.9209 337.077 14.281 320.01 77.4418 320.01C140.603 320.01 191.805 337.077 191.805 358.131Z" fill="#FFDFAA"/>
<path d="M-34.4213 345.309C-35.7622 346.128 -36.1854 347.878 -35.3666 349.219C-34.5478 350.56 -32.797 350.983 -31.456 350.165L-32.9387 347.737L-34.4213 345.309ZM-32.9387 347.737L-31.456 350.165C31.9696 311.434 126.372 310.349 187.406 350.12L188.959 347.737L190.512 345.353C127.505 304.297 30.7341 305.522 -34.4213 345.309L-32.9387 347.737Z" fill="#FFCE7D"/>
<path d="M206.669 359.131C206.669 367.032 187.455 363.615 163.753 363.615C140.051 363.615 120.837 367.032 120.837 359.131C120.837 351.231 140.051 344.826 163.753 344.826C187.455 344.826 206.669 351.231 206.669 359.131Z" fill="#FFDFAA"/>
<path d="M121.772 354.32C121.269 354.627 121.11 355.284 121.418 355.787C121.725 356.291 122.382 356.449 122.885 356.142L122.329 355.231L121.772 354.32ZM122.329 355.231L122.885 356.142C146.686 341.608 182.112 341.201 205.016 356.125L205.599 355.231L206.182 354.337C182.537 338.93 146.223 339.389 121.772 354.32L122.329 355.231Z" fill="#FFCE7D"/>
<ellipse cx="293.7" cy="360.631" rx="58.2603" ry="7.71333" fill="#FFDFAA"/>
<path d="M258.5 700.5C404.5 651.622 505.121 739.117 596 700.5C673.304 667.651 645.424 659.818 705 600V924H-7V688.5C52 741.5 143.5 739 258.5 700.5Z" fill="#D1EAFF" stroke="#92CBFC" stroke-width="3.83607"/>
<path d="M258.5 760.5C404.5 711.622 505.121 799.117 596 760.5C673.304 727.651 645.424 719.818 705 660V984H-7V748.5C52 801.5 143.5 799 258.5 760.5Z" fill="#D1EAFF"/>
<path d="M48.6055 447.66C48.2116 446.744 46.8321 447.219 47.0859 448.184L54.6216 476.832C54.8319 477.631 53.8457 478.191 53.2669 477.601L32.5265 456.451C31.8282 455.739 30.7135 456.68 31.2985 457.488L48.6742 481.479C49.1591 482.149 48.4418 483.027 47.6889 482.686L20.7086 470.456C19.8002 470.044 19.1008 471.324 19.9381 471.866L44.8072 487.961C45.5013 488.41 45.1497 489.488 44.3243 489.442L14.7479 487.784C13.7521 487.728 13.5625 489.175 14.539 489.378L43.5428 495.402C44.3522 495.57 44.4139 496.702 43.6275 496.957L15.4496 506.096C14.5009 506.403 14.8465 507.821 15.8304 507.657L45.0517 502.797C45.8672 502.661 46.3338 503.695 45.6927 504.217L22.7187 522.917C21.9452 523.547 22.7795 524.743 23.6378 524.236L49.1302 509.147C49.8416 508.726 50.6501 509.522 50.2408 510.24L35.5735 535.977C35.0797 536.843 36.2901 537.658 36.9069 536.874L55.2274 513.596C55.7387 512.946 56.7798 513.396 56.6576 514.214L52.278 543.511C52.1306 544.497 53.5535 544.82 53.8455 543.866L62.5199 515.542C62.762 514.751 63.8952 514.794 64.0766 515.601L70.5761 544.502C70.795 545.475 72.2382 545.261 72.1661 544.267L70.0228 514.722C69.963 513.897 71.0352 513.528 71.4957 514.214L87.9966 538.816C88.5522 539.644 89.8209 538.924 89.3942 538.022L76.7227 511.246C76.3691 510.499 77.2356 509.768 77.913 510.241L102.187 527.221C103.004 527.792 103.927 526.662 103.203 525.976L81.7149 505.586C81.1152 505.017 81.6589 504.021 82.4617 504.219L111.23 511.283C112.198 511.52 112.651 510.133 111.728 509.755L84.325 498.504C83.5603 498.19 83.7078 497.065 84.5276 496.959L113.905 493.154C114.894 493.026 114.815 491.569 113.818 491.549L84.2007 490.957C83.3742 490.941 83.1055 489.839 83.8316 489.444L109.851 475.283C110.727 474.806 110.126 473.477 109.189 473.818L81.3586 483.965C80.5819 484.248 79.9334 483.318 80.4677 482.687L99.6143 460.084C100.259 459.323 99.2189 458.3 98.4685 458.957L76.1826 478.472C75.5607 479.017 74.6199 478.383 74.8902 477.602L84.5786 449.609C84.9048 448.666 83.5654 448.088 83.1031 448.972L69.3718 475.22C68.9886 475.952 67.8826 475.702 67.8525 474.875L66.7741 445.272C66.7378 444.276 65.2799 444.22 65.1681 445.211L61.846 474.647C61.7533 475.469 60.6314 475.635 60.3049 474.875L48.6055 447.66Z" fill="#FFB44A"/>
<path d="M51.6078 495.88C52.0363 491.321 53.4188 489.631 58.7307 491.882M67.9488 489.48C70.2085 486.558 71.9392 485.992 74.1887 489.65" stroke="black" stroke-width="2.92237" stroke-linecap="round"/>
<path d="M59.9672 499.956C60.9252 496.552 68.6994 494.441 70.6693 497.377C72.3214 499.839 70.5182 505.369 67.8243 506.608C64.6121 508.085 59.0091 503.359 59.9672 499.956Z" fill="black"/>
<circle cx="174.151" cy="472.034" r="32.7098" transform="rotate(-17.4864 174.151 472.034)" fill="#FF585B"/>
<path d="M167.264 473.503C170.927 481.798 179.587 481.519 179.226 471.485" stroke="#A40003" stroke-width="3.31282" stroke-linecap="round"/>
<path d="M154.656 463.477L165.039 467.555L155.454 472.675" stroke="black" stroke-width="3.01166" stroke-linecap="round"/>
<path d="M187.459 457.257L179.384 464.953L190.193 466.074" stroke="black" stroke-width="3.01166" stroke-linecap="round"/>
<path d="M228 487.196C228.441 484.992 230.791 484.963 237.256 483.67L308.95 484.552C312.133 485.678 317.324 486.755 313.945 488.812C289.263 496.305 230.057 493.954 228 487.196Z" fill="#FFDFAA"/>
<path d="M246.656 448.117C246.656 445.179 258.409 426.668 260.76 426.668C261.714 426.668 265.089 430.908 268.396 435.629C271.041 430.487 277.949 414.18 280.74 413.005C281.769 412.571 297.195 443.122 296.46 444.297C296.214 444.691 294.708 444.913 292.54 445.032V456.197H295.285V459.87H298.37V456.197H302.484V459.87H304.1V456.197H308.948V484.552V487.049H298.811C286.369 489.273 275.905 490.03 267.66 490.029C257.59 490.03 250.838 488.9 247.832 487.931C237.489 487.931 236.47 486.168 237.254 485.286V483.67V457.813H240.633V461.045H244.306V457.372H248.713V448.667C247.52 448.505 246.769 448.32 246.656 448.117Z" fill="#FFDFAA"/>
<path d="M268.396 435.629C271.041 430.487 277.949 414.18 280.74 413.005C281.769 412.571 297.195 443.122 296.46 444.297C296.214 444.691 294.708 444.913 292.54 445.032M274.428 445.032C271.072 439.024 262.388 426.668 260.76 426.668C258.409 426.668 246.656 445.179 246.656 448.117C246.769 448.32 247.52 448.505 248.713 448.667M274.428 445.032C275.313 446.616 275.828 447.759 275.745 448.117C275.663 448.476 274.612 448.746 272.954 448.94M274.428 445.032C279.132 445.032 287.572 445.304 292.54 445.032M292.54 445.032V456.197H291.612H295.285V459.87H298.37V456.197H302.484V459.87H304.1V456.197H308.948V484.552V487.049H298.811M298.811 487.049L297.782 480.879H291.612V475.296H282.503V471.182H272.954V448.94M298.811 487.049C271.191 491.985 253.316 489.694 247.832 487.931M298.811 487.049C271.147 491.985 253.298 489.694 247.832 487.931M272.954 448.94C267.135 449.622 253.842 449.362 248.713 448.667M248.713 448.667V461.045H251.945V457.813H255.03V471.182H247.832V487.931M247.832 487.931C237.489 487.931 236.47 486.168 237.254 485.286M247.832 487.931C237.58 487.931 236.508 486.168 237.254 485.286M248.713 457.372H244.306V461.045H240.633V457.813H237.254V483.67V485.286" stroke="#FFCE7D" stroke-width="1.14557"/>
<path d="M265.607 489.836C266.048 472.941 254.442 476.026 255.925 489.21L260.172 489.836H265.607Z" fill="#FFD288"/>
<path d="M264.003 467.761H259.743V463.207C260.771 461.297 263.122 461.297 264.003 463.207V467.761Z" fill="#FFD288"/>
<path d="M264.003 457.772H259.743V453.218C260.771 451.308 263.122 451.308 264.003 453.218V457.772Z" fill="#FFD288"/>
<path d="M284.718 466.293H277.666V458.36C279.282 454.393 282.955 454.246 284.718 458.36V466.293Z" fill="#FFD288"/>
<circle cx="25.5507" cy="25.5507" r="25.5507" transform="matrix(-1 0 0 1 390.707 2)" fill="#FFD9A7"/>
<g filter="url(#filter2_n_693_92)">
<path d="M312.089 53.2036C313.072 55.5988 376.621 55.5988 378.914 53.2036C381.207 50.8085 373.86 37.5788 360.897 41.7386C350.263 33.9432 343.259 33.075 331.088 41.7386C318.359 37.7105 311.106 50.8085 312.089 53.2036Z" fill="#FFCCA7"/>
</g>
<path d="M16.9995 618.69C16.9995 625.698 34.0434 622.667 55.0681 622.667C76.0928 622.667 93.1367 625.698 93.1367 618.69C93.1367 611.681 76.0928 606 55.0681 606C34.0434 606 16.9995 611.681 16.9995 618.69Z" fill="#FFDFAA"/>
<path d="M67.4152 637.406C67.4152 641.51 77.3958 639.736 89.7076 639.736C102.019 639.736 112 641.51 112 637.406C112 633.303 102.019 629.976 89.7076 629.976C77.3958 629.976 67.4152 633.303 67.4152 637.406Z" fill="#FFDFAA"/>
<path d="M111.513 634.907C111.774 635.067 111.857 635.408 111.697 635.669C111.538 635.931 111.196 636.013 110.935 635.854L111.224 635.38L111.513 634.907ZM111.224 635.38L110.935 635.854C98.5715 628.304 80.1699 628.093 68.2727 635.845L67.9699 635.38L67.6672 634.916C79.949 626.913 98.8123 627.152 111.513 634.907L111.224 635.38Z" fill="#FFCE7D"/>
</g>
<defs>
<filter id="filter0_n_693_92" x="40.2783" y="57.1512" width="218.659" height="45.1425" filterUnits="userSpaceOnUse" color-interpolation-filters="sRGB">
<feFlood flood-opacity="0" result="BackgroundImageFix"/>
<feBlend mode="normal" in="SourceGraphic" in2="BackgroundImageFix" result="shape"/>
<feTurbulence type="fractalNoise" baseFrequency="1.4177320003509521 1.4177320003509521" stitchTiles="stitch" numOctaves="3" result="noise" seed="344" />
<feColorMatrix in="noise" type="luminanceToAlpha" result="alphaNoise" />
<feComponentTransfer in="alphaNoise" result="coloredNoise1">
<feFuncA type="discrete" tableValues="1 1 1 1 1 1 1 1 1 1 1 1 1 1 1 1 1 1 1 1 1 1 1 1 1 1 1 1 1 1 1 1 1 1 1 1 1 1 1 1 1 1 1 1 1 1 1 1 1 1 1 0 0 0 0 0 0 0 0 0 0 0 0 0 0 0 0 0 0 0 0 0 0 0 0 0 0 0 0 0 0 0 0 0 0 0 0 0 0 0 0 0 0 0 0 0 0 0 0 0 "/>
</feComponentTransfer>
<feComposite operator="in" in2="shape" in="coloredNoise1" result="noise1Clipped" />
<feFlood flood-color="#FFEADB" result="color1Flood" />
<feComposite operator="in" in2="noise1Clipped" in="color1Flood" result="color1" />
<feMerge result="effect1_noise_693_92">
<feMergeNode in="shape" />
<feMergeNode in="color1" />
</feMerge>
</filter>
<filter id="filter1_d_693_92" x="327.258" y="486.553" width="11.2179" height="48.6787" filterUnits="userSpaceOnUse" color-interpolation-filters="sRGB">
<feFlood flood-opacity="0" result="BackgroundImageFix"/>
<feColorMatrix in="SourceAlpha" type="matrix" values="0 0 0 0 0 0 0 0 0 0 0 0 0 0 0 0 0 0 127 0" result="hardAlpha"/>
<feOffset dy="0.893831"/>
<feGaussianBlur stdDeviation="0.0893831"/>
<feComposite in2="hardAlpha" operator="out"/>
<feColorMatrix type="matrix" values="0 0 0 0 1 0 0 0 0 0.317647 0 0 0 0 0 0 0 0 0.37 0"/>
<feBlend mode="normal" in2="BackgroundImageFix" result="effect1_dropShadow_693_92"/>
<feBlend mode="normal" in="SourceGraphic" in2="effect1_dropShadow_693_92" result="shape"/>
</filter>
<filter id="filter2_n_693_92" x="312" y="35.5622" width="67.3301" height="19.4378" filterUnits="userSpaceOnUse" color-interpolation-filters="sRGB">
<feFlood flood-opacity="0" result="BackgroundImageFix"/>
<feBlend mode="normal" in="SourceGraphic" in2="BackgroundImageFix" result="shape"/>
<feTurbulence type="fractalNoise" baseFrequency="3.052750825881958 3.052750825881958" stitchTiles="stitch" numOctaves="3" result="noise" seed="6437" />
<feColorMatrix in="noise" type="luminanceToAlpha" result="alphaNoise" />
<feComponentTransfer in="alphaNoise" result="coloredNoise1">
<feFuncA type="discrete" tableValues="1 1 1 1 1 1 1 1 1 1 1 1 1 1 1 1 1 1 1 1 1 1 1 1 1 1 1 1 1 1 1 1 1 1 1 1 1 1 1 1 1 1 1 1 1 1 1 1 1 1 1 0 0 0 0 0 0 0 0 0 0 0 0 0 0 0 0 0 0 0 0 0 0 0 0 0 0 0 0 0 0 0 0 0 0 0 0 0 0 0 0 0 0 0 0 0 0 0 0 0 "/>
</feComponentTransfer>
<feComposite operator="in" in2="shape" in="coloredNoise1" result="noise1Clipped" />
<feFlood flood-color="#FFEADB" result="color1Flood" />
<feComposite operator="in" in2="noise1Clipped" in="color1Flood" result="color1" />
<feMerge result="effect1_noise_693_92">
<feMergeNode in="shape" />
<feMergeNode in="color1" />
</feMerge>
</filter>
<clipPath id="clip0_693_92">
<rect width="393" height="984" fill="white"/>
</clipPath>
</defs>
</svg>
