<svg width="1440" height="1464" viewBox="0 0 1440 1464" fill="none" xmlns="http://www.w3.org/2000/svg">
<g clip-path="url(#clip0_496_88)">
<rect width="1440" height="1464" fill="#FFEFDA"/>
<circle cx="114.737" cy="114.737" r="114.737" transform="matrix(-1 0 0 1 1290.21 51)" fill="#FFD9A7"/>
<g filter="url(#filter0_n_496_88)">
<path d="M937.174 280.933C941.587 291.689 1226.96 291.689 1237.26 280.933C1247.55 270.178 1214.56 210.769 1156.35 229.449C1108.6 194.443 1077.15 190.544 1022.49 229.449C965.329 211.36 932.761 270.178 937.174 280.933Z" fill="#FFCCA7"/>
</g>
<g filter="url(#filter1_n_496_88)">
<path d="M84.5997 162.921C91.256 174.521 521.659 174.521 537.189 162.921C552.718 151.32 502.962 87.2452 415.167 107.392C343.141 69.6365 295.709 65.4316 213.277 107.392C127.064 87.883 77.9435 151.32 84.5997 162.921Z" fill="#FFCCA7"/>
</g>
<rect x="-57" y="414" width="1489" height="1007" fill="#D1EAFF"/>
<path d="M-240.767 813.54C-141.961 406.347 934.963 356.64 1543.71 762.782C2152.46 1168.92 -327.637 2683.7 -240.767 813.54Z" fill="#FFEFDA" stroke="#FFDFAA" stroke-width="8"/>
<ellipse cx="119.5" cy="1275.07" rx="79.5" ry="25.0676" fill="#FFDFAA"/>
<path d="M63.7092 1199.37L163.587 1163.41L182.382 1275.64L76.4157 1275.24L74.4303 1263.39L70.2138 1262.47L65.1917 1242.18L74.1479 1239.06L71.5889 1223.78L62.368 1225.32L61.0368 1207.67L64.7681 1205.69L63.7092 1199.37Z" fill="#FF7C30"/>
<g filter="url(#filter2_d_496_88)">
<path d="M157.001 1164.51L163.324 1163.45C157.105 1168.02 168.801 1260.85 182.207 1276.21L175.884 1277.27C167.617 1263.49 152.714 1185.82 157.001 1164.51Z" fill="#FFAD7D"/>
</g>
<ellipse cx="172.985" cy="1219.53" rx="57.1644" ry="6.94521" transform="rotate(80.4931 172.985 1219.53)" fill="#FF5100"/>
<path d="M72.4074 1202.79L64.7685 1205.69L63.7096 1199.37L72.4074 1202.79Z" fill="#FF5100"/>
<path d="M82.555 1263.38L74.4308 1263.39L76.4162 1275.24L82.555 1263.38Z" fill="#FF5100"/>
<path d="M160.823 1166.31C62.2858 1176.31 81.1414 1253.33 178.473 1274.94" stroke="#60FF21" stroke-width="4.27397"/>
<path d="M-96.5474 606.816C-36.8796 479.792 713.174 402.381 975.873 613.501C1238.57 824.622 -149.007 1190.21 -96.5474 606.816Z" fill="#FFEFDA" stroke="#FFDFAA" stroke-width="8"/>
<path d="M431 748.958C431 765.434 390.929 758.309 341.5 758.309C292.071 758.309 252 765.434 252 748.958C252 732.481 292.071 719.124 341.5 719.124C390.929 719.124 431 732.481 431 748.958Z" fill="#FFDFAA"/>
<path d="M253.956 738.923C252.907 739.564 252.576 740.934 253.217 741.984C253.857 743.033 255.228 743.364 256.277 742.724L255.117 740.823L253.956 738.923ZM255.117 740.823L256.277 742.724C305.914 712.413 379.793 711.564 427.558 742.689L428.774 740.823L429.989 738.958C380.68 706.827 304.947 707.786 253.956 738.923L255.117 740.823Z" fill="#FFCE7D"/>
<ellipse cx="612.5" cy="752.086" rx="121.5" ry="16.0859" fill="#FFDFAA"/>
<path d="M571 1374.5C774.419 1272.36 875.222 1418.9 1064 1360.5C1224.58 1310.82 1319.25 1238.47 1443 1148V1638H-36L-5 1405.5C84.5 1503 350.156 1459.2 571 1374.5Z" fill="#D1EAFF" stroke="#92CBFC" stroke-width="8"/>
<path d="M1062.1 389.758C1062 388.396 1060 388.396 1059.9 389.757L1056.89 430.192C1056.8 431.32 1055.28 431.605 1054.79 430.583L1037.37 393.968C1036.79 392.736 1034.93 393.457 1035.32 394.763L1047.12 433.556C1047.45 434.638 1046.13 435.455 1045.31 434.678L1015.84 406.827C1014.85 405.889 1013.37 407.235 1014.21 408.309L1039.23 440.221C1039.92 441.111 1038.99 442.35 1037.94 441.922L1000.4 426.597C999.138 426.081 998.248 427.869 999.422 428.566L1034.27 449.287C1035.25 449.865 1034.82 451.358 1033.69 451.338L993.15 450.608C991.785 450.584 991.601 452.572 992.947 452.799L1032.93 459.53C1034.05 459.718 1034.19 461.264 1033.13 461.653L995.062 475.617C993.78 476.088 994.326 478.008 995.664 477.733L1035.38 469.567C1036.49 469.339 1037.18 470.728 1036.33 471.475L1005.88 498.248C1004.85 499.149 1006.06 500.742 1007.2 500.003L1041.29 478.041C1042.24 477.428 1043.39 478.474 1042.86 479.478L1024.14 515.442C1023.51 516.653 1025.21 517.704 1026.01 516.6L1049.86 483.809C1050.52 482.894 1051.97 483.454 1051.85 484.579L1047.38 524.878C1047.23 526.235 1049.19 526.602 1049.54 525.283L1059.93 486.091C1060.22 484.997 1061.78 484.997 1062.07 486.091L1072.46 525.283C1072.81 526.602 1074.77 526.235 1074.62 524.878L1070.15 484.579C1070.03 483.454 1071.48 482.894 1072.14 483.809L1095.99 516.6C1096.79 517.704 1098.49 516.653 1097.86 515.442L1079.14 479.478C1078.61 478.474 1079.76 477.428 1080.71 478.041L1114.8 500.003C1115.94 500.742 1117.15 499.149 1116.12 498.248L1085.67 471.476C1084.82 470.728 1085.51 469.339 1086.62 469.567L1126.34 477.733C1127.67 478.008 1128.22 476.088 1126.94 475.617L1088.87 461.653C1087.81 461.264 1087.95 459.718 1089.07 459.53L1129.05 452.799C1130.4 452.572 1130.21 450.584 1128.85 450.608L1088.31 451.338C1087.18 451.358 1086.75 449.865 1087.73 449.287L1122.58 428.566C1123.75 427.869 1122.86 426.081 1121.6 426.597L1084.06 441.922C1083.01 442.35 1082.08 441.111 1082.77 440.221L1107.79 408.309C1108.63 407.235 1107.15 405.889 1106.16 406.827L1076.69 434.678C1075.87 435.455 1074.55 434.638 1074.88 433.556L1086.68 394.763C1087.07 393.457 1085.21 392.736 1084.63 393.968L1067.21 430.583C1066.72 431.605 1065.2 431.32 1065.11 430.192L1062.1 389.758Z" fill="#FFB44A"/>
<path d="M1044.5 453.5C1047.09 447.791 1049.63 446.22 1055.5 451.5M1068.5 452.5C1072.73 449.725 1075.22 449.763 1076.5 455.5" stroke="black" stroke-width="4" stroke-linecap="round"/>
<path d="M1053.5 462.5C1056.26 458.522 1067.26 459.254 1068.5 463.932C1069.54 467.854 1064.74 474.208 1060.7 474.61C1055.89 475.091 1050.74 466.478 1053.5 462.5Z" fill="black"/>
<circle cx="1238.94" cy="475.939" r="44.7717" transform="rotate(1.51364 1238.94 475.939)" fill="#FF585B"/>
<path d="M1229.37 474.772C1230.42 487.139 1241.75 490.637 1245.75 477.49" stroke="#A40003" stroke-width="4.53444" stroke-linecap="round"/>
<path d="M1217.52 456.178L1229.14 466.083L1214.46 468.437" stroke="black" stroke-width="4.12221" stroke-linecap="round"/>
<path d="M1262.75 462.745L1248.87 469.107L1262.36 475.375" stroke="black" stroke-width="4.12221" stroke-linecap="round"/>
<path d="M100 1132.73C100.919 1128.14 105.821 1128.08 119.302 1125.38L268.818 1127.22C275.456 1129.57 286.282 1131.81 279.235 1136.1C227.762 1151.73 104.289 1146.83 100 1132.73Z" fill="#FFDFAA"/>
<path d="M138.911 1051.24C138.911 1045.11 163.422 1006.5 168.324 1006.5C170.312 1006.5 177.352 1015.35 184.249 1025.19C189.764 1014.47 204.171 980.461 209.992 978.01C212.137 977.106 244.307 1040.82 242.775 1043.27C242.262 1044.09 239.121 1044.55 234.6 1044.8V1068.09H240.324V1075.75H246.758V1068.09H255.337V1075.75H258.707V1068.09H268.818V1127.22V1132.43H247.677C221.731 1137.06 199.909 1138.64 182.714 1138.64C161.713 1138.64 147.632 1136.29 141.362 1134.27C119.792 1134.27 117.668 1130.59 119.302 1128.75V1125.38V1071.46H126.349V1078.2H134.009V1070.54H143.2V1052.38C140.712 1052.04 139.146 1051.66 138.911 1051.24Z" fill="#FFDFAA"/>
<path d="M184.249 1025.19C189.764 1014.47 204.171 980.461 209.992 978.01C212.137 977.106 244.307 1040.82 242.775 1043.27C242.262 1044.09 239.121 1044.55 234.6 1044.8M196.828 1044.8C189.828 1032.27 171.718 1006.5 168.324 1006.5C163.422 1006.5 138.911 1045.11 138.911 1051.24C139.146 1051.66 140.712 1052.04 143.2 1052.38M196.828 1044.8C198.674 1048.1 199.747 1050.49 199.575 1051.24C199.402 1051.98 197.211 1052.55 193.754 1052.95M196.828 1044.8C206.638 1044.8 224.24 1045.37 234.6 1044.8M234.6 1044.8V1068.09H232.665H240.324V1075.75H246.758V1068.09H255.337V1075.75H258.707V1068.09H268.818V1127.22V1132.43H247.677M247.677 1132.43L245.533 1119.56H232.665V1107.92H213.669V1099.34H193.754V1052.95M247.677 1132.43C190.077 1142.72 152.8 1137.94 141.362 1134.27M247.677 1132.43C189.986 1142.72 152.762 1137.94 141.362 1134.27M193.754 1052.95C181.619 1054.37 153.896 1053.83 143.2 1052.38M143.2 1052.38V1078.2H149.941V1071.46H156.375V1099.34H141.362V1134.27M141.362 1134.27C119.792 1134.27 117.668 1130.59 119.302 1128.75M141.362 1134.27C119.981 1134.27 117.747 1130.59 119.302 1128.75M143.2 1070.54H134.009V1078.2H126.349V1071.46H119.302V1125.38V1128.75" stroke="#FFCE7D" stroke-width="2.38904"/>
<path d="M178.435 1138.24C179.354 1103.01 155.149 1109.44 158.242 1136.93L167.098 1138.24H178.435Z" fill="#FFD288"/>
<path d="M175.089 1092.2H166.204V1082.7C168.349 1078.72 173.251 1078.72 175.089 1082.7V1092.2Z" fill="#FFD288"/>
<path d="M175.089 1071.37H166.204V1061.87C168.349 1057.89 173.251 1057.89 175.089 1061.87V1071.37Z" fill="#FFD288"/>
<path d="M218.289 1089.14H203.583V1072.6C206.953 1064.32 214.613 1064.02 218.289 1072.6V1089.14Z" fill="#FFD288"/>
<path d="M1397 855.635C1397 876.069 1347.3 867.232 1286 867.232C1224.7 867.232 1175 876.069 1175 855.635C1175 835.2 1224.7 818.635 1286 818.635C1347.3 818.635 1397 835.2 1397 855.635Z" fill="#FFDFAA"/>
<path d="M1177.43 843.19C1176.13 843.985 1175.71 845.684 1176.51 846.985C1177.3 848.287 1179 848.698 1180.3 847.903L1178.87 845.546L1177.43 843.19ZM1178.87 845.546L1180.3 847.903C1241.87 810.311 1333.49 809.258 1392.73 847.86L1394.24 845.546L1395.75 843.233C1334.59 803.384 1240.67 804.573 1177.43 843.19L1178.87 845.546Z" fill="#FFCE7D"/>
<path d="M1250 910.21C1250 922.176 1220.9 917.001 1185 917.001C1149.1 917.001 1120 922.176 1120 910.21C1120 898.243 1149.1 888.543 1185 888.543C1220.9 888.543 1250 898.243 1250 910.21Z" fill="#FFDFAA"/>
<path d="M1121.42 902.922C1120.66 903.387 1120.42 904.382 1120.88 905.145C1121.35 905.907 1122.34 906.147 1123.11 905.682L1122.26 904.302L1121.42 902.922ZM1122.26 904.302L1123.11 905.682C1159.16 883.669 1212.81 883.052 1247.5 905.657L1248.38 904.302L1249.27 902.947C1213.46 879.612 1158.45 880.308 1121.42 902.922L1122.26 904.302Z" fill="#FFCE7D"/>
</g>
<defs>
<filter id="filter0_n_496_88" x="936.776" y="201.713" width="302.349" height="87.2869" filterUnits="userSpaceOnUse" color-interpolation-filters="sRGB">
<feFlood flood-opacity="0" result="BackgroundImageFix"/>
<feBlend mode="normal" in="SourceGraphic" in2="BackgroundImageFix" result="shape"/>
<feTurbulence type="fractalNoise" baseFrequency="0.67981421947479248 0.67981421947479248" stitchTiles="stitch" numOctaves="3" result="noise" seed="6437" />
<feColorMatrix in="noise" type="luminanceToAlpha" result="alphaNoise" />
<feComponentTransfer in="alphaNoise" result="coloredNoise1">
<feFuncA type="discrete" tableValues="1 1 1 1 1 1 1 1 1 1 1 1 1 1 1 1 1 1 1 1 1 1 1 1 1 1 1 1 1 1 1 1 1 1 1 1 1 1 1 1 1 1 1 1 1 1 1 1 1 1 1 0 0 0 0 0 0 0 0 0 0 0 0 0 0 0 0 0 0 0 0 0 0 0 0 0 0 0 0 0 0 0 0 0 0 0 0 0 0 0 0 0 0 0 0 0 0 0 0 0 "/>
</feComponentTransfer>
<feComposite operator="in" in2="shape" in="coloredNoise1" result="noise1Clipped" />
<feFlood flood-color="#FFEADB" result="color1Flood" />
<feComposite operator="in" in2="noise1Clipped" in="color1Flood" result="color1" />
<feMerge result="effect1_noise_496_88">
<feMergeNode in="shape" />
<feMergeNode in="color1" />
</feMerge>
</filter>
<filter id="filter1_n_496_88" x="84" y="77.4778" width="456.007" height="94.1434" filterUnits="userSpaceOnUse" color-interpolation-filters="sRGB">
<feFlood flood-opacity="0" result="BackgroundImageFix"/>
<feBlend mode="normal" in="SourceGraphic" in2="BackgroundImageFix" result="shape"/>
<feTurbulence type="fractalNoise" baseFrequency="0.67981421947479248 0.67981421947479248" stitchTiles="stitch" numOctaves="3" result="noise" seed="344" />
<feColorMatrix in="noise" type="luminanceToAlpha" result="alphaNoise" />
<feComponentTransfer in="alphaNoise" result="coloredNoise1">
<feFuncA type="discrete" tableValues="1 1 1 1 1 1 1 1 1 1 1 1 1 1 1 1 1 1 1 1 1 1 1 1 1 1 1 1 1 1 1 1 1 1 1 1 1 1 1 1 1 1 1 1 1 1 1 1 1 1 1 0 0 0 0 0 0 0 0 0 0 0 0 0 0 0 0 0 0 0 0 0 0 0 0 0 0 0 0 0 0 0 0 0 0 0 0 0 0 0 0 0 0 0 0 0 0 0 0 0 "/>
</feComponentTransfer>
<feComposite operator="in" in2="shape" in="coloredNoise1" result="noise1Clipped" />
<feFlood flood-color="#FFEADB" result="color1Flood" />
<feComposite operator="in" in2="noise1Clipped" in="color1Flood" result="color1" />
<feMerge result="effect1_noise_496_88">
<feMergeNode in="shape" />
<feMergeNode in="color1" />
</feMerge>
</filter>
<filter id="filter2_d_496_88" x="155.814" y="1163.45" width="26.8201" height="116.382" filterUnits="userSpaceOnUse" color-interpolation-filters="sRGB">
<feFlood flood-opacity="0" result="BackgroundImageFix"/>
<feColorMatrix in="SourceAlpha" type="matrix" values="0 0 0 0 0 0 0 0 0 0 0 0 0 0 0 0 0 0 127 0" result="hardAlpha"/>
<feOffset dy="2.13699"/>
<feGaussianBlur stdDeviation="0.213699"/>
<feComposite in2="hardAlpha" operator="out"/>
<feColorMatrix type="matrix" values="0 0 0 0 1 0 0 0 0 0.317647 0 0 0 0 0 0 0 0 0.37 0"/>
<feBlend mode="normal" in2="BackgroundImageFix" result="effect1_dropShadow_496_88"/>
<feBlend mode="normal" in="SourceGraphic" in2="effect1_dropShadow_496_88" result="shape"/>
</filter>
<clipPath id="clip0_496_88">
<rect width="1440" height="1464" fill="white"/>
</clipPath>
</defs>
</svg>
