<svg width="393" height="492" viewBox="0 0 393 492" fill="none" xmlns="http://www.w3.org/2000/svg">
<g clip-path="url(#clip0_702_434)">
<rect width="393" height="492" fill="#D1EAFF"/>
<path d="M129.682 47.9123C103.773 61.0519 39.6002 79.541 -9 47.9123V572H396V21.7837C364.468 41.8104 316 9.69591 268.364 9.69592C210.374 9.69594 155.591 34.7727 129.682 47.9123Z" fill="#D1F6FE" stroke="#8FEBFF" stroke-width="2.18333" stroke-linecap="round"/>
<ellipse cx="273.462" cy="193.068" rx="78.6" ry="30.976" fill="#BAF2FE"/>
<ellipse cx="269.642" cy="296.23" rx="78.6" ry="41.8927" fill="#BAF2FE"/>
<ellipse cx="251.629" cy="387.384" rx="78.6" ry="41.8927" fill="#BAF2FE"/>
<ellipse cx="149.286" cy="320.793" rx="78.6" ry="41.8927" fill="#BAF2FE"/>
<ellipse cx="143.008" cy="218.722" rx="78.6" ry="41.8927" fill="#BAF2FE"/>
<ellipse cx="281.923" cy="224.044" rx="39.5729" ry="14.4646" fill="#60B080"/>
<ellipse cx="146.83" cy="167.55" rx="31.3854" ry="16.1021" fill="#E97494"/>
<ellipse cx="254.904" cy="150.629" rx="80.2375" ry="57.5854" fill="#FFF9D3"/>
<ellipse cx="254.904" cy="135.073" rx="39.5729" ry="14.4646" fill="#D6CD91"/>
<path d="M274.838 101.309C265.754 87.5842 238.864 91.6583 238.735 110.399C227.937 100.596 211.795 120.694 224.406 130.71C214.283 142.588 233.573 154.421 242.159 145.856C253.841 161.842 281.048 154.167 280.726 137.313C293.191 138.774 303.163 126.232 291.43 118.518C301.479 107.278 286.022 92.1424 274.838 101.309Z" fill="#4894FF"/>
<circle cx="6.51478" cy="6.51478" r="6.51478" transform="matrix(-0.993131 0.117006 0.117006 0.993131 274.508 113.355)" fill="white"/>
<circle cx="6.78539" cy="6.78539" r="6.78539" transform="matrix(-0.993131 0.117006 0.117006 0.993131 256.76 116.63)" fill="white"/>
<path d="M263.258 121.229C263.535 123.574 265.66 125.251 268.005 124.975C270.349 124.699 272.027 122.574 271.75 120.229C271.474 117.884 269.349 116.207 267.004 116.483C264.659 116.759 262.982 118.884 263.258 121.229Z" fill="#0046A8"/>
<circle cx="4.2651" cy="4.2651" r="4.2651" transform="matrix(-0.993131 0.117006 0.117006 0.993131 255.461 118.698)" fill="#0046A8"/>
<path d="M254.904 208.215C299.217 208.215 335.141 182.799 335.141 151.448L294.749 135.073C294.749 143.061 277.032 149.537 255.176 149.537C233.321 149.537 215.604 143.061 215.604 135.073L174.666 151.448C174.666 182.799 210.59 208.215 254.904 208.215Z" fill="#FFF9D3"/>
<path d="M245.034 174.421C245.261 175.085 245.261 176.116 245.052 176.744C244.301 179.364 240.144 180.273 237.768 178.963C237.017 178.544 236.493 177.932 236.126 177.181C235.864 176.657 235.969 175.749 236.703 175.574C237.192 175.469 237.908 175.557 238.187 176.151C238.432 176.64 238.956 177.059 239.497 177.321C241.035 177.845 242.799 177.041 242.799 175.696C242.799 174.596 242.135 174.282 241.139 174.037C240.039 173.81 238.816 173.897 237.751 173.426C235.62 172.535 235.515 169.513 237.052 168.046C237.803 167.382 238.851 167.12 240.109 167.068C241.506 167.016 243.043 167.347 243.864 168.046C244.458 168.518 245.261 169.705 244.371 170.247C243.637 170.718 243.026 169.967 242.537 169.618C241.908 169.146 240.86 169.007 240.056 169.094C239.043 169.216 238.222 169.758 238.31 170.806C238.362 171.557 239.166 171.801 239.847 171.889C240.877 172.028 241.96 172.011 242.956 172.395C243.969 172.797 244.737 173.478 245.034 174.421ZM255.556 167.679C255.678 167.819 255.748 167.976 255.748 168.151C255.748 168.291 255.73 168.448 255.713 168.57C255.678 168.692 255.608 168.815 255.486 168.937C255.381 169.007 255.241 169.059 255.101 169.094C254.944 169.146 254.787 169.164 254.595 169.199C254.438 169.216 254.263 169.216 254.088 169.216H253.198C252.778 169.234 252.377 169.234 251.975 169.234C252.01 170.666 251.957 172.413 251.957 176.255V177.583C251.957 177.688 251.957 177.758 251.975 177.845C251.975 177.932 251.975 178.02 251.957 178.124C251.94 178.229 251.923 178.351 251.905 178.491C251.905 178.596 251.87 178.701 251.835 178.823C251.783 178.875 251.765 178.91 251.765 178.928L251.713 179.033C251.643 179.172 251.521 179.277 251.381 179.364C251.137 179.487 250.84 179.522 250.525 179.452C250.333 179.434 250.176 179.382 250.071 179.295C249.966 179.19 249.896 179.102 249.844 178.98C249.774 178.84 249.739 178.736 249.722 178.613C249.687 178.509 249.669 178.369 249.669 178.282V169.304C249.39 169.304 247.678 169.286 247.364 169.234C247.224 169.216 246.857 169.164 246.683 169.112C246.421 169.042 246.246 168.937 246.106 168.78C245.984 168.64 245.914 168.465 245.914 168.273C245.914 168.133 245.914 167.994 245.949 167.871C245.984 167.749 246.071 167.627 246.228 167.522C246.316 167.452 246.543 167.33 246.735 167.278C246.875 167.225 247.067 167.19 247.259 167.173C247.451 167.155 247.626 167.155 247.835 167.155C248.656 167.155 249.355 167.155 250.158 167.138C251.503 167.12 252.848 167.138 254.176 167.173C254.473 167.19 254.752 167.225 255.032 167.347C255.241 167.417 255.433 167.522 255.556 167.679ZM265.646 178.316C265.664 178.456 265.681 178.578 265.681 178.736C265.681 178.875 265.646 178.998 265.559 179.12C265.489 179.225 265.367 179.347 265.209 179.417C264.912 179.592 264.616 179.644 264.284 179.592C264.144 179.557 263.987 179.487 263.847 179.364C263.812 179.33 263.777 179.312 263.76 179.277C263.742 179.26 263.707 179.207 263.672 179.19C263.568 179.085 263.498 178.963 263.428 178.858C263.375 178.753 263.323 178.648 263.253 178.526C263.201 178.439 263.148 178.351 263.131 178.264C263.096 178.177 263.061 178.072 263.044 177.985L262.677 177.129C261.087 177.129 259.463 177.146 257.873 177.129L257.507 177.985C257.472 178.072 257.454 178.177 257.419 178.264C257.384 178.351 257.349 178.439 257.297 178.526C257.227 178.648 257.175 178.753 257.105 178.858C257.052 178.963 256.983 179.085 256.878 179.19C256.843 179.207 256.808 179.26 256.79 179.277C256.773 179.312 256.738 179.33 256.703 179.364C256.563 179.487 256.406 179.557 256.266 179.592C255.935 179.644 255.638 179.592 255.341 179.417C255.184 179.347 255.061 179.225 254.991 179.12C254.904 178.998 254.869 178.875 254.869 178.736C254.869 178.578 254.887 178.456 254.904 178.316C254.922 178.212 254.956 178.089 254.991 178.002C255.026 177.897 255.044 177.862 255.044 177.845L258.677 168.902L258.782 168.622C258.834 168.483 258.904 168.378 258.956 168.221C259.009 168.081 259.061 167.959 259.148 167.819C259.218 167.679 259.323 167.557 259.41 167.452C259.498 167.347 259.603 167.278 259.707 167.225C260.039 167.103 260.511 167.103 260.843 167.225C260.948 167.278 261.052 167.347 261.14 167.452C261.227 167.557 261.314 167.679 261.402 167.819C261.489 167.959 261.541 168.081 261.594 168.221C261.646 168.378 261.716 168.483 261.768 168.622L261.873 168.902L265.506 177.845C265.506 177.862 265.524 177.897 265.559 178.002C265.594 178.089 265.629 178.212 265.646 178.316ZM261.821 174.806L261.506 174.037C261.21 173.373 260.895 172.64 260.546 171.889C260.458 171.679 260.354 171.452 260.266 171.242C260.196 171.452 260.092 171.679 260.004 171.889C259.655 172.64 259.341 173.373 259.044 174.037L258.729 174.806H261.821ZM274.455 167.679C274.577 167.819 274.647 167.976 274.647 168.151C274.647 168.291 274.63 168.448 274.612 168.57C274.577 168.692 274.508 168.815 274.385 168.937C274.28 169.007 274.141 169.059 274.001 169.094C273.844 169.146 273.687 169.164 273.494 169.199C273.337 169.216 273.163 169.216 272.988 169.216H272.097C271.678 169.234 271.276 169.234 270.874 169.234C270.909 170.666 270.857 172.413 270.857 176.255V177.583C270.857 177.688 270.857 177.758 270.874 177.845C270.874 177.932 270.874 178.02 270.857 178.124C270.84 178.229 270.822 178.351 270.805 178.491C270.805 178.596 270.77 178.701 270.735 178.823C270.682 178.875 270.665 178.91 270.665 178.928L270.612 179.033C270.543 179.172 270.42 179.277 270.281 179.364C270.036 179.487 269.739 179.522 269.425 179.452C269.233 179.434 269.075 179.382 268.971 179.295C268.866 179.19 268.796 179.102 268.744 178.98C268.674 178.84 268.639 178.736 268.621 178.613C268.586 178.509 268.569 178.369 268.569 178.282V169.304C268.289 169.304 266.578 169.286 266.263 169.234C266.124 169.216 265.757 169.164 265.582 169.112C265.32 169.042 265.145 168.937 265.006 168.78C264.883 168.64 264.814 168.465 264.814 168.273C264.814 168.133 264.814 167.994 264.848 167.871C264.883 167.749 264.971 167.627 265.128 167.522C265.215 167.452 265.442 167.33 265.634 167.278C265.774 167.225 265.966 167.19 266.158 167.173C266.351 167.155 266.525 167.155 266.735 167.155C267.556 167.155 268.254 167.155 269.058 167.138C270.403 167.12 271.748 167.138 273.075 167.173C273.372 167.19 273.652 167.225 273.931 167.347C274.141 167.417 274.333 167.522 274.455 167.679ZM284.556 174.421C284.783 175.085 284.783 176.116 284.574 176.744C283.823 179.364 279.665 180.273 277.29 178.963C276.539 178.544 276.015 177.932 275.648 177.181C275.386 176.657 275.491 175.749 276.225 175.574C276.714 175.469 277.43 175.557 277.709 176.151C277.954 176.64 278.478 177.059 279.019 177.321C280.556 177.845 282.32 177.041 282.32 175.696C282.32 174.596 281.657 174.282 280.661 174.037C279.561 173.81 278.338 173.897 277.273 173.426C275.142 172.535 275.037 169.513 276.574 168.046C277.325 167.382 278.373 167.12 279.631 167.068C281.028 167.016 282.565 167.347 283.386 168.046C283.98 168.518 284.783 169.705 283.892 170.247C283.159 170.718 282.547 169.967 282.058 169.618C281.43 169.146 280.382 169.007 279.578 169.094C278.565 169.216 277.744 169.758 277.831 170.806C277.884 171.557 278.687 171.801 279.369 171.889C280.399 172.028 281.482 172.011 282.478 172.395C283.491 172.797 284.259 173.478 284.556 174.421Z" fill="#765C3A"/>
<ellipse cx="260.362" cy="251.608" rx="80.2375" ry="56.7667" fill="#84EFAF"/>
<ellipse cx="260.635" cy="235.233" rx="39.5729" ry="14.4646" fill="#60B080"/>
<path d="M244.672 192.522C237.275 192.522 224.612 242.056 230.487 247.797C236.362 253.538 285.503 253.114 291.051 244.792C295.839 237.61 287.815 196.017 281.111 196.017C275.522 196.017 276.022 207.318 273.351 206.882C268.142 206.031 265.829 184.744 259.818 184.744C253.808 184.744 252.859 204.257 249.857 202.893C246.855 201.528 251.457 192.522 244.672 192.522Z" fill="#A172FF"/>
<circle cx="247.461" cy="226.993" r="11.3269" fill="white"/>
<circle cx="272.426" cy="226.993" r="11.3269" fill="white"/>
<circle cx="246.758" cy="225.039" r="8.09062" fill="black"/>
<circle cx="270.774" cy="225.039" r="8.09062" fill="black"/>
<path d="M260.362 308.375C304.675 308.375 340.599 282.96 340.599 251.608L300.207 235.233C300.207 243.222 282.49 249.698 260.634 249.698C238.779 249.698 221.062 243.222 221.062 235.233L180.124 251.608C180.124 282.96 216.048 308.375 260.362 308.375Z" fill="#84EFAF"/>
<ellipse cx="259.68" cy="238.372" rx="5.86771" ry="4.50312" fill="#4D168F"/>
<path d="M222.204 266.041C222.362 265.883 222.624 265.857 222.964 265.857H226.2C226.672 265.857 227.392 265.765 227.562 266.329C227.667 266.682 227.536 267.285 227.065 267.337C226.619 267.416 226.108 267.337 225.65 267.337C225.152 267.337 224.811 267.39 224.327 267.39C224.143 267.39 223.776 267.351 223.619 267.403C223.331 267.468 223.344 267.861 223.344 268.071C223.344 268.372 223.305 268.674 223.292 268.975C223.252 269.381 223.397 269.368 223.763 269.263C224.078 269.185 224.405 269.145 224.733 269.145C226.501 269.145 227.89 270.088 227.89 272.027C227.89 272.198 227.89 272.355 227.851 272.512C227.706 273.612 226.986 274.503 225.938 274.87C224.707 275.342 223.292 275.342 222.178 274.621C221.864 274.438 221.576 274.149 221.458 273.809C221.314 273.442 221.353 272.997 221.746 272.8C222.335 272.512 222.728 273.075 223.187 273.324C223.58 273.521 224.025 273.665 224.51 273.665C225.584 273.665 226.305 273.036 226.305 272.067C226.305 271.136 225.558 270.56 224.418 270.56C224.117 270.56 223.816 270.586 223.528 270.678C222.964 270.809 222.44 271.123 221.969 270.573C221.746 270.337 221.798 269.944 221.825 269.643C221.851 269.132 221.877 268.634 221.903 268.123C221.942 267.626 221.969 267.115 221.995 266.617C222.008 266.329 222.087 266.158 222.204 266.041ZM232.438 275.158C232.123 275.158 231.796 275.119 231.481 275.001C231.01 274.818 230.577 274.477 230.224 274.071C229.385 273.128 228.94 271.765 228.94 270.442C228.94 269.551 229.123 268.634 229.464 267.809C229.713 267.22 230.302 266.42 230.852 266.171C231.049 266.08 231.272 265.988 231.481 265.91C232.045 265.739 232.804 265.779 233.381 265.91C234.979 266.289 235.673 268.019 235.87 269.682C235.935 270.233 235.909 270.796 235.844 271.346C235.713 272.368 235.503 273.377 234.769 274.11C234.114 274.752 233.315 275.132 232.438 275.158ZM232.424 267.521C232.189 267.521 231.94 267.56 231.73 267.691C231.494 267.848 231.298 268.084 231.154 268.333C230.787 268.962 230.669 269.709 230.669 270.429C230.669 271.176 230.813 272.04 231.245 272.695C231.455 273.01 231.743 273.259 232.123 273.363C232.477 273.455 232.844 273.429 233.158 273.232C234.167 272.617 234.298 270.992 234.219 269.931C234.141 268.883 233.721 267.482 232.424 267.521ZM240.459 275.158C240.144 275.158 239.817 275.119 239.502 275.001C239.031 274.818 238.598 274.477 238.245 274.071C237.406 273.128 236.961 271.765 236.961 270.442C236.961 269.551 237.144 268.634 237.485 267.809C237.734 267.22 238.323 266.42 238.874 266.171C239.07 266.08 239.293 265.988 239.502 265.91C240.066 265.739 240.825 265.779 241.402 265.91C243 266.289 243.694 268.019 243.891 269.682C243.956 270.233 243.93 270.796 243.865 271.346C243.734 272.368 243.524 273.377 242.79 274.11C242.135 274.752 241.336 275.132 240.459 275.158ZM240.446 267.521C240.21 267.521 239.961 267.56 239.751 267.691C239.515 267.848 239.319 268.084 239.175 268.333C238.808 268.962 238.69 269.709 238.69 270.429C238.69 271.176 238.834 272.04 239.267 272.695C239.476 273.01 239.764 273.259 240.144 273.363C240.498 273.455 240.865 273.429 241.179 273.232C242.188 272.617 242.319 270.992 242.24 269.931C242.162 268.883 241.742 267.482 240.446 267.521ZM248.65 268.399V269.276L250.117 269.289C250.419 269.237 250.497 269.329 250.746 269.525C250.864 269.617 250.93 269.774 250.93 269.931C250.93 270.102 250.864 270.324 250.759 270.416C250.484 270.678 250.065 270.652 250.039 270.652H248.65V272.171C248.703 272.473 248.611 272.787 248.414 273.036C248.323 273.154 248.165 273.219 248.008 273.219C247.838 273.219 247.484 273.154 247.393 273.049C247.131 272.774 247.157 272.093 247.157 272.067L247.144 270.665H246.043C245.65 270.678 245.559 270.704 245.27 270.468C245.074 270.324 244.995 270.18 244.995 269.984C244.995 269.748 245.152 269.473 245.428 269.381C245.794 269.263 245.794 269.263 246.187 269.25L247.144 269.263V268.254C247.131 267.861 247.104 267.377 247.34 267.088C247.484 266.892 247.759 266.787 247.956 266.787C248.192 266.787 248.467 266.971 248.558 267.246C248.676 267.613 248.637 268.006 248.65 268.399ZM262.312 266.565C262.326 266.682 262.326 266.787 262.326 266.892V267.429L262.247 274.228V274.359C262.247 274.411 262.234 274.49 262.208 274.595C262.195 274.687 262.155 274.778 262.116 274.883C262.077 274.975 262.024 275.053 261.933 275.119C261.854 275.197 261.736 275.237 261.592 275.263C261.343 275.315 261.12 275.289 260.924 275.197C260.819 275.132 260.74 275.053 260.688 274.935C260.662 274.909 260.649 274.883 260.636 274.857C260.636 274.831 260.623 274.804 260.609 274.778C260.57 274.687 260.557 274.595 260.544 274.49C260.544 274.411 260.531 274.32 260.518 274.228C260.492 274.149 260.492 274.084 260.492 274.005C260.518 273.953 260.518 273.887 260.518 273.809L260.531 272.774L260.544 271.123H259.837L257.177 271.136L257.151 274.228V274.359C257.151 274.411 257.138 274.49 257.112 274.595C257.099 274.687 257.059 274.778 257.02 274.883C256.981 274.975 256.928 275.053 256.837 275.119C256.758 275.197 256.64 275.237 256.496 275.263C256.247 275.315 256.024 275.289 255.828 275.197C255.723 275.132 255.658 275.053 255.579 274.935C255.566 274.909 255.553 274.883 255.553 274.857L255.514 274.778C255.474 274.687 255.461 274.595 255.448 274.49C255.448 274.411 255.422 274.32 255.409 274.228C255.396 274.149 255.396 274.084 255.409 274.005V273.809L255.422 272.774L255.448 270.848C255.461 270.298 255.461 269.695 255.461 269.067C255.448 268.438 255.461 268.006 255.487 267.403V267.351C255.5 267.18 255.5 266.984 255.514 266.8C255.527 266.63 255.566 266.46 255.658 266.289C255.71 266.158 255.802 266.067 255.92 265.975C256.051 265.91 256.195 265.87 256.339 265.87C256.47 265.87 256.575 265.883 256.679 265.896C256.797 265.91 256.889 265.962 256.981 266.054C257.046 266.106 257.099 266.171 257.125 266.263C257.164 266.368 257.19 266.46 257.203 266.565C257.217 266.682 257.217 266.787 257.217 266.892V267.429L257.19 269.591C257.334 269.591 257.505 269.591 257.754 269.578C258.658 269.578 259.548 269.604 260.531 269.604H260.544C260.544 268.831 260.557 268.137 260.583 267.351C260.583 267.18 260.596 266.984 260.609 266.8C260.623 266.63 260.662 266.46 260.754 266.289C260.793 266.158 260.898 266.067 261.029 265.975C261.147 265.91 261.291 265.87 261.435 265.87C261.566 265.87 261.684 265.883 261.775 265.896C261.88 265.91 261.998 265.962 262.077 266.054C262.155 266.106 262.195 266.171 262.221 266.263C262.26 266.368 262.273 266.46 262.312 266.565ZM264.911 269.682C265.972 269.145 267.256 269.224 268.147 270.088C268.605 270.547 268.828 271.084 268.933 271.739C269.064 272.63 269.627 273.272 269.824 274.123C269.915 274.529 269.771 274.975 269.326 275.053C268.789 275.158 268.409 274.582 268.173 274.202C267.767 274.726 267.322 275.001 266.667 275.093C266.103 275.158 265.632 275.132 265.055 274.975C263.562 274.582 263.13 272.944 263.509 271.516C263.758 270.573 264.269 269.997 264.911 269.682ZM265.239 271.215C264.741 271.687 264.688 272.643 265.081 273.206C265.252 273.455 265.723 273.639 266.182 273.665C267.23 273.73 267.793 272.237 267.23 271.333C266.824 270.665 265.736 270.73 265.239 271.215ZM275.787 270.154C275.918 270.39 275.931 270.691 275.8 270.94C275.643 271.254 275.341 271.359 274.988 271.281C274.66 271.202 274.555 270.901 274.044 270.822C273.782 270.783 273.442 270.822 273.206 270.927C272.446 271.32 272.263 272.604 272.826 273.246C273.036 273.494 273.416 273.665 273.73 273.691C274.031 273.73 274.333 273.678 274.608 273.586C274.817 273.494 275.106 273.298 275.341 273.272C275.957 273.259 276.062 274.032 275.761 274.411C275.551 274.673 275.106 274.935 274.765 275.04C274.346 275.171 273.782 275.184 273.337 275.132C273.127 275.106 272.892 275.04 272.682 274.975C271.136 274.425 270.625 272.813 271.031 271.385C271.411 270.01 272.197 269.591 273.376 269.329C273.992 269.211 274.726 269.342 275.263 269.669C275.459 269.774 275.656 269.957 275.787 270.154ZM279.572 272.184C280.711 273.39 279.847 272.42 281.013 273.625C281.327 273.94 281.615 274.359 281.366 274.831C281.091 275.328 280.646 275.171 280.213 274.857C279.807 274.556 279.414 274.097 279.192 273.887C279.126 273.822 279.074 273.77 279.048 273.73C279.021 273.704 278.982 273.678 278.943 273.639C278.825 273.521 278.681 273.39 278.537 273.259V273.77C278.537 273.848 278.537 273.914 278.55 273.979C278.55 274.058 278.55 274.11 278.537 274.176C278.51 274.267 278.497 274.359 278.497 274.451C278.484 274.529 278.471 274.608 278.432 274.7C278.419 274.739 278.406 274.752 278.406 274.778C278.393 274.804 278.379 274.818 278.366 274.857C278.314 274.962 278.235 275.04 278.157 275.106C277.973 275.211 277.764 275.224 277.541 275.184C277.41 275.158 277.318 275.119 277.24 275.04C277.161 274.988 277.109 274.909 277.083 274.818C277.043 274.726 277.017 274.634 276.991 274.542C276.965 274.464 276.965 274.372 276.965 274.32V266.866C276.965 266.761 276.965 266.656 276.978 266.551C276.991 266.447 277.03 266.355 277.056 266.263C277.096 266.171 277.135 266.106 277.187 266.054C277.279 265.962 277.371 265.923 277.462 265.896C277.554 265.883 277.672 265.87 277.777 265.87C277.908 265.87 278.026 265.91 278.144 265.975C278.262 266.054 278.34 266.145 278.393 266.276C278.458 266.434 278.497 266.591 278.497 266.761C278.51 266.931 278.537 267.39 278.537 267.56V267.613C278.55 268.189 278.55 268.687 278.55 269.289C278.537 269.892 278.537 270.442 278.537 270.979V271.123C278.681 270.992 278.825 270.861 278.943 270.73C278.995 270.691 279.021 270.665 279.048 270.639L279.192 270.495C279.414 270.272 279.807 269.813 280.213 269.512C280.646 269.198 281.091 269.054 281.366 269.538C281.615 270.01 281.327 270.429 281.013 270.77C279.847 271.962 280.711 270.992 279.572 272.184ZM287.049 273.403C287.455 273.285 287.993 273.324 287.993 273.914C287.993 274.346 287.521 274.673 287.18 274.818C286.683 275.04 285.988 275.171 285.294 275.145C284.351 275.106 283.408 274.791 282.923 274.018C282.477 273.259 282.412 272.224 282.582 271.398C282.779 270.39 283.263 269.774 283.905 269.394C284.678 268.949 285.752 268.936 286.63 269.329C287.22 269.591 287.717 270.036 287.966 270.665C288.097 270.979 288.163 271.634 288.032 272.014C287.809 272.643 287.442 272.656 286.486 272.695C285.648 272.735 285.058 272.695 284.049 272.669C283.945 273.377 284.718 273.652 285.359 273.704C285.949 273.743 286.473 273.573 287.049 273.403ZM286.486 270.861C286.329 270.678 286.159 270.534 285.962 270.442C285.687 270.324 285.359 270.35 285.084 270.429C284.809 270.495 284.626 270.612 284.442 270.822C284.39 270.874 284.023 271.438 284.167 271.438H286.735C286.722 271.189 286.656 271.045 286.486 270.861ZM289.169 272.473V270.56C289.169 270.141 289.156 269.407 289.327 269.001C289.458 268.687 289.798 268.595 290.139 268.608C290.872 268.621 290.912 269.132 290.925 269.682C291.226 269.132 292.156 268.988 292.235 268.988C292.667 268.962 292.995 268.949 293.427 269.093C293.977 269.302 294.75 269.866 294.423 270.481C294.187 270.914 293.872 270.822 293.532 270.73C293.348 270.691 293.034 270.534 292.851 270.495C291.685 270.324 290.977 271.385 290.977 271.385V273.272C290.99 274.215 291.043 275.433 289.877 275.355C289.562 275.342 289.287 274.975 289.235 274.7C289.183 274.176 289.156 273.167 289.169 272.473ZM298.121 272.892C297.453 272.473 296.418 272.499 295.763 272.014C295.055 271.477 294.951 270.612 295.396 269.813C295.881 268.975 297.099 268.739 298.003 268.896C298.605 269.001 299.365 269.237 299.588 269.931C299.732 270.39 299.378 270.783 298.907 270.704C298.396 270.612 298.016 270.193 297.479 270.193C296.693 270.167 296.352 270.901 297.086 271.294C297.767 271.647 298.71 271.634 299.313 272.132C300.479 273.062 299.732 274.87 298.33 275.171C297.322 275.381 295.894 275.184 295.186 274.372C294.702 273.796 295.199 272.787 295.894 273.232C296.47 273.612 297.479 274.018 297.99 273.691C298.37 273.442 298.37 273.062 298.121 272.892Z" fill="#0E6832"/>
<ellipse cx="146.966" cy="171.78" rx="33.1594" ry="13.5094" fill="#D49CAB"/>
<ellipse cx="146.966" cy="171.78" rx="33.1594" ry="13.5094" fill="#D49CAB"/>
<path d="M90.0623 117.879C71.6404 138.348 56.2206 143.124 47.4873 164.957L90.0623 171.507C90.0623 171.507 102.694 151.671 113.165 130.297C120.577 115.167 126.906 99.2669 126.906 89.0865C126.906 72.0292 118.036 51.5604 90.8811 51.5604C63.7258 51.5604 51.0352 71.2104 55.129 89.0865C54.3686 91.268 53.7152 93.3583 53.1658 95.3636C53.1658 95.3636 58.2675 94.4083 61.8154 89.0865C64.6646 84.8128 69.73 99.4573 69.73 99.4573C81.0632 95.8312 85.022 90.7367 87.4696 75.85C105.346 71.074 108.484 97.4104 90.0623 117.879Z" fill="#FFD3DF"/>
<path d="M61.8154 89.0865C58.2675 94.4083 53.1658 95.3636 53.1658 95.3636C52.4548 97.9581 51.9179 100.41 51.5482 102.732C57.3589 104.704 60.6676 105.608 67.1373 104.965C68.2551 101.198 69.73 99.4573 69.73 99.4573C69.73 99.4573 64.6646 84.8128 61.8154 89.0865Z" fill="white"/>
<path d="M68.6383 136.028C69.2241 135.618 69.7375 133.989 69.3206 132.753C64.7376 119.162 65.5996 110.147 67.1373 104.965C60.6676 105.608 57.3589 104.704 51.5482 102.732C49.0758 118.262 54.0819 127.989 64.5446 135.755C65.3633 136.363 67.2738 136.983 68.6383 136.028Z" fill="black"/>
<path d="M81.8748 78.4427C81.8748 83.5674 77.8426 87.7218 72.8686 87.7218C67.8945 87.7218 63.8623 83.5674 63.8623 78.4427C63.8623 73.3179 67.8945 69.1635 72.8686 69.1635C77.8426 69.1635 81.8748 73.3179 81.8748 78.4427Z" fill="white"/>
<path d="M78.3269 78.4427C78.3269 81.608 75.9442 84.1739 73.005 84.1739C70.0658 84.1739 67.6831 81.608 67.6831 78.4427C67.6831 75.2774 70.0658 72.7114 73.005 72.7114C75.9442 72.7114 78.3269 75.2774 78.3269 78.4427Z" fill="black"/>
<ellipse cx="121.447" cy="186.245" rx="80.2375" ry="56.7667" fill="#FFD3DF"/>
<path d="M90.0625 171.507C90.0625 171.507 102.926 151.125 113.397 129.751C124.586 129.751 130.52 129.48 141.644 131.525L149.422 168.915L90.0625 171.507Z" fill="url(#paint0_linear_702_434)"/>
<path d="M121.584 187.882C103.327 187.882 88.5154 181.871 88.4252 174.441C88.5154 167.012 103.327 161 121.584 161C139.842 161 154.653 167.012 154.743 174.441C154.653 181.871 139.842 187.882 121.584 187.882Z" fill="#C294A1"/>
<circle cx="29.6417" cy="29.6417" r="29.6417" transform="matrix(-0.997707 0.0676744 0.0676744 0.997707 149.21 135.209)" fill="#FF585B"/>
<path d="M131.636 166.797C135.048 165.159 132.591 174.575 128.088 175.53C123.122 176.583 114.551 169.799 119.628 169.799C123.039 169.799 128.225 168.434 131.636 166.797Z" fill="#A40003"/>
<path d="M140.494 158.445C136.023 163.434 133.27 163.333 128.076 159.81M115.522 163.085C114.256 169.116 111.839 170.376 105.015 169.498" stroke="black" stroke-width="1.6375" stroke-linecap="round"/>
<path d="M121.447 243.011C165.761 243.011 201.685 217.596 201.685 186.245L154.743 174.373C154.743 181.834 139.897 187.882 121.584 187.882C103.271 187.882 88.4245 181.834 88.4245 174.373L41.21 186.245C41.21 217.596 77.1335 243.011 121.447 243.011Z" fill="#FFD3DF"/>
<path d="M88.7222 204.197C88.8401 204.17 88.9449 204.131 89.0497 204.118C89.3117 204.052 89.7964 204.052 89.9405 204.354C90.0846 204.707 90.0191 205.323 90.0191 205.703V212.397C90.0191 212.764 90.1108 213.262 89.744 213.524C89.4951 213.72 89.0104 213.707 88.7222 213.602C88.4078 213.498 88.3947 213.144 88.3947 212.856C88.2768 210.563 88.3161 208.389 88.3161 206.057C88.2637 206.214 87.3598 206.358 87.2157 206.358C86.7572 206.41 86.3249 206.306 86.2725 205.769C86.207 205.218 86.5738 204.917 87.0847 204.76C87.6349 204.576 88.172 204.354 88.7222 204.197ZM92.13 205.651C92.0121 205.546 91.9597 205.402 91.9597 205.179C91.9728 204.983 92.0121 204.786 92.1562 204.655C92.5492 204.301 92.9684 204.314 93.4793 204.288C93.8723 204.275 94.1605 204.288 94.5535 204.288C95.1692 204.288 95.9421 204.314 96.584 204.341C97.108 204.367 97.6713 204.55 97.6975 205.153C97.7368 205.847 97.1604 206.437 96.7412 206.856C96.3613 207.249 95.8111 207.747 95.4312 208.14C96.8067 208.323 98.0643 209.004 98.0643 210.681C98.0643 212.358 96.7019 213.629 94.8286 213.629C94.0164 213.629 92.916 213.367 92.3134 212.751C91.8942 212.345 91.6584 211.48 92.3658 211.231C92.8898 211.048 93.3352 211.375 93.7544 211.611C94.3963 212.004 95.1299 212.122 95.8111 211.716C96.5971 211.244 96.4661 210.288 95.7587 209.882C95.0906 209.489 94.095 209.725 93.5579 209.122C92.9684 208.441 94.2129 207.537 94.619 207.079C94.881 206.817 95.3133 206.371 95.3788 206.109C95.4836 205.821 94.881 205.913 94.6714 205.913H93.7937C93.3221 205.913 92.523 205.991 92.13 205.651ZM108.057 205.205C108.712 205.821 109.04 206.725 108.974 207.563C108.909 208.362 108.476 209.096 107.599 209.437C106.904 209.738 106.249 209.83 105.437 209.895C105.07 209.921 104.861 209.934 104.533 209.947C104.468 209.947 104.245 209.947 104.179 209.961V212.672C104.127 213 104.114 213.393 103.773 213.589C103.59 213.694 103.262 213.707 103.04 213.668C102.804 213.629 102.634 213.55 102.529 213.314C102.463 213.157 102.385 212.974 102.385 212.672V205.428C102.385 205.31 102.411 205.205 102.424 205.1C102.45 205.009 102.476 204.904 102.503 204.812C102.542 204.734 102.581 204.655 102.647 204.603C102.725 204.524 102.896 204.432 103.262 204.432H103.289C103.826 204.406 104.586 204.354 105.018 204.406C105.254 204.432 105.463 204.445 105.66 204.459C105.869 204.472 106.079 204.498 106.289 204.524C106.459 204.55 106.603 204.576 106.76 204.603C106.904 204.629 107.075 204.668 107.219 204.747C107.389 204.799 107.546 204.865 107.677 204.943C107.808 205.022 107.939 205.114 108.057 205.205ZM107.271 207.367C107.323 206.515 106.42 206.148 105.568 206.044C105.372 206.031 104.743 206.017 104.546 206.004C104.468 205.991 104.337 205.991 104.179 205.991C104.193 206.528 104.193 207 104.193 207.576C104.179 207.891 104.179 208.205 104.179 208.506L104.992 208.493C105.83 208.48 107.179 208.349 107.271 207.367ZM110.595 208.14C111.656 207.603 112.94 207.681 113.831 208.546C114.29 209.004 114.512 209.541 114.617 210.196C114.748 211.087 115.311 211.729 115.508 212.581C115.6 212.987 115.455 213.432 115.01 213.511C114.473 213.615 114.093 213.039 113.857 212.659C113.451 213.183 113.006 213.458 112.351 213.55C111.787 213.615 111.316 213.589 110.739 213.432C109.246 213.039 108.814 211.402 109.194 209.974C109.443 209.03 109.953 208.454 110.595 208.14ZM110.923 209.672C110.425 210.144 110.373 211.1 110.766 211.664C110.936 211.912 111.408 212.096 111.866 212.122C112.914 212.188 113.477 210.694 112.914 209.79C112.508 209.122 111.421 209.188 110.923 209.672ZM116.611 210.864V208.978C116.611 208.572 116.558 208.087 116.716 207.72C116.86 207.393 117.227 207.236 117.541 207.314C118.183 207.419 118.17 207.891 118.196 208.362C118.537 207.747 119.336 207.589 119.624 207.576C120.292 207.576 120.999 207.878 121.432 208.402C121.916 209.017 121.903 209.79 121.943 210.55C121.982 211.1 121.982 211.664 121.943 212.214C121.916 212.659 122.008 213.524 121.497 213.629C120.764 213.786 120.606 213.458 120.515 212.974C120.436 212.581 120.436 211.926 120.423 211.519C120.423 211.192 120.397 210.76 120.41 210.406C120.41 209.594 119.951 209.135 119.218 209.201C118.654 209.266 118.17 209.672 118.183 210.262C118.196 210.707 118.157 210.995 118.17 211.559C118.17 212.135 118.209 212.843 118.052 213.249C117.921 213.668 117.554 213.851 117.109 213.615C116.729 213.393 116.689 212.856 116.663 212.476C116.611 211.899 116.611 211.441 116.611 210.864ZM127.565 211.86C127.971 211.742 128.508 211.781 128.508 212.371C128.508 212.803 128.037 213.131 127.696 213.275C127.198 213.498 126.504 213.629 125.81 213.602C124.867 213.563 123.923 213.249 123.439 212.476C122.993 211.716 122.928 210.681 123.098 209.856C123.295 208.847 123.779 208.231 124.421 207.851C125.194 207.406 126.268 207.393 127.146 207.786C127.735 208.048 128.233 208.493 128.482 209.122C128.613 209.437 128.679 210.092 128.548 210.471C128.325 211.1 127.958 211.113 127.002 211.153C126.163 211.192 125.574 211.153 124.565 211.126C124.46 211.834 125.233 212.109 125.875 212.161C126.465 212.201 126.989 212.03 127.565 211.86ZM127.002 209.319C126.845 209.135 126.674 208.991 126.478 208.899C126.203 208.782 125.875 208.808 125.6 208.886C125.325 208.952 125.142 209.07 124.958 209.279C124.906 209.332 124.539 209.895 124.683 209.895H127.251C127.238 209.646 127.172 209.502 127.002 209.319ZM131.696 212.607C131.683 212.698 131.67 212.777 131.67 212.856L131.591 213.131C131.578 213.157 131.565 213.183 131.552 213.196L131.512 213.275C131.46 213.38 131.368 213.458 131.277 213.511C131.067 213.615 130.844 213.642 130.609 213.589C130.464 213.576 130.333 213.524 130.255 213.458C130.176 213.406 130.111 213.34 130.071 213.236C130.032 213.144 130.006 213.052 129.993 212.974C129.967 212.882 129.954 212.803 129.954 212.738V205.402C129.954 205.284 129.967 205.192 129.98 205.1C129.993 204.983 130.019 204.904 130.058 204.799C130.085 204.721 130.137 204.642 130.202 204.59C130.294 204.524 130.399 204.472 130.504 204.459C130.622 204.419 130.726 204.419 130.857 204.419C130.988 204.419 131.133 204.459 131.277 204.524C131.395 204.59 131.486 204.694 131.539 204.812C131.617 204.969 131.67 205.14 131.67 205.297C131.683 205.467 131.696 205.913 131.696 206.083V206.135C131.722 206.699 131.722 207.183 131.709 207.786C131.709 208.375 131.696 208.926 131.696 209.463V212.214C131.696 212.279 131.709 212.345 131.709 212.41C131.709 212.489 131.709 212.541 131.696 212.607ZM134.419 208.69C134.419 209.659 134.458 211.244 134.419 212.319C134.392 212.843 134.34 213.642 133.593 213.602C133.056 213.576 132.834 213.118 132.807 212.332C132.794 211.519 132.768 210.17 132.781 209.345C132.794 208.86 132.689 207.851 133.017 207.406C133.253 207.118 134.039 207.105 134.261 207.432C134.392 207.642 134.419 208.258 134.419 208.69ZM133.921 206.044C133.384 206.188 132.991 205.886 132.912 205.389C132.768 204.642 133.502 204.223 134.117 204.668C134.72 205.1 134.615 205.821 133.921 206.044ZM138.701 211.349C138.032 210.93 136.998 210.956 136.343 210.471C135.635 209.934 135.53 209.07 135.976 208.271C136.46 207.432 137.679 207.196 138.583 207.354C139.185 207.458 139.945 207.694 140.168 208.389C140.312 208.847 139.958 209.24 139.487 209.161C138.976 209.07 138.596 208.651 138.059 208.651C137.273 208.624 136.932 209.358 137.666 209.751C138.347 210.105 139.29 210.092 139.893 210.589C141.059 211.519 140.312 213.327 138.91 213.629C137.901 213.838 136.474 213.642 135.766 212.829C135.281 212.253 135.779 211.244 136.474 211.69C137.05 212.07 138.059 212.476 138.57 212.148C138.949 211.899 138.949 211.519 138.701 211.349ZM146.549 207.878C146.68 208.205 146.562 208.703 146.261 208.821C145.96 208.952 145.121 209.004 144.689 209.017C144.728 210.065 144.768 211.271 144.741 212.03C144.741 212.567 144.768 213.484 144.414 213.615C143.877 213.838 143.379 213.707 143.196 213.432C142.907 212.987 142.947 212.148 142.96 211.69C142.973 210.956 142.986 209.974 142.986 209.03H142.79C142.37 209.03 141.401 209.017 141.152 208.716C140.759 208.258 141.047 207.603 141.493 207.485C141.807 207.406 142.462 207.406 142.973 207.419C142.96 207.249 142.96 207.079 142.947 206.921C142.921 206.489 142.907 205.546 143.3 205.245C143.824 204.825 144.427 205.205 144.558 205.69C144.676 206.096 144.663 206.908 144.663 207.419H144.794C145.305 207.432 146.287 207.249 146.549 207.878ZM150.24 211.349C149.572 210.93 148.537 210.956 147.882 210.471C147.174 209.934 147.07 209.07 147.515 208.271C148 207.432 149.218 207.196 150.122 207.354C150.725 207.458 151.484 207.694 151.707 208.389C151.851 208.847 151.497 209.24 151.026 209.161C150.515 209.07 150.135 208.651 149.598 208.651C148.812 208.624 148.471 209.358 149.205 209.751C149.886 210.105 150.829 210.092 151.432 210.589C152.598 211.519 151.851 213.327 150.449 213.629C149.441 213.838 148.013 213.642 147.305 212.829C146.821 212.253 147.319 211.244 148.013 211.69C148.589 212.07 149.598 212.476 150.109 212.148C150.489 211.899 150.489 211.519 150.24 211.349Z" fill="#BD224E"/>
<ellipse cx="121.174" cy="283.949" rx="80.2375" ry="59.9052" fill="#FFF2CC"/>
<ellipse cx="120.356" cy="265.936" rx="31.3854" ry="16.2385" fill="#E3CE90"/>
<path d="M82.4479 303.131C82.6575 303.026 82.9326 303.013 83.2208 303.013H87.963C88.1988 303.013 88.5132 302.961 88.7359 303.079C89.6791 303.616 88.0547 306.078 87.7665 306.642C87.2163 307.677 86.8626 308.358 86.3124 309.393C85.9587 310.1 85.4871 310.925 85.081 311.607C84.8321 312.039 84.4522 312.511 83.8496 312.236C83.3911 311.987 83.2601 311.45 83.4697 311.043C83.7972 310.454 84.1116 309.838 84.426 309.249C84.8976 308.358 85.2775 307.559 85.7491 306.681C86.0373 306.157 86.8233 305.109 86.7054 304.506C86.0897 304.454 85.6443 304.48 85.0548 304.48H83.7841C83.1684 304.48 82.2645 304.664 82.1728 303.799C82.1335 303.432 82.2514 303.236 82.4479 303.131ZM90.9166 303.157C91.0738 303 91.3358 302.974 91.6764 302.974H94.9121C95.3837 302.974 96.1042 302.882 96.2745 303.445C96.3793 303.799 96.2483 304.402 95.7767 304.454C95.3313 304.533 94.8204 304.454 94.3619 304.454C93.8641 304.454 93.5235 304.506 93.0388 304.506C92.8554 304.506 92.4886 304.467 92.3314 304.52C92.0432 304.585 92.0563 304.978 92.0563 305.188C92.0563 305.489 92.017 305.79 92.0039 306.092C91.9646 306.498 92.1087 306.485 92.4755 306.38C92.7899 306.301 93.1174 306.262 93.4449 306.262C95.2134 306.262 96.602 307.205 96.602 309.144C96.602 309.314 96.602 309.471 96.5627 309.629C96.4186 310.729 95.6981 311.62 94.6501 311.987C93.4187 312.458 92.0039 312.458 90.8904 311.738C90.576 311.554 90.2878 311.266 90.1699 310.925C90.0258 310.559 90.0651 310.113 90.4581 309.917C91.0476 309.629 91.4406 310.192 91.8991 310.441C92.2921 310.637 92.7375 310.781 93.2222 310.781C94.2964 310.781 95.0169 310.153 95.0169 309.183C95.0169 308.253 94.2702 307.677 93.1305 307.677C92.8292 307.677 92.5279 307.703 92.2397 307.795C91.6764 307.926 91.1524 308.24 90.6808 307.69C90.4581 307.454 90.5105 307.061 90.5367 306.76C90.5629 306.249 90.5891 305.751 90.6153 305.24C90.6546 304.742 90.6808 304.231 90.707 303.734C90.7201 303.445 90.7987 303.275 90.9166 303.157ZM101.32 305.515V306.393L102.787 306.406C103.088 306.354 103.167 306.445 103.416 306.642C103.534 306.733 103.599 306.891 103.599 307.048C103.599 307.218 103.534 307.441 103.429 307.533C103.154 307.795 102.735 307.768 102.709 307.768H101.32V309.288C101.372 309.589 101.281 309.904 101.084 310.153C100.992 310.27 100.835 310.336 100.678 310.336C100.508 310.336 100.154 310.27 100.062 310.166C99.8004 309.891 99.8266 309.209 99.8266 309.183L99.8135 307.781H98.7131C98.3201 307.795 98.2284 307.821 97.9402 307.585C97.7437 307.441 97.6651 307.297 97.6651 307.1C97.6651 306.864 97.8223 306.589 98.0974 306.498C98.4642 306.38 98.4642 306.38 98.8572 306.367L99.8135 306.38V305.371C99.8004 304.978 99.7742 304.493 100.01 304.205C100.154 304.009 100.429 303.904 100.626 303.904C100.861 303.904 101.137 304.087 101.228 304.362C101.346 304.729 101.307 305.122 101.32 305.515ZM113.738 303.865C114.393 304.48 114.72 305.384 114.655 306.223C114.589 307.022 114.157 307.755 113.279 308.096C112.585 308.397 111.93 308.489 111.118 308.554C110.751 308.581 110.541 308.594 110.214 308.607C110.148 308.607 109.926 308.607 109.86 308.62V311.332C109.808 311.659 109.795 312.052 109.454 312.249C109.271 312.353 108.943 312.367 108.72 312.327C108.485 312.288 108.314 312.209 108.21 311.974C108.144 311.816 108.065 311.633 108.065 311.332V304.087C108.065 303.969 108.092 303.865 108.105 303.76C108.131 303.668 108.157 303.563 108.183 303.472C108.223 303.393 108.262 303.314 108.327 303.262C108.406 303.183 108.576 303.092 108.943 303.092H108.969C109.506 303.065 110.266 303.013 110.699 303.065C110.934 303.092 111.144 303.105 111.34 303.118C111.55 303.131 111.76 303.157 111.969 303.183C112.14 303.21 112.284 303.236 112.441 303.262C112.585 303.288 112.755 303.327 112.899 303.406C113.07 303.458 113.227 303.524 113.358 303.603C113.489 303.681 113.62 303.773 113.738 303.865ZM112.952 306.026C113.004 305.175 112.1 304.808 111.249 304.703C111.052 304.69 110.423 304.677 110.227 304.664C110.148 304.651 110.017 304.651 109.86 304.651C109.873 305.188 109.873 305.659 109.873 306.236C109.86 306.55 109.86 306.864 109.86 307.166L110.672 307.153C111.511 307.14 112.86 307.009 112.952 306.026ZM115.742 309.589V307.677C115.742 307.257 115.728 306.524 115.899 306.118C116.03 305.803 116.37 305.712 116.711 305.725C117.445 305.738 117.484 306.249 117.497 306.799C117.798 306.249 118.728 306.105 118.807 306.105C119.239 306.078 119.567 306.065 119.999 306.209C120.549 306.419 121.322 306.982 120.995 307.598C120.759 308.03 120.444 307.939 120.104 307.847C119.92 307.808 119.606 307.65 119.423 307.611C118.257 307.441 117.549 308.502 117.549 308.502V310.388C117.562 311.332 117.615 312.55 116.449 312.471C116.135 312.458 115.859 312.091 115.807 311.816C115.755 311.292 115.728 310.284 115.742 309.589ZM123.252 306.393C124.418 305.816 125.82 305.908 126.802 306.851C127.195 307.244 127.509 307.873 127.654 308.41C127.942 309.367 127.693 310.388 127.182 311.227C126.946 311.607 126.566 311.934 126.16 312.118C125.636 312.353 124.994 312.458 124.418 312.406C122.335 312.288 121.169 310.388 121.693 308.423C121.968 307.388 122.531 306.747 123.252 306.393ZM123.645 308.148C123.134 308.646 123.055 309.681 123.488 310.297C123.658 310.559 124.182 310.755 124.667 310.781C125.793 310.847 126.396 309.249 125.793 308.279C125.361 307.572 124.195 307.637 123.645 308.148ZM131.642 304.729C131.118 304.886 130.712 304.559 130.634 304.061C130.516 303.327 131.236 302.908 131.852 303.354C132.441 303.773 132.363 304.506 131.642 304.729ZM132.166 307.14C132.166 307.559 132.179 309.707 132.166 310.362C132.127 311.397 132.088 312.851 131.105 313.506C130.542 313.873 129.848 313.991 129.219 313.808C128.839 313.716 128.459 313.546 128.21 313.27C127.896 312.943 127.686 312.432 128.001 312.026C128.21 311.764 128.551 311.672 128.839 311.829C129.389 312.105 129.9 312.471 130.424 311.829C130.673 311.515 130.647 310.546 130.647 309.982C130.647 309.196 130.66 309 130.647 308.279C130.634 307.873 130.555 306.406 130.83 306.065C131.053 305.777 131.472 305.777 131.76 305.974C132.14 306.223 132.153 306.733 132.166 307.14ZM137.826 310.519C138.232 310.401 138.769 310.441 138.769 311.03C138.769 311.463 138.297 311.79 137.957 311.934C137.459 312.157 136.765 312.288 136.07 312.262C135.127 312.222 134.184 311.908 133.699 311.135C133.254 310.375 133.188 309.34 133.359 308.515C133.555 307.506 134.04 306.891 134.682 306.511C135.455 306.065 136.529 306.052 137.407 306.445C137.996 306.707 138.494 307.153 138.743 307.781C138.874 308.096 138.939 308.751 138.808 309.131C138.586 309.76 138.219 309.773 137.262 309.812C136.424 309.851 135.835 309.812 134.826 309.786C134.721 310.493 135.494 310.768 136.136 310.821C136.725 310.86 137.249 310.69 137.826 310.519ZM137.262 307.978C137.105 307.795 136.935 307.65 136.738 307.559C136.463 307.441 136.136 307.467 135.861 307.546C135.586 307.611 135.402 307.729 135.219 307.939C135.166 307.991 134.8 308.554 134.944 308.554H137.511C137.498 308.305 137.433 308.161 137.262 307.978ZM144.806 307.271C144.937 307.506 144.95 307.808 144.819 308.057C144.662 308.371 144.361 308.476 144.007 308.397C143.679 308.319 143.575 308.017 143.064 307.939C142.802 307.899 142.461 307.939 142.225 308.043C141.465 308.436 141.282 309.72 141.845 310.362C142.055 310.611 142.435 310.781 142.749 310.808C143.051 310.847 143.352 310.794 143.627 310.703C143.837 310.611 144.125 310.415 144.361 310.388C144.976 310.375 145.081 311.148 144.78 311.528C144.57 311.79 144.125 312.052 143.784 312.157C143.365 312.288 142.802 312.301 142.356 312.249C142.147 312.222 141.911 312.157 141.701 312.091C140.155 311.541 139.645 309.93 140.051 308.502C140.431 307.126 141.217 306.707 142.396 306.445C143.011 306.327 143.745 306.458 144.282 306.786C144.478 306.891 144.675 307.074 144.806 307.271ZM151.181 306.537C151.312 306.864 151.194 307.362 150.893 307.48C150.591 307.611 149.753 307.664 149.321 307.677C149.36 308.725 149.399 309.93 149.373 310.69C149.373 311.227 149.399 312.144 149.046 312.275C148.509 312.498 148.011 312.367 147.827 312.091C147.539 311.646 147.578 310.808 147.592 310.349C147.605 309.615 147.618 308.633 147.618 307.69H147.421C147.002 307.69 146.033 307.677 145.784 307.375C145.391 306.917 145.679 306.262 146.124 306.144C146.439 306.065 147.094 306.065 147.605 306.078C147.592 305.908 147.592 305.738 147.578 305.581C147.552 305.148 147.539 304.205 147.932 303.904C148.456 303.485 149.059 303.865 149.19 304.349C149.308 304.755 149.295 305.568 149.295 306.078H149.426C149.936 306.092 150.919 305.908 151.181 306.537ZM154.872 310.008C154.203 309.589 153.169 309.615 152.514 309.131C151.806 308.594 151.701 307.729 152.147 306.93C152.631 306.092 153.85 305.856 154.754 306.013C155.356 306.118 156.116 306.354 156.339 307.048C156.483 307.506 156.129 307.899 155.658 307.821C155.147 307.729 154.767 307.31 154.23 307.31C153.444 307.284 153.103 308.017 153.837 308.41C154.518 308.764 155.461 308.751 156.064 309.249C157.23 310.179 156.483 311.987 155.081 312.288C154.072 312.498 152.645 312.301 151.937 311.489C151.452 310.912 151.95 309.904 152.645 310.349C153.221 310.729 154.23 311.135 154.741 310.808C155.12 310.559 155.12 310.179 154.872 310.008Z" fill="#765C3A"/>
<ellipse cx="227.613" cy="352.724" rx="80.2375" ry="58.2677" fill="#FFC9AA"/>
<ellipse cx="227.612" cy="337.85" rx="39.5729" ry="14.4646" fill="#D78E64"/>
<path d="M228.027 279.898C228.202 277.54 231.661 277.54 231.837 279.898L233.403 300.908C233.548 302.862 236.191 303.356 237.033 301.586L246.083 282.561C247.099 280.426 250.324 281.675 249.636 283.937L243.506 304.094C242.936 305.969 245.222 307.385 246.647 306.038L261.958 291.567C263.676 289.943 266.232 292.273 264.774 294.134L251.777 310.715C250.568 312.258 252.188 314.403 254.002 313.663L273.508 305.699C275.697 304.806 277.238 307.902 275.206 309.11L257.097 319.877C255.412 320.878 256.148 323.464 258.108 323.429L279.172 323.05C281.536 323.007 281.855 326.451 279.524 326.844L258.748 330.342C256.815 330.667 256.567 333.344 258.407 334.019L278.187 341.275C280.406 342.089 279.46 345.416 277.144 344.94L256.508 340.696C254.588 340.302 253.389 342.708 254.861 344.002L270.684 357.913C272.46 359.474 270.375 362.235 268.388 360.954L250.678 349.542C249.03 348.481 247.043 350.292 247.948 352.03L257.677 370.718C258.769 372.815 255.828 374.636 254.438 372.724L242.046 355.685C240.893 354.1 238.386 355.071 238.602 357.019L240.924 377.959C241.184 380.309 237.784 380.945 237.178 378.659L231.778 358.295C231.276 356.4 228.587 356.4 228.085 358.295L222.685 378.659C222.079 380.945 218.679 380.309 218.94 377.959L221.261 357.019C221.477 355.071 218.97 354.1 217.817 355.685L205.426 372.724C204.035 374.636 201.094 372.815 202.186 370.718L211.915 352.03C212.82 350.292 210.833 348.481 209.186 349.542L191.476 360.954C189.488 362.235 187.404 359.474 189.18 357.913L205.002 344.002C206.474 342.708 205.276 340.302 203.356 340.696L182.72 344.94C180.404 345.416 179.457 342.089 181.677 341.275L201.456 334.019C203.296 333.344 203.048 330.667 201.115 330.342L180.34 326.844C178.008 326.451 178.327 323.007 180.691 323.05L201.756 323.429C203.715 323.464 204.451 320.879 202.767 319.877L184.657 309.11C182.625 307.902 184.167 304.806 186.356 305.699L205.861 313.663C207.675 314.403 209.296 312.258 208.087 310.715L195.09 294.134C193.631 292.273 196.187 289.943 197.905 291.567L213.217 306.038C214.641 307.385 216.927 305.969 216.357 304.094L210.228 283.937C209.54 281.675 212.765 280.426 213.78 282.561L222.83 301.586C223.672 303.356 226.315 302.862 226.461 300.908L228.027 279.898Z" fill="#FFB44A"/>
<circle cx="221.939" cy="334.022" r="7.74367" fill="white"/>
<circle cx="238.676" cy="329.776" r="7.99347" fill="white"/>
<circle cx="223.188" cy="335.771" r="4.99592" fill="black"/>
<circle cx="238.675" cy="331.774" r="4.99592" fill="black"/>
<path d="M227.613 410.992C271.926 410.992 307.85 385.576 307.85 354.225L267.458 337.85C267.458 345.839 249.741 352.315 227.885 352.315C206.03 352.315 188.312 345.839 188.312 337.85L147.375 354.225C147.375 385.576 183.299 410.992 227.613 410.992Z" fill="#FFC9AA"/>
<ellipse cx="303.084" cy="291.195" rx="3.35748" ry="4.39946" transform="rotate(-28.7337 303.084 291.195)" fill="black"/>
<path d="M292.976 280.224C266.357 272.898 270.87 315.88 258.043 347.538C245.216 379.197 304.712 370.327 304.712 370.327C316.447 334.848 307.85 284.318 292.976 280.224Z" fill="#FFC9AA"/>
<ellipse cx="283.08" cy="295.034" rx="3.59792" ry="4.71451" transform="rotate(15.1396 283.08 295.034)" fill="black"/>
<path fill-rule="evenodd" clip-rule="evenodd" d="M306.895 296.053C298.571 296.053 282.655 300.125 281.377 303.695C280.416 306.381 280.843 308.106 282.223 309.153C285.631 311.741 294.857 310.19 303.324 308.767C306.794 308.183 310.136 307.622 312.899 307.374C313.836 307.291 314.706 307.243 315.492 307.243C326.545 307.243 319.586 296.053 306.895 296.053Z" fill="#FFEAA9"/>
<path d="M282.223 309.153C292.69 321.355 299.542 319.818 312.899 307.374C310.136 307.622 306.794 308.183 303.324 308.767C294.857 310.19 285.631 311.741 282.223 309.153Z" fill="url(#paint1_linear_702_434)"/>
<path d="M197.684 375.891C196.65 375.891 195.405 375.72 194.802 374.764C194.475 374.266 194.344 373.65 194.383 373.048C194.462 372.105 195.078 371.437 195.903 371.083C195.759 371.083 195.248 370.651 195.156 370.572C194.947 370.349 194.829 370.022 194.737 369.734C194.514 368.948 194.698 368.004 195.235 367.362C195.68 366.812 196.728 366.485 197.396 366.472C197.842 366.472 198.287 366.432 198.719 366.498C199.256 366.59 199.728 366.865 200.082 367.245C200.776 368.004 200.973 369.013 200.711 369.996C200.619 370.271 200.435 370.506 200.213 370.716C200.121 370.795 199.636 371.122 199.505 371.096C199.925 371.358 200.344 371.554 200.58 372.013C201.064 372.904 201.064 374.109 200.383 374.882C199.715 375.642 198.641 375.891 197.684 375.891ZM197.711 372.065C196.938 372.105 196.073 372.367 195.968 373.284C195.903 373.978 196.532 374.384 197.134 374.45C197.462 374.502 197.815 374.502 198.143 374.436C198.628 374.332 199.034 374.305 199.23 373.781C199.387 373.415 199.374 372.878 199.112 372.589C198.732 372.131 198.274 372.039 197.711 372.065ZM197.724 367.913C196.912 367.965 196.204 368.24 196.243 369.183C196.257 369.511 196.322 369.799 196.571 370.048C196.872 370.389 197.318 370.402 197.737 370.389C198.379 370.389 198.877 370.258 199.165 369.629C199.61 368.607 198.641 367.847 197.724 367.913ZM214.61 367.153C214.65 367.323 214.65 367.493 214.61 367.677C214.584 367.847 214.545 368.017 214.519 368.188L214.506 368.24C214.27 369.314 213.929 370.585 213.68 371.646C213.471 372.511 213.235 373.664 212.999 374.528C212.92 374.816 212.829 375.118 212.685 375.419C212.436 375.943 212.017 376.27 211.466 375.877C211.047 375.589 210.903 374.974 210.693 374.541C210.562 374.279 210.091 372.655 209.894 372.209C209.58 372.982 209.239 374.292 209.121 374.633C208.859 375.34 208.493 376.48 207.576 375.891C207.405 375.786 207.274 375.615 207.209 375.445C207.13 375.196 207.025 374.974 206.973 374.738L206.711 373.755L206.174 371.646C206.043 371.109 205.912 370.546 205.742 369.93C205.584 369.327 205.506 368.843 205.296 367.677C205.27 367.493 205.257 367.323 205.283 367.153C205.296 367.022 205.362 366.904 205.467 366.812C205.558 366.721 205.689 366.668 205.82 366.642C205.938 366.603 206.056 366.59 206.148 366.59C206.253 366.59 206.37 366.629 206.475 366.694C206.541 366.734 206.606 366.786 206.659 366.865L206.816 367.14C206.855 367.258 206.881 367.349 206.921 367.454C206.947 367.572 206.973 367.664 206.986 367.755C207.143 368.659 207.392 369.537 207.589 370.31C207.746 370.926 207.995 372.327 208.191 372.864C208.414 372.092 208.65 371.292 208.925 370.493C209.213 369.655 209.488 369.065 210.156 369.314C210.445 369.432 210.68 369.904 210.851 370.323C211.152 371.096 211.466 372.092 211.728 372.616C211.846 372.223 212.017 371.358 212.148 370.808C212.37 369.865 212.632 368.895 212.855 367.978L212.92 367.755C212.947 367.664 212.96 367.572 212.986 367.454C213.012 367.349 213.051 367.258 213.091 367.14C213.13 367.048 213.169 366.956 213.235 366.865C213.287 366.786 213.366 366.734 213.431 366.694C213.549 366.629 213.654 366.59 213.746 366.59C213.851 366.59 213.955 366.603 214.073 366.642C214.217 366.668 214.335 366.721 214.453 366.812C214.545 366.904 214.597 367.022 214.61 367.153ZM216.695 369.982C217.861 369.406 219.263 369.498 220.245 370.441C220.638 370.834 220.953 371.463 221.097 372C221.385 372.956 221.136 373.978 220.625 374.816C220.389 375.196 220.009 375.524 219.603 375.707C219.079 375.943 218.437 376.048 217.861 375.995C215.778 375.877 214.612 373.978 215.136 372.013C215.411 370.978 215.975 370.336 216.695 369.982ZM217.088 371.738C216.577 372.236 216.499 373.271 216.931 373.886C217.101 374.148 217.625 374.345 218.11 374.371C219.236 374.436 219.839 372.838 219.236 371.869C218.804 371.161 217.638 371.227 217.088 371.738ZM222.285 373.179V371.266C222.285 370.847 222.272 370.113 222.442 369.707C222.573 369.393 222.913 369.301 223.254 369.314C223.988 369.327 224.027 369.838 224.04 370.389C224.341 369.838 225.271 369.694 225.35 369.694C225.782 369.668 226.11 369.655 226.542 369.799C227.092 370.009 227.865 370.572 227.538 371.188C227.302 371.62 226.988 371.528 226.647 371.437C226.464 371.397 226.149 371.24 225.966 371.201C224.8 371.03 224.092 372.092 224.092 372.092V373.978C224.106 374.921 224.158 376.139 222.992 376.061C222.678 376.048 222.403 375.681 222.35 375.406C222.298 374.882 222.272 373.873 222.285 373.179ZM231.275 372.891C232.415 374.096 231.55 373.126 232.716 374.332C233.03 374.646 233.319 375.065 233.07 375.537C232.795 376.035 232.349 375.877 231.917 375.563C231.511 375.262 231.118 374.803 230.895 374.594C230.83 374.528 230.777 374.476 230.751 374.436C230.725 374.41 230.685 374.384 230.646 374.345C230.528 374.227 230.384 374.096 230.24 373.965V374.476C230.24 374.554 230.24 374.62 230.253 374.685C230.253 374.764 230.253 374.816 230.24 374.882C230.214 374.974 230.201 375.065 230.201 375.157C230.188 375.236 230.175 375.314 230.135 375.406C230.122 375.445 230.109 375.458 230.109 375.484C230.096 375.511 230.083 375.524 230.07 375.563C230.017 375.668 229.939 375.746 229.86 375.812C229.677 375.917 229.467 375.93 229.244 375.891C229.113 375.864 229.022 375.825 228.943 375.746C228.865 375.694 228.812 375.615 228.786 375.524C228.747 375.432 228.72 375.34 228.694 375.249C228.668 375.17 228.668 375.078 228.668 375.026V367.572C228.668 367.467 228.668 367.362 228.681 367.258C228.694 367.153 228.734 367.061 228.76 366.969C228.799 366.878 228.838 366.812 228.891 366.76C228.982 366.668 229.074 366.629 229.166 366.603C229.258 366.59 229.375 366.576 229.48 366.576C229.611 366.576 229.729 366.616 229.847 366.681C229.965 366.76 230.044 366.852 230.096 366.983C230.161 367.14 230.201 367.297 230.201 367.467C230.214 367.638 230.24 368.096 230.24 368.266V368.319C230.253 368.895 230.253 369.393 230.253 369.996C230.24 370.598 230.24 371.148 230.24 371.685V371.83C230.384 371.699 230.528 371.568 230.646 371.437C230.699 371.397 230.725 371.371 230.751 371.345L230.895 371.201C231.118 370.978 231.511 370.52 231.917 370.218C232.349 369.904 232.795 369.76 233.07 370.244C233.319 370.716 233.03 371.135 232.716 371.476C231.55 372.668 232.415 371.699 231.275 372.891ZM237.351 373.598C236.683 373.179 235.648 373.205 234.993 372.72C234.286 372.183 234.181 371.319 234.626 370.52C235.111 369.681 236.329 369.445 237.233 369.603C237.836 369.707 238.596 369.943 238.818 370.637C238.962 371.096 238.609 371.489 238.137 371.41C237.626 371.319 237.246 370.899 236.709 370.899C235.923 370.873 235.583 371.607 236.316 372C236.997 372.354 237.941 372.34 238.543 372.838C239.709 373.768 238.962 375.576 237.561 375.877C236.552 376.087 235.124 375.891 234.417 375.078C233.932 374.502 234.43 373.493 235.124 373.939C235.701 374.319 236.709 374.725 237.22 374.397C237.6 374.148 237.6 373.768 237.351 373.598ZM245.278 373.323C245.291 373.664 245.291 374.07 245.278 374.384C245.239 375.327 245.226 375.982 244.44 375.891C243.64 375.799 243.824 374.371 243.798 373.873C243.771 373.1 243.85 371.712 242.946 371.685C241.78 371.62 241.859 372.209 241.767 372.982L241.754 373.493V374.45C241.754 375.078 241.78 375.891 240.942 375.904C240.418 375.904 240.169 375.511 240.169 375.013V367.48C240.169 367.376 240.182 367.284 240.195 367.179C240.221 367.074 240.248 366.983 240.274 366.891C240.3 366.812 240.352 366.734 240.405 366.694C240.496 366.616 240.575 366.55 240.68 366.537C240.772 366.524 240.876 366.511 240.981 366.511C241.125 366.511 241.243 366.55 241.361 366.629C241.466 366.694 241.558 366.773 241.61 366.904C241.675 367.061 241.715 367.205 241.715 367.376C241.741 367.546 241.741 368.096 241.754 368.266V368.332C241.767 368.882 241.767 369.472 241.767 370.061V370.284C242.488 370.035 243.365 370.035 243.994 370.349C245.291 371.004 245.239 372.052 245.278 373.323ZM248.025 369.982C249.191 369.406 250.593 369.498 251.575 370.441C251.968 370.834 252.283 371.463 252.427 372C252.715 372.956 252.466 373.978 251.955 374.816C251.719 375.196 251.339 375.524 250.933 375.707C250.409 375.943 249.767 376.048 249.191 375.995C247.108 375.877 245.942 373.978 246.466 372.013C246.741 370.978 247.305 370.336 248.025 369.982ZM248.418 371.738C247.907 372.236 247.829 373.271 248.261 373.886C248.431 374.148 248.955 374.345 249.44 374.371C250.566 374.436 251.169 372.838 250.566 371.869C250.134 371.161 248.968 371.227 248.418 371.738ZM257.27 370.009C258.278 370.441 258.986 371.646 258.986 372.838C258.999 373.729 258.593 374.581 257.636 375C256.916 375.301 256.13 375.432 255.291 375.484V377.882C255.291 377.987 255.252 378.078 255.252 378.157C255.226 378.327 255.174 378.458 255.108 378.615C255.043 378.72 254.977 378.812 254.885 378.89C254.676 378.995 254.466 379.021 254.23 378.956C254.086 378.943 253.981 378.904 253.89 378.825C253.824 378.759 253.759 378.681 253.719 378.576C253.68 378.471 253.654 378.38 253.628 378.275C253.615 378.196 253.602 378.104 253.602 378.026V370.729C253.602 370.624 253.615 370.506 253.628 370.389C253.641 370.284 253.667 370.179 253.706 370.074C253.864 369.642 254.401 369.511 255.016 369.524C255.868 369.55 256.863 369.838 257.27 370.009ZM257.296 372.838C257.427 371.856 256.47 371.528 255.619 371.41C255.567 371.397 255.436 371.397 255.305 371.397C255.305 371.947 255.318 372.445 255.305 373.035V373.912C256.117 373.86 257.178 373.703 257.296 372.838ZM263.18 373.598C262.512 373.179 261.477 373.205 260.822 372.72C260.115 372.183 260.01 371.319 260.455 370.52C260.94 369.681 262.158 369.445 263.062 369.603C263.665 369.707 264.425 369.943 264.647 370.637C264.791 371.096 264.438 371.489 263.966 371.41C263.455 371.319 263.075 370.899 262.538 370.899C261.752 370.873 261.412 371.607 262.145 372C262.826 372.354 263.77 372.34 264.372 372.838C265.538 373.768 264.791 375.576 263.39 375.877C262.381 376.087 260.953 375.891 260.246 375.078C259.761 374.502 260.259 373.493 260.953 373.939C261.53 374.319 262.538 374.725 263.049 374.397C263.429 374.148 263.429 373.768 263.18 373.598ZM210.004 388.891C208.969 388.891 207.725 388.72 207.122 387.764C206.795 387.266 206.664 386.65 206.703 386.048C206.781 385.105 207.397 384.437 208.222 384.083C208.078 384.083 207.567 383.651 207.476 383.572C207.266 383.349 207.148 383.022 207.057 382.734C206.834 381.948 207.017 381.004 207.554 380.362C208 379.812 209.048 379.485 209.716 379.472C210.161 379.472 210.607 379.432 211.039 379.498C211.576 379.59 212.048 379.865 212.401 380.245C213.096 381.004 213.292 382.013 213.03 382.996C212.938 383.271 212.755 383.506 212.532 383.716C212.441 383.795 211.956 384.122 211.825 384.096C212.244 384.358 212.663 384.554 212.899 385.013C213.384 385.904 213.384 387.109 212.703 387.882C212.035 388.642 210.96 388.891 210.004 388.891ZM210.03 385.065C209.257 385.105 208.393 385.367 208.288 386.284C208.222 386.978 208.851 387.384 209.454 387.45C209.781 387.502 210.135 387.502 210.463 387.436C210.947 387.332 211.353 387.305 211.55 386.781C211.707 386.415 211.694 385.878 211.432 385.589C211.052 385.131 210.594 385.039 210.03 385.065ZM210.043 380.913C209.231 380.965 208.524 381.24 208.563 382.183C208.576 382.511 208.642 382.799 208.891 383.048C209.192 383.389 209.637 383.402 210.056 383.389C210.698 383.389 211.196 383.258 211.484 382.629C211.93 381.607 210.96 380.847 210.043 380.913ZM221.245 383.009C222.253 383.441 222.961 384.646 222.961 385.838C222.974 386.729 222.568 387.581 221.611 388C220.891 388.301 220.105 388.432 219.266 388.484V390.882C219.266 390.987 219.227 391.078 219.227 391.157C219.201 391.327 219.149 391.458 219.083 391.615C219.018 391.72 218.952 391.812 218.86 391.89C218.651 391.995 218.441 392.021 218.205 391.956C218.061 391.943 217.956 391.904 217.865 391.825C217.799 391.759 217.734 391.681 217.694 391.576C217.655 391.471 217.629 391.38 217.603 391.275C217.59 391.196 217.577 391.104 217.577 391.026V383.729C217.577 383.624 217.59 383.506 217.603 383.389C217.616 383.284 217.642 383.179 217.681 383.074C217.839 382.642 218.376 382.511 218.991 382.524C219.843 382.55 220.838 382.838 221.245 383.009ZM221.271 385.838C221.402 384.856 220.445 384.528 219.594 384.41C219.542 384.397 219.411 384.397 219.28 384.397C219.28 384.947 219.293 385.445 219.28 386.035V386.912C220.092 386.86 221.153 386.703 221.271 385.838ZM225.557 383.389C226.618 382.851 227.902 382.93 228.793 383.795C229.251 384.253 229.474 384.79 229.579 385.445C229.71 386.336 230.273 386.978 230.469 387.829C230.561 388.236 230.417 388.681 229.972 388.76C229.435 388.864 229.055 388.288 228.819 387.908C228.413 388.432 227.967 388.707 227.312 388.799C226.749 388.864 226.277 388.838 225.701 388.681C224.208 388.288 223.775 386.65 224.155 385.223C224.404 384.279 224.915 383.703 225.557 383.389ZM225.884 384.921C225.387 385.393 225.334 386.349 225.727 386.912C225.898 387.161 226.369 387.345 226.828 387.371C227.876 387.436 228.439 385.943 227.876 385.039C227.47 384.371 226.382 384.437 225.884 384.921ZM231.572 386.113V384.227C231.572 383.821 231.52 383.336 231.677 382.969C231.821 382.642 232.188 382.485 232.502 382.563C233.144 382.668 233.131 383.14 233.157 383.611C233.498 382.996 234.297 382.838 234.585 382.825C235.253 382.825 235.961 383.127 236.393 383.651C236.878 384.266 236.865 385.039 236.904 385.799C236.943 386.349 236.943 386.912 236.904 387.463C236.878 387.908 236.97 388.773 236.459 388.877C235.725 389.035 235.568 388.707 235.476 388.222C235.398 387.829 235.398 387.174 235.384 386.768C235.384 386.441 235.358 386.009 235.371 385.655C235.371 384.843 234.913 384.384 234.179 384.45C233.616 384.515 233.131 384.921 233.144 385.511C233.157 385.956 233.118 386.244 233.131 386.808C233.131 387.384 233.171 388.091 233.013 388.498C232.882 388.917 232.516 389.1 232.07 388.864C231.69 388.642 231.651 388.105 231.625 387.725C231.572 387.148 231.572 386.69 231.572 386.113ZM242.527 387.109C242.933 386.991 243.47 387.03 243.47 387.62C243.47 388.052 242.998 388.38 242.658 388.524C242.16 388.746 241.466 388.877 240.771 388.851C239.828 388.812 238.885 388.498 238.4 387.725C237.955 386.965 237.889 385.93 238.06 385.105C238.256 384.096 238.741 383.48 239.383 383.1C240.156 382.655 241.23 382.642 242.108 383.035C242.697 383.297 243.195 383.742 243.444 384.371C243.575 384.685 243.64 385.34 243.509 385.72C243.287 386.349 242.92 386.362 241.963 386.402C241.125 386.441 240.536 386.402 239.527 386.375C239.422 387.083 240.195 387.358 240.837 387.41C241.426 387.45 241.95 387.279 242.527 387.109ZM241.963 384.568C241.806 384.384 241.636 384.24 241.439 384.148C241.164 384.03 240.837 384.057 240.562 384.135C240.287 384.201 240.103 384.319 239.92 384.528C239.867 384.581 239.501 385.144 239.645 385.144H242.212C242.199 384.895 242.134 384.751 241.963 384.568ZM246.657 387.856C246.644 387.947 246.631 388.026 246.631 388.105L246.553 388.38C246.54 388.406 246.526 388.432 246.513 388.445L246.474 388.524C246.422 388.629 246.33 388.707 246.238 388.76C246.029 388.864 245.806 388.891 245.57 388.838C245.426 388.825 245.295 388.773 245.216 388.707C245.138 388.655 245.072 388.589 245.033 388.484C244.994 388.393 244.968 388.301 244.954 388.222C244.928 388.131 244.915 388.052 244.915 387.987V380.651C244.915 380.533 244.928 380.441 244.941 380.349C244.954 380.231 244.981 380.153 245.02 380.048C245.046 379.969 245.099 379.891 245.164 379.838C245.256 379.773 245.361 379.721 245.465 379.707C245.583 379.668 245.688 379.668 245.819 379.668C245.95 379.668 246.094 379.707 246.238 379.773C246.356 379.838 246.448 379.943 246.5 380.061C246.579 380.218 246.631 380.389 246.631 380.546C246.644 380.716 246.657 381.162 246.657 381.332V381.384C246.684 381.948 246.684 382.432 246.671 383.035C246.671 383.624 246.657 384.175 246.657 384.712V387.463C246.657 387.528 246.671 387.594 246.671 387.659C246.671 387.738 246.671 387.79 246.657 387.856ZM250.86 386.598C250.192 386.179 249.157 386.205 248.502 385.72C247.795 385.183 247.69 384.319 248.136 383.52C248.62 382.681 249.839 382.445 250.743 382.603C251.345 382.707 252.105 382.943 252.328 383.637C252.472 384.096 252.118 384.489 251.646 384.41C251.136 384.319 250.756 383.899 250.219 383.899C249.433 383.873 249.092 384.607 249.826 385C250.507 385.354 251.45 385.34 252.053 385.838C253.218 386.768 252.472 388.576 251.07 388.877C250.061 389.087 248.633 388.891 247.926 388.078C247.441 387.502 247.939 386.493 248.633 386.939C249.21 387.319 250.219 387.725 250.729 387.397C251.109 387.148 251.109 386.768 250.86 386.598Z" fill="#C05111"/>
<path d="M267.097 129.592C269.339 133.143 266.461 138.88 262.274 139.206C257.949 139.542 254.18 133.573 256.343 129.813C258.437 126.172 264.854 126.04 267.097 129.592Z" fill="#0046A8"/>
<path d="M227.34 343.718L232.662 341.632M232.662 341.632L237.438 339.76C237.438 339.76 239.191 344.535 237.165 345.492C235.07 346.481 232.662 341.632 232.662 341.632Z" stroke="black" stroke-width="1.91042"/>
</g>
<defs>
<linearGradient id="paint0_linear_702_434" x1="129.226" y1="137.939" x2="90.0625" y2="148.446" gradientUnits="userSpaceOnUse">
<stop stop-color="#FFD3DF"/>
<stop offset="1" stop-color="#FF87A8"/>
</linearGradient>
<linearGradient id="paint1_linear_702_434" x1="300.932" y1="296.053" x2="300.932" y2="317.547" gradientUnits="userSpaceOnUse">
<stop stop-color="#998C66"/>
<stop offset="0.807692" stop-color="#FFEAA9"/>
</linearGradient>
<clipPath id="clip0_702_434">
<rect width="393" height="492" fill="white"/>
</clipPath>
</defs>
</svg>
