<svg width="1440" height="1488" viewBox="0 0 1440 1488" fill="none" xmlns="http://www.w3.org/2000/svg">
<g clip-path="url(#clip0_496_399)">
<rect width="1440" height="1488" fill="#D1EAFF"/>
<path d="M474.5 241.474C379.5 287.962 144.201 310.611 -34 198.707V1987H1451V40.3107C1335.38 111.166 1163.26 8.46169 983 40.3107C773.848 77.2645 569.5 194.985 474.5 241.474Z" fill="#D1F6FE" stroke="#8FEBFF" stroke-width="8" stroke-linecap="round"/>
<ellipse cx="1002" cy="597.5" rx="288" ry="113.5" fill="#BAF2FE"/>
<ellipse cx="988" cy="975.5" rx="288" ry="153.5" fill="#BAF2FE"/>
<ellipse cx="922" cy="1309.5" rx="288" ry="153.5" fill="#BAF2FE"/>
<ellipse cx="547" cy="1065.5" rx="288" ry="153.5" fill="#BAF2FE"/>
<ellipse cx="524" cy="691.5" rx="288" ry="153.5" fill="#BAF2FE"/>
<ellipse cx="1033" cy="711" rx="145" ry="53" fill="#60B080"/>
<ellipse cx="538" cy="504" rx="115" ry="59" fill="#E97494"/>
<ellipse cx="934" cy="442" rx="294" ry="211" fill="#FFF9D3"/>
<ellipse cx="934" cy="385" rx="145" ry="53" fill="#D6CD91"/>
<path d="M1007.04 261.285C973.751 210.996 875.224 225.924 874.749 294.594C835.184 258.673 776.039 332.313 822.248 369.013C785.155 412.535 855.837 455.895 887.298 424.51C930.1 483.087 1029.79 454.962 1028.61 393.207C1074.28 398.562 1110.82 352.605 1067.83 324.341C1104.65 283.157 1048.02 227.697 1007.04 261.285Z" fill="#4894FF"/>
<circle cx="23.8709" cy="23.8709" r="23.8709" transform="matrix(-0.993131 0.117006 0.117006 0.993131 1005.83 305.422)" fill="white"/>
<circle cx="24.8625" cy="24.8625" r="24.8625" transform="matrix(-0.993131 0.117006 0.117006 0.993131 940.798 317.422)" fill="white"/>
<path d="M964.609 334.275C965.621 342.868 973.407 349.012 982 348C990.592 346.988 996.737 339.202 995.725 330.609C994.712 322.017 986.926 315.872 978.334 316.885C969.742 317.897 963.597 325.683 964.609 334.275Z" fill="#0046A8"/>
<circle cx="15.6278" cy="15.6278" r="15.6278" transform="matrix(-0.993131 0.117006 0.117006 0.993131 936.041 325)" fill="#0046A8"/>
<path d="M934 653C1096.37 653 1228 559.875 1228 445L1080 385C1080 414.271 1015.08 438 935 438C854.919 438 790 414.271 790 385L640 445C640 559.875 771.628 653 934 653Z" fill="#FFF9D3"/>
<path d="M897.837 529.88C898.669 532.312 898.669 536.088 897.901 538.392C895.149 547.992 879.917 551.32 871.213 546.52C868.461 544.984 866.541 542.744 865.197 539.992C864.237 538.072 864.621 534.744 867.309 534.104C869.101 533.72 871.725 534.04 872.749 536.216C873.645 538.008 875.565 539.544 877.549 540.504C883.181 542.424 889.645 539.48 889.645 534.552C889.645 530.52 887.213 529.368 883.565 528.472C879.533 527.64 875.053 527.96 871.149 526.232C863.341 522.968 862.957 511.896 868.589 506.52C871.341 504.088 875.181 503.128 879.789 502.936C884.909 502.744 890.541 503.96 893.549 506.52C895.725 508.248 898.669 512.6 895.405 514.584C892.717 516.312 890.477 513.56 888.685 512.28C886.381 510.552 882.541 510.04 879.597 510.36C875.885 510.808 872.877 512.792 873.197 516.632C873.389 519.384 876.333 520.28 878.829 520.6C882.605 521.112 886.573 521.048 890.221 522.456C893.933 523.928 896.749 526.424 897.837 529.88ZM936.388 505.176C936.836 505.688 937.092 506.264 937.092 506.904C937.092 507.416 937.028 507.992 936.964 508.44C936.836 508.888 936.58 509.336 936.132 509.784C935.748 510.04 935.236 510.232 934.724 510.36C934.148 510.552 933.572 510.616 932.868 510.744C932.292 510.808 931.652 510.808 931.012 510.808H927.748C926.212 510.872 924.74 510.872 923.268 510.872C923.396 516.12 923.204 522.52 923.204 536.6V541.464C923.204 541.848 923.204 542.104 923.268 542.424C923.268 542.744 923.268 543.064 923.204 543.448C923.14 543.832 923.076 544.28 923.012 544.792C923.012 545.176 922.884 545.56 922.756 546.008C922.564 546.2 922.5 546.328 922.5 546.392L922.308 546.776C922.052 547.288 921.604 547.672 921.092 547.992C920.196 548.44 919.108 548.568 917.956 548.312C917.252 548.248 916.676 548.056 916.292 547.736C915.908 547.352 915.652 547.032 915.46 546.584C915.204 546.072 915.076 545.688 915.012 545.24C914.884 544.856 914.82 544.344 914.82 544.024V511.128C913.796 511.128 907.524 511.064 906.372 510.872C905.86 510.808 904.516 510.616 903.876 510.424C902.916 510.168 902.276 509.784 901.764 509.208C901.316 508.696 901.06 508.056 901.06 507.352C901.06 506.84 901.06 506.328 901.188 505.88C901.316 505.432 901.636 504.984 902.212 504.6C902.532 504.344 903.364 503.896 904.068 503.704C904.58 503.512 905.284 503.384 905.988 503.32C906.692 503.256 907.332 503.256 908.1 503.256C911.108 503.256 913.668 503.256 916.612 503.192C921.54 503.128 926.468 503.192 931.332 503.32C932.42 503.384 933.444 503.512 934.468 503.96C935.236 504.216 935.94 504.6 936.388 505.176ZM973.361 544.152C973.425 544.664 973.489 545.112 973.489 545.688C973.489 546.2 973.361 546.648 973.041 547.096C972.785 547.48 972.337 547.928 971.761 548.184C970.673 548.824 969.585 549.016 968.369 548.824C967.857 548.696 967.281 548.44 966.769 547.992C966.641 547.864 966.513 547.8 966.449 547.672C966.385 547.608 966.257 547.416 966.129 547.352C965.745 546.968 965.489 546.52 965.233 546.136C965.041 545.752 964.849 545.368 964.593 544.92C964.401 544.6 964.208 544.28 964.145 543.96C964.017 543.64 963.889 543.256 963.825 542.936L962.481 539.8C956.657 539.8 950.705 539.864 944.881 539.8L943.537 542.936C943.409 543.256 943.345 543.64 943.217 543.96C943.089 544.28 942.961 544.6 942.769 544.92C942.513 545.368 942.321 545.752 942.065 546.136C941.873 546.52 941.617 546.968 941.233 547.352C941.105 547.416 940.977 547.608 940.913 547.672C940.849 547.8 940.72 547.864 940.593 547.992C940.081 548.44 939.505 548.696 938.993 548.824C937.777 549.016 936.689 548.824 935.601 548.184C935.025 547.928 934.577 547.48 934.321 547.096C934.001 546.648 933.873 546.2 933.873 545.688C933.873 545.112 933.937 544.664 934.001 544.152C934.065 543.768 934.193 543.32 934.321 543C934.449 542.616 934.513 542.488 934.513 542.424L947.825 509.656L948.208 508.632C948.401 508.12 948.657 507.736 948.849 507.16C949.041 506.648 949.233 506.2 949.553 505.688C949.809 505.176 950.193 504.728 950.513 504.344C950.833 503.96 951.217 503.704 951.601 503.512C952.817 503.064 954.545 503.064 955.761 503.512C956.145 503.704 956.529 503.96 956.849 504.344C957.169 504.728 957.489 505.176 957.809 505.688C958.129 506.2 958.321 506.648 958.513 507.16C958.705 507.736 958.961 508.12 959.153 508.632L959.537 509.656L972.849 542.424C972.849 542.488 972.913 542.616 973.041 543C973.169 543.32 973.297 543.768 973.361 544.152ZM959.345 531.288L958.193 528.472C957.105 526.04 955.953 523.352 954.673 520.6C954.353 519.832 953.969 519 953.649 518.232C953.393 519 953.009 519.832 952.689 520.6C951.409 523.352 950.257 526.04 949.169 528.472L948.017 531.288H959.345ZM1005.64 505.176C1006.09 505.688 1006.34 506.264 1006.34 506.904C1006.34 507.416 1006.28 507.992 1006.21 508.44C1006.09 508.888 1005.83 509.336 1005.38 509.784C1005 510.04 1004.49 510.232 1003.97 510.36C1003.4 510.552 1002.82 510.616 1002.12 510.744C1001.54 510.808 1000.9 510.808 1000.26 510.808H996.998C995.462 510.872 993.99 510.872 992.518 510.872C992.646 516.12 992.454 522.52 992.454 536.6V541.464C992.454 541.848 992.454 542.104 992.518 542.424C992.518 542.744 992.518 543.064 992.454 543.448C992.39 543.832 992.326 544.28 992.262 544.792C992.262 545.176 992.134 545.56 992.006 546.008C991.814 546.2 991.75 546.328 991.75 546.392L991.558 546.776C991.302 547.288 990.854 547.672 990.342 547.992C989.446 548.44 988.358 548.568 987.206 548.312C986.502 548.248 985.926 548.056 985.542 547.736C985.158 547.352 984.902 547.032 984.71 546.584C984.454 546.072 984.326 545.688 984.262 545.24C984.134 544.856 984.07 544.344 984.07 544.024V511.128C983.046 511.128 976.774 511.064 975.622 510.872C975.11 510.808 973.766 510.616 973.126 510.424C972.166 510.168 971.526 509.784 971.014 509.208C970.566 508.696 970.31 508.056 970.31 507.352C970.31 506.84 970.31 506.328 970.438 505.88C970.566 505.432 970.886 504.984 971.462 504.6C971.782 504.344 972.614 503.896 973.318 503.704C973.83 503.512 974.534 503.384 975.238 503.32C975.942 503.256 976.582 503.256 977.35 503.256C980.358 503.256 982.918 503.256 985.862 503.192C990.79 503.128 995.718 503.192 1000.58 503.32C1001.67 503.384 1002.69 503.512 1003.72 503.96C1004.49 504.216 1005.19 504.6 1005.64 505.176ZM1042.65 529.88C1043.48 532.312 1043.48 536.088 1042.71 538.392C1039.96 547.992 1024.73 551.32 1016.03 546.52C1013.27 544.984 1011.35 542.744 1010.01 539.992C1009.05 538.072 1009.43 534.744 1012.12 534.104C1013.91 533.72 1016.54 534.04 1017.56 536.216C1018.46 538.008 1020.38 539.544 1022.36 540.504C1027.99 542.424 1034.46 539.48 1034.46 534.552C1034.46 530.52 1032.03 529.368 1028.38 528.472C1024.35 527.64 1019.87 527.96 1015.96 526.232C1008.15 522.968 1007.77 511.896 1013.4 506.52C1016.15 504.088 1019.99 503.128 1024.6 502.936C1029.72 502.744 1035.35 503.96 1038.36 506.52C1040.54 508.248 1043.48 512.6 1040.22 514.584C1037.53 516.312 1035.29 513.56 1033.5 512.28C1031.19 510.552 1027.35 510.04 1024.41 510.36C1020.7 510.808 1017.69 512.792 1018.01 516.632C1018.2 519.384 1021.15 520.28 1023.64 520.6C1027.42 521.112 1031.39 521.048 1035.03 522.456C1038.75 523.928 1041.56 526.424 1042.65 529.88Z" fill="#765C3A"/>
<ellipse cx="954" cy="812" rx="294" ry="208" fill="#84EFAF"/>
<ellipse cx="955" cy="752" rx="145" ry="53" fill="#60B080"/>
<path d="M896.505 595.5C869.402 595.5 823.005 777 844.531 798.035C866.056 819.07 1046.12 817.516 1066.44 787.024C1083.99 760.707 1054.59 608.307 1030.02 608.307C1009.55 608.307 1011.38 649.714 1001.59 648.116C982.505 645 974.028 567 952.005 567C929.982 567 926.505 638.5 915.505 633.5C904.505 628.5 921.368 595.5 896.505 595.5Z" fill="#A172FF"/>
<circle cx="906.724" cy="721.805" r="41.503" fill="white"/>
<circle cx="998.2" cy="721.805" r="41.503" fill="white"/>
<circle cx="904.15" cy="714.645" r="29.645" fill="black"/>
<circle cx="992.15" cy="714.645" r="29.645" fill="black"/>
<path d="M954 1020C1116.37 1020 1248 926.875 1248 812L1100 752C1100 781.271 1035.08 805 955 805C874.919 805 810 781.271 810 752L660 812C660 926.875 791.628 1020 954 1020Z" fill="#84EFAF"/>
<ellipse cx="951.5" cy="763.5" rx="21.5" ry="16.5" fill="#4D168F"/>
<path d="M814.186 863.576C814.762 863 815.722 862.904 816.97 862.904H828.826C830.554 862.904 833.194 862.568 833.818 864.632C834.202 865.928 833.722 868.136 831.994 868.328C830.362 868.616 828.49 868.328 826.81 868.328C824.986 868.328 823.738 868.52 821.962 868.52C821.29 868.52 819.946 868.376 819.37 868.568C818.314 868.808 818.362 870.248 818.362 871.016C818.362 872.12 818.218 873.224 818.17 874.328C818.026 875.816 818.554 875.768 819.898 875.384C821.05 875.096 822.25 874.952 823.45 874.952C829.93 874.952 835.018 878.408 835.018 885.512C835.018 886.136 835.018 886.712 834.874 887.288C834.346 891.32 831.706 894.584 827.866 895.928C823.354 897.656 818.17 897.656 814.09 895.016C812.938 894.344 811.882 893.288 811.45 892.04C810.922 890.696 811.066 889.064 812.506 888.344C814.666 887.288 816.106 889.352 817.786 890.264C819.226 890.984 820.858 891.512 822.634 891.512C826.57 891.512 829.21 889.208 829.21 885.656C829.21 882.248 826.474 880.136 822.298 880.136C821.194 880.136 820.09 880.232 819.034 880.568C816.97 881.048 815.05 882.2 813.322 880.184C812.506 879.32 812.698 877.88 812.794 876.776C812.89 874.904 812.986 873.08 813.082 871.208C813.226 869.384 813.322 867.512 813.418 865.688C813.466 864.632 813.754 864.008 814.186 863.576ZM851.681 896.984C850.529 896.984 849.329 896.84 848.177 896.408C846.449 895.736 844.865 894.488 843.569 893C840.497 889.544 838.865 884.552 838.865 879.704C838.865 876.44 839.537 873.08 840.785 870.056C841.697 867.896 843.857 864.968 845.873 864.056C846.593 863.72 847.409 863.384 848.177 863.096C850.241 862.472 853.025 862.616 855.137 863.096C860.993 864.488 863.537 870.824 864.257 876.92C864.497 878.936 864.401 881 864.161 883.016C863.681 886.76 862.913 890.456 860.225 893.144C857.825 895.496 854.897 896.888 851.681 896.984ZM851.633 869C850.769 869 849.857 869.144 849.089 869.624C848.225 870.2 847.505 871.064 846.977 871.976C845.633 874.28 845.201 877.016 845.201 879.656C845.201 882.392 845.729 885.56 847.313 887.96C848.081 889.112 849.137 890.024 850.529 890.408C851.825 890.744 853.169 890.648 854.321 889.928C858.017 887.672 858.497 881.72 858.209 877.832C857.921 873.992 856.385 868.856 851.633 869ZM881.072 896.984C879.92 896.984 878.72 896.84 877.568 896.408C875.84 895.736 874.256 894.488 872.96 893C869.888 889.544 868.256 884.552 868.256 879.704C868.256 876.44 868.928 873.08 870.176 870.056C871.088 867.896 873.248 864.968 875.264 864.056C875.984 863.72 876.8 863.384 877.568 863.096C879.632 862.472 882.416 862.616 884.528 863.096C890.384 864.488 892.928 870.824 893.648 876.92C893.888 878.936 893.792 881 893.552 883.016C893.072 886.76 892.304 890.456 889.616 893.144C887.216 895.496 884.288 896.888 881.072 896.984ZM881.024 869C880.16 869 879.248 869.144 878.48 869.624C877.616 870.2 876.896 871.064 876.368 871.976C875.024 874.28 874.592 877.016 874.592 879.656C874.592 882.392 875.12 885.56 876.704 887.96C877.472 889.112 878.528 890.024 879.92 890.408C881.216 890.744 882.56 890.648 883.712 889.928C887.408 887.672 887.888 881.72 887.6 877.832C887.312 873.992 885.776 868.856 881.024 869ZM911.087 872.216V875.432L916.463 875.48C917.567 875.288 917.855 875.624 918.767 876.344C919.199 876.68 919.439 877.256 919.439 877.832C919.439 878.456 919.199 879.272 918.815 879.608C917.807 880.568 916.271 880.472 916.175 880.472H911.087V886.04C911.279 887.144 910.943 888.296 910.223 889.208C909.887 889.64 909.311 889.88 908.735 889.88C908.111 889.88 906.815 889.64 906.479 889.256C905.519 888.248 905.615 885.752 905.615 885.656L905.567 880.52H901.535C900.095 880.568 899.759 880.664 898.703 879.8C897.983 879.272 897.695 878.744 897.695 878.024C897.695 877.16 898.271 876.152 899.279 875.816C900.623 875.384 900.623 875.384 902.063 875.336L905.567 875.384V871.688C905.519 870.248 905.423 868.472 906.287 867.416C906.815 866.696 907.823 866.312 908.543 866.312C909.407 866.312 910.415 866.984 910.751 867.992C911.183 869.336 911.039 870.776 911.087 872.216ZM961.147 865.496C961.195 865.928 961.195 866.312 961.195 866.696V868.664L960.907 893.576V894.056C960.907 894.248 960.859 894.536 960.763 894.92C960.715 895.256 960.571 895.592 960.427 895.976C960.283 896.312 960.091 896.6 959.755 896.84C959.467 897.128 959.035 897.272 958.507 897.368C957.595 897.56 956.779 897.464 956.059 897.128C955.675 896.888 955.387 896.6 955.195 896.168C955.099 896.072 955.051 895.976 955.003 895.88C955.003 895.784 954.955 895.688 954.907 895.592C954.763 895.256 954.715 894.92 954.667 894.536C954.667 894.248 954.619 893.912 954.571 893.576C954.475 893.288 954.475 893.048 954.475 892.76C954.571 892.568 954.571 892.328 954.571 892.04L954.619 888.248L954.667 882.2H952.075L942.331 882.248L942.235 893.576V894.056C942.235 894.248 942.187 894.536 942.091 894.92C942.043 895.256 941.899 895.592 941.755 895.976C941.611 896.312 941.419 896.6 941.083 896.84C940.795 897.128 940.363 897.272 939.835 897.368C938.923 897.56 938.107 897.464 937.387 897.128C937.003 896.888 936.763 896.6 936.475 896.168C936.427 896.072 936.379 895.976 936.379 895.88L936.235 895.592C936.091 895.256 936.043 894.92 935.995 894.536C935.995 894.248 935.899 893.912 935.851 893.576C935.803 893.288 935.803 893.048 935.851 892.76V892.04L935.899 888.248L935.995 881.192C936.043 879.176 936.043 876.968 936.043 874.664C935.995 872.36 936.043 870.776 936.139 868.568V868.376C936.187 867.752 936.187 867.032 936.235 866.36C936.283 865.736 936.427 865.112 936.763 864.488C936.955 864.008 937.291 863.672 937.723 863.336C938.203 863.096 938.731 862.952 939.259 862.952C939.739 862.952 940.123 863 940.507 863.048C940.939 863.096 941.275 863.288 941.611 863.624C941.851 863.816 942.043 864.056 942.139 864.392C942.283 864.776 942.379 865.112 942.427 865.496C942.475 865.928 942.475 866.312 942.475 866.696V868.664L942.379 876.584C942.907 876.584 943.531 876.584 944.443 876.536C947.755 876.536 951.019 876.632 954.619 876.632H954.667C954.667 873.8 954.715 871.256 954.811 868.376C954.811 867.752 954.859 867.032 954.907 866.36C954.955 865.736 955.099 865.112 955.435 864.488C955.579 864.008 955.963 863.672 956.443 863.336C956.875 863.096 957.403 862.952 957.931 862.952C958.411 862.952 958.843 863 959.179 863.048C959.563 863.096 959.995 863.288 960.283 863.624C960.571 863.816 960.715 864.056 960.811 864.392C960.955 864.776 961.003 865.112 961.147 865.496ZM970.669 876.92C974.557 874.952 979.261 875.24 982.525 878.408C984.205 880.088 985.021 882.056 985.405 884.456C985.885 887.72 987.949 890.072 988.669 893.192C989.005 894.68 988.477 896.312 986.845 896.6C984.877 896.984 983.485 894.872 982.621 893.48C981.133 895.4 979.501 896.408 977.101 896.744C975.037 896.984 973.309 896.888 971.197 896.312C965.725 894.872 964.141 888.872 965.533 883.64C966.445 880.184 968.317 878.072 970.669 876.92ZM971.869 882.536C970.045 884.264 969.853 887.768 971.293 889.832C971.917 890.744 973.645 891.416 975.325 891.512C979.165 891.752 981.229 886.28 979.165 882.968C977.677 880.52 973.693 880.76 971.869 882.536ZM1010.52 878.648C1011 879.512 1011.05 880.616 1010.57 881.528C1009.99 882.68 1008.89 883.064 1007.59 882.776C1006.39 882.488 1006.01 881.384 1004.13 881.096C1003.17 880.952 1001.93 881.096 1001.06 881.48C998.278 882.92 997.606 887.624 999.67 889.976C1000.44 890.888 1001.83 891.512 1002.98 891.608C1004.09 891.752 1005.19 891.56 1006.2 891.224C1006.97 890.888 1008.02 890.168 1008.89 890.072C1011.14 890.024 1011.53 892.856 1010.42 894.248C1009.65 895.208 1008.02 896.168 1006.77 896.552C1005.24 897.032 1003.17 897.08 1001.54 896.888C1000.77 896.792 999.91 896.552 999.142 896.312C993.478 894.296 991.606 888.392 993.094 883.16C994.486 878.12 997.366 876.584 1001.69 875.624C1003.94 875.192 1006.63 875.672 1008.6 876.872C1009.32 877.256 1010.04 877.928 1010.52 878.648ZM1024.39 886.088C1028.56 890.504 1025.39 886.952 1029.67 891.368C1030.82 892.52 1031.87 894.056 1030.96 895.784C1029.95 897.608 1028.32 897.032 1026.74 895.88C1025.25 894.776 1023.81 893.096 1022.99 892.328C1022.75 892.088 1022.56 891.896 1022.47 891.752C1022.37 891.656 1022.23 891.56 1022.08 891.416C1021.65 890.984 1021.12 890.504 1020.59 890.024V891.896C1020.59 892.184 1020.59 892.424 1020.64 892.664C1020.64 892.952 1020.64 893.144 1020.59 893.384C1020.5 893.72 1020.45 894.056 1020.45 894.392C1020.4 894.68 1020.35 894.968 1020.21 895.304C1020.16 895.448 1020.11 895.496 1020.11 895.592C1020.07 895.688 1020.02 895.736 1019.97 895.88C1019.78 896.264 1019.49 896.552 1019.2 896.792C1018.53 897.176 1017.76 897.224 1016.95 897.08C1016.47 896.984 1016.13 896.84 1015.84 896.552C1015.55 896.36 1015.36 896.072 1015.27 895.736C1015.12 895.4 1015.03 895.064 1014.93 894.728C1014.83 894.44 1014.83 894.104 1014.83 893.912V866.6C1014.83 866.216 1014.83 865.832 1014.88 865.448C1014.93 865.064 1015.07 864.728 1015.17 864.392C1015.31 864.056 1015.46 863.816 1015.65 863.624C1015.99 863.288 1016.32 863.144 1016.66 863.048C1016.99 863 1017.43 862.952 1017.81 862.952C1018.29 862.952 1018.72 863.096 1019.15 863.336C1019.59 863.624 1019.87 863.96 1020.07 864.44C1020.31 865.016 1020.45 865.592 1020.45 866.216C1020.5 866.84 1020.59 868.52 1020.59 869.144V869.336C1020.64 871.448 1020.64 873.272 1020.64 875.48C1020.59 877.688 1020.59 879.704 1020.59 881.672V882.2C1021.12 881.72 1021.65 881.24 1022.08 880.76C1022.27 880.616 1022.37 880.52 1022.47 880.424L1022.99 879.896C1023.81 879.08 1025.25 877.4 1026.74 876.296C1028.32 875.144 1029.95 874.616 1030.96 876.392C1031.87 878.12 1030.82 879.656 1029.67 880.904C1025.39 885.272 1028.56 881.72 1024.39 886.088ZM1051.79 890.552C1053.27 890.12 1055.24 890.264 1055.24 892.424C1055.24 894.008 1053.51 895.208 1052.27 895.736C1050.44 896.552 1047.9 897.032 1045.35 896.936C1041.9 896.792 1038.44 895.64 1036.67 892.808C1035.03 890.024 1034.79 886.232 1035.42 883.208C1036.14 879.512 1037.91 877.256 1040.27 875.864C1043.1 874.232 1047.03 874.184 1050.25 875.624C1052.41 876.584 1054.23 878.216 1055.15 880.52C1055.63 881.672 1055.87 884.072 1055.39 885.464C1054.57 887.768 1053.23 887.816 1049.72 887.96C1046.65 888.104 1044.49 887.96 1040.79 887.864C1040.41 890.456 1043.24 891.464 1045.59 891.656C1047.75 891.8 1049.67 891.176 1051.79 890.552ZM1049.72 881.24C1049.15 880.568 1048.52 880.04 1047.8 879.704C1046.79 879.272 1045.59 879.368 1044.59 879.656C1043.58 879.896 1042.91 880.328 1042.23 881.096C1042.04 881.288 1040.7 883.352 1041.23 883.352H1050.63C1050.59 882.44 1050.35 881.912 1049.72 881.24ZM1059.55 887.144V880.136C1059.55 878.6 1059.51 875.912 1060.13 874.424C1060.61 873.272 1061.86 872.936 1063.11 872.984C1065.79 873.032 1065.94 874.904 1065.99 876.92C1067.09 874.904 1070.5 874.376 1070.79 874.376C1072.37 874.28 1073.57 874.232 1075.15 874.76C1077.17 875.528 1080 877.592 1078.8 879.848C1077.94 881.432 1076.79 881.096 1075.54 880.76C1074.87 880.616 1073.71 880.04 1073.04 879.896C1068.77 879.272 1066.18 883.16 1066.18 883.16V890.072C1066.23 893.528 1066.42 897.992 1062.15 897.704C1060.99 897.656 1059.99 896.312 1059.79 895.304C1059.6 893.384 1059.51 889.688 1059.55 887.144ZM1092.35 888.68C1089.9 887.144 1086.11 887.24 1083.71 885.464C1081.12 883.496 1080.74 880.328 1082.37 877.4C1084.14 874.328 1088.61 873.464 1091.92 874.04C1094.13 874.424 1096.91 875.288 1097.73 877.832C1098.26 879.512 1096.96 880.952 1095.23 880.664C1093.36 880.328 1091.97 878.792 1090 878.792C1087.12 878.696 1085.87 881.384 1088.56 882.824C1091.06 884.12 1094.51 884.072 1096.72 885.896C1100.99 889.304 1098.26 895.928 1093.12 897.032C1089.42 897.8 1084.19 897.08 1081.6 894.104C1079.82 891.992 1081.65 888.296 1084.19 889.928C1086.3 891.32 1090 892.808 1091.87 891.608C1093.26 890.696 1093.26 889.304 1092.35 888.68Z" fill="#0E6832"/>
<ellipse cx="538.5" cy="519.5" rx="121.5" ry="49.5" fill="#D49CAB"/>
<ellipse cx="538.5" cy="519.5" rx="121.5" ry="49.5" fill="#D49CAB"/>
<path d="M330 322C262.5 397 206 414.5 174 494.5L330 518.5C330 518.5 376.284 445.817 414.651 367.5C441.809 312.063 465 253.802 465 216.5C465 154 432.5 79 333 79C233.5 79 187 151 202 216.5C199.214 224.493 196.82 232.153 194.807 239.5C194.807 239.5 213.5 236 226.5 216.5C236.94 200.841 255.5 254.5 255.5 254.5C297.026 241.213 311.532 222.547 320.5 168C386 150.5 397.5 247 330 322Z" fill="#FFD3DF"/>
<path d="M226.5 216.5C213.5 236 194.807 239.5 194.807 239.5C192.202 249.007 190.234 257.991 188.88 266.5C210.171 273.724 222.294 277.036 246 274.68C250.096 260.879 255.5 254.5 255.5 254.5C255.5 254.5 236.94 200.841 226.5 216.5Z" fill="white"/>
<path d="M251.5 388.5C253.646 386.998 255.528 381.03 254 376.5C237.207 326.7 240.366 293.667 246 274.68C222.294 277.036 210.171 273.724 188.88 266.5C179.82 323.402 198.163 359.044 236.5 387.5C239.5 389.727 246.5 392 251.5 388.5Z" fill="black"/>
<path d="M300 177.5C300 196.278 285.225 211.5 267 211.5C248.775 211.5 234 196.278 234 177.5C234 158.722 248.775 143.5 267 143.5C285.225 143.5 300 158.722 300 177.5Z" fill="white"/>
<path d="M287 177.5C287 189.098 278.27 198.5 267.5 198.5C256.73 198.5 248 189.098 248 177.5C248 165.902 256.73 156.5 267.5 156.5C278.27 156.5 287 165.902 287 177.5Z" fill="black"/>
<ellipse cx="445" cy="572.5" rx="294" ry="208" fill="#FFD3DF"/>
<path d="M330 518.5C330 518.5 377.133 443.817 415.5 365.5C456.5 365.5 478.241 364.507 519 372L547.5 509L330 518.5Z" fill="url(#paint0_linear_496_399)"/>
<path d="M445.5 578.5C378.602 578.5 324.332 556.473 324.002 529.25C324.332 502.027 378.602 480 445.5 480C512.398 480 566.668 502.027 566.998 529.25C566.668 556.473 512.398 578.5 445.5 578.5Z" fill="#C294A1"/>
<circle cx="108.611" cy="108.611" r="108.611" transform="matrix(-0.997707 0.0676744 0.0676744 0.997707 546.724 385.5)" fill="#FF585B"/>
<path d="M482.331 501.24C494.831 495.24 485.831 529.74 469.331 533.24C451.135 537.1 419.73 512.24 438.331 512.24C450.831 512.24 469.832 507.24 482.331 501.24Z" fill="#A40003"/>
<path d="M514.785 470.639C498.401 488.917 488.314 488.547 469.285 475.639M423.285 487.639C418.646 509.738 409.788 514.354 384.785 511.139" stroke="black" stroke-width="6" stroke-linecap="round"/>
<path d="M445 780.5C607.372 780.5 739 687.375 739 572.5L567 529C567 556.338 512.603 578.5 445.5 578.5C378.397 578.5 324 556.338 324 529L151 572.5C151 687.375 282.628 780.5 445 780.5Z" fill="#FFD3DF"/>
<path d="M325.086 636.972C325.518 636.876 325.902 636.732 326.286 636.684C327.246 636.444 329.022 636.444 329.55 637.548C330.078 638.844 329.838 641.1 329.838 642.492V667.02C329.838 668.364 330.174 670.188 328.83 671.148C327.918 671.868 326.142 671.82 325.086 671.436C323.934 671.052 323.886 669.756 323.886 668.7C323.454 660.3 323.598 652.332 323.598 643.788C323.406 644.364 320.094 644.892 319.566 644.892C317.886 645.084 316.302 644.7 316.11 642.732C315.87 640.716 317.214 639.612 319.086 639.036C321.102 638.364 323.07 637.548 325.086 636.972ZM337.572 642.3C337.14 641.916 336.948 641.388 336.948 640.572C336.996 639.852 337.14 639.132 337.668 638.652C339.108 637.356 340.644 637.404 342.516 637.308C343.956 637.26 345.012 637.308 346.452 637.308C348.708 637.308 351.54 637.404 353.892 637.5C355.812 637.596 357.876 638.268 357.972 640.476C358.116 643.02 356.004 645.18 354.468 646.716C353.076 648.156 351.06 649.98 349.668 651.42C354.708 652.092 359.316 654.588 359.316 660.732C359.316 666.876 354.324 671.532 347.46 671.532C344.484 671.532 340.452 670.572 338.244 668.316C336.708 666.828 335.844 663.66 338.436 662.748C340.356 662.076 341.988 663.276 343.524 664.14C345.876 665.58 348.564 666.012 351.06 664.524C353.94 662.796 353.46 659.292 350.868 657.804C348.42 656.364 344.772 657.228 342.804 655.02C340.644 652.524 345.204 649.212 346.692 647.532C347.652 646.572 349.236 644.94 349.476 643.98C349.86 642.924 347.652 643.26 346.884 643.26H343.668C341.94 643.26 339.012 643.548 337.572 642.3ZM395.931 640.668C398.331 642.924 399.531 646.236 399.291 649.308C399.051 652.236 397.467 654.924 394.251 656.172C391.707 657.276 389.307 657.612 386.331 657.852C384.987 657.948 384.219 657.996 383.019 658.044C382.779 658.044 381.963 658.044 381.723 658.092V668.028C381.531 669.228 381.483 670.668 380.235 671.388C379.563 671.772 378.363 671.82 377.547 671.676C376.683 671.532 376.059 671.244 375.675 670.38C375.435 669.804 375.147 669.132 375.147 668.028V641.484C375.147 641.052 375.243 640.668 375.291 640.284C375.387 639.948 375.483 639.564 375.579 639.228C375.723 638.94 375.867 638.652 376.107 638.46C376.395 638.172 377.019 637.836 378.363 637.836H378.459C380.427 637.74 383.211 637.548 384.795 637.74C385.659 637.836 386.427 637.884 387.147 637.932C387.915 637.98 388.683 638.076 389.451 638.172C390.075 638.268 390.603 638.364 391.179 638.46C391.707 638.556 392.331 638.7 392.859 638.988C393.483 639.18 394.059 639.42 394.539 639.708C395.019 639.996 395.499 640.332 395.931 640.668ZM393.051 648.588C393.243 645.468 389.931 644.124 386.811 643.74C386.091 643.692 383.787 643.644 383.067 643.596C382.779 643.548 382.299 643.548 381.723 643.548C381.771 645.516 381.771 647.244 381.771 649.356C381.723 650.508 381.723 651.66 381.723 652.764L384.699 652.716C387.771 652.668 392.715 652.188 393.051 648.588ZM405.231 651.42C409.119 649.452 413.823 649.74 417.087 652.908C418.767 654.588 419.583 656.556 419.967 658.956C420.447 662.22 422.511 664.572 423.231 667.692C423.567 669.18 423.039 670.812 421.407 671.1C419.439 671.484 418.047 669.372 417.183 667.98C415.695 669.9 414.063 670.908 411.663 671.244C409.599 671.484 407.871 671.388 405.759 670.812C400.287 669.372 398.703 663.372 400.095 658.14C401.007 654.684 402.879 652.572 405.231 651.42ZM406.431 657.036C404.607 658.764 404.415 662.268 405.855 664.332C406.479 665.244 408.207 665.916 409.887 666.012C413.727 666.252 415.791 660.78 413.727 657.468C412.239 655.02 408.255 655.26 406.431 657.036ZM427.273 661.404V654.492C427.273 653.004 427.081 651.228 427.657 649.884C428.185 648.684 429.529 648.108 430.681 648.396C433.033 648.78 432.985 650.508 433.081 652.236C434.329 649.98 437.257 649.404 438.313 649.356C440.761 649.356 443.353 650.46 444.937 652.38C446.713 654.636 446.665 657.468 446.809 660.252C446.953 662.268 446.953 664.332 446.809 666.348C446.713 667.98 447.049 671.148 445.177 671.532C442.489 672.108 441.913 670.908 441.577 669.132C441.289 667.692 441.289 665.292 441.241 663.804C441.241 662.604 441.145 661.02 441.193 659.724C441.193 656.748 439.513 655.068 436.825 655.308C434.761 655.548 432.985 657.036 433.033 659.196C433.081 660.828 432.937 661.884 432.985 663.948C432.985 666.06 433.129 668.652 432.553 670.14C432.073 671.676 430.729 672.348 429.097 671.484C427.705 670.668 427.561 668.7 427.465 667.308C427.273 665.196 427.273 663.516 427.273 661.404ZM467.411 665.052C468.899 664.62 470.867 664.764 470.867 666.924C470.867 668.508 469.139 669.708 467.891 670.236C466.067 671.052 463.523 671.532 460.979 671.436C457.523 671.292 454.067 670.14 452.291 667.308C450.659 664.524 450.419 660.732 451.043 657.708C451.763 654.012 453.539 651.756 455.891 650.364C458.723 648.732 462.659 648.684 465.875 650.124C468.035 651.084 469.859 652.716 470.771 655.02C471.251 656.172 471.491 658.572 471.011 659.964C470.195 662.268 468.851 662.316 465.347 662.46C462.275 662.604 460.115 662.46 456.419 662.364C456.035 664.956 458.867 665.964 461.219 666.156C463.379 666.3 465.299 665.676 467.411 665.052ZM465.347 655.74C464.771 655.068 464.147 654.54 463.427 654.204C462.419 653.772 461.219 653.868 460.211 654.156C459.203 654.396 458.531 654.828 457.859 655.596C457.667 655.788 456.323 657.852 456.851 657.852H466.259C466.211 656.94 465.971 656.412 465.347 655.74ZM482.546 667.788C482.498 668.124 482.45 668.412 482.45 668.7L482.162 669.708C482.114 669.804 482.066 669.9 482.018 669.948L481.874 670.236C481.682 670.62 481.346 670.908 481.01 671.1C480.242 671.484 479.426 671.58 478.562 671.388C478.034 671.34 477.554 671.148 477.266 670.908C476.978 670.716 476.738 670.476 476.594 670.092C476.45 669.756 476.354 669.42 476.306 669.132C476.21 668.796 476.162 668.508 476.162 668.268V641.388C476.162 640.956 476.21 640.62 476.258 640.284C476.306 639.852 476.402 639.564 476.546 639.18C476.642 638.892 476.834 638.604 477.074 638.412C477.41 638.172 477.794 637.98 478.178 637.932C478.61 637.788 478.994 637.788 479.474 637.788C479.954 637.788 480.482 637.932 481.01 638.172C481.442 638.412 481.778 638.796 481.97 639.228C482.258 639.804 482.45 640.428 482.45 641.004C482.498 641.628 482.546 643.26 482.546 643.884V644.076C482.642 646.14 482.642 647.916 482.594 650.124C482.594 652.284 482.546 654.3 482.546 656.268V666.348C482.546 666.588 482.594 666.828 482.594 667.068C482.594 667.356 482.594 667.548 482.546 667.788ZM492.523 653.436C492.523 656.988 492.667 662.796 492.523 666.732C492.427 668.652 492.235 671.58 489.499 671.436C487.531 671.34 486.715 669.66 486.619 666.78C486.571 663.804 486.475 658.86 486.523 655.836C486.571 654.06 486.187 650.364 487.387 648.732C488.251 647.676 491.131 647.628 491.947 648.828C492.427 649.596 492.523 651.852 492.523 653.436ZM490.699 643.74C488.731 644.268 487.291 643.164 487.003 641.34C486.475 638.604 489.163 637.068 491.419 638.7C493.627 640.284 493.243 642.924 490.699 643.74ZM508.212 663.18C505.764 661.644 501.972 661.74 499.572 659.964C496.98 657.996 496.596 654.828 498.228 651.9C500.004 648.828 504.468 647.964 507.78 648.54C509.988 648.924 512.772 649.788 513.588 652.332C514.116 654.012 512.82 655.452 511.092 655.164C509.22 654.828 507.828 653.292 505.86 653.292C502.98 653.196 501.732 655.884 504.42 657.324C506.916 658.62 510.372 658.572 512.58 660.396C516.852 663.804 514.116 670.428 508.98 671.532C505.284 672.3 500.052 671.58 497.46 668.604C495.684 666.492 497.508 662.796 500.052 664.428C502.164 665.82 505.86 667.308 507.732 666.108C509.124 665.196 509.124 663.804 508.212 663.18ZM536.971 650.46C537.451 651.66 537.019 653.484 535.915 653.916C534.811 654.396 531.739 654.588 530.155 654.636C530.299 658.476 530.443 662.892 530.347 665.676C530.347 667.644 530.443 671.004 529.147 671.484C527.179 672.3 525.355 671.82 524.683 670.812C523.627 669.18 523.771 666.108 523.819 664.428C523.867 661.74 523.915 658.14 523.915 654.684H523.195C521.659 654.684 518.107 654.636 517.195 653.532C515.755 651.852 516.811 649.452 518.443 649.02C519.595 648.732 521.995 648.732 523.867 648.78C523.819 648.156 523.819 647.532 523.771 646.956C523.675 645.372 523.627 641.916 525.067 640.812C526.987 639.276 529.195 640.668 529.675 642.444C530.107 643.932 530.059 646.908 530.059 648.78H530.539C532.411 648.828 536.011 648.156 536.971 650.46ZM550.494 663.18C548.046 661.644 544.254 661.74 541.854 659.964C539.262 657.996 538.878 654.828 540.51 651.9C542.286 648.828 546.75 647.964 550.062 648.54C552.27 648.924 555.054 649.788 555.87 652.332C556.398 654.012 555.102 655.452 553.374 655.164C551.502 654.828 550.11 653.292 548.142 653.292C545.262 653.196 544.014 655.884 546.702 657.324C549.198 658.62 552.654 658.572 554.862 660.396C559.134 663.804 556.398 670.428 551.262 671.532C547.566 672.3 542.334 671.58 539.742 668.604C537.966 666.492 539.79 662.796 542.334 664.428C544.446 665.82 548.142 667.308 550.014 666.108C551.406 665.196 551.406 663.804 550.494 663.18Z" fill="#BD224E"/>
<ellipse cx="444" cy="930.5" rx="294" ry="219.5" fill="#FFF2CC"/>
<ellipse cx="441" cy="864.5" rx="115" ry="59.5" fill="#E3CE90"/>
<path d="M302.101 999.48C302.869 999.096 303.877 999.048 304.933 999.048H322.309C323.173 999.048 324.325 998.856 325.141 999.288C328.597 1001.26 322.645 1010.28 321.589 1012.34C319.573 1016.14 318.277 1018.63 316.261 1022.42C314.965 1025.02 313.237 1028.04 311.749 1030.54C310.837 1032.12 309.445 1033.85 307.237 1032.84C305.557 1031.93 305.077 1029.96 305.845 1028.47C307.045 1026.31 308.197 1024.06 309.349 1021.9C311.077 1018.63 312.469 1015.7 314.197 1012.49C315.253 1010.57 318.133 1006.73 317.701 1004.52C315.445 1004.33 313.813 1004.42 311.653 1004.42H306.997C304.741 1004.42 301.429 1005.1 301.093 1001.93C300.949 1000.58 301.381 999.864 302.101 999.48ZM333.132 999.576C333.708 999 334.668 998.904 335.916 998.904H347.772C349.5 998.904 352.14 998.568 352.764 1000.63C353.148 1001.93 352.668 1004.14 350.94 1004.33C349.308 1004.62 347.436 1004.33 345.756 1004.33C343.932 1004.33 342.684 1004.52 340.908 1004.52C340.236 1004.52 338.892 1004.38 338.316 1004.57C337.26 1004.81 337.308 1006.25 337.308 1007.02C337.308 1008.12 337.164 1009.22 337.116 1010.33C336.972 1011.82 337.5 1011.77 338.844 1011.38C339.996 1011.1 341.196 1010.95 342.396 1010.95C348.876 1010.95 353.964 1014.41 353.964 1021.51C353.964 1022.14 353.964 1022.71 353.82 1023.29C353.292 1027.32 350.652 1030.58 346.812 1031.93C342.299 1033.66 337.116 1033.66 333.036 1031.02C331.884 1030.34 330.828 1029.29 330.396 1028.04C329.868 1026.7 330.012 1025.06 331.452 1024.34C333.612 1023.29 335.052 1025.35 336.732 1026.26C338.172 1026.98 339.804 1027.51 341.58 1027.51C345.516 1027.51 348.156 1025.21 348.156 1021.66C348.156 1018.25 345.42 1016.14 341.244 1016.14C340.14 1016.14 339.036 1016.23 337.98 1016.57C335.916 1017.05 333.996 1018.2 332.268 1016.18C331.452 1015.32 331.644 1013.88 331.74 1012.78C331.836 1010.9 331.932 1009.08 332.028 1007.21C332.172 1005.38 332.268 1003.51 332.364 1001.69C332.412 1000.63 332.7 1000.01 333.132 999.576ZM371.251 1008.22V1011.43L376.627 1011.48C377.731 1011.29 378.019 1011.62 378.931 1012.34C379.363 1012.68 379.603 1013.26 379.603 1013.83C379.603 1014.46 379.363 1015.27 378.979 1015.61C377.971 1016.57 376.435 1016.47 376.339 1016.47H371.251V1022.04C371.443 1023.14 371.107 1024.3 370.387 1025.21C370.051 1025.64 369.475 1025.88 368.899 1025.88C368.275 1025.88 366.979 1025.64 366.643 1025.26C365.683 1024.25 365.779 1021.75 365.779 1021.66L365.731 1016.52H361.699C360.259 1016.57 359.923 1016.66 358.867 1015.8C358.147 1015.27 357.859 1014.74 357.859 1014.02C357.859 1013.16 358.435 1012.15 359.443 1011.82C360.787 1011.38 360.787 1011.38 362.227 1011.34L365.731 1011.38V1007.69C365.683 1006.25 365.587 1004.47 366.451 1003.42C366.979 1002.7 367.987 1002.31 368.707 1002.31C369.571 1002.31 370.579 1002.98 370.915 1003.99C371.347 1005.34 371.203 1006.78 371.251 1008.22ZM416.751 1002.17C419.151 1004.42 420.351 1007.74 420.111 1010.81C419.871 1013.74 418.287 1016.42 415.071 1017.67C412.527 1018.78 410.127 1019.11 407.151 1019.35C405.807 1019.45 405.039 1019.5 403.839 1019.54C403.599 1019.54 402.783 1019.54 402.543 1019.59V1029.53C402.351 1030.73 402.303 1032.17 401.055 1032.89C400.383 1033.27 399.183 1033.32 398.367 1033.18C397.503 1033.03 396.879 1032.74 396.495 1031.88C396.255 1031.3 395.967 1030.63 395.967 1029.53V1002.98C395.967 1002.55 396.063 1002.17 396.111 1001.78C396.207 1001.45 396.303 1001.06 396.399 1000.73C396.543 1000.44 396.687 1000.15 396.927 999.96C397.215 999.672 397.839 999.336 399.183 999.336H399.279C401.247 999.24 404.031 999.048 405.615 999.24C406.479 999.336 407.247 999.384 407.967 999.432C408.735 999.48 409.503 999.576 410.271 999.672C410.895 999.768 411.423 999.864 411.999 999.96C412.527 1000.06 413.151 1000.2 413.679 1000.49C414.303 1000.68 414.879 1000.92 415.359 1001.21C415.839 1001.5 416.319 1001.83 416.751 1002.17ZM413.871 1010.09C414.063 1006.97 410.751 1005.62 407.631 1005.24C406.911 1005.19 404.607 1005.14 403.887 1005.1C403.599 1005.05 403.119 1005.05 402.543 1005.05C402.591 1007.02 402.591 1008.74 402.591 1010.86C402.543 1012.01 402.543 1013.16 402.543 1014.26L405.519 1014.22C408.591 1014.17 413.535 1013.69 413.871 1010.09ZM424.093 1023.14V1016.14C424.093 1014.6 424.045 1011.91 424.669 1010.42C425.149 1009.27 426.397 1008.94 427.645 1008.98C430.333 1009.03 430.477 1010.9 430.525 1012.92C431.629 1010.9 435.037 1010.38 435.325 1010.38C436.909 1010.28 438.109 1010.23 439.693 1010.76C441.709 1011.53 444.541 1013.59 443.341 1015.85C442.477 1017.43 441.325 1017.1 440.077 1016.76C439.405 1016.62 438.253 1016.04 437.581 1015.9C433.309 1015.27 430.717 1019.16 430.717 1019.16V1026.07C430.765 1029.53 430.957 1033.99 426.685 1033.7C425.533 1033.66 424.525 1032.31 424.333 1031.3C424.141 1029.38 424.045 1025.69 424.093 1023.14ZM451.612 1011.43C455.884 1009.32 461.02 1009.66 464.62 1013.11C466.06 1014.55 467.212 1016.86 467.74 1018.82C468.796 1022.33 467.884 1026.07 466.012 1029.14C465.148 1030.54 463.756 1031.74 462.268 1032.41C460.348 1033.27 457.996 1033.66 455.884 1033.46C448.252 1033.03 443.98 1026.07 445.9 1018.87C446.908 1015.08 448.972 1012.73 451.612 1011.43ZM453.052 1017.86C451.18 1019.69 450.892 1023.48 452.476 1025.74C453.1 1026.7 455.02 1027.42 456.796 1027.51C460.924 1027.75 463.132 1021.9 460.924 1018.34C459.34 1015.75 455.068 1015.99 453.052 1017.86ZM482.356 1005.34C480.436 1005.91 478.948 1004.71 478.66 1002.89C478.228 1000.2 480.868 998.664 483.124 1000.3C485.284 1001.83 484.996 1004.52 482.356 1005.34ZM484.276 1014.17C484.276 1015.7 484.324 1023.58 484.276 1025.98C484.132 1029.77 483.988 1035.1 480.388 1037.5C478.324 1038.84 475.78 1039.27 473.476 1038.6C472.084 1038.26 470.692 1037.64 469.78 1036.63C468.628 1035.43 467.86 1033.56 469.012 1032.07C469.78 1031.11 471.028 1030.78 472.084 1031.35C474.1 1032.36 475.972 1033.7 477.892 1031.35C478.804 1030.2 478.708 1026.65 478.708 1024.58C478.708 1021.7 478.756 1020.98 478.708 1018.34C478.66 1016.86 478.372 1011.48 479.38 1010.23C480.196 1009.18 481.732 1009.18 482.788 1009.9C484.18 1010.81 484.228 1012.68 484.276 1014.17ZM505.012 1026.55C506.5 1026.12 508.468 1026.26 508.468 1028.42C508.468 1030.01 506.74 1031.21 505.492 1031.74C503.668 1032.55 501.124 1033.03 498.58 1032.94C495.124 1032.79 491.668 1031.64 489.892 1028.81C488.26 1026.02 488.02 1022.23 488.644 1019.21C489.364 1015.51 491.14 1013.26 493.492 1011.86C496.324 1010.23 500.26 1010.18 503.476 1011.62C505.636 1012.58 507.46 1014.22 508.372 1016.52C508.852 1017.67 509.092 1020.07 508.612 1021.46C507.796 1023.77 506.452 1023.82 502.948 1023.96C499.876 1024.1 497.716 1023.96 494.02 1023.86C493.636 1026.46 496.468 1027.46 498.82 1027.66C500.98 1027.8 502.9 1027.18 505.012 1026.55ZM502.948 1017.24C502.372 1016.57 501.748 1016.04 501.028 1015.7C500.02 1015.27 498.82 1015.37 497.812 1015.66C496.804 1015.9 496.132 1016.33 495.46 1017.1C495.268 1017.29 493.924 1019.35 494.452 1019.35H503.86C503.812 1018.44 503.572 1017.91 502.948 1017.24ZM530.589 1014.65C531.069 1015.51 531.117 1016.62 530.637 1017.53C530.061 1018.68 528.957 1019.06 527.661 1018.78C526.461 1018.49 526.077 1017.38 524.205 1017.1C523.245 1016.95 521.997 1017.1 521.133 1017.48C518.349 1018.92 517.677 1023.62 519.741 1025.98C520.509 1026.89 521.901 1027.51 523.053 1027.61C524.157 1027.75 525.261 1027.56 526.269 1027.22C527.037 1026.89 528.093 1026.17 528.957 1026.07C531.213 1026.02 531.597 1028.86 530.493 1030.25C529.725 1031.21 528.093 1032.17 526.845 1032.55C525.309 1033.03 523.245 1033.08 521.613 1032.89C520.845 1032.79 519.981 1032.55 519.213 1032.31C513.549 1030.3 511.677 1024.39 513.165 1019.16C514.557 1014.12 517.437 1012.58 521.757 1011.62C524.013 1011.19 526.701 1011.67 528.669 1012.87C529.389 1013.26 530.109 1013.93 530.589 1014.65ZM553.947 1011.96C554.427 1013.16 553.995 1014.98 552.891 1015.42C551.787 1015.9 548.715 1016.09 547.131 1016.14C547.275 1019.98 547.419 1024.39 547.323 1027.18C547.323 1029.14 547.419 1032.5 546.123 1032.98C544.155 1033.8 542.331 1033.32 541.659 1032.31C540.603 1030.68 540.747 1027.61 540.795 1025.93C540.843 1023.24 540.891 1019.64 540.891 1016.18H540.171C538.635 1016.18 535.083 1016.14 534.171 1015.03C532.731 1013.35 533.787 1010.95 535.419 1010.52C536.571 1010.23 538.971 1010.23 540.843 1010.28C540.795 1009.66 540.795 1009.03 540.747 1008.46C540.651 1006.87 540.603 1003.42 542.043 1002.31C543.963 1000.78 546.171 1002.17 546.651 1003.94C547.083 1005.43 547.035 1008.41 547.035 1010.28H547.515C549.387 1010.33 552.987 1009.66 553.947 1011.96ZM567.47 1024.68C565.022 1023.14 561.23 1023.24 558.83 1021.46C556.238 1019.5 555.854 1016.33 557.486 1013.4C559.262 1010.33 563.726 1009.46 567.038 1010.04C569.246 1010.42 572.03 1011.29 572.846 1013.83C573.374 1015.51 572.078 1016.95 570.35 1016.66C568.478 1016.33 567.086 1014.79 565.118 1014.79C562.238 1014.7 560.99 1017.38 563.678 1018.82C566.174 1020.12 569.63 1020.07 571.838 1021.9C576.11 1025.3 573.374 1031.93 568.238 1033.03C564.542 1033.8 559.31 1033.08 556.718 1030.1C554.942 1027.99 556.766 1024.3 559.31 1025.93C561.422 1027.32 565.118 1028.81 566.99 1027.61C568.382 1026.7 568.382 1025.3 567.47 1024.68Z" fill="#765C3A"/>
<ellipse cx="834" cy="1182.5" rx="294" ry="213.5" fill="#FFC9AA"/>
<path d="M988.108 1000.65C943.298 980.578 890.511 969 834 969L859.5 1067C897.5 1071.5 940.5 1084.5 964.082 1109.5C973.85 1071.78 980.166 1033.34 988.108 1000.65Z" fill="url(#paint1_linear_496_399)"/>
<ellipse cx="834" cy="1128" rx="145" ry="53" fill="#D78E64"/>
<path d="M835.519 915.657C836.163 907.017 848.837 907.017 849.481 915.657L855.218 992.639C855.752 999.801 865.436 1001.61 868.52 995.126L901.68 925.415C905.402 917.591 917.219 922.169 914.699 930.458L892.24 1004.31C890.15 1011.19 898.526 1016.37 903.745 1011.44L959.848 958.413C966.145 952.462 975.51 961 970.166 967.819L922.543 1028.58C918.113 1034.23 924.05 1042.09 930.698 1039.37L1002.17 1010.2C1010.19 1006.92 1015.84 1018.27 1008.39 1022.69L942.037 1062.14C935.864 1065.81 938.56 1075.29 945.74 1075.16L1022.92 1073.77C1031.59 1073.61 1032.75 1086.23 1024.21 1087.67L948.087 1100.49C941.005 1101.68 940.096 1111.49 946.838 1113.96L1019.31 1140.55C1027.45 1143.53 1023.98 1155.72 1015.49 1153.98L939.877 1138.43C932.843 1136.98 928.452 1145.8 933.845 1150.54L991.821 1201.51C998.327 1207.23 990.69 1217.35 983.407 1212.66L918.516 1170.84C912.48 1166.95 905.199 1173.59 908.516 1179.96L944.163 1248.43C948.164 1256.12 937.389 1262.79 932.293 1255.78L886.889 1193.35C882.665 1187.54 873.479 1191.1 874.27 1198.24L882.775 1274.96C883.73 1283.58 871.272 1285.9 869.052 1277.53L849.266 1202.91C847.426 1195.97 837.574 1195.97 835.734 1202.91L815.948 1277.53C813.728 1285.9 801.27 1283.58 802.225 1274.96L810.73 1198.24C811.521 1191.1 802.335 1187.54 798.111 1193.35L752.707 1255.78C747.611 1262.79 736.836 1256.12 740.837 1248.43L776.485 1179.96C779.801 1173.59 772.52 1166.95 766.484 1170.84L701.593 1212.66C694.31 1217.35 686.673 1207.23 693.179 1201.51L751.155 1150.54C756.548 1145.8 752.157 1136.98 745.123 1138.43L669.509 1153.98C661.023 1155.72 657.555 1143.53 665.688 1140.55L738.162 1113.96C744.904 1111.49 743.995 1101.68 736.913 1100.49L660.788 1087.67C652.245 1086.23 653.414 1073.61 662.077 1073.77L739.26 1075.16C746.44 1075.29 749.136 1065.81 742.963 1062.14L676.609 1022.69C669.162 1018.27 674.811 1006.92 682.832 1010.2L754.302 1039.37C760.95 1042.09 766.887 1034.23 762.457 1028.58L714.834 967.819C709.49 961 718.855 952.462 725.152 958.413L781.255 1011.44C786.474 1016.37 794.85 1011.19 792.76 1004.31L770.301 930.458C767.781 922.169 779.598 917.591 783.32 925.415L816.48 995.126C819.564 1001.61 829.248 999.801 829.782 992.639L835.519 915.657Z" fill="#FFB44A"/>
<circle cx="813.211" cy="1113.98" r="28.3738" fill="white"/>
<circle cx="874.535" cy="1098.42" r="29.289" fill="white"/>
<circle cx="817.788" cy="1120.38" r="18.3056" fill="black"/>
<circle cx="874.535" cy="1105.74" r="18.3056" fill="black"/>
<path d="M834 1396C996.372 1396 1128 1302.88 1128 1188L980 1128C980 1157.27 915.081 1181 835 1181C754.919 1181 690 1157.27 690 1128L540 1188C540 1302.88 671.628 1396 834 1396Z" fill="#FFC9AA"/>
<ellipse cx="1110.54" cy="957.049" rx="12.3022" ry="16.1202" transform="rotate(-28.7337 1110.54 957.049)" fill="black"/>
<path d="M1073.5 916.853C975.962 890.007 992.5 1047.5 945.5 1163.5C898.5 1279.5 1116.5 1247 1116.5 1247C1159.5 1117 1128 931.853 1073.5 916.853Z" fill="#FFC9AA"/>
<ellipse cx="1037.24" cy="971.118" rx="13.1832" ry="17.2746" transform="rotate(15.1396 1037.24 971.118)" fill="black"/>
<path fill-rule="evenodd" clip-rule="evenodd" d="M1124.5 974.852C1094 974.852 1035.68 989.77 1031 1002.85C1027.48 1012.69 1029.04 1019.01 1034.1 1022.85C1046.59 1032.34 1080.39 1026.65 1111.42 1021.44C1124.13 1019.3 1136.38 1017.24 1146.5 1016.33C1149.93 1016.03 1153.12 1015.85 1156 1015.85C1196.5 1015.85 1171 974.852 1124.5 974.852Z" fill="#FFEAA9"/>
<path d="M1034.1 1022.85C1072.45 1067.56 1097.56 1061.93 1146.5 1016.33C1136.38 1017.24 1124.13 1019.3 1111.42 1021.44C1080.39 1026.65 1046.59 1032.34 1034.1 1022.85Z" fill="url(#paint2_linear_496_399)"/>
<path d="M724.337 1266.08C720.545 1266.08 715.985 1265.46 713.777 1261.95C712.577 1260.13 712.097 1257.87 712.241 1255.66C712.529 1252.21 714.785 1249.76 717.809 1248.46C717.281 1248.46 715.409 1246.88 715.073 1246.59C714.305 1245.78 713.873 1244.58 713.537 1243.52C712.721 1240.64 713.393 1237.18 715.361 1234.83C716.993 1232.82 720.833 1231.62 723.281 1231.57C724.913 1231.57 726.545 1231.42 728.129 1231.66C730.097 1232 731.825 1233.01 733.121 1234.4C735.665 1237.18 736.385 1240.88 735.425 1244.48C735.089 1245.49 734.417 1246.35 733.601 1247.12C733.265 1247.41 731.489 1248.61 731.009 1248.51C732.545 1249.47 734.081 1250.19 734.945 1251.87C736.721 1255.14 736.721 1259.55 734.225 1262.38C731.777 1265.17 727.841 1266.08 724.337 1266.08ZM724.433 1252.06C721.601 1252.21 718.433 1253.17 718.049 1256.53C717.809 1259.07 720.113 1260.56 722.321 1260.8C723.521 1260.99 724.817 1260.99 726.017 1260.75C727.793 1260.37 729.281 1260.27 730.001 1258.35C730.577 1257.01 730.529 1255.04 729.569 1253.98C728.177 1252.3 726.497 1251.97 724.433 1252.06ZM724.481 1236.85C721.505 1237.04 718.913 1238.05 719.057 1241.5C719.105 1242.7 719.345 1243.76 720.257 1244.67C721.361 1245.92 722.993 1245.97 724.529 1245.92C726.881 1245.92 728.705 1245.44 729.761 1243.14C731.393 1239.39 727.841 1236.61 724.481 1236.85ZM786.356 1234.06C786.5 1234.69 786.5 1235.31 786.356 1235.98C786.26 1236.61 786.116 1237.23 786.02 1237.86L785.972 1238.05C785.108 1241.98 783.86 1246.64 782.948 1250.53C782.18 1253.7 781.316 1257.92 780.452 1261.09C780.164 1262.14 779.828 1263.25 779.3 1264.35C778.388 1266.27 776.852 1267.47 774.836 1266.03C773.3 1264.98 772.772 1262.72 772.004 1261.14C771.524 1260.18 769.796 1254.22 769.076 1252.59C767.924 1255.42 766.676 1260.22 766.244 1261.47C765.284 1264.06 763.94 1268.24 760.58 1266.08C759.956 1265.7 759.476 1265.07 759.236 1264.45C758.948 1263.54 758.564 1262.72 758.372 1261.86L757.412 1258.26L755.444 1250.53C754.964 1248.56 754.484 1246.5 753.86 1244.24C753.284 1242.03 752.996 1240.26 752.228 1235.98C752.132 1235.31 752.084 1234.69 752.18 1234.06C752.228 1233.58 752.468 1233.15 752.852 1232.82C753.188 1232.48 753.668 1232.29 754.148 1232.19C754.58 1232.05 755.012 1232 755.348 1232C755.732 1232 756.164 1232.14 756.548 1232.38C756.788 1232.53 757.028 1232.72 757.22 1233.01L757.796 1234.02C757.94 1234.45 758.036 1234.78 758.18 1235.17C758.276 1235.6 758.372 1235.94 758.42 1236.27C758.996 1239.58 759.908 1242.8 760.628 1245.63C761.204 1247.89 762.116 1253.02 762.836 1254.99C763.652 1252.16 764.516 1249.23 765.524 1246.3C766.58 1243.23 767.588 1241.07 770.036 1241.98C771.092 1242.42 771.956 1244.14 772.58 1245.68C773.684 1248.51 774.836 1252.16 775.796 1254.08C776.228 1252.64 776.852 1249.47 777.332 1247.46C778.148 1244 779.108 1240.45 779.924 1237.09L780.164 1236.27C780.26 1235.94 780.308 1235.6 780.404 1235.17C780.5 1234.78 780.644 1234.45 780.788 1234.02C780.932 1233.68 781.076 1233.34 781.316 1233.01C781.508 1232.72 781.796 1232.53 782.036 1232.38C782.468 1232.14 782.852 1232 783.188 1232C783.572 1232 783.956 1232.05 784.388 1232.19C784.916 1232.29 785.348 1232.48 785.78 1232.82C786.116 1233.15 786.308 1233.58 786.356 1234.06ZM793.995 1244.43C798.267 1242.32 803.403 1242.66 807.003 1246.11C808.443 1247.55 809.595 1249.86 810.123 1251.82C811.179 1255.33 810.267 1259.07 808.395 1262.14C807.531 1263.54 806.139 1264.74 804.651 1265.41C802.731 1266.27 800.379 1266.66 798.267 1266.46C790.635 1266.03 786.363 1259.07 788.283 1251.87C789.291 1248.08 791.355 1245.73 793.995 1244.43ZM795.435 1250.86C793.563 1252.69 793.275 1256.48 794.859 1258.74C795.483 1259.7 797.403 1260.42 799.179 1260.51C803.307 1260.75 805.515 1254.9 803.307 1251.34C801.723 1248.75 797.451 1248.99 795.435 1250.86ZM814.476 1256.14V1249.14C814.476 1247.6 814.428 1244.91 815.052 1243.42C815.532 1242.27 816.78 1241.94 818.028 1241.98C820.716 1242.03 820.86 1243.9 820.908 1245.92C822.012 1243.9 825.42 1243.38 825.708 1243.38C827.292 1243.28 828.492 1243.23 830.076 1243.76C832.092 1244.53 834.924 1246.59 833.724 1248.85C832.86 1250.43 831.708 1250.1 830.46 1249.76C829.788 1249.62 828.636 1249.04 827.964 1248.9C823.692 1248.27 821.1 1252.16 821.1 1252.16V1259.07C821.148 1262.53 821.34 1266.99 817.068 1266.7C815.916 1266.66 814.908 1265.31 814.716 1264.3C814.524 1262.38 814.428 1258.69 814.476 1256.14ZM847.417 1255.09C851.593 1259.5 848.425 1255.95 852.697 1260.37C853.849 1261.52 854.905 1263.06 853.993 1264.78C852.985 1266.61 851.353 1266.03 849.769 1264.88C848.281 1263.78 846.841 1262.1 846.025 1261.33C845.785 1261.09 845.593 1260.9 845.497 1260.75C845.401 1260.66 845.257 1260.56 845.113 1260.42C844.681 1259.98 844.153 1259.5 843.625 1259.02V1260.9C843.625 1261.18 843.625 1261.42 843.673 1261.66C843.673 1261.95 843.673 1262.14 843.625 1262.38C843.529 1262.72 843.481 1263.06 843.481 1263.39C843.433 1263.68 843.385 1263.97 843.241 1264.3C843.193 1264.45 843.145 1264.5 843.145 1264.59C843.097 1264.69 843.049 1264.74 843.001 1264.88C842.809 1265.26 842.521 1265.55 842.233 1265.79C841.561 1266.18 840.793 1266.22 839.977 1266.08C839.497 1265.98 839.161 1265.84 838.873 1265.55C838.585 1265.36 838.393 1265.07 838.297 1264.74C838.153 1264.4 838.057 1264.06 837.961 1263.73C837.865 1263.44 837.865 1263.1 837.865 1262.91V1235.6C837.865 1235.22 837.865 1234.83 837.913 1234.45C837.961 1234.06 838.105 1233.73 838.201 1233.39C838.345 1233.06 838.489 1232.82 838.681 1232.62C839.017 1232.29 839.353 1232.14 839.689 1232.05C840.025 1232 840.457 1231.95 840.841 1231.95C841.321 1231.95 841.753 1232.1 842.185 1232.34C842.617 1232.62 842.905 1232.96 843.097 1233.44C843.337 1234.02 843.481 1234.59 843.481 1235.22C843.529 1235.84 843.625 1237.52 843.625 1238.14V1238.34C843.673 1240.45 843.673 1242.27 843.673 1244.48C843.625 1246.69 843.625 1248.7 843.625 1250.67V1251.2C844.153 1250.72 844.681 1250.24 845.113 1249.76C845.305 1249.62 845.401 1249.52 845.497 1249.42L846.025 1248.9C846.841 1248.08 848.281 1246.4 849.769 1245.3C851.353 1244.14 852.985 1243.62 853.993 1245.39C854.905 1247.12 853.849 1248.66 852.697 1249.9C848.425 1254.27 851.593 1250.72 847.417 1255.09ZM869.681 1257.68C867.233 1256.14 863.441 1256.24 861.041 1254.46C858.449 1252.5 858.065 1249.33 859.697 1246.4C861.473 1243.33 865.937 1242.46 869.249 1243.04C871.457 1243.42 874.241 1244.29 875.057 1246.83C875.585 1248.51 874.289 1249.95 872.561 1249.66C870.689 1249.33 869.297 1247.79 867.329 1247.79C864.449 1247.7 863.201 1250.38 865.889 1251.82C868.385 1253.12 871.841 1253.07 874.049 1254.9C878.321 1258.3 875.585 1264.93 870.449 1266.03C866.753 1266.8 861.521 1266.08 858.929 1263.1C857.153 1260.99 858.977 1257.3 861.521 1258.93C863.633 1260.32 867.329 1261.81 869.201 1260.61C870.593 1259.7 870.593 1258.3 869.681 1257.68ZM898.726 1256.67C898.774 1257.92 898.774 1259.41 898.726 1260.56C898.582 1264.02 898.534 1266.42 895.654 1266.08C892.726 1265.74 893.398 1260.51 893.302 1258.69C893.206 1255.86 893.494 1250.77 890.182 1250.67C885.91 1250.43 886.198 1252.59 885.862 1255.42L885.814 1257.3V1260.8C885.814 1263.1 885.91 1266.08 882.838 1266.13C880.918 1266.13 880.006 1264.69 880.006 1262.86V1235.26C880.006 1234.88 880.054 1234.54 880.102 1234.16C880.198 1233.78 880.294 1233.44 880.39 1233.1C880.486 1232.82 880.678 1232.53 880.87 1232.38C881.206 1232.1 881.494 1231.86 881.878 1231.81C882.214 1231.76 882.598 1231.71 882.982 1231.71C883.51 1231.71 883.942 1231.86 884.374 1232.14C884.758 1232.38 885.094 1232.67 885.286 1233.15C885.526 1233.73 885.67 1234.26 885.67 1234.88C885.766 1235.5 885.766 1237.52 885.814 1238.14V1238.38C885.862 1240.4 885.862 1242.56 885.862 1244.72V1245.54C888.502 1244.62 891.718 1244.62 894.022 1245.78C898.774 1248.18 898.582 1252.02 898.726 1256.67ZM908.792 1244.43C913.064 1242.32 918.2 1242.66 921.8 1246.11C923.24 1247.55 924.392 1249.86 924.92 1251.82C925.976 1255.33 925.064 1259.07 923.192 1262.14C922.328 1263.54 920.936 1264.74 919.448 1265.41C917.528 1266.27 915.176 1266.66 913.064 1266.46C905.432 1266.03 901.16 1259.07 903.08 1251.87C904.088 1248.08 906.152 1245.73 908.792 1244.43ZM910.232 1250.86C908.36 1252.69 908.072 1256.48 909.656 1258.74C910.28 1259.7 912.2 1260.42 913.976 1260.51C918.104 1260.75 920.312 1254.9 918.104 1251.34C916.52 1248.75 912.248 1248.99 910.232 1250.86ZM942.665 1244.53C946.361 1246.11 948.953 1250.53 948.953 1254.9C949.001 1258.16 947.513 1261.28 944.009 1262.82C941.369 1263.92 938.489 1264.4 935.417 1264.59V1273.38C935.417 1273.76 935.273 1274.1 935.273 1274.38C935.177 1275.01 934.985 1275.49 934.745 1276.06C934.505 1276.45 934.265 1276.78 933.929 1277.07C933.161 1277.46 932.393 1277.55 931.529 1277.31C931.001 1277.26 930.617 1277.12 930.281 1276.83C930.041 1276.59 929.801 1276.3 929.657 1275.92C929.513 1275.54 929.417 1275.2 929.321 1274.82C929.273 1274.53 929.225 1274.19 929.225 1273.9V1247.17C929.225 1246.78 929.273 1246.35 929.321 1245.92C929.369 1245.54 929.465 1245.15 929.609 1244.77C930.185 1243.18 932.153 1242.7 934.409 1242.75C937.529 1242.85 941.177 1243.9 942.665 1244.53ZM942.761 1254.9C943.241 1251.3 939.737 1250.1 936.617 1249.66C936.425 1249.62 935.945 1249.62 935.465 1249.62C935.465 1251.63 935.513 1253.46 935.465 1255.62V1258.83C938.441 1258.64 942.329 1258.06 942.761 1254.9ZM964.322 1257.68C961.874 1256.14 958.082 1256.24 955.682 1254.46C953.09 1252.5 952.706 1249.33 954.338 1246.4C956.114 1243.33 960.578 1242.46 963.89 1243.04C966.098 1243.42 968.882 1244.29 969.698 1246.83C970.226 1248.51 968.93 1249.95 967.202 1249.66C965.33 1249.33 963.938 1247.79 961.97 1247.79C959.09 1247.7 957.842 1250.38 960.53 1251.82C963.026 1253.12 966.482 1253.07 968.69 1254.9C972.962 1258.3 970.226 1264.93 965.09 1266.03C961.394 1266.8 956.162 1266.08 953.57 1263.1C951.794 1260.99 953.618 1257.3 956.162 1258.93C958.274 1260.32 961.97 1261.81 963.842 1260.61C965.234 1259.7 965.234 1258.3 964.322 1257.68ZM769.478 1315.08C765.686 1315.08 761.126 1314.46 758.918 1310.95C757.718 1309.13 757.238 1306.87 757.382 1304.66C757.67 1301.21 759.926 1298.76 762.95 1297.46C762.422 1297.46 760.55 1295.88 760.214 1295.59C759.446 1294.78 759.014 1293.58 758.678 1292.52C757.862 1289.64 758.534 1286.18 760.502 1283.83C762.134 1281.82 765.974 1280.62 768.422 1280.57C770.054 1280.57 771.686 1280.42 773.27 1280.66C775.238 1281 776.966 1282.01 778.262 1283.4C780.806 1286.18 781.526 1289.88 780.566 1293.48C780.23 1294.49 779.558 1295.35 778.742 1296.12C778.406 1296.41 776.63 1297.61 776.15 1297.51C777.686 1298.47 779.222 1299.19 780.086 1300.87C781.862 1304.14 781.862 1308.55 779.366 1311.38C776.918 1314.17 772.982 1315.08 769.478 1315.08ZM769.574 1301.06C766.742 1301.21 763.574 1302.17 763.19 1305.53C762.95 1308.07 765.254 1309.56 767.462 1309.8C768.662 1309.99 769.958 1309.99 771.158 1309.75C772.934 1309.37 774.422 1309.27 775.142 1307.35C775.718 1306.01 775.67 1304.04 774.71 1302.98C773.318 1301.3 771.638 1300.97 769.574 1301.06ZM769.622 1285.85C766.646 1286.04 764.054 1287.05 764.198 1290.5C764.246 1291.7 764.486 1292.76 765.398 1293.67C766.502 1294.92 768.134 1294.97 769.67 1294.92C772.022 1294.92 773.846 1294.44 774.902 1292.14C776.534 1288.39 772.982 1285.61 769.622 1285.85ZM810.665 1293.53C814.361 1295.11 816.953 1299.53 816.953 1303.9C817.001 1307.16 815.513 1310.28 812.009 1311.82C809.369 1312.92 806.489 1313.4 803.417 1313.59V1322.38C803.417 1322.76 803.273 1323.1 803.273 1323.38C803.177 1324.01 802.985 1324.49 802.745 1325.06C802.505 1325.45 802.265 1325.78 801.929 1326.07C801.161 1326.46 800.393 1326.55 799.529 1326.31C799.001 1326.26 798.617 1326.12 798.281 1325.83C798.041 1325.59 797.801 1325.3 797.657 1324.92C797.513 1324.54 797.417 1324.2 797.321 1323.82C797.273 1323.53 797.225 1323.19 797.225 1322.9V1296.17C797.225 1295.78 797.273 1295.35 797.321 1294.92C797.369 1294.54 797.465 1294.15 797.609 1293.77C798.185 1292.18 800.153 1291.7 802.409 1291.75C805.529 1291.85 809.177 1292.9 810.665 1293.53ZM810.761 1303.9C811.241 1300.3 807.737 1299.1 804.617 1298.66C804.425 1298.62 803.945 1298.62 803.465 1298.62C803.465 1300.63 803.513 1302.46 803.465 1304.62V1307.83C806.441 1307.64 810.329 1307.06 810.761 1303.9ZM826.466 1294.92C830.354 1292.95 835.058 1293.24 838.322 1296.41C840.002 1298.09 840.818 1300.06 841.202 1302.46C841.682 1305.72 843.746 1308.07 844.466 1311.19C844.802 1312.68 844.274 1314.31 842.642 1314.6C840.674 1314.98 839.282 1312.87 838.418 1311.48C836.93 1313.4 835.298 1314.41 832.898 1314.74C830.834 1314.98 829.106 1314.89 826.994 1314.31C821.522 1312.87 819.938 1306.87 821.33 1301.64C822.242 1298.18 824.114 1296.07 826.466 1294.92ZM827.666 1300.54C825.842 1302.26 825.65 1305.77 827.09 1307.83C827.714 1308.74 829.442 1309.42 831.122 1309.51C834.962 1309.75 837.026 1304.28 834.962 1300.97C833.474 1298.52 829.49 1298.76 827.666 1300.54ZM848.507 1304.9V1297.99C848.507 1296.5 848.315 1294.73 848.891 1293.38C849.419 1292.18 850.763 1291.61 851.915 1291.9C854.267 1292.28 854.219 1294.01 854.315 1295.74C855.563 1293.48 858.491 1292.9 859.547 1292.86C861.995 1292.86 864.587 1293.96 866.171 1295.88C867.947 1298.14 867.899 1300.97 868.043 1303.75C868.187 1305.77 868.187 1307.83 868.043 1309.85C867.947 1311.48 868.283 1314.65 866.411 1315.03C863.723 1315.61 863.147 1314.41 862.811 1312.63C862.523 1311.19 862.523 1308.79 862.475 1307.3C862.475 1306.1 862.379 1304.52 862.427 1303.22C862.427 1300.25 860.747 1298.57 858.059 1298.81C855.995 1299.05 854.219 1300.54 854.267 1302.7C854.315 1304.33 854.171 1305.38 854.219 1307.45C854.219 1309.56 854.363 1312.15 853.787 1313.64C853.307 1315.18 851.963 1315.85 850.331 1314.98C848.939 1314.17 848.795 1312.2 848.699 1310.81C848.507 1308.7 848.507 1307.02 848.507 1304.9ZM888.645 1308.55C890.133 1308.12 892.101 1308.26 892.101 1310.42C892.101 1312.01 890.373 1313.21 889.125 1313.74C887.301 1314.55 884.757 1315.03 882.213 1314.94C878.757 1314.79 875.301 1313.64 873.525 1310.81C871.893 1308.02 871.653 1304.23 872.277 1301.21C872.997 1297.51 874.773 1295.26 877.125 1293.86C879.957 1292.23 883.893 1292.18 887.109 1293.62C889.269 1294.58 891.093 1296.22 892.005 1298.52C892.485 1299.67 892.725 1302.07 892.245 1303.46C891.429 1305.77 890.085 1305.82 886.581 1305.96C883.509 1306.1 881.349 1305.96 877.653 1305.86C877.269 1308.46 880.101 1309.46 882.453 1309.66C884.613 1309.8 886.533 1309.18 888.645 1308.55ZM886.581 1299.24C886.005 1298.57 885.381 1298.04 884.661 1297.7C883.653 1297.27 882.453 1297.37 881.445 1297.66C880.437 1297.9 879.765 1298.33 879.093 1299.1C878.901 1299.29 877.557 1301.35 878.085 1301.35H887.493C887.445 1300.44 887.205 1299.91 886.581 1299.24ZM903.781 1311.29C903.733 1311.62 903.685 1311.91 903.685 1312.2L903.397 1313.21C903.349 1313.3 903.301 1313.4 903.253 1313.45L903.109 1313.74C902.917 1314.12 902.581 1314.41 902.245 1314.6C901.477 1314.98 900.661 1315.08 899.797 1314.89C899.269 1314.84 898.789 1314.65 898.501 1314.41C898.213 1314.22 897.973 1313.98 897.829 1313.59C897.685 1313.26 897.589 1312.92 897.541 1312.63C897.445 1312.3 897.397 1312.01 897.397 1311.77V1284.89C897.397 1284.46 897.445 1284.12 897.493 1283.78C897.541 1283.35 897.637 1283.06 897.781 1282.68C897.877 1282.39 898.069 1282.1 898.309 1281.91C898.645 1281.67 899.029 1281.48 899.413 1281.43C899.845 1281.29 900.229 1281.29 900.709 1281.29C901.189 1281.29 901.717 1281.43 902.245 1281.67C902.677 1281.91 903.013 1282.3 903.205 1282.73C903.493 1283.3 903.685 1283.93 903.685 1284.5C903.733 1285.13 903.781 1286.76 903.781 1287.38V1287.58C903.877 1289.64 903.877 1291.42 903.829 1293.62C903.829 1295.78 903.781 1297.8 903.781 1299.77V1309.85C903.781 1310.09 903.829 1310.33 903.829 1310.57C903.829 1310.86 903.829 1311.05 903.781 1311.29ZM919.181 1306.68C916.733 1305.14 912.941 1305.24 910.541 1303.46C907.949 1301.5 907.565 1298.33 909.197 1295.4C910.973 1292.33 915.437 1291.46 918.749 1292.04C920.957 1292.42 923.741 1293.29 924.557 1295.83C925.085 1297.51 923.789 1298.95 922.061 1298.66C920.189 1298.33 918.797 1296.79 916.829 1296.79C913.949 1296.7 912.701 1299.38 915.389 1300.82C917.885 1302.12 921.341 1302.07 923.549 1303.9C927.821 1307.3 925.085 1313.93 919.949 1315.03C916.253 1315.8 911.021 1315.08 908.429 1312.1C906.653 1309.99 908.477 1306.3 911.021 1307.93C913.133 1309.32 916.829 1310.81 918.701 1309.61C920.093 1308.7 920.093 1307.3 919.181 1306.68Z" fill="#C05111"/>
<path d="M978.672 364.916C986.889 377.93 976.345 398.949 961 400.143C945.152 401.376 931.342 379.505 939.269 365.726C946.944 352.386 970.454 351.902 978.672 364.916Z" fill="#0046A8"/>
<path d="M833 1149.5L852.5 1141.86M852.5 1141.86L870 1135C870 1135 876.424 1152.49 869 1156C861.326 1159.62 852.5 1141.86 852.5 1141.86Z" stroke="black" stroke-width="7"/>
</g>
<defs>
<linearGradient id="paint0_linear_496_399" x1="473.5" y1="395.5" x2="330" y2="434" gradientUnits="userSpaceOnUse">
<stop stop-color="#FFD3DF"/>
<stop offset="1" stop-color="#FF87A8"/>
</linearGradient>
<linearGradient id="paint1_linear_496_399" x1="929" y1="1030.5" x2="1009" y2="1104.5" gradientUnits="userSpaceOnUse">
<stop stop-color="#FFC9AA"/>
<stop offset="1" stop-color="#E88043"/>
</linearGradient>
<linearGradient id="paint2_linear_496_399" x1="1102.65" y1="974.852" x2="1102.65" y2="1053.61" gradientUnits="userSpaceOnUse">
<stop stop-color="#998C66"/>
<stop offset="0.807692" stop-color="#FFEAA9"/>
</linearGradient>
<clipPath id="clip0_496_399">
<rect width="1440" height="1488" fill="white"/>
</clipPath>
</defs>
</svg>
