<svg width="362" height="432" viewBox="0 0 362 432" fill="none" xmlns="http://www.w3.org/2000/svg">
<g clip-path="url(#clip0_450_764)" filter="url(#filter0_d_450_764)">
<path d="M45 0H313.5L358 424H4L45 0Z" fill="white"/>
<mask id="mask0_450_764" style="mask-type:alpha" maskUnits="userSpaceOnUse" x="4" y="0" width="354" height="424">
<path d="M45 0H313.5L358 424H4L45 0Z" fill="white"/>
</mask>
<g mask="url(#mask0_450_764)">
<ellipse cx="377" cy="146" rx="162" ry="132" fill="#C9F6FE"/>
<ellipse cx="181" cy="64" rx="162" ry="132" fill="#A9EDF9"/>
<ellipse cx="114" cy="226" rx="162" ry="132" fill="#A9F4F9"/>
<ellipse cx="271" cy="404" rx="225" ry="183" fill="#A9F9F5"/>
<ellipse cx="14" cy="481" rx="225" ry="183" fill="#A9F0F9"/>
<line x1="41" y1="31" x2="317" y2="31" stroke="#FFF3F3" style="mix-blend-mode:multiply" stroke-width="18"/>
<line x1="6" y1="383" x2="354" y2="383" stroke="#FFF3F3" style="mix-blend-mode:multiply" stroke-width="18"/>
</g>
<path d="M118.383 45.82C118.397 45.9133 118.403 46 118.403 46.08C118.403 46.16 118.403 46.24 118.403 46.32V47.14L118.283 57.52V57.72C118.283 57.8 118.263 57.92 118.223 58.08C118.21 58.1467 118.19 58.22 118.163 58.3C118.137 58.3667 118.11 58.44 118.083 58.52C118.017 58.68 117.923 58.8 117.803 58.88C117.697 58.9867 117.523 59.06 117.283 59.1C116.91 59.18 116.57 59.1467 116.263 59C116.09 58.8933 115.97 58.76 115.903 58.6C115.877 58.5733 115.85 58.5333 115.823 58.48C115.823 58.4533 115.81 58.4133 115.783 58.36C115.757 58.2933 115.737 58.2267 115.723 58.16C115.71 58.08 115.697 58 115.683 57.92C115.683 57.8533 115.677 57.7867 115.663 57.72C115.663 57.6533 115.657 57.5867 115.643 57.52C115.617 57.4533 115.603 57.4 115.603 57.36C115.603 57.3067 115.603 57.2467 115.603 57.18C115.63 57.1267 115.643 57.0267 115.643 56.88L115.663 55.3L115.683 52.78H114.603L110.543 52.8L110.503 57.52V57.72C110.503 57.8 110.483 57.92 110.443 58.08C110.43 58.1467 110.41 58.22 110.383 58.3C110.357 58.3667 110.33 58.44 110.303 58.52C110.237 58.68 110.143 58.8 110.023 58.88C109.917 58.9867 109.743 59.06 109.503 59.1C109.13 59.18 108.79 59.1467 108.483 59C108.35 58.92 108.223 58.7867 108.103 58.6C108.077 58.5467 108.063 58.5067 108.063 58.48L108.003 58.36C107.977 58.2933 107.957 58.2267 107.943 58.16C107.93 58.08 107.917 58 107.903 57.92C107.903 57.8533 107.897 57.7867 107.883 57.72C107.87 57.6533 107.857 57.5867 107.843 57.52C107.83 57.4133 107.83 57.3 107.843 57.18V56.88L107.863 55.3L107.903 52.36C107.917 51.9333 107.923 51.4933 107.923 51.04C107.923 50.5867 107.923 50.12 107.923 49.64C107.91 49.16 107.903 48.7333 107.903 48.36C107.917 47.9867 107.937 47.5667 107.963 47.1V47.02C107.977 46.8867 107.983 46.7533 107.983 46.62C107.983 46.4733 107.99 46.3267 108.003 46.18C108.017 46.0467 108.037 45.92 108.063 45.8C108.103 45.6667 108.157 45.5333 108.223 45.4C108.263 45.2933 108.317 45.2067 108.383 45.14C108.45 45.06 108.53 44.9867 108.623 44.92C108.837 44.8133 109.05 44.76 109.263 44.76C109.37 44.76 109.463 44.7667 109.543 44.78C109.623 44.78 109.703 44.7867 109.783 44.8C109.943 44.8133 110.097 44.8933 110.243 45.04C110.35 45.1333 110.423 45.24 110.463 45.36C110.53 45.5333 110.57 45.6867 110.583 45.82C110.597 45.9133 110.603 46 110.603 46.08C110.603 46.16 110.603 46.24 110.603 46.32V47.14L110.563 50.44C110.67 50.44 110.79 50.44 110.923 50.44C111.07 50.44 111.237 50.4333 111.423 50.42C112.117 50.42 112.803 50.4267 113.483 50.44C114.177 50.4533 114.903 50.46 115.663 50.46H115.683C115.683 49.86 115.683 49.2867 115.683 48.74C115.697 48.1933 115.717 47.62 115.743 47.02C115.743 46.8867 115.743 46.7533 115.743 46.62C115.757 46.4733 115.77 46.3267 115.783 46.18C115.797 46.0467 115.817 45.92 115.843 45.8C115.883 45.6667 115.937 45.5333 116.003 45.4C116.03 45.2933 116.077 45.2067 116.143 45.14C116.223 45.06 116.317 44.9867 116.423 44.92C116.61 44.8133 116.817 44.76 117.043 44.76C117.15 44.76 117.243 44.7667 117.323 44.78C117.417 44.78 117.497 44.7867 117.563 44.8C117.75 44.8267 117.903 44.9067 118.023 45.04C118.13 45.1067 118.203 45.2133 118.243 45.36C118.27 45.44 118.29 45.52 118.303 45.6C118.33 45.6667 118.357 45.74 118.383 45.82ZM122.591 49.96C123.031 49.7467 123.491 49.5933 123.971 49.5C124.451 49.4067 124.924 49.3867 125.391 49.44C125.871 49.4933 126.331 49.62 126.771 49.82C127.224 50.02 127.638 50.3 128.011 50.66C128.318 50.9667 128.584 51.34 128.811 51.78C129.038 52.2067 129.204 52.6267 129.311 53.04C129.538 53.7733 129.571 54.5133 129.411 55.26C129.251 56.0067 128.978 56.7 128.591 57.34C128.404 57.6333 128.171 57.9 127.891 58.14C127.624 58.3667 127.338 58.5533 127.031 58.7C126.631 58.8867 126.198 59.0133 125.731 59.08C125.264 59.16 124.811 59.18 124.371 59.14C123.571 59.1 122.864 58.9 122.251 58.54C121.651 58.18 121.164 57.72 120.791 57.16C120.431 56.6 120.191 55.9667 120.071 55.26C119.964 54.54 120.011 53.8067 120.211 53.06C120.424 52.26 120.731 51.6133 121.131 51.12C121.544 50.6133 122.031 50.2267 122.591 49.96ZM123.191 52.64C122.991 52.8267 122.838 53.06 122.731 53.34C122.624 53.62 122.558 53.9133 122.531 54.22C122.504 54.5133 122.524 54.8133 122.591 55.12C122.671 55.4133 122.791 55.68 122.951 55.92C123.084 56.12 123.324 56.2867 123.671 56.42C124.018 56.5533 124.378 56.6333 124.751 56.66C125.178 56.6867 125.551 56.5733 125.871 56.32C126.191 56.0533 126.431 55.7267 126.591 55.34C126.764 54.9533 126.844 54.5333 126.831 54.08C126.818 53.6267 126.698 53.2133 126.471 52.84C126.311 52.5733 126.084 52.38 125.791 52.26C125.511 52.1267 125.211 52.06 124.891 52.06C124.584 52.0467 124.278 52.0933 123.971 52.2C123.664 52.2933 123.404 52.44 123.191 52.64ZM142.765 50C142.885 50.1733 142.925 50.4467 142.885 50.82C142.858 51.18 142.791 51.5733 142.685 52C142.578 52.4133 142.451 52.8267 142.305 53.24C142.158 53.64 142.038 53.9733 141.945 54.24C141.718 54.8533 141.518 55.4267 141.345 55.96C141.171 56.4933 140.965 57.08 140.725 57.72C140.645 57.9067 140.565 58.0933 140.485 58.28C140.418 58.4667 140.331 58.6333 140.225 58.78C140.131 58.9267 140.011 59.0467 139.865 59.14C139.731 59.2333 139.565 59.28 139.365 59.28C139.138 59.28 138.938 59.2 138.765 59.04C138.605 58.88 138.465 58.68 138.345 58.44C138.238 58.2 138.145 57.9467 138.065 57.68C137.985 57.4133 137.918 57.18 137.865 56.98C137.691 56.3933 137.538 55.86 137.405 55.38C137.271 54.8867 137.151 54.4467 137.045 54.06C136.925 54.4467 136.805 54.8667 136.685 55.32C136.565 55.7733 136.411 56.2867 136.225 56.86C136.171 57.06 136.105 57.3067 136.025 57.6C135.945 57.88 135.845 58.1467 135.725 58.4C135.618 58.6533 135.478 58.8667 135.305 59.04C135.145 59.2267 134.951 59.3067 134.725 59.28C134.405 59.2667 134.125 59.14 133.885 58.9C133.658 58.6467 133.458 58.3467 133.285 58C133.125 57.6533 132.985 57.2933 132.865 56.92C132.745 56.5467 132.645 56.22 132.565 55.94C132.458 55.58 132.331 55.18 132.185 54.74C132.038 54.3 131.891 53.8533 131.745 53.4C131.611 52.9333 131.485 52.4733 131.365 52.02C131.245 51.5533 131.165 51.1267 131.125 50.74C131.098 50.4867 131.145 50.2533 131.265 50.04C131.398 49.8267 131.565 49.68 131.765 49.6C131.978 49.5067 132.205 49.4867 132.445 49.54C132.698 49.5933 132.925 49.7533 133.125 50.02C133.231 50.1533 133.325 50.32 133.405 50.52C133.498 50.72 133.578 50.94 133.645 51.18C133.711 51.4067 133.778 51.64 133.845 51.88C133.911 52.12 133.978 52.3533 134.045 52.58C134.191 53.0867 134.311 53.4867 134.405 53.78C134.511 54.06 134.618 54.3533 134.725 54.66C134.818 54.3533 134.911 54.06 135.005 53.78C135.111 53.4867 135.238 53.0867 135.385 52.58C135.438 52.42 135.498 52.24 135.565 52.04C135.645 51.8267 135.725 51.6267 135.805 51.44C135.898 51.2533 135.998 51.08 136.105 50.92C136.225 50.7467 136.351 50.62 136.485 50.54C136.778 50.34 137.045 50.2933 137.285 50.4C137.525 50.4933 137.731 50.66 137.905 50.9C138.078 51.14 138.225 51.42 138.345 51.74C138.478 52.0467 138.585 52.3267 138.665 52.58C138.745 52.8467 138.818 53.08 138.885 53.28C138.951 53.4667 139.011 53.64 139.065 53.8C139.118 53.96 139.165 54.1133 139.205 54.26C139.258 54.4067 139.311 54.56 139.365 54.72C139.418 54.56 139.465 54.4067 139.505 54.26C139.558 54.1133 139.611 53.96 139.665 53.8C139.718 53.64 139.778 53.4667 139.845 53.28C139.911 53.08 139.985 52.8467 140.065 52.58C140.118 52.4067 140.171 52.2067 140.225 51.98C140.291 51.7533 140.358 51.5267 140.425 51.3C140.491 51.06 140.558 50.8333 140.625 50.62C140.705 50.4067 140.791 50.2267 140.885 50.08C140.978 49.9333 141.105 49.8133 141.265 49.72C141.425 49.6133 141.591 49.5533 141.765 49.54C141.938 49.5133 142.111 49.5333 142.285 49.6C142.471 49.6667 142.631 49.8 142.765 50ZM153.179 57.4C153.165 57.4667 153.152 57.5333 153.139 57.6C153.139 57.6533 153.139 57.7133 153.139 57.78L153.019 58.2C152.992 58.2533 152.972 58.2867 152.959 58.3L152.899 58.42C152.832 58.5667 152.712 58.6867 152.539 58.78C152.219 58.94 151.879 58.98 151.519 58.9C151.292 58.8733 151.112 58.8067 150.979 58.7C150.845 58.6067 150.752 58.4933 150.699 58.36C150.645 58.2267 150.605 58.0933 150.579 57.96C150.539 57.8267 150.519 57.7067 150.519 57.6V46.4C150.519 46.3067 150.519 46.2267 150.519 46.16C150.532 46.08 150.545 46.0067 150.559 45.94C150.572 45.8467 150.585 45.7667 150.599 45.7C150.625 45.6333 150.652 45.56 150.679 45.48C150.719 45.3467 150.792 45.24 150.899 45.16C151.059 45.04 151.212 44.9733 151.359 44.96C151.452 44.9333 151.539 44.92 151.619 44.92C151.699 44.9067 151.792 44.9 151.899 44.9C152.085 44.9 152.299 44.9533 152.539 45.06C152.725 45.1667 152.859 45.3133 152.939 45.5C153.072 45.7667 153.139 46.0133 153.139 46.24C153.152 46.3733 153.159 46.5733 153.159 46.84C153.172 47.1067 153.179 47.3067 153.179 47.44V47.52C153.205 47.9467 153.219 48.36 153.219 48.76C153.219 49.1467 153.212 49.5733 153.199 50.04C153.199 50.4933 153.192 50.9333 153.179 51.36C153.179 51.7733 153.179 52.1867 153.179 52.6V56.8C153.179 56.8533 153.179 56.9067 153.179 56.96C153.192 57 153.199 57.0467 153.199 57.1C153.199 57.2333 153.192 57.3333 153.179 57.4ZM157.396 49.96C157.836 49.7467 158.296 49.5933 158.776 49.5C159.256 49.4067 159.729 49.3867 160.196 49.44C160.676 49.4933 161.136 49.62 161.576 49.82C162.029 50.02 162.442 50.3 162.816 50.66C163.122 50.9667 163.389 51.34 163.616 51.78C163.842 52.2067 164.009 52.6267 164.116 53.04C164.342 53.7733 164.376 54.5133 164.216 55.26C164.056 56.0067 163.782 56.7 163.396 57.34C163.209 57.6333 162.976 57.9 162.696 58.14C162.429 58.3667 162.142 58.5533 161.836 58.7C161.436 58.8867 161.002 59.0133 160.536 59.08C160.069 59.16 159.616 59.18 159.176 59.14C158.376 59.1 157.669 58.9 157.056 58.54C156.456 58.18 155.969 57.72 155.596 57.16C155.236 56.6 154.996 55.9667 154.876 55.26C154.769 54.54 154.816 53.8067 155.016 53.06C155.229 52.26 155.536 51.6133 155.936 51.12C156.349 50.6133 156.836 50.2267 157.396 49.96ZM157.996 52.64C157.796 52.8267 157.642 53.06 157.536 53.34C157.429 53.62 157.362 53.9133 157.336 54.22C157.309 54.5133 157.329 54.8133 157.396 55.12C157.476 55.4133 157.596 55.68 157.756 55.92C157.889 56.12 158.129 56.2867 158.476 56.42C158.822 56.5533 159.182 56.6333 159.556 56.66C159.982 56.6867 160.356 56.5733 160.676 56.32C160.996 56.0533 161.236 55.7267 161.396 55.34C161.569 54.9533 161.649 54.5333 161.636 54.08C161.622 53.6267 161.502 53.2133 161.276 52.84C161.116 52.5733 160.889 52.38 160.596 52.26C160.316 52.1267 160.016 52.06 159.696 52.06C159.389 52.0467 159.082 52.0933 158.776 52.2C158.469 52.2933 158.209 52.44 157.996 52.64ZM165.929 51.86C165.929 51.5533 165.923 51.2267 165.909 50.88C165.909 50.5333 165.969 50.22 166.089 49.94C166.196 49.6867 166.369 49.5067 166.609 49.4C166.863 49.28 167.109 49.2533 167.349 49.32C167.589 49.36 167.776 49.4333 167.909 49.54C168.043 49.6467 168.136 49.7733 168.189 49.92C168.256 50.0533 168.296 50.2133 168.309 50.4C168.323 50.5733 168.336 50.7467 168.349 50.92C168.483 50.68 168.649 50.4867 168.849 50.34C169.049 50.1933 169.256 50.0733 169.469 49.98C169.683 49.8867 169.883 49.82 170.069 49.78C170.269 49.74 170.423 49.72 170.529 49.72C171.036 49.72 171.536 49.8333 172.029 50.06C172.536 50.2733 172.956 50.58 173.289 50.98C173.476 51.22 173.616 51.4733 173.709 51.74C173.816 51.9933 173.889 52.26 173.929 52.54C173.983 52.82 174.016 53.1067 174.029 53.4C174.043 53.68 174.056 53.9667 174.069 54.26C174.136 55.1133 174.136 55.96 174.069 56.8C174.056 56.9733 174.049 57.1733 174.049 57.4C174.049 57.6267 174.029 57.8533 173.989 58.08C173.963 58.2933 173.903 58.4867 173.809 58.66C173.729 58.82 173.589 58.92 173.389 58.96C173.109 59.0267 172.876 59.04 172.689 59C172.516 58.9733 172.376 58.9133 172.269 58.82C172.163 58.7267 172.083 58.6067 172.029 58.46C171.976 58.3133 171.929 58.1467 171.889 57.96C171.863 57.8133 171.836 57.6467 171.809 57.46C171.796 57.26 171.783 57.06 171.769 56.86C171.769 56.66 171.763 56.4667 171.749 56.28C171.749 56.08 171.749 55.9 171.749 55.74C171.749 55.4867 171.743 55.2067 171.729 54.9C171.716 54.5933 171.716 54.3067 171.729 54.04C171.729 53.4133 171.563 52.94 171.229 52.62C170.909 52.2867 170.469 52.1467 169.909 52.2C169.483 52.2533 169.109 52.4267 168.789 52.72C168.469 53 168.316 53.3667 168.329 53.82C168.329 53.9933 168.329 54.1533 168.329 54.3C168.329 54.4467 168.323 54.5933 168.309 54.74C168.309 54.8867 168.309 55.0467 168.309 55.22C168.309 55.3933 168.309 55.5867 168.309 55.8C168.309 56.24 168.309 56.7067 168.309 57.2C168.309 57.68 168.249 58.0733 168.129 58.38C168.023 58.7 167.843 58.92 167.589 59.04C167.336 59.16 167.036 59.1267 166.689 58.94C166.543 58.86 166.423 58.7533 166.329 58.62C166.249 58.4733 166.183 58.32 166.129 58.16C166.089 58 166.063 57.84 166.049 57.68C166.036 57.5067 166.023 57.3467 166.009 57.2C165.969 56.76 165.943 56.3533 165.929 55.98C165.929 55.5933 165.929 55.18 165.929 54.74V51.86ZM184.034 55.22C184.034 55.6467 184.02 56.1067 183.994 56.6C183.98 57.0933 183.96 57.5533 183.934 57.98C183.934 58.38 183.914 58.78 183.874 59.18C183.847 59.5267 183.794 59.9 183.714 60.3C183.634 60.7133 183.52 61.0933 183.374 61.44C183.187 61.8933 182.934 62.28 182.614 62.6C182.294 62.9333 181.88 63.1733 181.374 63.32C180.947 63.4267 180.547 63.4933 180.174 63.52C179.8 63.56 179.4 63.5533 178.974 63.5C178.694 63.46 178.394 63.38 178.074 63.26C177.754 63.1533 177.454 63.0133 177.174 62.84C176.894 62.6667 176.647 62.46 176.434 62.22C176.22 61.9933 176.074 61.7333 175.994 61.44C175.9 61.08 175.894 60.7667 175.974 60.5C176.067 60.2333 176.207 60.04 176.394 59.92C176.58 59.8 176.8 59.78 177.054 59.86C177.307 59.94 177.547 60.1467 177.774 60.48C177.934 60.72 178.167 60.9133 178.474 61.06C178.78 61.2067 179.107 61.2933 179.454 61.32C179.8 61.3467 180.134 61.3 180.454 61.18C180.787 61.0733 181.047 60.88 181.234 60.6C181.367 60.4 181.46 60.1133 181.514 59.74C181.58 59.3667 181.62 59 181.634 58.64C180.954 58.92 180.254 59.0267 179.534 58.96C178.827 58.88 178.18 58.66 177.594 58.3C177.02 57.9267 176.554 57.4333 176.194 56.82C175.847 56.1933 175.7 55.4867 175.754 54.7C175.794 54.02 175.934 53.38 176.174 52.78C176.427 52.18 176.84 51.68 177.414 51.28C177.88 50.96 178.407 50.7533 178.994 50.66C179.58 50.5533 180.147 50.5 180.694 50.5C181.014 50.5 181.327 50.5 181.634 50.5C181.954 50.5 182.247 50.54 182.514 50.62C182.78 50.7 183.02 50.8333 183.234 51.02C183.447 51.2067 183.607 51.48 183.714 51.84C183.887 52.4 183.98 52.9533 183.994 53.5C184.02 54.0467 184.034 54.62 184.034 55.22ZM180.174 56.88C180.307 56.88 180.434 56.8667 180.554 56.84C180.687 56.8133 180.814 56.78 180.934 56.74C181.16 56.66 181.327 56.5533 181.434 56.42C181.554 56.2867 181.634 56.14 181.674 55.98C181.714 55.8067 181.727 55.62 181.714 55.42C181.714 55.22 181.714 55.0133 181.714 54.8C181.714 54.6267 181.707 54.4333 181.694 54.22C181.694 54.0067 181.68 53.8067 181.654 53.62C181.627 53.42 181.587 53.2467 181.534 53.1C181.48 52.9533 181.4 52.86 181.294 52.82C181.107 52.7667 180.894 52.7333 180.654 52.72C180.414 52.6933 180.174 52.6933 179.934 52.72C179.694 52.7333 179.46 52.78 179.234 52.86C179.02 52.9267 178.84 53.02 178.694 53.14C178.494 53.3133 178.34 53.5267 178.234 53.78C178.127 54.0333 178.06 54.3 178.034 54.58C178.02 54.86 178.04 55.1333 178.094 55.4C178.16 55.6667 178.274 55.9067 178.434 56.12C178.62 56.3867 178.874 56.58 179.194 56.7C179.514 56.82 179.84 56.88 180.174 56.88ZM203.312 50C203.432 50.1733 203.472 50.4467 203.432 50.82C203.405 51.18 203.338 51.5733 203.232 52C203.125 52.4133 202.998 52.8267 202.852 53.24C202.705 53.64 202.585 53.9733 202.492 54.24C202.265 54.8533 202.065 55.4267 201.892 55.96C201.718 56.4933 201.512 57.08 201.272 57.72C201.192 57.9067 201.112 58.0933 201.032 58.28C200.965 58.4667 200.878 58.6333 200.772 58.78C200.678 58.9267 200.558 59.0467 200.412 59.14C200.278 59.2333 200.112 59.28 199.912 59.28C199.685 59.28 199.485 59.2 199.312 59.04C199.152 58.88 199.012 58.68 198.892 58.44C198.785 58.2 198.692 57.9467 198.612 57.68C198.532 57.4133 198.465 57.18 198.412 56.98C198.238 56.3933 198.085 55.86 197.952 55.38C197.818 54.8867 197.698 54.4467 197.592 54.06C197.472 54.4467 197.352 54.8667 197.232 55.32C197.112 55.7733 196.958 56.2867 196.772 56.86C196.718 57.06 196.652 57.3067 196.572 57.6C196.492 57.88 196.392 58.1467 196.272 58.4C196.165 58.6533 196.025 58.8667 195.852 59.04C195.692 59.2267 195.498 59.3067 195.272 59.28C194.952 59.2667 194.672 59.14 194.432 58.9C194.205 58.6467 194.005 58.3467 193.832 58C193.672 57.6533 193.532 57.2933 193.412 56.92C193.292 56.5467 193.192 56.22 193.112 55.94C193.005 55.58 192.878 55.18 192.732 54.74C192.585 54.3 192.438 53.8533 192.292 53.4C192.158 52.9333 192.032 52.4733 191.912 52.02C191.792 51.5533 191.712 51.1267 191.672 50.74C191.645 50.4867 191.692 50.2533 191.812 50.04C191.945 49.8267 192.112 49.68 192.312 49.6C192.525 49.5067 192.752 49.4867 192.992 49.54C193.245 49.5933 193.472 49.7533 193.672 50.02C193.778 50.1533 193.872 50.32 193.952 50.52C194.045 50.72 194.125 50.94 194.192 51.18C194.258 51.4067 194.325 51.64 194.392 51.88C194.458 52.12 194.525 52.3533 194.592 52.58C194.738 53.0867 194.858 53.4867 194.952 53.78C195.058 54.06 195.165 54.3533 195.272 54.66C195.365 54.3533 195.458 54.06 195.552 53.78C195.658 53.4867 195.785 53.0867 195.932 52.58C195.985 52.42 196.045 52.24 196.112 52.04C196.192 51.8267 196.272 51.6267 196.352 51.44C196.445 51.2533 196.545 51.08 196.652 50.92C196.772 50.7467 196.898 50.62 197.032 50.54C197.325 50.34 197.592 50.2933 197.832 50.4C198.072 50.4933 198.278 50.66 198.452 50.9C198.625 51.14 198.772 51.42 198.892 51.74C199.025 52.0467 199.132 52.3267 199.212 52.58C199.292 52.8467 199.365 53.08 199.432 53.28C199.498 53.4667 199.558 53.64 199.612 53.8C199.665 53.96 199.712 54.1133 199.752 54.26C199.805 54.4067 199.858 54.56 199.912 54.72C199.965 54.56 200.012 54.4067 200.052 54.26C200.105 54.1133 200.158 53.96 200.212 53.8C200.265 53.64 200.325 53.4667 200.392 53.28C200.458 53.08 200.532 52.8467 200.612 52.58C200.665 52.4067 200.718 52.2067 200.772 51.98C200.838 51.7533 200.905 51.5267 200.972 51.3C201.038 51.06 201.105 50.8333 201.172 50.62C201.252 50.4067 201.338 50.2267 201.432 50.08C201.525 49.9333 201.652 49.8133 201.812 49.72C201.972 49.6133 202.138 49.5533 202.312 49.54C202.485 49.5133 202.658 49.5333 202.832 49.6C203.018 49.6667 203.178 49.8 203.312 50ZM207.59 51.42C207.59 51.7933 207.59 52.2133 207.59 52.68C207.603 53.1467 207.61 53.6333 207.61 54.14C207.61 54.6333 207.61 55.1267 207.61 55.62C207.61 56.1 207.603 56.5467 207.59 56.96C207.576 57.16 207.556 57.38 207.53 57.62C207.503 57.8467 207.45 58.06 207.37 58.26C207.29 58.46 207.163 58.6267 206.99 58.76C206.83 58.88 206.61 58.9333 206.33 58.92C205.916 58.8933 205.616 58.7133 205.43 58.38C205.256 58.0467 205.156 57.58 205.13 56.98C205.13 56.6733 205.123 56.32 205.11 55.92C205.11 55.52 205.103 55.1133 205.09 54.7C205.09 54.2867 205.09 53.8867 205.09 53.5C205.09 53.1 205.09 52.74 205.09 52.42C205.09 52.2333 205.083 52.0067 205.07 51.74C205.07 51.4733 205.076 51.2 205.09 50.92C205.103 50.64 205.136 50.3733 205.19 50.12C205.243 49.8533 205.33 49.6333 205.45 49.46C205.543 49.3533 205.676 49.2733 205.85 49.22C206.023 49.1533 206.203 49.12 206.39 49.12C206.59 49.12 206.776 49.1533 206.95 49.22C207.136 49.2867 207.27 49.38 207.35 49.5C207.403 49.58 207.443 49.6933 207.47 49.84C207.496 49.9867 207.516 50.1533 207.53 50.34C207.556 50.5133 207.57 50.7 207.57 50.9C207.583 51.0867 207.59 51.26 207.59 51.42ZM206.83 47.38C206.416 47.4867 206.07 47.4467 205.79 47.26C205.523 47.06 205.356 46.7667 205.29 46.38C205.236 46.1 205.256 45.8533 205.35 45.64C205.443 45.4267 205.583 45.2667 205.77 45.16C205.956 45.04 206.17 44.9867 206.41 45C206.65 45.0133 206.89 45.1067 207.13 45.28C207.356 45.44 207.516 45.6267 207.61 45.84C207.716 46.0533 207.75 46.26 207.71 46.46C207.683 46.66 207.596 46.8467 207.45 47.02C207.303 47.18 207.096 47.3 206.83 47.38ZM212.202 57.4C212.189 57.4667 212.176 57.5333 212.162 57.6C212.162 57.6533 212.162 57.7133 212.162 57.78L212.042 58.2C212.016 58.2533 211.996 58.2867 211.982 58.3L211.922 58.42C211.856 58.5667 211.736 58.6867 211.562 58.78C211.242 58.94 210.902 58.98 210.542 58.9C210.316 58.8733 210.136 58.8067 210.002 58.7C209.869 58.6067 209.776 58.4933 209.722 58.36C209.669 58.2267 209.629 58.0933 209.602 57.96C209.562 57.8267 209.542 57.7067 209.542 57.6V46.4C209.542 46.3067 209.542 46.2267 209.542 46.16C209.556 46.08 209.569 46.0067 209.582 45.94C209.596 45.8467 209.609 45.7667 209.622 45.7C209.649 45.6333 209.676 45.56 209.702 45.48C209.742 45.3467 209.816 45.24 209.922 45.16C210.082 45.04 210.236 44.9733 210.382 44.96C210.476 44.9333 210.562 44.92 210.642 44.92C210.722 44.9067 210.816 44.9 210.922 44.9C211.109 44.9 211.322 44.9533 211.562 45.06C211.749 45.1667 211.882 45.3133 211.962 45.5C212.096 45.7667 212.162 46.0133 212.162 46.24C212.176 46.3733 212.182 46.5733 212.182 46.84C212.196 47.1067 212.202 47.3067 212.202 47.44V47.52C212.229 47.9467 212.242 48.36 212.242 48.76C212.242 49.1467 212.236 49.5733 212.222 50.04C212.222 50.4933 212.216 50.9333 212.202 51.36C212.202 51.7733 212.202 52.1867 212.202 52.6V56.8C212.202 56.8533 212.202 56.9067 212.202 56.96C212.216 57 212.222 57.0467 212.222 57.1C212.222 57.2333 212.216 57.3333 212.202 57.4ZM217.358 57.4C217.345 57.4667 217.332 57.5333 217.318 57.6C217.318 57.6533 217.318 57.7133 217.318 57.78L217.198 58.2C217.172 58.2533 217.152 58.2867 217.138 58.3L217.078 58.42C217.012 58.5667 216.892 58.6867 216.718 58.78C216.398 58.94 216.058 58.98 215.698 58.9C215.472 58.8733 215.292 58.8067 215.158 58.7C215.025 58.6067 214.932 58.4933 214.878 58.36C214.825 58.2267 214.785 58.0933 214.758 57.96C214.718 57.8267 214.698 57.7067 214.698 57.6V46.4C214.698 46.3067 214.698 46.2267 214.698 46.16C214.712 46.08 214.725 46.0067 214.738 45.94C214.752 45.8467 214.765 45.7667 214.778 45.7C214.805 45.6333 214.832 45.56 214.858 45.48C214.898 45.3467 214.972 45.24 215.078 45.16C215.238 45.04 215.392 44.9733 215.538 44.96C215.632 44.9333 215.718 44.92 215.798 44.92C215.878 44.9067 215.972 44.9 216.078 44.9C216.265 44.9 216.478 44.9533 216.718 45.06C216.905 45.1667 217.038 45.3133 217.118 45.5C217.252 45.7667 217.318 46.0133 217.318 46.24C217.332 46.3733 217.338 46.5733 217.338 46.84C217.352 47.1067 217.358 47.3067 217.358 47.44V47.52C217.385 47.9467 217.398 48.36 217.398 48.76C217.398 49.1467 217.392 49.5733 217.378 50.04C217.378 50.4933 217.372 50.9333 217.358 51.36C217.358 51.7733 217.358 52.1867 217.358 52.6V56.8C217.358 56.8533 217.358 56.9067 217.358 56.96C217.372 57 217.378 57.0467 217.378 57.1C217.378 57.2333 217.372 57.3333 217.358 57.4ZM233.531 50.18C233.638 50.4333 233.645 50.7133 233.551 51.02C233.471 51.3267 233.318 51.5267 233.091 51.62C232.971 51.6733 232.811 51.72 232.611 51.76C232.411 51.7867 232.191 51.8133 231.951 51.84C231.725 51.8667 231.498 51.8867 231.271 51.9C231.045 51.9133 230.851 51.92 230.691 51.92C230.705 52.32 230.718 52.7333 230.731 53.16C230.745 53.5733 230.758 53.98 230.771 54.38C230.785 54.78 230.791 55.1667 230.791 55.54C230.791 55.9 230.785 56.2267 230.771 56.52C230.771 56.72 230.771 56.9533 230.771 57.22C230.771 57.4733 230.751 57.72 230.711 57.96C230.685 58.2 230.638 58.4133 230.571 58.6C230.505 58.7733 230.405 58.8867 230.271 58.94C229.858 59.1133 229.478 59.16 229.131 59.08C228.798 59.0133 228.558 58.8733 228.411 58.66C228.305 58.4867 228.225 58.2867 228.171 58.06C228.118 57.82 228.078 57.58 228.051 57.34C228.038 57.0867 228.031 56.8467 228.031 56.62C228.045 56.38 228.051 56.1733 228.051 56C228.065 55.44 228.071 54.8067 228.071 54.1C228.085 53.38 228.091 52.66 228.091 51.94H227.791C227.631 51.94 227.425 51.94 227.171 51.94C226.931 51.9267 226.685 51.9067 226.431 51.88C226.191 51.84 225.965 51.7933 225.751 51.74C225.538 51.6733 225.385 51.58 225.291 51.46C225.145 51.2867 225.051 51.1 225.011 50.9C224.985 50.7 224.998 50.5133 225.051 50.34C225.118 50.1533 225.218 49.9933 225.351 49.86C225.485 49.7133 225.638 49.62 225.811 49.58C226.051 49.5133 226.391 49.48 226.831 49.48C227.271 49.4667 227.685 49.4667 228.071 49.48C228.058 49.3467 228.051 49.22 228.051 49.1C228.051 48.9667 228.045 48.84 228.031 48.72C228.018 48.56 228.011 48.36 228.011 48.12C228.011 47.8667 228.025 47.62 228.051 47.38C228.091 47.1267 228.151 46.8933 228.231 46.68C228.311 46.4533 228.425 46.28 228.571 46.16C228.771 46 228.971 45.9133 229.171 45.9C229.385 45.8733 229.578 45.9 229.751 45.98C229.938 46.06 230.091 46.18 230.211 46.34C230.345 46.4867 230.438 46.6533 230.491 46.84C230.531 47 230.565 47.1933 230.591 47.42C230.618 47.6333 230.631 47.86 230.631 48.1C230.645 48.34 230.651 48.58 230.651 48.82C230.651 49.06 230.651 49.28 230.651 49.48H230.851C231.051 49.48 231.285 49.4733 231.551 49.46C231.818 49.4467 232.078 49.4533 232.331 49.48C232.598 49.5067 232.838 49.5733 233.051 49.68C233.265 49.7733 233.425 49.94 233.531 50.18ZM243.026 55.06C243.039 55.3267 243.046 55.6067 243.046 55.9C243.046 56.18 243.039 56.44 243.026 56.68C243.012 57.04 242.992 57.3733 242.966 57.68C242.939 57.9733 242.886 58.2267 242.806 58.44C242.726 58.64 242.599 58.7933 242.426 58.9C242.266 58.9933 242.039 59.02 241.746 58.98C241.439 58.94 241.219 58.7933 241.086 58.54C240.952 58.2867 240.859 58 240.806 57.68C240.766 57.3467 240.752 57.0133 240.766 56.68C240.779 56.3467 240.779 56.0867 240.766 55.9C240.752 55.6067 240.739 55.2733 240.726 54.9C240.726 54.5133 240.686 54.1533 240.606 53.82C240.539 53.4733 240.419 53.18 240.246 52.94C240.072 52.7 239.812 52.5733 239.466 52.56C239.026 52.5333 238.686 52.5667 238.446 52.66C238.219 52.7533 238.052 52.8933 237.946 53.08C237.839 53.2533 237.772 53.4667 237.746 53.72C237.732 53.9733 237.706 54.2467 237.666 54.54L237.646 55.32V56.78C237.646 57.02 237.639 57.2733 237.626 57.54C237.626 57.7933 237.586 58.0267 237.506 58.24C237.426 58.4533 237.299 58.6333 237.126 58.78C236.966 58.9267 236.726 59 236.406 59C236.006 59 235.706 58.8733 235.506 58.62C235.319 58.3533 235.226 58.0267 235.226 57.64V46.14C235.226 46.06 235.226 45.9867 235.226 45.92C235.239 45.84 235.252 45.76 235.266 45.68C235.292 45.6 235.312 45.5267 235.326 45.46C235.339 45.38 235.359 45.3067 235.386 45.24C235.426 45.1067 235.492 45.0067 235.586 44.94C235.652 44.8733 235.719 44.82 235.786 44.78C235.852 44.74 235.926 44.7133 236.006 44.7C236.072 44.6867 236.146 44.68 236.226 44.68C236.306 44.6667 236.386 44.66 236.466 44.66C236.666 44.66 236.859 44.72 237.046 44.84C237.126 44.8933 237.199 44.9533 237.266 45.02C237.332 45.0733 237.386 45.1533 237.426 45.26C237.532 45.5133 237.586 45.7533 237.586 45.98C237.599 46.0467 237.606 46.1467 237.606 46.28C237.619 46.4 237.626 46.5267 237.626 46.66C237.626 46.7933 237.626 46.9267 237.626 47.06C237.639 47.18 237.646 47.2733 237.646 47.34V47.44C237.659 47.8667 237.666 48.3 237.666 48.74C237.666 49.18 237.666 49.6267 237.666 50.08V50.42C238.226 50.2333 238.812 50.1467 239.426 50.16C240.039 50.16 240.586 50.28 241.066 50.52C241.559 50.7733 241.932 51.06 242.186 51.38C242.452 51.7 242.646 52.0533 242.766 52.44C242.886 52.8267 242.952 53.24 242.966 53.68C242.992 54.12 243.012 54.58 243.026 55.06ZM251.56 56.26C251.72 56.22 251.88 56.1933 252.04 56.18C252.213 56.1667 252.367 56.1867 252.5 56.24C252.647 56.2933 252.767 56.3867 252.86 56.52C252.953 56.64 253 56.8133 253 57.04C253 57.2 252.96 57.3533 252.88 57.5C252.8 57.6467 252.7 57.78 252.58 57.9C252.46 58.02 252.327 58.1267 252.18 58.22C252.033 58.3 251.893 58.3667 251.76 58.42C251.373 58.5933 250.927 58.7267 250.42 58.82C249.927 58.9133 249.413 58.9467 248.88 58.92C248.16 58.8933 247.467 58.7533 246.8 58.5C246.147 58.2333 245.633 57.8 245.26 57.2C244.913 56.6133 244.707 55.96 244.64 55.24C244.573 54.52 244.607 53.84 244.74 53.2C244.887 52.4267 245.133 51.8 245.48 51.32C245.84 50.8267 246.267 50.4333 246.76 50.14C247.36 49.7933 248.033 49.6133 248.78 49.6C249.527 49.5867 250.24 49.7333 250.92 50.04C251.373 50.24 251.78 50.5133 252.14 50.86C252.5 51.1933 252.773 51.6 252.96 52.08C253.013 52.2 253.053 52.3467 253.08 52.52C253.12 52.6933 253.147 52.88 253.16 53.08C253.173 53.2667 253.173 53.4533 253.16 53.64C253.147 53.8267 253.113 53.9933 253.06 54.14C252.98 54.38 252.88 54.5667 252.76 54.7C252.64 54.8333 252.487 54.9333 252.3 55C252.113 55.0667 251.887 55.1133 251.62 55.14C251.367 55.1533 251.06 55.1667 250.7 55.18C250.38 55.1933 250.08 55.2 249.8 55.2C249.52 55.2 249.233 55.2 248.94 55.2C248.647 55.1867 248.34 55.18 248.02 55.18C247.713 55.1667 247.367 55.1533 246.98 55.14C246.94 55.4067 246.973 55.64 247.08 55.84C247.2 56.0267 247.36 56.1867 247.56 56.32C247.76 56.44 247.987 56.5333 248.24 56.6C248.493 56.6667 248.74 56.7067 248.98 56.72C249.433 56.7467 249.867 56.7133 250.28 56.62C250.693 56.5133 251.12 56.3933 251.56 56.26ZM250.7 52.38C250.447 52.0867 250.18 51.8733 249.9 51.74C249.687 51.6467 249.46 51.6067 249.22 51.62C248.993 51.62 248.773 51.6533 248.56 51.72C248.173 51.8133 247.847 52.0133 247.58 52.32C247.553 52.3467 247.507 52.4133 247.44 52.52C247.373 52.6133 247.307 52.7133 247.24 52.82C247.187 52.9267 247.147 53.0267 247.12 53.12C247.093 53.2133 247.107 53.26 247.16 53.26H251.08C251.067 53.0733 251.033 52.92 250.98 52.8C250.927 52.6667 250.833 52.5267 250.7 52.38ZM119.159 80.06C119.172 80.3267 119.179 80.6067 119.179 80.9C119.179 81.18 119.172 81.44 119.159 81.68C119.145 82.04 119.125 82.3733 119.099 82.68C119.072 82.9733 119.019 83.2267 118.939 83.44C118.859 83.64 118.732 83.7933 118.559 83.9C118.399 83.9933 118.172 84.02 117.879 83.98C117.572 83.94 117.352 83.7933 117.219 83.54C117.085 83.2867 116.992 83 116.939 82.68C116.899 82.3467 116.885 82.0133 116.899 81.68C116.912 81.3467 116.912 81.0867 116.899 80.9C116.885 80.6067 116.872 80.2733 116.859 79.9C116.859 79.5133 116.819 79.1533 116.739 78.82C116.672 78.4733 116.552 78.18 116.379 77.94C116.205 77.7 115.945 77.5733 115.599 77.56C115.159 77.5333 114.819 77.5667 114.579 77.66C114.352 77.7533 114.185 77.8933 114.079 78.08C113.972 78.2533 113.905 78.4667 113.879 78.72C113.865 78.9733 113.839 79.2467 113.799 79.54L113.779 80.32V81.78C113.779 82.02 113.772 82.2733 113.759 82.54C113.759 82.7933 113.719 83.0267 113.639 83.24C113.559 83.4533 113.432 83.6333 113.259 83.78C113.099 83.9267 112.859 84 112.539 84C112.139 84 111.839 83.8733 111.639 83.62C111.452 83.3533 111.359 83.0267 111.359 82.64V71.14C111.359 71.06 111.359 70.9867 111.359 70.92C111.372 70.84 111.385 70.76 111.399 70.68C111.425 70.6 111.445 70.5267 111.459 70.46C111.472 70.38 111.492 70.3067 111.519 70.24C111.559 70.1067 111.625 70.0067 111.719 69.94C111.785 69.8733 111.852 69.82 111.919 69.78C111.985 69.74 112.059 69.7133 112.139 69.7C112.205 69.6867 112.279 69.68 112.359 69.68C112.439 69.6667 112.519 69.66 112.599 69.66C112.799 69.66 112.992 69.72 113.179 69.84C113.259 69.8933 113.332 69.9533 113.399 70.02C113.465 70.0733 113.519 70.1533 113.559 70.26C113.665 70.5133 113.719 70.7533 113.719 70.98C113.732 71.0467 113.739 71.1467 113.739 71.28C113.752 71.4 113.759 71.5267 113.759 71.66C113.759 71.7933 113.759 71.9267 113.759 72.06C113.772 72.18 113.779 72.2733 113.779 72.34V72.44C113.792 72.8667 113.799 73.3 113.799 73.74C113.799 74.18 113.799 74.6267 113.799 75.08V75.42C114.359 75.2333 114.945 75.1467 115.559 75.16C116.172 75.16 116.719 75.28 117.199 75.52C117.692 75.7733 118.065 76.06 118.319 76.38C118.585 76.7 118.779 77.0533 118.899 77.44C119.019 77.8267 119.085 78.24 119.099 78.68C119.125 79.12 119.145 79.58 119.159 80.06ZM123.113 75.58C123.513 75.38 123.933 75.24 124.373 75.16C124.813 75.0667 125.246 75.0467 125.673 75.1C126.113 75.14 126.533 75.2533 126.933 75.44C127.333 75.6133 127.706 75.8667 128.053 76.2C128.399 76.5467 128.666 76.9267 128.853 77.34C129.039 77.7533 129.173 78.2133 129.253 78.72C129.306 79.0667 129.393 79.3867 129.513 79.68C129.633 79.9733 129.759 80.2667 129.893 80.56C130.039 80.8533 130.173 81.1467 130.293 81.44C130.426 81.7333 130.533 82.04 130.613 82.36C130.679 82.6667 130.653 82.9667 130.533 83.26C130.426 83.54 130.199 83.7133 129.853 83.78C129.653 83.82 129.459 83.8067 129.273 83.74C129.099 83.66 128.939 83.5533 128.793 83.42C128.646 83.2733 128.513 83.12 128.393 82.96C128.286 82.7867 128.186 82.6267 128.093 82.48C127.786 82.88 127.453 83.1933 127.093 83.42C126.733 83.6333 126.299 83.7733 125.793 83.84C125.366 83.8933 124.959 83.9067 124.573 83.88C124.186 83.8533 123.773 83.78 123.333 83.66C122.759 83.5133 122.286 83.26 121.913 82.9C121.553 82.5267 121.273 82.1 121.073 81.62C120.886 81.1267 120.786 80.6 120.773 80.04C120.759 79.48 120.826 78.9267 120.973 78.38C121.159 77.66 121.439 77.0733 121.813 76.62C122.186 76.1667 122.619 75.82 123.113 75.58ZM123.613 77.92C123.426 78.1067 123.279 78.3267 123.173 78.58C123.066 78.8333 122.999 79.1 122.973 79.38C122.959 79.66 122.986 79.94 123.053 80.22C123.119 80.5 123.226 80.7467 123.373 80.96C123.506 81.1467 123.733 81.3067 124.053 81.44C124.373 81.56 124.706 81.6333 125.053 81.66C125.453 81.6867 125.799 81.58 126.093 81.34C126.399 81.1 126.626 80.8 126.773 80.44C126.933 80.0667 127.006 79.6733 126.993 79.26C126.979 78.8333 126.866 78.4467 126.653 78.1C126.493 77.8467 126.279 77.66 126.013 77.54C125.759 77.42 125.486 77.36 125.193 77.36C124.899 77.3467 124.606 77.3933 124.313 77.5C124.033 77.5933 123.799 77.7333 123.613 77.92ZM139.717 76.3C139.823 76.4867 139.877 76.6867 139.877 76.9C139.89 77.1133 139.843 77.3133 139.737 77.5C139.617 77.74 139.443 77.9067 139.217 78C139.003 78.08 138.763 78.0867 138.497 78.02C138.377 77.9933 138.27 77.9467 138.177 77.88C138.083 77.8133 137.983 77.7467 137.877 77.68C137.783 77.6 137.67 77.5267 137.537 77.46C137.417 77.3933 137.257 77.3467 137.057 77.32C136.857 77.2933 136.637 77.2933 136.397 77.32C136.17 77.3467 135.963 77.4 135.777 77.48C135.483 77.6267 135.25 77.8533 135.077 78.16C134.903 78.4533 134.79 78.7733 134.737 79.12C134.683 79.4533 134.69 79.7933 134.757 80.14C134.837 80.4867 134.983 80.78 135.197 81.02C135.357 81.2067 135.563 81.36 135.817 81.48C136.083 81.6 136.337 81.6733 136.577 81.7C136.803 81.7267 137.03 81.7267 137.257 81.7C137.483 81.66 137.703 81.6067 137.917 81.54C138.077 81.4733 138.257 81.3867 138.457 81.28C138.657 81.16 138.85 81.0867 139.037 81.06C139.277 81.06 139.463 81.1267 139.597 81.26C139.73 81.38 139.823 81.5333 139.877 81.72C139.93 81.8933 139.937 82.08 139.897 82.28C139.87 82.48 139.797 82.6533 139.677 82.8C139.517 83 139.29 83.1933 138.997 83.38C138.703 83.5533 138.423 83.68 138.157 83.76C137.837 83.8667 137.477 83.9267 137.077 83.94C136.69 83.9533 136.323 83.94 135.977 83.9C135.817 83.8733 135.65 83.84 135.477 83.8C135.303 83.76 135.137 83.7133 134.977 83.66C134.39 83.4467 133.897 83.1467 133.497 82.76C133.11 82.36 132.81 81.9133 132.597 81.42C132.397 80.9267 132.283 80.4 132.257 79.84C132.23 79.28 132.297 78.7267 132.457 78.18C132.603 77.66 132.783 77.22 132.997 76.86C133.223 76.5 133.483 76.2067 133.777 75.98C134.083 75.74 134.423 75.5533 134.797 75.42C135.17 75.2733 135.583 75.1467 136.037 75.04C136.503 74.9467 136.997 74.9467 137.517 75.04C138.037 75.1333 138.503 75.3067 138.917 75.56C139.237 75.7333 139.503 75.98 139.717 76.3ZM145.495 79.4C145.788 79.7067 146.002 79.9333 146.135 80.08C146.282 80.2133 146.382 80.3133 146.435 80.38C146.502 80.4467 146.548 80.4867 146.575 80.5C146.602 80.5133 146.648 80.5533 146.715 80.62C146.782 80.6867 146.888 80.7933 147.035 80.94C147.182 81.0733 147.402 81.2933 147.695 81.6C147.935 81.84 148.128 82.12 148.275 82.44C148.435 82.7467 148.422 83.08 148.235 83.44C148.128 83.6267 148.008 83.76 147.875 83.84C147.742 83.9067 147.595 83.9333 147.435 83.92C147.288 83.9067 147.128 83.86 146.955 83.78C146.795 83.7 146.635 83.6 146.475 83.48C146.168 83.2533 145.875 82.9933 145.595 82.7C145.315 82.3933 145.088 82.16 144.915 82C144.795 81.88 144.722 81.8 144.695 81.76C144.668 81.7333 144.642 81.7133 144.615 81.7C144.588 81.6733 144.562 81.6467 144.535 81.62C144.442 81.5267 144.342 81.4333 144.235 81.34C144.128 81.2467 144.022 81.1467 143.915 81.04V81.82C143.915 81.9667 143.922 82.0733 143.935 82.14C143.935 82.2733 143.928 82.3733 143.915 82.44C143.875 82.5867 143.855 82.7267 143.855 82.86C143.842 82.9267 143.828 82.9933 143.815 83.06C143.802 83.1133 143.782 83.1733 143.755 83.24C143.742 83.2667 143.728 83.2867 143.715 83.3C143.715 83.3133 143.715 83.3333 143.715 83.36C143.702 83.3867 143.688 83.4067 143.675 83.42C143.675 83.4333 143.668 83.4533 143.655 83.48C143.588 83.6133 143.482 83.74 143.335 83.86C143.082 84.0067 142.768 84.0467 142.395 83.98C142.195 83.94 142.042 83.8667 141.935 83.76C141.815 83.68 141.735 83.5667 141.695 83.42C141.668 83.3533 141.642 83.2867 141.615 83.22C141.602 83.14 141.582 83.0667 141.555 83C141.528 82.9333 141.515 82.8733 141.515 82.82C141.515 82.7533 141.515 82.7 141.515 82.66V71.28C141.515 71.2 141.515 71.12 141.515 71.04C141.515 70.96 141.522 70.88 141.535 70.8C141.548 70.72 141.562 70.6467 141.575 70.58C141.602 70.5 141.628 70.4267 141.655 70.36C141.708 70.2267 141.775 70.12 141.855 70.04C141.922 69.9733 141.988 69.9267 142.055 69.9C142.135 69.86 142.208 69.8267 142.275 69.8C142.342 69.7867 142.415 69.78 142.495 69.78C142.588 69.7667 142.675 69.76 142.755 69.76C142.942 69.76 143.128 69.8133 143.315 69.92C143.488 70.04 143.615 70.1933 143.695 70.38C143.802 70.6333 143.855 70.88 143.855 71.12C143.868 71.2533 143.882 71.46 143.895 71.74C143.908 72.0067 143.915 72.2067 143.915 72.34V72.42C143.928 72.86 143.935 73.28 143.935 73.68C143.935 74.08 143.935 74.5133 143.935 74.98C143.922 75.4467 143.915 75.8933 143.915 76.32C143.915 76.7333 143.915 77.1467 143.915 77.56V77.78C144.022 77.6733 144.128 77.5733 144.235 77.48C144.342 77.3867 144.442 77.2867 144.535 77.18C144.588 77.14 144.642 77.0933 144.695 77.04L144.915 76.82C145.088 76.6467 145.315 76.4133 145.595 76.12C145.875 75.8133 146.168 75.5467 146.475 75.32C146.808 75.08 147.128 74.9333 147.435 74.88C147.755 74.8267 148.022 74.9867 148.235 75.36C148.422 75.72 148.435 76.06 148.275 76.38C148.128 76.6867 147.935 76.9733 147.695 77.24C147.402 77.5467 147.182 77.7733 147.035 77.92C146.888 78.0533 146.782 78.1533 146.715 78.22C146.648 78.2733 146.602 78.3067 146.575 78.32C146.548 78.3333 146.502 78.3733 146.435 78.44C146.382 78.4933 146.282 78.5933 146.135 78.74C146.002 78.8733 145.788 79.0933 145.495 79.4ZM152.331 75.58C152.731 75.38 153.151 75.24 153.591 75.16C154.031 75.0667 154.465 75.0467 154.891 75.1C155.331 75.14 155.751 75.2533 156.151 75.44C156.551 75.6133 156.925 75.8667 157.271 76.2C157.618 76.5467 157.885 76.9267 158.071 77.34C158.258 77.7533 158.391 78.2133 158.471 78.72C158.525 79.0667 158.611 79.3867 158.731 79.68C158.851 79.9733 158.978 80.2667 159.111 80.56C159.258 80.8533 159.391 81.1467 159.511 81.44C159.645 81.7333 159.751 82.04 159.831 82.36C159.898 82.6667 159.871 82.9667 159.751 83.26C159.645 83.54 159.418 83.7133 159.071 83.78C158.871 83.82 158.678 83.8067 158.491 83.74C158.318 83.66 158.158 83.5533 158.011 83.42C157.865 83.2733 157.731 83.12 157.611 82.96C157.505 82.7867 157.405 82.6267 157.311 82.48C157.005 82.88 156.671 83.1933 156.311 83.42C155.951 83.6333 155.518 83.7733 155.011 83.84C154.585 83.8933 154.178 83.9067 153.791 83.88C153.405 83.8533 152.991 83.78 152.551 83.66C151.978 83.5133 151.505 83.26 151.131 82.9C150.771 82.5267 150.491 82.1 150.291 81.62C150.105 81.1267 150.005 80.6 149.991 80.04C149.978 79.48 150.045 78.9267 150.191 78.38C150.378 77.66 150.658 77.0733 151.031 76.62C151.405 76.1667 151.838 75.82 152.331 75.58ZM152.831 77.92C152.645 78.1067 152.498 78.3267 152.391 78.58C152.285 78.8333 152.218 79.1 152.191 79.38C152.178 79.66 152.205 79.94 152.271 80.22C152.338 80.5 152.445 80.7467 152.591 80.96C152.725 81.1467 152.951 81.3067 153.271 81.44C153.591 81.56 153.925 81.6333 154.271 81.66C154.671 81.6867 155.018 81.58 155.311 81.34C155.618 81.1 155.845 80.8 155.991 80.44C156.151 80.0667 156.225 79.6733 156.211 79.26C156.198 78.8333 156.085 78.4467 155.871 78.1C155.711 77.8467 155.498 77.66 155.231 77.54C154.978 77.42 154.705 77.36 154.411 77.36C154.118 77.3467 153.825 77.3933 153.531 77.5C153.251 77.5933 153.018 77.7333 152.831 77.92ZM167.672 75.18C167.779 75.4333 167.785 75.7133 167.692 76.02C167.612 76.3267 167.459 76.5267 167.232 76.62C167.112 76.6733 166.952 76.72 166.752 76.76C166.552 76.7867 166.332 76.8133 166.092 76.84C165.865 76.8667 165.639 76.8867 165.412 76.9C165.185 76.9133 164.992 76.92 164.832 76.92C164.845 77.32 164.859 77.7333 164.872 78.16C164.885 78.5733 164.899 78.98 164.912 79.38C164.925 79.78 164.932 80.1667 164.932 80.54C164.932 80.9 164.925 81.2267 164.912 81.52C164.912 81.72 164.912 81.9533 164.912 82.22C164.912 82.4733 164.892 82.72 164.852 82.96C164.825 83.2 164.779 83.4133 164.712 83.6C164.645 83.7733 164.545 83.8867 164.412 83.94C163.999 84.1133 163.619 84.16 163.272 84.08C162.939 84.0133 162.699 83.8733 162.552 83.66C162.445 83.4867 162.365 83.2867 162.312 83.06C162.259 82.82 162.219 82.58 162.192 82.34C162.179 82.0867 162.172 81.8467 162.172 81.62C162.185 81.38 162.192 81.1733 162.192 81C162.205 80.44 162.212 79.8067 162.212 79.1C162.225 78.38 162.232 77.66 162.232 76.94H161.932C161.772 76.94 161.565 76.94 161.312 76.94C161.072 76.9267 160.825 76.9067 160.572 76.88C160.332 76.84 160.105 76.7933 159.892 76.74C159.679 76.6733 159.525 76.58 159.432 76.46C159.285 76.2867 159.192 76.1 159.152 75.9C159.125 75.7 159.139 75.5133 159.192 75.34C159.259 75.1533 159.359 74.9933 159.492 74.86C159.625 74.7133 159.779 74.62 159.952 74.58C160.192 74.5133 160.532 74.48 160.972 74.48C161.412 74.4667 161.825 74.4667 162.212 74.48C162.199 74.3467 162.192 74.22 162.192 74.1C162.192 73.9667 162.185 73.84 162.172 73.72C162.159 73.56 162.152 73.36 162.152 73.12C162.152 72.8667 162.165 72.62 162.192 72.38C162.232 72.1267 162.292 71.8933 162.372 71.68C162.452 71.4533 162.565 71.28 162.712 71.16C162.912 71 163.112 70.9133 163.312 70.9C163.525 70.8733 163.719 70.9 163.892 70.98C164.079 71.06 164.232 71.18 164.352 71.34C164.485 71.4867 164.579 71.6533 164.632 71.84C164.672 72 164.705 72.1933 164.732 72.42C164.759 72.6333 164.772 72.86 164.772 73.1C164.785 73.34 164.792 73.58 164.792 73.82C164.792 74.06 164.792 74.28 164.792 74.48H164.992C165.192 74.48 165.425 74.4733 165.692 74.46C165.959 74.4467 166.219 74.4533 166.472 74.48C166.739 74.5067 166.979 74.5733 167.192 74.68C167.405 74.7733 167.565 74.94 167.672 75.18ZM177.166 80.06C177.18 80.3267 177.186 80.6067 177.186 80.9C177.186 81.18 177.18 81.44 177.166 81.68C177.153 82.04 177.133 82.3733 177.106 82.68C177.08 82.9733 177.026 83.2267 176.946 83.44C176.866 83.64 176.74 83.7933 176.566 83.9C176.406 83.9933 176.18 84.02 175.886 83.98C175.58 83.94 175.36 83.7933 175.226 83.54C175.093 83.2867 175 83 174.946 82.68C174.906 82.3467 174.893 82.0133 174.906 81.68C174.92 81.3467 174.92 81.0867 174.906 80.9C174.893 80.6067 174.88 80.2733 174.866 79.9C174.866 79.5133 174.826 79.1533 174.746 78.82C174.68 78.4733 174.56 78.18 174.386 77.94C174.213 77.7 173.953 77.5733 173.606 77.56C173.166 77.5333 172.826 77.5667 172.586 77.66C172.36 77.7533 172.193 77.8933 172.086 78.08C171.98 78.2533 171.913 78.4667 171.886 78.72C171.873 78.9733 171.846 79.2467 171.806 79.54L171.786 80.32V81.78C171.786 82.02 171.78 82.2733 171.766 82.54C171.766 82.7933 171.726 83.0267 171.646 83.24C171.566 83.4533 171.44 83.6333 171.266 83.78C171.106 83.9267 170.866 84 170.546 84C170.146 84 169.846 83.8733 169.646 83.62C169.46 83.3533 169.366 83.0267 169.366 82.64V71.14C169.366 71.06 169.366 70.9867 169.366 70.92C169.38 70.84 169.393 70.76 169.406 70.68C169.433 70.6 169.453 70.5267 169.466 70.46C169.48 70.38 169.5 70.3067 169.526 70.24C169.566 70.1067 169.633 70.0067 169.726 69.94C169.793 69.8733 169.86 69.82 169.926 69.78C169.993 69.74 170.066 69.7133 170.146 69.7C170.213 69.6867 170.286 69.68 170.366 69.68C170.446 69.6667 170.526 69.66 170.606 69.66C170.806 69.66 171 69.72 171.186 69.84C171.266 69.8933 171.34 69.9533 171.406 70.02C171.473 70.0733 171.526 70.1533 171.566 70.26C171.673 70.5133 171.726 70.7533 171.726 70.98C171.74 71.0467 171.746 71.1467 171.746 71.28C171.76 71.4 171.766 71.5267 171.766 71.66C171.766 71.7933 171.766 71.9267 171.766 72.06C171.78 72.18 171.786 72.2733 171.786 72.34V72.44C171.8 72.8667 171.806 73.3 171.806 73.74C171.806 74.18 171.806 74.6267 171.806 75.08V75.42C172.366 75.2333 172.953 75.1467 173.566 75.16C174.18 75.16 174.726 75.28 175.206 75.52C175.7 75.7733 176.073 76.06 176.326 76.38C176.593 76.7 176.786 77.0533 176.906 77.44C177.026 77.8267 177.093 78.24 177.106 78.68C177.133 79.12 177.153 79.58 177.166 80.06ZM181.36 74.96C181.8 74.7467 182.26 74.5933 182.74 74.5C183.22 74.4067 183.694 74.3867 184.16 74.44C184.64 74.4933 185.1 74.62 185.54 74.82C185.994 75.02 186.407 75.3 186.78 75.66C187.087 75.9667 187.354 76.34 187.58 76.78C187.807 77.2067 187.974 77.6267 188.08 78.04C188.307 78.7733 188.34 79.5133 188.18 80.26C188.02 81.0067 187.747 81.7 187.36 82.34C187.174 82.6333 186.94 82.9 186.66 83.14C186.394 83.3667 186.107 83.5533 185.8 83.7C185.4 83.8867 184.967 84.0133 184.5 84.08C184.034 84.16 183.58 84.18 183.14 84.14C182.34 84.1 181.634 83.9 181.02 83.54C180.42 83.18 179.934 82.72 179.56 82.16C179.2 81.6 178.96 80.9667 178.84 80.26C178.734 79.54 178.78 78.8067 178.98 78.06C179.194 77.26 179.5 76.6133 179.9 76.12C180.314 75.6133 180.8 75.2267 181.36 74.96ZM181.96 77.64C181.76 77.8267 181.607 78.06 181.5 78.34C181.394 78.62 181.327 78.9133 181.3 79.22C181.274 79.5133 181.294 79.8133 181.36 80.12C181.44 80.4133 181.56 80.68 181.72 80.92C181.854 81.12 182.094 81.2867 182.44 81.42C182.787 81.5533 183.147 81.6333 183.52 81.66C183.947 81.6867 184.32 81.5733 184.64 81.32C184.96 81.0533 185.2 80.7267 185.36 80.34C185.534 79.9533 185.614 79.5333 185.6 79.08C185.587 78.6267 185.467 78.2133 185.24 77.84C185.08 77.5733 184.854 77.38 184.56 77.26C184.28 77.1267 183.98 77.06 183.66 77.06C183.354 77.0467 183.047 77.0933 182.74 77.2C182.434 77.2933 182.174 77.44 181.96 77.64ZM189.894 76.86C189.894 76.5533 189.888 76.2267 189.874 75.88C189.874 75.5333 189.934 75.22 190.054 74.94C190.161 74.6867 190.334 74.5067 190.574 74.4C190.828 74.28 191.074 74.2533 191.314 74.32C191.554 74.36 191.741 74.4333 191.874 74.54C192.008 74.6467 192.101 74.7733 192.154 74.92C192.221 75.0533 192.261 75.2133 192.274 75.4C192.288 75.5733 192.301 75.7467 192.314 75.92C192.448 75.68 192.614 75.4867 192.814 75.34C193.014 75.1933 193.221 75.0733 193.434 74.98C193.648 74.8867 193.848 74.82 194.034 74.78C194.234 74.74 194.388 74.72 194.494 74.72C195.001 74.72 195.501 74.8333 195.994 75.06C196.501 75.2733 196.921 75.58 197.254 75.98C197.441 76.22 197.581 76.4733 197.674 76.74C197.781 76.9933 197.854 77.26 197.894 77.54C197.948 77.82 197.981 78.1067 197.994 78.4C198.008 78.68 198.021 78.9667 198.034 79.26C198.101 80.1133 198.101 80.96 198.034 81.8C198.021 81.9733 198.014 82.1733 198.014 82.4C198.014 82.6267 197.994 82.8533 197.954 83.08C197.928 83.2933 197.868 83.4867 197.774 83.66C197.694 83.82 197.554 83.92 197.354 83.96C197.074 84.0267 196.841 84.04 196.654 84C196.481 83.9733 196.341 83.9133 196.234 83.82C196.128 83.7267 196.048 83.6067 195.994 83.46C195.941 83.3133 195.894 83.1467 195.854 82.96C195.828 82.8133 195.801 82.6467 195.774 82.46C195.761 82.26 195.748 82.06 195.734 81.86C195.734 81.66 195.728 81.4667 195.714 81.28C195.714 81.08 195.714 80.9 195.714 80.74C195.714 80.4867 195.708 80.2067 195.694 79.9C195.681 79.5933 195.681 79.3067 195.694 79.04C195.694 78.4133 195.528 77.94 195.194 77.62C194.874 77.2867 194.434 77.1467 193.874 77.2C193.448 77.2533 193.074 77.4267 192.754 77.72C192.434 78 192.281 78.3667 192.294 78.82C192.294 78.9933 192.294 79.1533 192.294 79.3C192.294 79.4467 192.288 79.5933 192.274 79.74C192.274 79.8867 192.274 80.0467 192.274 80.22C192.274 80.3933 192.274 80.5867 192.274 80.8C192.274 81.24 192.274 81.7067 192.274 82.2C192.274 82.68 192.214 83.0733 192.094 83.38C191.988 83.7 191.808 83.92 191.554 84.04C191.301 84.16 191.001 84.1267 190.654 83.94C190.508 83.86 190.388 83.7533 190.294 83.62C190.214 83.4733 190.148 83.32 190.094 83.16C190.054 83 190.028 82.84 190.014 82.68C190.001 82.5067 189.988 82.3467 189.974 82.2C189.934 81.76 189.908 81.3533 189.894 80.98C189.894 80.5933 189.894 80.18 189.894 79.74V76.86ZM208.355 82.4C208.341 82.4667 208.328 82.5333 208.315 82.6C208.315 82.6533 208.315 82.7133 208.315 82.78L208.195 83.2C208.168 83.2533 208.148 83.2867 208.135 83.3L208.075 83.42C208.008 83.5667 207.888 83.6867 207.715 83.78C207.395 83.94 207.055 83.98 206.695 83.9C206.468 83.8733 206.288 83.8067 206.155 83.7C206.021 83.6067 205.928 83.4933 205.875 83.36C205.821 83.2267 205.781 83.0933 205.755 82.96C205.715 82.8267 205.695 82.7067 205.695 82.6V71.4C205.695 71.3067 205.695 71.2267 205.695 71.16C205.708 71.08 205.721 71.0067 205.735 70.94C205.748 70.8467 205.761 70.7667 205.775 70.7C205.801 70.6333 205.828 70.56 205.855 70.48C205.895 70.3467 205.968 70.24 206.075 70.16C206.235 70.04 206.388 69.9733 206.535 69.96C206.628 69.9333 206.715 69.92 206.795 69.92C206.875 69.9067 206.968 69.9 207.075 69.9C207.261 69.9 207.475 69.9533 207.715 70.06C207.901 70.1667 208.035 70.3133 208.115 70.5C208.248 70.7667 208.315 71.0133 208.315 71.24C208.328 71.3733 208.335 71.5733 208.335 71.84C208.348 72.1067 208.355 72.3067 208.355 72.44V72.52C208.381 72.9467 208.395 73.36 208.395 73.76C208.395 74.1467 208.388 74.5733 208.375 75.04C208.375 75.4933 208.368 75.9333 208.355 76.36C208.355 76.7733 208.355 77.1867 208.355 77.6V81.8C208.355 81.8533 208.355 81.9067 208.355 81.96C208.368 82 208.375 82.0467 208.375 82.1C208.375 82.2333 208.368 82.3333 208.355 82.4ZM212.331 75.58C212.731 75.38 213.151 75.24 213.591 75.16C214.031 75.0667 214.465 75.0467 214.891 75.1C215.331 75.14 215.751 75.2533 216.151 75.44C216.551 75.6133 216.925 75.8667 217.271 76.2C217.618 76.5467 217.885 76.9267 218.071 77.34C218.258 77.7533 218.391 78.2133 218.471 78.72C218.525 79.0667 218.611 79.3867 218.731 79.68C218.851 79.9733 218.978 80.2667 219.111 80.56C219.258 80.8533 219.391 81.1467 219.511 81.44C219.645 81.7333 219.751 82.04 219.831 82.36C219.898 82.6667 219.871 82.9667 219.751 83.26C219.645 83.54 219.418 83.7133 219.071 83.78C218.871 83.82 218.678 83.8067 218.491 83.74C218.318 83.66 218.158 83.5533 218.011 83.42C217.865 83.2733 217.731 83.12 217.611 82.96C217.505 82.7867 217.405 82.6267 217.311 82.48C217.005 82.88 216.671 83.1933 216.311 83.42C215.951 83.6333 215.518 83.7733 215.011 83.84C214.585 83.8933 214.178 83.9067 213.791 83.88C213.405 83.8533 212.991 83.78 212.551 83.66C211.978 83.5133 211.505 83.26 211.131 82.9C210.771 82.5267 210.491 82.1 210.291 81.62C210.105 81.1267 210.005 80.6 209.991 80.04C209.978 79.48 210.045 78.9267 210.191 78.38C210.378 77.66 210.658 77.0733 211.031 76.62C211.405 76.1667 211.838 75.82 212.331 75.58ZM212.831 77.92C212.645 78.1067 212.498 78.3267 212.391 78.58C212.285 78.8333 212.218 79.1 212.191 79.38C212.178 79.66 212.205 79.94 212.271 80.22C212.338 80.5 212.445 80.7467 212.591 80.96C212.725 81.1467 212.951 81.3067 213.271 81.44C213.591 81.56 213.925 81.6333 214.271 81.66C214.671 81.6867 215.018 81.58 215.311 81.34C215.618 81.1 215.845 80.8 215.991 80.44C216.151 80.0667 216.225 79.6733 216.211 79.26C216.198 78.8333 216.085 78.4467 215.871 78.1C215.711 77.8467 215.498 77.66 215.231 77.54C214.978 77.42 214.705 77.36 214.411 77.36C214.118 77.3467 213.825 77.3933 213.531 77.5C213.251 77.5933 213.018 77.7333 212.831 77.92ZM226.275 80.48C226.022 80.32 225.735 80.1933 225.415 80.1C225.109 80.0067 224.789 79.92 224.455 79.84C224.135 79.76 223.822 79.6733 223.515 79.58C223.209 79.4733 222.929 79.3267 222.675 79.14C222.129 78.7267 221.809 78.22 221.715 77.62C221.635 77.0067 221.769 76.3933 222.115 75.78C222.302 75.46 222.549 75.2 222.855 75C223.162 74.7867 223.495 74.6267 223.855 74.52C224.229 74.4 224.609 74.3333 224.995 74.32C225.382 74.3067 225.749 74.3267 226.095 74.38C226.322 74.42 226.562 74.48 226.815 74.56C227.069 74.6267 227.302 74.72 227.515 74.84C227.742 74.96 227.942 75.1133 228.115 75.3C228.302 75.4733 228.435 75.6933 228.515 75.96C228.569 76.1333 228.575 76.3 228.535 76.46C228.509 76.62 228.442 76.7533 228.335 76.86C228.242 76.9667 228.115 77.0467 227.955 77.1C227.809 77.1533 227.649 77.1667 227.475 77.14C227.275 77.1 227.089 77.04 226.915 76.96C226.742 76.88 226.569 76.7933 226.395 76.7C226.222 76.6067 226.042 76.5267 225.855 76.46C225.682 76.3933 225.495 76.36 225.295 76.36C224.989 76.3467 224.735 76.4 224.535 76.52C224.335 76.64 224.195 76.7867 224.115 76.96C224.049 77.1333 224.055 77.32 224.135 77.52C224.229 77.72 224.415 77.8933 224.695 78.04C224.949 78.1733 225.229 78.28 225.535 78.36C225.842 78.44 226.142 78.52 226.435 78.6C226.742 78.68 227.035 78.7733 227.315 78.88C227.609 78.9867 227.869 79.1333 228.095 79.32C228.535 79.68 228.802 80.1 228.895 80.58C229.002 81.06 228.975 81.5333 228.815 82C228.655 82.4667 228.375 82.88 227.975 83.24C227.589 83.6 227.129 83.84 226.595 83.96C226.209 84.04 225.789 84.08 225.335 84.08C224.895 84.08 224.455 84.0333 224.015 83.94C223.589 83.8467 223.175 83.7 222.775 83.5C222.389 83.3 222.062 83.0467 221.795 82.74C221.609 82.5267 221.509 82.2867 221.495 82.02C221.495 81.74 221.549 81.5 221.655 81.3C221.775 81.0867 221.942 80.94 222.155 80.86C222.369 80.78 222.609 80.8267 222.875 81C223.089 81.1467 223.342 81.2933 223.635 81.44C223.929 81.5733 224.222 81.68 224.515 81.76C224.809 81.84 225.089 81.88 225.355 81.88C225.635 81.88 225.875 81.82 226.075 81.7C226.369 81.5133 226.522 81.3 226.535 81.06C226.549 80.8067 226.462 80.6133 226.275 80.48ZM238.258 75.18C238.365 75.4333 238.371 75.7133 238.278 76.02C238.198 76.3267 238.045 76.5267 237.818 76.62C237.698 76.6733 237.538 76.72 237.338 76.76C237.138 76.7867 236.918 76.8133 236.678 76.84C236.451 76.8667 236.225 76.8867 235.998 76.9C235.771 76.9133 235.578 76.92 235.418 76.92C235.431 77.32 235.445 77.7333 235.458 78.16C235.471 78.5733 235.485 78.98 235.498 79.38C235.511 79.78 235.518 80.1667 235.518 80.54C235.518 80.9 235.511 81.2267 235.498 81.52C235.498 81.72 235.498 81.9533 235.498 82.22C235.498 82.4733 235.478 82.72 235.438 82.96C235.411 83.2 235.365 83.4133 235.298 83.6C235.231 83.7733 235.131 83.8867 234.998 83.94C234.585 84.1133 234.205 84.16 233.858 84.08C233.525 84.0133 233.285 83.8733 233.138 83.66C233.031 83.4867 232.951 83.2867 232.898 83.06C232.845 82.82 232.805 82.58 232.778 82.34C232.765 82.0867 232.758 81.8467 232.758 81.62C232.771 81.38 232.778 81.1733 232.778 81C232.791 80.44 232.798 79.8067 232.798 79.1C232.811 78.38 232.818 77.66 232.818 76.94H232.518C232.358 76.94 232.151 76.94 231.898 76.94C231.658 76.9267 231.411 76.9067 231.158 76.88C230.918 76.84 230.691 76.7933 230.478 76.74C230.265 76.6733 230.111 76.58 230.018 76.46C229.871 76.2867 229.778 76.1 229.738 75.9C229.711 75.7 229.725 75.5133 229.778 75.34C229.845 75.1533 229.945 74.9933 230.078 74.86C230.211 74.7133 230.365 74.62 230.538 74.58C230.778 74.5133 231.118 74.48 231.558 74.48C231.998 74.4667 232.411 74.4667 232.798 74.48C232.785 74.3467 232.778 74.22 232.778 74.1C232.778 73.9667 232.771 73.84 232.758 73.72C232.745 73.56 232.738 73.36 232.738 73.12C232.738 72.8667 232.751 72.62 232.778 72.38C232.818 72.1267 232.878 71.8933 232.958 71.68C233.038 71.4533 233.151 71.28 233.298 71.16C233.498 71 233.698 70.9133 233.898 70.9C234.111 70.8733 234.305 70.9 234.478 70.98C234.665 71.06 234.818 71.18 234.938 71.34C235.071 71.4867 235.165 71.6533 235.218 71.84C235.258 72 235.291 72.1933 235.318 72.42C235.345 72.6333 235.358 72.86 235.358 73.1C235.371 73.34 235.378 73.58 235.378 73.82C235.378 74.06 235.378 74.28 235.378 74.48H235.578C235.778 74.48 236.011 74.4733 236.278 74.46C236.545 74.4467 236.805 74.4533 237.058 74.48C237.325 74.5067 237.565 74.5733 237.778 74.68C237.991 74.7733 238.151 74.94 238.258 75.18ZM240.432 73.5C240.379 73.1533 240.352 72.8 240.352 72.44C240.366 72.08 240.432 71.7267 240.552 71.38C240.699 70.9267 240.939 70.5267 241.272 70.18C241.606 69.8333 241.986 69.56 242.412 69.36C242.866 69.1467 243.326 69 243.792 68.92C244.272 68.8267 244.739 68.8067 245.192 68.86C245.659 68.9133 246.106 69.0333 246.532 69.22C246.972 69.3933 247.386 69.6467 247.772 69.98C248.186 70.34 248.492 70.76 248.692 71.24C248.906 71.7067 249.019 72.1933 249.032 72.7C249.059 73.2067 248.999 73.7133 248.852 74.22C248.719 74.7133 248.512 75.1733 248.232 75.6C248.232 75.6 248.226 75.6133 248.212 75.64C247.986 75.9467 247.726 76.2267 247.432 76.48C247.139 76.72 246.866 76.98 246.612 77.26C246.319 77.5667 246.146 77.88 246.092 78.2C246.039 78.5067 245.986 78.8533 245.932 79.24C245.892 79.6133 245.792 79.94 245.632 80.22C245.486 80.4867 245.206 80.6133 244.792 80.6C244.512 80.5867 244.299 80.5 244.152 80.34C244.019 80.1667 243.919 79.9667 243.852 79.74C243.799 79.5 243.779 79.2533 243.792 79C243.806 78.7333 243.826 78.5 243.852 78.3C243.932 77.8333 244.079 77.3933 244.292 76.98C244.506 76.5533 244.766 76.1533 245.072 75.78C245.246 75.58 245.419 75.4 245.592 75.24C245.766 75.0667 245.926 74.8867 246.072 74.7C246.219 74.5133 246.346 74.3133 246.452 74.1C246.559 73.8867 246.632 73.64 246.672 73.36C246.712 73.1067 246.692 72.8533 246.612 72.6C246.532 72.3333 246.412 72.1 246.252 71.9C246.092 71.6867 245.899 71.5133 245.672 71.38C245.446 71.2333 245.199 71.1533 244.932 71.14C244.692 71.1267 244.439 71.16 244.172 71.24C243.906 71.3067 243.659 71.42 243.432 71.58C243.206 71.7267 243.019 71.9067 242.872 72.12C242.739 72.3333 242.679 72.5733 242.692 72.84C242.706 73 242.732 73.1667 242.772 73.34C242.826 73.5 242.859 73.66 242.872 73.82C242.899 73.9667 242.892 74.1133 242.852 74.26C242.826 74.4067 242.739 74.5467 242.592 74.68C242.352 74.9067 242.112 75.02 241.872 75.02C241.632 75.0067 241.412 74.9267 241.212 74.78C241.012 74.6333 240.839 74.4467 240.692 74.22C240.559 73.98 240.472 73.74 240.432 73.5ZM246.192 83.48C246.192 83.8667 246.046 84.2133 245.752 84.52C245.472 84.8133 245.146 84.96 244.772 84.96C244.412 84.96 244.092 84.8133 243.812 84.52C243.532 84.2 243.392 83.8533 243.392 83.48C243.392 83.0667 243.532 82.72 243.812 82.44C244.092 82.1333 244.412 81.98 244.772 81.98C245.146 81.98 245.472 82.1333 245.752 82.44C246.046 82.7333 246.192 83.08 246.192 83.48Z" fill="black"/>
</g>
<defs>
<filter id="filter0_d_450_764" x="0" y="0" width="362" height="432" filterUnits="userSpaceOnUse" color-interpolation-filters="sRGB">
<feFlood flood-opacity="0" result="BackgroundImageFix"/>
<feColorMatrix in="SourceAlpha" type="matrix" values="0 0 0 0 0 0 0 0 0 0 0 0 0 0 0 0 0 0 127 0" result="hardAlpha"/>
<feOffset dy="4"/>
<feGaussianBlur stdDeviation="2"/>
<feComposite in2="hardAlpha" operator="out"/>
<feColorMatrix type="matrix" values="0 0 0 0 0 0 0 0 0 0 0 0 0 0 0 0 0 0 0.25 0"/>
<feBlend mode="normal" in2="BackgroundImageFix" result="effect1_dropShadow_450_764"/>
<feBlend mode="normal" in="SourceGraphic" in2="effect1_dropShadow_450_764" result="shape"/>
</filter>
<clipPath id="clip0_450_764">
<rect width="354" height="424" fill="white" transform="translate(4)"/>
</clipPath>
</defs>
</svg>
