<svg width="362" height="432" viewBox="0 0 362 432" fill="none" xmlns="http://www.w3.org/2000/svg">
<g filter="url(#filter0_d_450_773)">
<g clip-path="url(#clip0_450_773)">
<path d="M45 0H313.5L358 424H4L45 0Z" fill="#88DAAD"/>
<mask id="mask0_450_773" style="mask-type:alpha" maskUnits="userSpaceOnUse" x="4" y="0" width="354" height="424">
<path d="M45 0H313.5L358 424H4L45 0Z" fill="#D5F6FD"/>
</mask>
<g mask="url(#mask0_450_773)">
<path d="M209.122 348.326C54.2733 416.467 -7.47618 466.388 -39.4989 591.985L-12.8044 580.458C4.09009 475.18 71.8911 427.201 214.969 357.381C228.463 486.45 317.362 492.702 415.652 465.406C415.652 465.406 327.849 446.699 323.788 426.058C319.727 405.418 401.202 459.216 446.543 439.523C464.501 427.802 474.665 419.011 493.114 395.835C422.903 374.378 378.059 362.864 383.397 353.371C388.734 343.877 483.852 379.17 513.472 370.567C519.174 368.76 524.785 361.762 546.489 320.219C466.383 301.202 435.636 308.833 441.824 285.69C448.012 262.546 514.844 295.988 565.241 277.806C568.645 275.428 571.05 271.135 580.073 235.014C540.347 228.134 519.333 222.874 517.917 213.428C516.5 203.981 574.57 212.543 589.001 197.938L602.606 130.385L536.679 107.435C516.763 112.429 494.591 166.777 487.179 160.752C479.768 154.726 485.93 133.959 500.217 96.2583C464.53 85.649 459.61 85.5359 455.832 87.2569C414.539 121.393 409.328 195.943 386.256 189.497C363.183 183.05 385.395 160.462 409.777 81.8228C362.971 79.373 354.092 80.6423 349.635 84.6322C327.159 105.755 309.151 205.599 298.263 205.364C287.374 205.129 300.277 160.665 317.524 89.3029C288.186 93.3959 275.447 97.6734 256.219 107.171C216.198 136.186 221.062 233.699 205.359 219.702C189.656 205.704 218.221 120.596 218.221 120.596C144.716 191.328 104.87 271.043 209.122 348.326Z" fill="#5E9C7A"/>
<path d="M-109.232 595.525L-0.571741 416.171C-145.371 402.191 -153.169 302.595 -123.445 192.175C-123.445 192.175 -101.695 290.431 -78.5223 294.8C-55.3496 299.17 -116.378 208.318 -94.7062 157.319C-81.7269 137.085 -71.9627 125.614 -46.1484 104.727C-21.472 183.239 -8.16734 233.404 2.4268 227.337C13.0209 221.269 34.1192 84.279 43.4998 51.0001C43.5802 50.7391 43.634 50.5155 43.6664 50.3249C41.9034 50.032 44.0125 48.2862 43.6664 50.3249C45.7849 50.6769 53.4947 48.9311 77.7744 36.0001C99.8033 125.625 62.6125 137.142 88.4998 130C114.387 122.858 93.5659 78.1535 113.5 21.5001C116.134 17.6633 107.59 27.9348 148 17.5001C156.065 61.9693 144.898 80.1783 155.5 81.6823C166.101 83.1864 165.256 33.8064 181.5 17.5001L244.5 14.0001L255.5 65.0001C250.079 87.3689 195.68 96.472 202.5 104.727C209.32 112.981 222.867 98.0331 265 81.6823C277.209 121.592 276.395 119.249 274.5 123.5C236.602 170.091 182.068 147.694 189.5 173.5C196.931 199.306 192.247 176.03 280.18 148C283.342 200.446 291.433 187.144 287 192.175C263.521 217.557 189.14 223.797 189.5 236C189.86 248.203 222.66 267.968 302.5 248C298.172 280.923 297.475 307.863 287 329.5C254.831 374.62 132.17 333.022 148 350.5C163.83 367.978 302.5 362 302.5 362C223.867 445.024 97.8332 537.663 10.2775 421.489L-98.1209 621.257L-109.232 595.525Z" fill="#73B992"/>
</g>
<line x1="41" y1="31" x2="317" y2="31" stroke="#FFF3F3" style="mix-blend-mode:multiply" stroke-width="18"/>
<line x1="6" y1="383" x2="354" y2="383" stroke="#FFF3F3" style="mix-blend-mode:multiply" stroke-width="18"/>
</g>
</g>
<defs>
<filter id="filter0_d_450_773" x="-4" y="-4" width="370" height="444" filterUnits="userSpaceOnUse" color-interpolation-filters="sRGB">
<feFlood flood-opacity="0" result="BackgroundImageFix"/>
<feColorMatrix in="SourceAlpha" type="matrix" values="0 0 0 0 0 0 0 0 0 0 0 0 0 0 0 0 0 0 127 0" result="hardAlpha"/>
<feOffset dy="4"/>
<feGaussianBlur stdDeviation="2"/>
<feComposite in2="hardAlpha" operator="out"/>
<feColorMatrix type="matrix" values="0 0 0 0 0 0 0 0 0 0 0 0 0 0 0 0 0 0 0.25 0"/>
<feBlend mode="normal" in2="BackgroundImageFix" result="effect1_dropShadow_450_773"/>
<feBlend mode="normal" in="SourceGraphic" in2="effect1_dropShadow_450_773" result="shape"/>
</filter>
<clipPath id="clip0_450_773">
<rect width="354" height="424" fill="white" transform="translate(4)"/>
</clipPath>
</defs>
</svg>
