<svg width="362" height="432" viewBox="0 0 362 432" fill="none" xmlns="http://www.w3.org/2000/svg">
<g clip-path="url(#clip0_450_773)" filter="url(#filter0_d_450_773)">
<path d="M45 0H313.5L358 424H4L45 0Z" fill="#88DAAD"/>
<mask id="mask0_450_773" style="mask-type:alpha" maskUnits="userSpaceOnUse" x="4" y="0" width="354" height="424">
<path d="M45 0H313.5L358 424H4L45 0Z" fill="#D5F6FD"/>
</mask>
<g mask="url(#mask0_450_773)">
<path d="M209.122 348.326C54.2733 416.467 -7.47618 466.388 -39.4989 591.985L-12.8044 580.458C4.09009 475.18 71.8911 427.201 214.969 357.381C228.463 486.45 317.362 492.702 415.652 465.406C415.652 465.406 327.849 446.699 323.788 426.058C319.727 405.418 401.202 459.216 446.543 439.523C464.501 427.802 474.665 419.011 493.114 395.835C422.903 374.378 378.059 362.864 383.397 353.371C388.734 343.877 483.852 379.17 513.472 370.567C519.174 368.76 524.785 361.762 546.489 320.219C466.383 301.202 435.636 308.833 441.824 285.69C448.012 262.546 514.844 295.988 565.241 277.806C568.645 275.428 571.05 271.135 580.073 235.014C540.347 228.134 519.333 222.874 517.917 213.428C516.5 203.981 574.57 212.543 589.001 197.938L602.606 130.385L536.679 107.435C516.763 112.429 494.591 166.777 487.179 160.752C479.768 154.726 485.93 133.959 500.217 96.2583C464.53 85.649 459.61 85.5359 455.832 87.2569C414.539 121.393 409.328 195.943 386.256 189.497C363.183 183.05 385.395 160.462 409.777 81.8228C362.971 79.373 354.092 80.6423 349.635 84.6322C327.159 105.755 309.151 205.599 298.263 205.364C287.374 205.129 300.277 160.665 317.524 89.3029C288.186 93.3959 275.447 97.6734 256.219 107.171C216.198 136.186 221.062 233.699 205.359 219.702C189.656 205.704 218.221 120.596 218.221 120.596C144.716 191.328 104.87 271.043 209.122 348.326Z" fill="#5E9C7A"/>
<path d="M-109.232 595.525L-0.571741 416.171C-145.371 402.191 -153.169 302.595 -123.445 192.175C-123.445 192.175 -101.695 290.431 -78.5223 294.8C-55.3496 299.17 -116.378 208.318 -94.7062 157.319C-81.7269 137.085 -71.9627 125.614 -46.1484 104.727C-21.472 183.239 -8.16734 233.404 2.4268 227.337C13.0209 221.269 34.1192 84.279 43.4998 51.0001C43.5802 50.7391 43.634 50.5155 43.6664 50.3249C41.9034 50.032 44.0125 48.2862 43.6664 50.3249C45.7849 50.6769 53.4947 48.9311 77.7744 36.0001C99.8033 125.625 62.6125 137.142 88.4998 130C114.387 122.858 93.5659 78.1535 113.5 21.5001C116.134 17.6633 107.59 27.9348 148 17.5001C156.065 61.9693 144.898 80.1783 155.5 81.6823C166.101 83.1864 165.256 33.8064 181.5 17.5001L244.5 14.0001L255.5 65.0001C250.079 87.3689 195.68 96.472 202.5 104.727C209.32 112.981 222.867 98.0331 265 81.6823C277.209 121.592 276.395 119.249 274.5 123.5C236.602 170.091 182.068 147.694 189.5 173.5C196.931 199.306 192.247 176.03 280.18 148C283.342 200.446 291.433 187.144 287 192.175C263.521 217.557 189.14 223.797 189.5 236C189.86 248.203 222.66 267.968 302.5 248C298.172 280.923 297.475 307.863 287 329.5C254.831 374.62 132.17 333.022 148 350.5C163.83 367.978 302.5 362 302.5 362C223.867 445.024 97.8332 537.663 10.2775 421.489L-98.1209 621.257L-109.232 595.525Z" fill="#73B992"/>
</g>
<line x1="41" y1="31" x2="317" y2="31" stroke="#FFF3F3" style="mix-blend-mode:multiply" stroke-width="18"/>
<line x1="6" y1="383" x2="354" y2="383" stroke="#FFF3F3" style="mix-blend-mode:multiply" stroke-width="18"/>
<path d="M159.076 45.64C159.129 45.8933 159.129 46.16 159.076 46.44C159.049 46.5733 159.023 46.7067 158.996 46.84C158.983 46.96 158.963 47.0867 158.936 47.22L158.916 47.3C158.729 48.1267 158.516 49 158.276 49.92C158.049 50.8267 157.843 51.6867 157.656 52.5C157.496 53.1667 157.329 53.9 157.156 54.7C156.983 55.5 156.803 56.2333 156.616 56.9C156.549 57.1267 156.476 57.3533 156.396 57.58C156.329 57.8067 156.243 58.0333 156.136 58.26C156.043 58.46 155.929 58.64 155.796 58.8C155.676 58.9467 155.536 59.0533 155.376 59.12C155.216 59.2 155.043 59.2267 154.856 59.2C154.683 59.1867 154.489 59.1067 154.276 58.96C153.956 58.7333 153.716 58.42 153.556 58.02C153.409 57.62 153.256 57.2533 153.096 56.92C153.043 56.8267 152.963 56.62 152.856 56.3C152.749 55.98 152.636 55.6333 152.516 55.26C152.396 54.8733 152.276 54.5067 152.156 54.16C152.049 53.8 151.956 53.5333 151.876 53.36C151.756 53.6533 151.636 53.9867 151.516 54.36C151.396 54.7333 151.283 55.1 151.176 55.46C151.069 55.82 150.969 56.1467 150.876 56.44C150.796 56.72 150.736 56.9267 150.696 57.06C150.589 57.3267 150.469 57.62 150.336 57.94C150.216 58.26 150.063 58.5333 149.876 58.76C149.703 58.9867 149.489 59.1333 149.236 59.2C148.983 59.28 148.683 59.2067 148.336 58.98C148.069 58.82 147.883 58.5933 147.776 58.3C147.709 58.1133 147.643 57.9333 147.576 57.76C147.509 57.5867 147.456 57.4067 147.416 57.22L147.016 55.72L146.196 52.5C146.089 52.0867 145.983 51.6667 145.876 51.24C145.783 50.8 145.669 50.3467 145.536 49.88C145.469 49.6533 145.409 49.4333 145.356 49.22C145.316 48.9933 145.269 48.7533 145.216 48.5C145.176 48.2333 145.123 47.9333 145.056 47.6C145.003 47.2667 144.936 46.88 144.856 46.44C144.829 46.2933 144.809 46.16 144.796 46.04C144.796 45.9067 144.809 45.7733 144.836 45.64C144.863 45.44 144.956 45.2667 145.116 45.12C145.183 45.0533 145.263 45 145.356 44.96C145.449 44.92 145.549 44.8867 145.656 44.86C145.816 44.8067 145.983 44.78 146.156 44.78C146.316 44.78 146.483 44.8333 146.656 44.94C146.776 45.0067 146.869 45.0933 146.936 45.2L147.176 45.62C147.203 45.7133 147.229 45.8 147.256 45.88C147.283 45.9467 147.309 46.02 147.336 46.1C147.363 46.1933 147.383 46.28 147.396 46.36C147.409 46.4267 147.423 46.4933 147.436 46.56C147.556 47.2533 147.703 47.9267 147.876 48.58C148.049 49.2333 148.209 49.86 148.356 50.46C148.409 50.7 148.476 51 148.556 51.36C148.636 51.7067 148.716 52.0733 148.796 52.46C148.876 52.8333 148.956 53.1933 149.036 53.54C149.116 53.8867 149.196 54.16 149.276 54.36C149.449 53.76 149.623 53.16 149.796 52.56C149.983 51.96 150.183 51.3533 150.396 50.74C150.503 50.42 150.609 50.1333 150.716 49.88C150.836 49.6133 150.969 49.3933 151.116 49.22C151.263 49.0467 151.429 48.9333 151.616 48.88C151.803 48.8267 152.023 48.8467 152.276 48.94C152.503 49.0333 152.703 49.2333 152.876 49.54C153.049 49.8467 153.203 50.16 153.336 50.48C153.456 50.7733 153.569 51.0867 153.676 51.42C153.796 51.74 153.909 52.06 154.016 52.38C154.136 52.6867 154.249 52.98 154.356 53.26C154.463 53.54 154.569 53.78 154.676 53.98C154.716 53.8333 154.763 53.6467 154.816 53.42C154.869 53.1933 154.923 52.9533 154.976 52.7C155.043 52.4333 155.103 52.1733 155.156 51.92C155.209 51.6667 155.263 51.4333 155.316 51.22C155.489 50.5 155.669 49.78 155.856 49.06C156.043 48.3267 156.223 47.6067 156.396 46.9L156.496 46.56C156.523 46.4933 156.536 46.4267 156.536 46.36C156.549 46.28 156.569 46.1933 156.596 46.1C156.623 46.02 156.649 45.9467 156.676 45.88C156.703 45.8 156.729 45.7133 156.756 45.62C156.783 45.5533 156.809 45.4867 156.836 45.42C156.876 45.34 156.923 45.2667 156.976 45.2C157.016 45.1333 157.063 45.08 157.116 45.04C157.169 45 157.223 44.9667 157.276 44.94C157.463 44.8333 157.623 44.78 157.756 44.78C157.929 44.78 158.096 44.8067 158.256 44.86C158.469 44.9 158.663 44.9867 158.836 45.12C158.969 45.2533 159.049 45.4267 159.076 45.64ZM168.534 55.06C168.547 55.3267 168.554 55.6067 168.554 55.9C168.554 56.18 168.547 56.44 168.534 56.68C168.52 57.04 168.5 57.3733 168.474 57.68C168.447 57.9733 168.394 58.2267 168.314 58.44C168.234 58.64 168.107 58.7933 167.934 58.9C167.774 58.9933 167.547 59.02 167.254 58.98C166.947 58.94 166.727 58.7933 166.594 58.54C166.46 58.2867 166.367 58 166.314 57.68C166.274 57.3467 166.26 57.0133 166.274 56.68C166.287 56.3467 166.287 56.0867 166.274 55.9C166.26 55.6067 166.247 55.2733 166.234 54.9C166.234 54.5133 166.194 54.1533 166.114 53.82C166.047 53.4733 165.927 53.18 165.754 52.94C165.58 52.7 165.32 52.5733 164.974 52.56C164.534 52.5333 164.194 52.5667 163.954 52.66C163.727 52.7533 163.56 52.8933 163.454 53.08C163.347 53.2533 163.28 53.4667 163.254 53.72C163.24 53.9733 163.214 54.2467 163.174 54.54L163.154 55.32V56.78C163.154 57.02 163.147 57.2733 163.134 57.54C163.134 57.7933 163.094 58.0267 163.014 58.24C162.934 58.4533 162.807 58.6333 162.634 58.78C162.474 58.9267 162.234 59 161.914 59C161.514 59 161.214 58.8733 161.014 58.62C160.827 58.3533 160.734 58.0267 160.734 57.64V46.14C160.734 46.06 160.734 45.9867 160.734 45.92C160.747 45.84 160.76 45.76 160.774 45.68C160.8 45.6 160.82 45.5267 160.834 45.46C160.847 45.38 160.867 45.3067 160.894 45.24C160.934 45.1067 161 45.0067 161.094 44.94C161.16 44.8733 161.227 44.82 161.294 44.78C161.36 44.74 161.434 44.7133 161.514 44.7C161.58 44.6867 161.654 44.68 161.734 44.68C161.814 44.6667 161.894 44.66 161.974 44.66C162.174 44.66 162.367 44.72 162.554 44.84C162.634 44.8933 162.707 44.9533 162.774 45.02C162.84 45.0733 162.894 45.1533 162.934 45.26C163.04 45.5133 163.094 45.7533 163.094 45.98C163.107 46.0467 163.114 46.1467 163.114 46.28C163.127 46.4 163.134 46.5267 163.134 46.66C163.134 46.7933 163.134 46.9267 163.134 47.06C163.147 47.18 163.154 47.2733 163.154 47.34V47.44C163.167 47.8667 163.174 48.3 163.174 48.74C163.174 49.18 163.174 49.6267 163.174 50.08V50.42C163.734 50.2333 164.32 50.1467 164.934 50.16C165.547 50.16 166.094 50.28 166.574 50.52C167.067 50.7733 167.44 51.06 167.694 51.38C167.96 51.7 168.154 52.0533 168.274 52.44C168.394 52.8267 168.46 53.24 168.474 53.68C168.5 54.12 168.52 54.58 168.534 55.06ZM172.728 49.96C173.168 49.7467 173.628 49.5933 174.108 49.5C174.588 49.4067 175.061 49.3867 175.528 49.44C176.008 49.4933 176.468 49.62 176.908 49.82C177.361 50.02 177.774 50.3 178.148 50.66C178.454 50.9667 178.721 51.34 178.948 51.78C179.174 52.2067 179.341 52.6267 179.448 53.04C179.674 53.7733 179.708 54.5133 179.548 55.26C179.388 56.0067 179.114 56.7 178.728 57.34C178.541 57.6333 178.308 57.9 178.028 58.14C177.761 58.3667 177.474 58.5533 177.168 58.7C176.768 58.8867 176.334 59.0133 175.868 59.08C175.401 59.16 174.948 59.18 174.508 59.14C173.708 59.1 173.001 58.9 172.388 58.54C171.788 58.18 171.301 57.72 170.928 57.16C170.568 56.6 170.328 55.9667 170.208 55.26C170.101 54.54 170.148 53.8067 170.348 53.06C170.561 52.26 170.868 51.6133 171.268 51.12C171.681 50.6133 172.168 50.2267 172.728 49.96ZM173.328 52.64C173.128 52.8267 172.974 53.06 172.868 53.34C172.761 53.62 172.694 53.9133 172.668 54.22C172.641 54.5133 172.661 54.8133 172.728 55.12C172.808 55.4133 172.928 55.68 173.088 55.92C173.221 56.12 173.461 56.2867 173.808 56.42C174.154 56.5533 174.514 56.6333 174.888 56.66C175.314 56.6867 175.688 56.5733 176.008 56.32C176.328 56.0533 176.568 55.7267 176.728 55.34C176.901 54.9533 176.981 54.5333 176.968 54.08C176.954 53.6267 176.834 53.2133 176.608 52.84C176.448 52.5733 176.221 52.38 175.928 52.26C175.648 52.1267 175.348 52.06 175.028 52.06C174.721 52.0467 174.414 52.0933 174.108 52.2C173.801 52.2933 173.541 52.44 173.328 52.64ZM194.678 51.3C194.784 51.4867 194.838 51.6867 194.838 51.9C194.851 52.1133 194.804 52.3133 194.698 52.5C194.578 52.74 194.404 52.9067 194.178 53C193.964 53.08 193.724 53.0867 193.458 53.02C193.338 52.9933 193.231 52.9467 193.138 52.88C193.044 52.8133 192.944 52.7467 192.838 52.68C192.744 52.6 192.631 52.5267 192.498 52.46C192.378 52.3933 192.218 52.3467 192.018 52.32C191.818 52.2933 191.598 52.2933 191.358 52.32C191.131 52.3467 190.924 52.4 190.738 52.48C190.444 52.6267 190.211 52.8533 190.038 53.16C189.864 53.4533 189.751 53.7733 189.698 54.12C189.644 54.4533 189.651 54.7933 189.718 55.14C189.798 55.4867 189.944 55.78 190.158 56.02C190.318 56.2067 190.524 56.36 190.778 56.48C191.044 56.6 191.298 56.6733 191.538 56.7C191.764 56.7267 191.991 56.7267 192.218 56.7C192.444 56.66 192.664 56.6067 192.878 56.54C193.038 56.4733 193.218 56.3867 193.418 56.28C193.618 56.16 193.811 56.0867 193.998 56.06C194.238 56.06 194.424 56.1267 194.558 56.26C194.691 56.38 194.784 56.5333 194.838 56.72C194.891 56.8933 194.898 57.08 194.858 57.28C194.831 57.48 194.758 57.6533 194.638 57.8C194.478 58 194.251 58.1933 193.958 58.38C193.664 58.5533 193.384 58.68 193.118 58.76C192.798 58.8667 192.438 58.9267 192.038 58.94C191.651 58.9533 191.284 58.94 190.938 58.9C190.778 58.8733 190.611 58.84 190.438 58.8C190.264 58.76 190.098 58.7133 189.938 58.66C189.351 58.4467 188.858 58.1467 188.458 57.76C188.071 57.36 187.771 56.9133 187.558 56.42C187.358 55.9267 187.244 55.4 187.218 54.84C187.191 54.28 187.258 53.7267 187.418 53.18C187.564 52.66 187.744 52.22 187.958 51.86C188.184 51.5 188.444 51.2067 188.738 50.98C189.044 50.74 189.384 50.5533 189.758 50.42C190.131 50.2733 190.544 50.1467 190.998 50.04C191.464 49.9467 191.958 49.9467 192.478 50.04C192.998 50.1333 193.464 50.3067 193.878 50.56C194.198 50.7333 194.464 50.98 194.678 51.3ZM198.816 50.58C199.216 50.38 199.636 50.24 200.076 50.16C200.516 50.0667 200.949 50.0467 201.376 50.1C201.816 50.14 202.236 50.2533 202.636 50.44C203.036 50.6133 203.409 50.8667 203.756 51.2C204.102 51.5467 204.369 51.9267 204.556 52.34C204.742 52.7533 204.876 53.2133 204.956 53.72C205.009 54.0667 205.096 54.3867 205.216 54.68C205.336 54.9733 205.462 55.2667 205.596 55.56C205.742 55.8533 205.876 56.1467 205.996 56.44C206.129 56.7333 206.236 57.04 206.316 57.36C206.382 57.6667 206.356 57.9667 206.236 58.26C206.129 58.54 205.902 58.7133 205.556 58.78C205.356 58.82 205.162 58.8067 204.976 58.74C204.802 58.66 204.642 58.5533 204.496 58.42C204.349 58.2733 204.216 58.12 204.096 57.96C203.989 57.7867 203.889 57.6267 203.796 57.48C203.489 57.88 203.156 58.1933 202.796 58.42C202.436 58.6333 202.002 58.7733 201.496 58.84C201.069 58.8933 200.662 58.9067 200.276 58.88C199.889 58.8533 199.476 58.78 199.036 58.66C198.462 58.5133 197.989 58.26 197.616 57.9C197.256 57.5267 196.976 57.1 196.776 56.62C196.589 56.1267 196.489 55.6 196.476 55.04C196.462 54.48 196.529 53.9267 196.676 53.38C196.862 52.66 197.142 52.0733 197.516 51.62C197.889 51.1667 198.322 50.82 198.816 50.58ZM199.316 52.92C199.129 53.1067 198.982 53.3267 198.876 53.58C198.769 53.8333 198.702 54.1 198.676 54.38C198.662 54.66 198.689 54.94 198.756 55.22C198.822 55.5 198.929 55.7467 199.076 55.96C199.209 56.1467 199.436 56.3067 199.756 56.44C200.076 56.56 200.409 56.6333 200.756 56.66C201.156 56.6867 201.502 56.58 201.796 56.34C202.102 56.1 202.329 55.8 202.476 55.44C202.636 55.0667 202.709 54.6733 202.696 54.26C202.682 53.8333 202.569 53.4467 202.356 53.1C202.196 52.8467 201.982 52.66 201.716 52.54C201.462 52.42 201.189 52.36 200.896 52.36C200.602 52.3467 200.309 52.3933 200.016 52.5C199.736 52.5933 199.502 52.7333 199.316 52.92ZM208 51.86C208 51.5533 207.993 51.2267 207.98 50.88C207.98 50.5333 208.04 50.22 208.16 49.94C208.266 49.6867 208.44 49.5067 208.68 49.4C208.933 49.28 209.18 49.2533 209.42 49.32C209.66 49.36 209.846 49.4333 209.98 49.54C210.113 49.6467 210.206 49.7733 210.26 49.92C210.326 50.0533 210.366 50.2133 210.38 50.4C210.393 50.5733 210.406 50.7467 210.42 50.92C210.553 50.68 210.72 50.4867 210.92 50.34C211.12 50.1933 211.326 50.0733 211.54 49.98C211.753 49.8867 211.953 49.82 212.14 49.78C212.34 49.74 212.493 49.72 212.6 49.72C213.106 49.72 213.606 49.8333 214.1 50.06C214.606 50.2733 215.026 50.58 215.36 50.98C215.546 51.22 215.686 51.4733 215.78 51.74C215.886 51.9933 215.96 52.26 216 52.54C216.053 52.82 216.086 53.1067 216.1 53.4C216.113 53.68 216.126 53.9667 216.14 54.26C216.206 55.1133 216.206 55.96 216.14 56.8C216.126 56.9733 216.12 57.1733 216.12 57.4C216.12 57.6267 216.1 57.8533 216.06 58.08C216.033 58.2933 215.973 58.4867 215.88 58.66C215.8 58.82 215.66 58.92 215.46 58.96C215.18 59.0267 214.946 59.04 214.76 59C214.586 58.9733 214.446 58.9133 214.34 58.82C214.233 58.7267 214.153 58.6067 214.1 58.46C214.046 58.3133 214 58.1467 213.96 57.96C213.933 57.8133 213.906 57.6467 213.88 57.46C213.866 57.26 213.853 57.06 213.84 56.86C213.84 56.66 213.833 56.4667 213.82 56.28C213.82 56.08 213.82 55.9 213.82 55.74C213.82 55.4867 213.813 55.2067 213.8 54.9C213.786 54.5933 213.786 54.3067 213.8 54.04C213.8 53.4133 213.633 52.94 213.3 52.62C212.98 52.2867 212.54 52.1467 211.98 52.2C211.553 52.2533 211.18 52.4267 210.86 52.72C210.54 53 210.386 53.3667 210.4 53.82C210.4 53.9933 210.4 54.1533 210.4 54.3C210.4 54.4467 210.393 54.5933 210.38 54.74C210.38 54.8867 210.38 55.0467 210.38 55.22C210.38 55.3933 210.38 55.5867 210.38 55.8C210.38 56.24 210.38 56.7067 210.38 57.2C210.38 57.68 210.32 58.0733 210.2 58.38C210.093 58.7 209.913 58.92 209.66 59.04C209.406 59.16 209.106 59.1267 208.76 58.94C208.613 58.86 208.493 58.7533 208.4 58.62C208.32 58.4733 208.253 58.32 208.2 58.16C208.16 58 208.133 57.84 208.12 57.68C208.106 57.5067 208.093 57.3467 208.08 57.2C208.04 56.76 208.013 56.3533 208 55.98C208 55.5933 208 55.18 208 54.74V51.86ZM132.711 75C133.097 75.16 133.451 75.3933 133.771 75.7C134.091 75.9933 134.364 76.3333 134.591 76.72C134.831 77.1067 135.011 77.5267 135.131 77.98C135.264 78.42 135.331 78.8667 135.331 79.32C135.344 80 135.184 80.64 134.851 81.24C134.531 81.84 134.004 82.3 133.271 82.62C132.711 82.8467 132.131 83.02 131.531 83.14C130.944 83.2467 130.331 83.32 129.691 83.36V87.02C129.691 87.1 129.677 87.1733 129.651 87.24C129.637 87.3067 129.631 87.3733 129.631 87.44C129.604 87.5733 129.571 87.6933 129.531 87.8C129.504 87.9067 129.464 88.02 129.411 88.14C129.357 88.22 129.304 88.2933 129.251 88.36C129.197 88.4267 129.137 88.4933 129.071 88.56C128.751 88.72 128.417 88.7533 128.071 88.66C127.857 88.6467 127.684 88.58 127.551 88.46C127.431 88.34 127.344 88.2133 127.291 88.08C127.237 87.9467 127.191 87.7933 127.151 87.62C127.137 87.5533 127.124 87.4867 127.111 87.42C127.111 87.3667 127.111 87.3067 127.111 87.24V76.1C127.111 76.02 127.111 75.94 127.111 75.86C127.124 75.7667 127.137 75.6733 127.151 75.58C127.164 75.42 127.204 75.26 127.271 75.1C127.391 74.7667 127.637 74.54 128.011 74.42C128.384 74.3 128.804 74.2467 129.271 74.26C129.591 74.2733 129.917 74.3067 130.251 74.36C130.597 74.4133 130.924 74.48 131.231 74.56C131.551 74.6267 131.837 74.7 132.091 74.78C132.344 74.86 132.551 74.9333 132.711 75ZM132.751 79.32C132.804 78.9467 132.757 78.6333 132.611 78.38C132.477 78.1133 132.284 77.9 132.031 77.74C131.777 77.5667 131.484 77.4333 131.151 77.34C130.831 77.2467 130.511 77.18 130.191 77.14C130.151 77.1267 130.084 77.12 129.991 77.12C129.911 77.12 129.817 77.12 129.711 77.12C129.711 77.5467 129.711 77.96 129.711 78.36C129.724 78.7467 129.724 79.1667 129.711 79.62V80.96C130.017 80.9467 130.337 80.9133 130.671 80.86C131.017 80.8067 131.337 80.72 131.631 80.6C131.924 80.48 132.171 80.32 132.371 80.12C132.584 79.92 132.711 79.6533 132.751 79.32ZM139.294 75.58C139.694 75.38 140.114 75.24 140.554 75.16C140.994 75.0667 141.428 75.0467 141.854 75.1C142.294 75.14 142.714 75.2533 143.114 75.44C143.514 75.6133 143.888 75.8667 144.234 76.2C144.581 76.5467 144.848 76.9267 145.034 77.34C145.221 77.7533 145.354 78.2133 145.434 78.72C145.488 79.0667 145.574 79.3867 145.694 79.68C145.814 79.9733 145.941 80.2667 146.074 80.56C146.221 80.8533 146.354 81.1467 146.474 81.44C146.608 81.7333 146.714 82.04 146.794 82.36C146.861 82.6667 146.834 82.9667 146.714 83.26C146.608 83.54 146.381 83.7133 146.034 83.78C145.834 83.82 145.641 83.8067 145.454 83.74C145.281 83.66 145.121 83.5533 144.974 83.42C144.828 83.2733 144.694 83.12 144.574 82.96C144.468 82.7867 144.368 82.6267 144.274 82.48C143.968 82.88 143.634 83.1933 143.274 83.42C142.914 83.6333 142.481 83.7733 141.974 83.84C141.548 83.8933 141.141 83.9067 140.754 83.88C140.368 83.8533 139.954 83.78 139.514 83.66C138.941 83.5133 138.468 83.26 138.094 82.9C137.734 82.5267 137.454 82.1 137.254 81.62C137.068 81.1267 136.968 80.6 136.954 80.04C136.941 79.48 137.008 78.9267 137.154 78.38C137.341 77.66 137.621 77.0733 137.994 76.62C138.368 76.1667 138.801 75.82 139.294 75.58ZM139.794 77.92C139.608 78.1067 139.461 78.3267 139.354 78.58C139.248 78.8333 139.181 79.1 139.154 79.38C139.141 79.66 139.168 79.94 139.234 80.22C139.301 80.5 139.408 80.7467 139.554 80.96C139.688 81.1467 139.914 81.3067 140.234 81.44C140.554 81.56 140.888 81.6333 141.234 81.66C141.634 81.6867 141.981 81.58 142.274 81.34C142.581 81.1 142.808 80.8 142.954 80.44C143.114 80.0667 143.188 79.6733 143.174 79.26C143.161 78.8333 143.048 78.4467 142.834 78.1C142.674 77.8467 142.461 77.66 142.194 77.54C141.941 77.42 141.668 77.36 141.374 77.36C141.081 77.3467 140.788 77.3933 140.494 77.5C140.214 77.5933 139.981 77.7333 139.794 77.92ZM148.478 76.92C148.478 76.76 148.478 76.58 148.478 76.38C148.478 76.1667 148.485 75.9533 148.498 75.74C148.512 75.5133 148.532 75.3 148.558 75.1C148.598 74.8867 148.652 74.7 148.718 74.54C148.825 74.3 148.992 74.14 149.218 74.06C149.445 73.9667 149.692 73.9267 149.958 73.94C150.238 73.94 150.458 73.9867 150.618 74.08C150.778 74.1733 150.898 74.3 150.978 74.46C151.058 74.6067 151.105 74.78 151.118 74.98C151.145 75.1667 151.158 75.3667 151.158 75.58C151.278 75.3667 151.438 75.1933 151.638 75.06C151.852 74.9267 152.065 74.82 152.278 74.74C152.492 74.66 152.685 74.6067 152.858 74.58C153.032 74.54 153.132 74.52 153.158 74.52C153.492 74.4933 153.792 74.4867 154.058 74.5C154.338 74.5133 154.645 74.5733 154.978 74.68C155.192 74.76 155.412 74.8733 155.638 75.02C155.865 75.1533 156.065 75.3133 156.238 75.5C156.412 75.6867 156.525 75.8933 156.578 76.12C156.645 76.3333 156.618 76.56 156.498 76.8C156.312 77.1333 156.105 77.3 155.878 77.3C155.652 77.2867 155.405 77.2467 155.138 77.18C154.992 77.1533 154.818 77.0933 154.618 77C154.418 76.9067 154.245 76.8467 154.098 76.82C153.645 76.7533 153.245 76.7867 152.898 76.92C152.552 77.0533 152.252 77.2133 151.998 77.4C151.705 77.6267 151.452 77.8867 151.238 78.18V81.06C151.238 81.42 151.232 81.7933 151.218 82.18C151.218 82.5667 151.165 82.92 151.058 83.24C150.965 83.5467 150.798 83.8 150.558 84C150.332 84.1867 149.998 84.2667 149.558 84.24C149.318 84.2267 149.105 84.1133 148.918 83.9C148.732 83.6733 148.618 83.4533 148.578 83.24C148.552 83.04 148.532 82.8 148.518 82.52C148.505 82.24 148.492 81.9467 148.478 81.64C148.478 81.3333 148.478 81.0267 148.478 80.72C148.478 80.4 148.478 80.1067 148.478 79.84V76.92ZM166.158 75.18C166.265 75.4333 166.272 75.7133 166.178 76.02C166.098 76.3267 165.945 76.5267 165.718 76.62C165.598 76.6733 165.438 76.72 165.238 76.76C165.038 76.7867 164.818 76.8133 164.578 76.84C164.352 76.8667 164.125 76.8867 163.898 76.9C163.672 76.9133 163.478 76.92 163.318 76.92C163.332 77.32 163.345 77.7333 163.358 78.16C163.372 78.5733 163.385 78.98 163.398 79.38C163.412 79.78 163.418 80.1667 163.418 80.54C163.418 80.9 163.412 81.2267 163.398 81.52C163.398 81.72 163.398 81.9533 163.398 82.22C163.398 82.4733 163.378 82.72 163.338 82.96C163.312 83.2 163.265 83.4133 163.198 83.6C163.132 83.7733 163.032 83.8867 162.898 83.94C162.485 84.1133 162.105 84.16 161.758 84.08C161.425 84.0133 161.185 83.8733 161.038 83.66C160.932 83.4867 160.852 83.2867 160.798 83.06C160.745 82.82 160.705 82.58 160.678 82.34C160.665 82.0867 160.658 81.8467 160.658 81.62C160.672 81.38 160.678 81.1733 160.678 81C160.692 80.44 160.698 79.8067 160.698 79.1C160.712 78.38 160.718 77.66 160.718 76.94H160.418C160.258 76.94 160.052 76.94 159.798 76.94C159.558 76.9267 159.312 76.9067 159.058 76.88C158.818 76.84 158.592 76.7933 158.378 76.74C158.165 76.6733 158.012 76.58 157.918 76.46C157.772 76.2867 157.678 76.1 157.638 75.9C157.612 75.7 157.625 75.5133 157.678 75.34C157.745 75.1533 157.845 74.9933 157.978 74.86C158.112 74.7133 158.265 74.62 158.438 74.58C158.678 74.5133 159.018 74.48 159.458 74.48C159.898 74.4667 160.312 74.4667 160.698 74.48C160.685 74.3467 160.678 74.22 160.678 74.1C160.678 73.9667 160.672 73.84 160.658 73.72C160.645 73.56 160.638 73.36 160.638 73.12C160.638 72.8667 160.652 72.62 160.678 72.38C160.718 72.1267 160.778 71.8933 160.858 71.68C160.938 71.4533 161.052 71.28 161.198 71.16C161.398 71 161.598 70.9133 161.798 70.9C162.012 70.8733 162.205 70.9 162.378 70.98C162.565 71.06 162.718 71.18 162.838 71.34C162.972 71.4867 163.065 71.6533 163.118 71.84C163.158 72 163.192 72.1933 163.218 72.42C163.245 72.6333 163.258 72.86 163.258 73.1C163.272 73.34 163.278 73.58 163.278 73.82C163.278 74.06 163.278 74.28 163.278 74.48H163.478C163.678 74.48 163.912 74.4733 164.178 74.46C164.445 74.4467 164.705 74.4533 164.958 74.48C165.225 74.5067 165.465 74.5733 165.678 74.68C165.892 74.7733 166.052 74.94 166.158 75.18ZM170.373 76.42C170.373 76.7933 170.373 77.2133 170.373 77.68C170.386 78.1467 170.393 78.6333 170.393 79.14C170.393 79.6333 170.393 80.1267 170.393 80.62C170.393 81.1 170.386 81.5467 170.373 81.96C170.359 82.16 170.339 82.38 170.313 82.62C170.286 82.8467 170.233 83.06 170.153 83.26C170.073 83.46 169.946 83.6267 169.773 83.76C169.613 83.88 169.393 83.9333 169.113 83.92C168.699 83.8933 168.399 83.7133 168.213 83.38C168.039 83.0467 167.939 82.58 167.913 81.98C167.913 81.6733 167.906 81.32 167.893 80.92C167.893 80.52 167.886 80.1133 167.873 79.7C167.873 79.2867 167.873 78.8867 167.873 78.5C167.873 78.1 167.873 77.74 167.873 77.42C167.873 77.2333 167.866 77.0067 167.853 76.74C167.853 76.4733 167.859 76.2 167.873 75.92C167.886 75.64 167.919 75.3733 167.973 75.12C168.026 74.8533 168.113 74.6333 168.233 74.46C168.326 74.3533 168.459 74.2733 168.633 74.22C168.806 74.1533 168.986 74.12 169.173 74.12C169.373 74.12 169.559 74.1533 169.733 74.22C169.919 74.2867 170.053 74.38 170.133 74.5C170.186 74.58 170.226 74.6933 170.253 74.84C170.279 74.9867 170.299 75.1533 170.313 75.34C170.339 75.5133 170.353 75.7 170.353 75.9C170.366 76.0867 170.373 76.26 170.373 76.42ZM169.613 72.38C169.199 72.4867 168.853 72.4467 168.573 72.26C168.306 72.06 168.139 71.7667 168.073 71.38C168.019 71.1 168.039 70.8533 168.133 70.64C168.226 70.4267 168.366 70.2667 168.553 70.16C168.739 70.04 168.953 69.9867 169.193 70C169.433 70.0133 169.673 70.1067 169.913 70.28C170.139 70.44 170.299 70.6267 170.393 70.84C170.499 71.0533 170.533 71.26 170.493 71.46C170.466 71.66 170.379 71.8467 170.233 72.02C170.086 72.18 169.879 72.3 169.613 72.38ZM179.57 76.3C179.677 76.4867 179.73 76.6867 179.73 76.9C179.743 77.1133 179.697 77.3133 179.59 77.5C179.47 77.74 179.297 77.9067 179.07 78C178.857 78.08 178.617 78.0867 178.35 78.02C178.23 77.9933 178.123 77.9467 178.03 77.88C177.937 77.8133 177.837 77.7467 177.73 77.68C177.637 77.6 177.523 77.5267 177.39 77.46C177.27 77.3933 177.11 77.3467 176.91 77.32C176.71 77.2933 176.49 77.2933 176.25 77.32C176.023 77.3467 175.817 77.4 175.63 77.48C175.337 77.6267 175.103 77.8533 174.93 78.16C174.757 78.4533 174.643 78.7733 174.59 79.12C174.537 79.4533 174.543 79.7933 174.61 80.14C174.69 80.4867 174.837 80.78 175.05 81.02C175.21 81.2067 175.417 81.36 175.67 81.48C175.937 81.6 176.19 81.6733 176.43 81.7C176.657 81.7267 176.883 81.7267 177.11 81.7C177.337 81.66 177.557 81.6067 177.77 81.54C177.93 81.4733 178.11 81.3867 178.31 81.28C178.51 81.16 178.703 81.0867 178.89 81.06C179.13 81.06 179.317 81.1267 179.45 81.26C179.583 81.38 179.677 81.5333 179.73 81.72C179.783 81.8933 179.79 82.08 179.75 82.28C179.723 82.48 179.65 82.6533 179.53 82.8C179.37 83 179.143 83.1933 178.85 83.38C178.557 83.5533 178.277 83.68 178.01 83.76C177.69 83.8667 177.33 83.9267 176.93 83.94C176.543 83.9533 176.177 83.94 175.83 83.9C175.67 83.8733 175.503 83.84 175.33 83.8C175.157 83.76 174.99 83.7133 174.83 83.66C174.243 83.4467 173.75 83.1467 173.35 82.76C172.963 82.36 172.663 81.9133 172.45 81.42C172.25 80.9267 172.137 80.4 172.11 79.84C172.083 79.28 172.15 78.7267 172.31 78.18C172.457 77.66 172.637 77.22 172.85 76.86C173.077 76.5 173.337 76.2067 173.63 75.98C173.937 75.74 174.277 75.5533 174.65 75.42C175.023 75.2733 175.437 75.1467 175.89 75.04C176.357 74.9467 176.85 74.9467 177.37 75.04C177.89 75.1333 178.357 75.3067 178.77 75.56C179.09 75.7333 179.357 75.98 179.57 76.3ZM183.888 76.42C183.888 76.7933 183.888 77.2133 183.888 77.68C183.902 78.1467 183.908 78.6333 183.908 79.14C183.908 79.6333 183.908 80.1267 183.908 80.62C183.908 81.1 183.902 81.5467 183.888 81.96C183.875 82.16 183.855 82.38 183.828 82.62C183.802 82.8467 183.748 83.06 183.668 83.26C183.588 83.46 183.462 83.6267 183.288 83.76C183.128 83.88 182.908 83.9333 182.628 83.92C182.215 83.8933 181.915 83.7133 181.728 83.38C181.555 83.0467 181.455 82.58 181.428 81.98C181.428 81.6733 181.422 81.32 181.408 80.92C181.408 80.52 181.402 80.1133 181.388 79.7C181.388 79.2867 181.388 78.8867 181.388 78.5C181.388 78.1 181.388 77.74 181.388 77.42C181.388 77.2333 181.382 77.0067 181.368 76.74C181.368 76.4733 181.375 76.2 181.388 75.92C181.402 75.64 181.435 75.3733 181.488 75.12C181.542 74.8533 181.628 74.6333 181.748 74.46C181.842 74.3533 181.975 74.2733 182.148 74.22C182.322 74.1533 182.502 74.12 182.688 74.12C182.888 74.12 183.075 74.1533 183.248 74.22C183.435 74.2867 183.568 74.38 183.648 74.5C183.702 74.58 183.742 74.6933 183.768 74.84C183.795 74.9867 183.815 75.1533 183.828 75.34C183.855 75.5133 183.868 75.7 183.868 75.9C183.882 76.0867 183.888 76.26 183.888 76.42ZM183.128 72.38C182.715 72.4867 182.368 72.4467 182.088 72.26C181.822 72.06 181.655 71.7667 181.588 71.38C181.535 71.1 181.555 70.8533 181.648 70.64C181.742 70.4267 181.882 70.2667 182.068 70.16C182.255 70.04 182.468 69.9867 182.708 70C182.948 70.0133 183.188 70.1067 183.428 70.28C183.655 70.44 183.815 70.6267 183.908 70.84C184.015 71.0533 184.048 71.26 184.008 71.46C183.982 71.66 183.895 71.8467 183.748 72.02C183.602 72.18 183.395 72.3 183.128 72.38ZM191.246 75C191.632 75.16 191.986 75.3933 192.306 75.7C192.626 75.9933 192.899 76.3333 193.126 76.72C193.366 77.1067 193.546 77.5267 193.666 77.98C193.799 78.42 193.866 78.8667 193.866 79.32C193.879 80 193.719 80.64 193.386 81.24C193.066 81.84 192.539 82.3 191.806 82.62C191.246 82.8467 190.666 83.02 190.066 83.14C189.479 83.2467 188.866 83.32 188.226 83.36V87.02C188.226 87.1 188.212 87.1733 188.186 87.24C188.172 87.3067 188.166 87.3733 188.166 87.44C188.139 87.5733 188.106 87.6933 188.066 87.8C188.039 87.9067 187.999 88.02 187.946 88.14C187.892 88.22 187.839 88.2933 187.786 88.36C187.732 88.4267 187.672 88.4933 187.606 88.56C187.286 88.72 186.952 88.7533 186.606 88.66C186.392 88.6467 186.219 88.58 186.086 88.46C185.966 88.34 185.879 88.2133 185.826 88.08C185.772 87.9467 185.726 87.7933 185.686 87.62C185.672 87.5533 185.659 87.4867 185.646 87.42C185.646 87.3667 185.646 87.3067 185.646 87.24V76.1C185.646 76.02 185.646 75.94 185.646 75.86C185.659 75.7667 185.672 75.6733 185.686 75.58C185.699 75.42 185.739 75.26 185.806 75.1C185.926 74.7667 186.172 74.54 186.546 74.42C186.919 74.3 187.339 74.2467 187.806 74.26C188.126 74.2733 188.452 74.3067 188.786 74.36C189.132 74.4133 189.459 74.48 189.766 74.56C190.086 74.6267 190.372 74.7 190.626 74.78C190.879 74.86 191.086 74.9333 191.246 75ZM191.286 79.32C191.339 78.9467 191.292 78.6333 191.146 78.38C191.012 78.1133 190.819 77.9 190.566 77.74C190.312 77.5667 190.019 77.4333 189.686 77.34C189.366 77.2467 189.046 77.18 188.726 77.14C188.686 77.1267 188.619 77.12 188.526 77.12C188.446 77.12 188.352 77.12 188.246 77.12C188.246 77.5467 188.246 77.96 188.246 78.36C188.259 78.7467 188.259 79.1667 188.246 79.62V80.96C188.552 80.9467 188.872 80.9133 189.206 80.86C189.552 80.8067 189.872 80.72 190.166 80.6C190.459 80.48 190.706 80.32 190.906 80.12C191.119 79.92 191.246 79.6533 191.286 79.32ZM197.829 75.58C198.229 75.38 198.649 75.24 199.089 75.16C199.529 75.0667 199.963 75.0467 200.389 75.1C200.829 75.14 201.249 75.2533 201.649 75.44C202.049 75.6133 202.423 75.8667 202.769 76.2C203.116 76.5467 203.383 76.9267 203.569 77.34C203.756 77.7533 203.889 78.2133 203.969 78.72C204.023 79.0667 204.109 79.3867 204.229 79.68C204.349 79.9733 204.476 80.2667 204.609 80.56C204.756 80.8533 204.889 81.1467 205.009 81.44C205.143 81.7333 205.249 82.04 205.329 82.36C205.396 82.6667 205.369 82.9667 205.249 83.26C205.143 83.54 204.916 83.7133 204.569 83.78C204.369 83.82 204.176 83.8067 203.989 83.74C203.816 83.66 203.656 83.5533 203.509 83.42C203.363 83.2733 203.229 83.12 203.109 82.96C203.003 82.7867 202.903 82.6267 202.809 82.48C202.503 82.88 202.169 83.1933 201.809 83.42C201.449 83.6333 201.016 83.7733 200.509 83.84C200.083 83.8933 199.676 83.9067 199.289 83.88C198.903 83.8533 198.489 83.78 198.049 83.66C197.476 83.5133 197.003 83.26 196.629 82.9C196.269 82.5267 195.989 82.1 195.789 81.62C195.603 81.1267 195.503 80.6 195.489 80.04C195.476 79.48 195.543 78.9267 195.689 78.38C195.876 77.66 196.156 77.0733 196.529 76.62C196.903 76.1667 197.336 75.82 197.829 75.58ZM198.329 77.92C198.143 78.1067 197.996 78.3267 197.889 78.58C197.783 78.8333 197.716 79.1 197.689 79.38C197.676 79.66 197.703 79.94 197.769 80.22C197.836 80.5 197.943 80.7467 198.089 80.96C198.223 81.1467 198.449 81.3067 198.769 81.44C199.089 81.56 199.423 81.6333 199.769 81.66C200.169 81.6867 200.516 81.58 200.809 81.34C201.116 81.1 201.343 80.8 201.489 80.44C201.649 80.0667 201.723 79.6733 201.709 79.26C201.696 78.8333 201.583 78.4467 201.369 78.1C201.209 77.8467 200.996 77.66 200.729 77.54C200.476 77.42 200.203 77.36 199.909 77.36C199.616 77.3467 199.323 77.3933 199.029 77.5C198.749 77.5933 198.516 77.7333 198.329 77.92ZM213.17 75.18C213.277 75.4333 213.283 75.7133 213.19 76.02C213.11 76.3267 212.957 76.5267 212.73 76.62C212.61 76.6733 212.45 76.72 212.25 76.76C212.05 76.7867 211.83 76.8133 211.59 76.84C211.363 76.8667 211.137 76.8867 210.91 76.9C210.683 76.9133 210.49 76.92 210.33 76.92C210.343 77.32 210.357 77.7333 210.37 78.16C210.383 78.5733 210.397 78.98 210.41 79.38C210.423 79.78 210.43 80.1667 210.43 80.54C210.43 80.9 210.423 81.2267 210.41 81.52C210.41 81.72 210.41 81.9533 210.41 82.22C210.41 82.4733 210.39 82.72 210.35 82.96C210.323 83.2 210.277 83.4133 210.21 83.6C210.143 83.7733 210.043 83.8867 209.91 83.94C209.497 84.1133 209.117 84.16 208.77 84.08C208.437 84.0133 208.197 83.8733 208.05 83.66C207.943 83.4867 207.863 83.2867 207.81 83.06C207.757 82.82 207.717 82.58 207.69 82.34C207.677 82.0867 207.67 81.8467 207.67 81.62C207.683 81.38 207.69 81.1733 207.69 81C207.703 80.44 207.71 79.8067 207.71 79.1C207.723 78.38 207.73 77.66 207.73 76.94H207.43C207.27 76.94 207.063 76.94 206.81 76.94C206.57 76.9267 206.323 76.9067 206.07 76.88C205.83 76.84 205.603 76.7933 205.39 76.74C205.177 76.6733 205.023 76.58 204.93 76.46C204.783 76.2867 204.69 76.1 204.65 75.9C204.623 75.7 204.637 75.5133 204.69 75.34C204.757 75.1533 204.857 74.9933 204.99 74.86C205.123 74.7133 205.277 74.62 205.45 74.58C205.69 74.5133 206.03 74.48 206.47 74.48C206.91 74.4667 207.323 74.4667 207.71 74.48C207.697 74.3467 207.69 74.22 207.69 74.1C207.69 73.9667 207.683 73.84 207.67 73.72C207.657 73.56 207.65 73.36 207.65 73.12C207.65 72.8667 207.663 72.62 207.69 72.38C207.73 72.1267 207.79 71.8933 207.87 71.68C207.95 71.4533 208.063 71.28 208.21 71.16C208.41 71 208.61 70.9133 208.81 70.9C209.023 70.8733 209.217 70.9 209.39 70.98C209.577 71.06 209.73 71.18 209.85 71.34C209.983 71.4867 210.077 71.6533 210.13 71.84C210.17 72 210.203 72.1933 210.23 72.42C210.257 72.6333 210.27 72.86 210.27 73.1C210.283 73.34 210.29 73.58 210.29 73.82C210.29 74.06 210.29 74.28 210.29 74.48H210.49C210.69 74.48 210.923 74.4733 211.19 74.46C211.457 74.4467 211.717 74.4533 211.97 74.48C212.237 74.5067 212.477 74.5733 212.69 74.68C212.903 74.7733 213.063 74.94 213.17 75.18ZM220.984 81.26C221.144 81.22 221.304 81.1933 221.464 81.18C221.637 81.1667 221.79 81.1867 221.924 81.24C222.07 81.2933 222.19 81.3867 222.284 81.52C222.377 81.64 222.424 81.8133 222.424 82.04C222.424 82.2 222.384 82.3533 222.304 82.5C222.224 82.6467 222.124 82.78 222.004 82.9C221.884 83.02 221.75 83.1267 221.604 83.22C221.457 83.3 221.317 83.3667 221.184 83.42C220.797 83.5933 220.35 83.7267 219.844 83.82C219.35 83.9133 218.837 83.9467 218.304 83.92C217.584 83.8933 216.89 83.7533 216.224 83.5C215.57 83.2333 215.057 82.8 214.684 82.2C214.337 81.6133 214.13 80.96 214.064 80.24C213.997 79.52 214.03 78.84 214.164 78.2C214.31 77.4267 214.557 76.8 214.904 76.32C215.264 75.8267 215.69 75.4333 216.184 75.14C216.784 74.7933 217.457 74.6133 218.204 74.6C218.95 74.5867 219.664 74.7333 220.344 75.04C220.797 75.24 221.204 75.5133 221.564 75.86C221.924 76.1933 222.197 76.6 222.384 77.08C222.437 77.2 222.477 77.3467 222.504 77.52C222.544 77.6933 222.57 77.88 222.584 78.08C222.597 78.2667 222.597 78.4533 222.584 78.64C222.57 78.8267 222.537 78.9933 222.484 79.14C222.404 79.38 222.304 79.5667 222.184 79.7C222.064 79.8333 221.91 79.9333 221.724 80C221.537 80.0667 221.31 80.1133 221.044 80.14C220.79 80.1533 220.484 80.1667 220.124 80.18C219.804 80.1933 219.504 80.2 219.224 80.2C218.944 80.2 218.657 80.2 218.364 80.2C218.07 80.1867 217.764 80.18 217.444 80.18C217.137 80.1667 216.79 80.1533 216.404 80.14C216.364 80.4067 216.397 80.64 216.504 80.84C216.624 81.0267 216.784 81.1867 216.984 81.32C217.184 81.44 217.41 81.5333 217.664 81.6C217.917 81.6667 218.164 81.7067 218.404 81.72C218.857 81.7467 219.29 81.7133 219.704 81.62C220.117 81.5133 220.544 81.3933 220.984 81.26ZM220.124 77.38C219.87 77.0867 219.604 76.8733 219.324 76.74C219.11 76.6467 218.884 76.6067 218.644 76.62C218.417 76.62 218.197 76.6533 217.984 76.72C217.597 76.8133 217.27 77.0133 217.004 77.32C216.977 77.3467 216.93 77.4133 216.864 77.52C216.797 77.6133 216.73 77.7133 216.664 77.82C216.61 77.9267 216.57 78.0267 216.544 78.12C216.517 78.2133 216.53 78.26 216.584 78.26H220.504C220.49 78.0733 220.457 77.92 220.404 77.8C220.35 77.6667 220.257 77.5267 220.124 77.38ZM224.68 73.5C224.627 73.1533 224.6 72.8 224.6 72.44C224.614 72.08 224.68 71.7267 224.8 71.38C224.947 70.9267 225.187 70.5267 225.52 70.18C225.854 69.8333 226.234 69.56 226.66 69.36C227.114 69.1467 227.574 69 228.04 68.92C228.52 68.8267 228.987 68.8067 229.44 68.86C229.907 68.9133 230.354 69.0333 230.78 69.22C231.22 69.3933 231.634 69.6467 232.02 69.98C232.434 70.34 232.74 70.76 232.94 71.24C233.154 71.7067 233.267 72.1933 233.28 72.7C233.307 73.2067 233.247 73.7133 233.1 74.22C232.967 74.7133 232.76 75.1733 232.48 75.6C232.48 75.6 232.474 75.6133 232.46 75.64C232.234 75.9467 231.974 76.2267 231.68 76.48C231.387 76.72 231.114 76.98 230.86 77.26C230.567 77.5667 230.394 77.88 230.34 78.2C230.287 78.5067 230.234 78.8533 230.18 79.24C230.14 79.6133 230.04 79.94 229.88 80.22C229.734 80.4867 229.454 80.6133 229.04 80.6C228.76 80.5867 228.547 80.5 228.4 80.34C228.267 80.1667 228.167 79.9667 228.1 79.74C228.047 79.5 228.027 79.2533 228.04 79C228.054 78.7333 228.074 78.5 228.1 78.3C228.18 77.8333 228.327 77.3933 228.54 76.98C228.754 76.5533 229.014 76.1533 229.32 75.78C229.494 75.58 229.667 75.4 229.84 75.24C230.014 75.0667 230.174 74.8867 230.32 74.7C230.467 74.5133 230.594 74.3133 230.7 74.1C230.807 73.8867 230.88 73.64 230.92 73.36C230.96 73.1067 230.94 72.8533 230.86 72.6C230.78 72.3333 230.66 72.1 230.5 71.9C230.34 71.6867 230.147 71.5133 229.92 71.38C229.694 71.2333 229.447 71.1533 229.18 71.14C228.94 71.1267 228.687 71.16 228.42 71.24C228.154 71.3067 227.907 71.42 227.68 71.58C227.454 71.7267 227.267 71.9067 227.12 72.12C226.987 72.3333 226.927 72.5733 226.94 72.84C226.954 73 226.98 73.1667 227.02 73.34C227.074 73.5 227.107 73.66 227.12 73.82C227.147 73.9667 227.14 74.1133 227.1 74.26C227.074 74.4067 226.987 74.5467 226.84 74.68C226.6 74.9067 226.36 75.02 226.12 75.02C225.88 75.0067 225.66 74.9267 225.46 74.78C225.26 74.6333 225.087 74.4467 224.94 74.22C224.807 73.98 224.72 73.74 224.68 73.5ZM230.44 83.48C230.44 83.8667 230.294 84.2133 230 84.52C229.72 84.8133 229.394 84.96 229.02 84.96C228.66 84.96 228.34 84.8133 228.06 84.52C227.78 84.2 227.64 83.8533 227.64 83.48C227.64 83.0667 227.78 82.72 228.06 82.44C228.34 82.1333 228.66 81.98 229.02 81.98C229.394 81.98 229.72 82.1333 230 82.44C230.294 82.7333 230.44 83.08 230.44 83.48Z" fill="black"/>
</g>
<defs>
<filter id="filter0_d_450_773" x="0" y="0" width="362" height="432" filterUnits="userSpaceOnUse" color-interpolation-filters="sRGB">
<feFlood flood-opacity="0" result="BackgroundImageFix"/>
<feColorMatrix in="SourceAlpha" type="matrix" values="0 0 0 0 0 0 0 0 0 0 0 0 0 0 0 0 0 0 127 0" result="hardAlpha"/>
<feOffset dy="4"/>
<feGaussianBlur stdDeviation="2"/>
<feComposite in2="hardAlpha" operator="out"/>
<feColorMatrix type="matrix" values="0 0 0 0 0 0 0 0 0 0 0 0 0 0 0 0 0 0 0.25 0"/>
<feBlend mode="normal" in2="BackgroundImageFix" result="effect1_dropShadow_450_773"/>
<feBlend mode="normal" in="SourceGraphic" in2="effect1_dropShadow_450_773" result="shape"/>
</filter>
<clipPath id="clip0_450_773">
<rect width="354" height="424" fill="white" transform="translate(4)"/>
</clipPath>
</defs>
</svg>
