<svg width="362" height="432" viewBox="0 0 362 432" fill="none" xmlns="http://www.w3.org/2000/svg">
<g clip-path="url(#clip0_450_777)" filter="url(#filter0_d_450_777)">
<path d="M45 0H313.5L358 424H4L45 0Z" fill="white"/>
<line x1="55.0263" y1="430.24" x2="87.0263" y2="-31.7601" stroke="#FFF2EE" stroke-width="22"/>
<line x1="120.007" y1="430.619" x2="136.007" y2="-31.3807" stroke="#FFC973" stroke-width="22"/>
<line x1="120.007" y1="430.619" x2="136.007" y2="-31.3807" stroke="#FFF2EE" stroke-width="22"/>
<line x1="188.001" y1="431.119" x2="183.001" y2="-30.881" stroke="#FFF2EE" stroke-width="22"/>
<line x1="249.011" y1="431.499" x2="228.011" y2="-30.5005" stroke="#FFF2EE" stroke-width="22"/>
<line x1="312.03" y1="431.807" x2="278.03" y2="-30.1927" stroke="#FFF2EE" stroke-width="22"/>
<line x1="6" y1="383" x2="354" y2="383" stroke="#FFF3F3" style="mix-blend-mode:multiply" stroke-width="18"/>
<line x1="41" y1="31" x2="317" y2="31" stroke="#FFF3F3" style="mix-blend-mode:multiply" stroke-width="18"/>
<path d="M104.194 45.82C104.207 45.9133 104.214 46 104.214 46.08C104.214 46.16 104.214 46.24 104.214 46.32V47.14L104.094 57.52V57.72C104.094 57.8 104.074 57.92 104.034 58.08C104.021 58.1467 104.001 58.22 103.974 58.3C103.947 58.3667 103.921 58.44 103.894 58.52C103.827 58.68 103.734 58.8 103.614 58.88C103.507 58.9867 103.334 59.06 103.094 59.1C102.721 59.18 102.381 59.1467 102.074 59C101.901 58.8933 101.781 58.76 101.714 58.6C101.687 58.5733 101.661 58.5333 101.634 58.48C101.634 58.4533 101.621 58.4133 101.594 58.36C101.567 58.2933 101.547 58.2267 101.534 58.16C101.521 58.08 101.507 58 101.494 57.92C101.494 57.8533 101.487 57.7867 101.474 57.72C101.474 57.6533 101.467 57.5867 101.454 57.52C101.427 57.4533 101.414 57.4 101.414 57.36C101.414 57.3067 101.414 57.2467 101.414 57.18C101.441 57.1267 101.454 57.0267 101.454 56.88L101.474 55.3L101.494 52.78H100.414L96.354 52.8L96.314 57.52V57.72C96.314 57.8 96.294 57.92 96.254 58.08C96.2407 58.1467 96.2207 58.22 96.194 58.3C96.1673 58.3667 96.1407 58.44 96.114 58.52C96.0473 58.68 95.954 58.8 95.834 58.88C95.7273 58.9867 95.554 59.06 95.314 59.1C94.9407 59.18 94.6007 59.1467 94.294 59C94.1607 58.92 94.034 58.7867 93.914 58.6C93.8873 58.5467 93.874 58.5067 93.874 58.48L93.814 58.36C93.7873 58.2933 93.7673 58.2267 93.754 58.16C93.7407 58.08 93.7273 58 93.714 57.92C93.714 57.8533 93.7073 57.7867 93.694 57.72C93.6807 57.6533 93.6673 57.5867 93.654 57.52C93.6407 57.4133 93.6407 57.3 93.654 57.18V56.88L93.674 55.3L93.714 52.36C93.7273 51.9333 93.734 51.4933 93.734 51.04C93.734 50.5867 93.734 50.12 93.734 49.64C93.7207 49.16 93.714 48.7333 93.714 48.36C93.7273 47.9867 93.7473 47.5667 93.774 47.1V47.02C93.7873 46.8867 93.794 46.7533 93.794 46.62C93.794 46.4733 93.8007 46.3267 93.814 46.18C93.8273 46.0467 93.8473 45.92 93.874 45.8C93.914 45.6667 93.9673 45.5333 94.034 45.4C94.074 45.2933 94.1273 45.2067 94.194 45.14C94.2607 45.06 94.3407 44.9867 94.434 44.92C94.6473 44.8133 94.8607 44.76 95.074 44.76C95.1807 44.76 95.274 44.7667 95.354 44.78C95.434 44.78 95.514 44.7867 95.594 44.8C95.754 44.8133 95.9073 44.8933 96.054 45.04C96.1607 45.1333 96.234 45.24 96.274 45.36C96.3407 45.5333 96.3807 45.6867 96.394 45.82C96.4073 45.9133 96.414 46 96.414 46.08C96.414 46.16 96.414 46.24 96.414 46.32V47.14L96.374 50.44C96.4807 50.44 96.6007 50.44 96.734 50.44C96.8807 50.44 97.0473 50.4333 97.234 50.42C97.9273 50.42 98.614 50.4267 99.294 50.44C99.9873 50.4533 100.714 50.46 101.474 50.46H101.494C101.494 49.86 101.494 49.2867 101.494 48.74C101.507 48.1933 101.527 47.62 101.554 47.02C101.554 46.8867 101.554 46.7533 101.554 46.62C101.567 46.4733 101.581 46.3267 101.594 46.18C101.607 46.0467 101.627 45.92 101.654 45.8C101.694 45.6667 101.747 45.5333 101.814 45.4C101.841 45.2933 101.887 45.2067 101.954 45.14C102.034 45.06 102.127 44.9867 102.234 44.92C102.421 44.8133 102.627 44.76 102.854 44.76C102.961 44.76 103.054 44.7667 103.134 44.78C103.227 44.78 103.307 44.7867 103.374 44.8C103.561 44.8267 103.714 44.9067 103.834 45.04C103.941 45.1067 104.014 45.2133 104.054 45.36C104.081 45.44 104.101 45.52 104.114 45.6C104.141 45.6667 104.167 45.74 104.194 45.82ZM108.401 49.96C108.841 49.7467 109.301 49.5933 109.781 49.5C110.261 49.4067 110.735 49.3867 111.201 49.44C111.681 49.4933 112.141 49.62 112.581 49.82C113.035 50.02 113.448 50.3 113.821 50.66C114.128 50.9667 114.395 51.34 114.621 51.78C114.848 52.2067 115.015 52.6267 115.121 53.04C115.348 53.7733 115.381 54.5133 115.221 55.26C115.061 56.0067 114.788 56.7 114.401 57.34C114.215 57.6333 113.981 57.9 113.701 58.14C113.435 58.3667 113.148 58.5533 112.841 58.7C112.441 58.8867 112.008 59.0133 111.541 59.08C111.075 59.16 110.621 59.18 110.181 59.14C109.381 59.1 108.675 58.9 108.061 58.54C107.461 58.18 106.975 57.72 106.601 57.16C106.241 56.6 106.001 55.9667 105.881 55.26C105.775 54.54 105.821 53.8067 106.021 53.06C106.235 52.26 106.541 51.6133 106.941 51.12C107.355 50.6133 107.841 50.2267 108.401 49.96ZM109.001 52.64C108.801 52.8267 108.648 53.06 108.541 53.34C108.435 53.62 108.368 53.9133 108.341 54.22C108.315 54.5133 108.335 54.8133 108.401 55.12C108.481 55.4133 108.601 55.68 108.761 55.92C108.895 56.12 109.135 56.2867 109.481 56.42C109.828 56.5533 110.188 56.6333 110.561 56.66C110.988 56.6867 111.361 56.5733 111.681 56.32C112.001 56.0533 112.241 55.7267 112.401 55.34C112.575 54.9533 112.655 54.5333 112.641 54.08C112.628 53.6267 112.508 53.2133 112.281 52.84C112.121 52.5733 111.895 52.38 111.601 52.26C111.321 52.1267 111.021 52.06 110.701 52.06C110.395 52.0467 110.088 52.0933 109.781 52.2C109.475 52.2933 109.215 52.44 109.001 52.64ZM128.575 50C128.695 50.1733 128.735 50.4467 128.695 50.82C128.669 51.18 128.602 51.5733 128.495 52C128.389 52.4133 128.262 52.8267 128.115 53.24C127.969 53.64 127.849 53.9733 127.755 54.24C127.529 54.8533 127.329 55.4267 127.155 55.96C126.982 56.4933 126.775 57.08 126.535 57.72C126.455 57.9067 126.375 58.0933 126.295 58.28C126.229 58.4667 126.142 58.6333 126.035 58.78C125.942 58.9267 125.822 59.0467 125.675 59.14C125.542 59.2333 125.375 59.28 125.175 59.28C124.949 59.28 124.749 59.2 124.575 59.04C124.415 58.88 124.275 58.68 124.155 58.44C124.049 58.2 123.955 57.9467 123.875 57.68C123.795 57.4133 123.729 57.18 123.675 56.98C123.502 56.3933 123.349 55.86 123.215 55.38C123.082 54.8867 122.962 54.4467 122.855 54.06C122.735 54.4467 122.615 54.8667 122.495 55.32C122.375 55.7733 122.222 56.2867 122.035 56.86C121.982 57.06 121.915 57.3067 121.835 57.6C121.755 57.88 121.655 58.1467 121.535 58.4C121.429 58.6533 121.289 58.8667 121.115 59.04C120.955 59.2267 120.762 59.3067 120.535 59.28C120.215 59.2667 119.935 59.14 119.695 58.9C119.469 58.6467 119.269 58.3467 119.095 58C118.935 57.6533 118.795 57.2933 118.675 56.92C118.555 56.5467 118.455 56.22 118.375 55.94C118.269 55.58 118.142 55.18 117.995 54.74C117.849 54.3 117.702 53.8533 117.555 53.4C117.422 52.9333 117.295 52.4733 117.175 52.02C117.055 51.5533 116.975 51.1267 116.935 50.74C116.909 50.4867 116.955 50.2533 117.075 50.04C117.209 49.8267 117.375 49.68 117.575 49.6C117.789 49.5067 118.015 49.4867 118.255 49.54C118.509 49.5933 118.735 49.7533 118.935 50.02C119.042 50.1533 119.135 50.32 119.215 50.52C119.309 50.72 119.389 50.94 119.455 51.18C119.522 51.4067 119.589 51.64 119.655 51.88C119.722 52.12 119.789 52.3533 119.855 52.58C120.002 53.0867 120.122 53.4867 120.215 53.78C120.322 54.06 120.429 54.3533 120.535 54.66C120.629 54.3533 120.722 54.06 120.815 53.78C120.922 53.4867 121.049 53.0867 121.195 52.58C121.249 52.42 121.309 52.24 121.375 52.04C121.455 51.8267 121.535 51.6267 121.615 51.44C121.709 51.2533 121.809 51.08 121.915 50.92C122.035 50.7467 122.162 50.62 122.295 50.54C122.589 50.34 122.855 50.2933 123.095 50.4C123.335 50.4933 123.542 50.66 123.715 50.9C123.889 51.14 124.035 51.42 124.155 51.74C124.289 52.0467 124.395 52.3267 124.475 52.58C124.555 52.8467 124.629 53.08 124.695 53.28C124.762 53.4667 124.822 53.64 124.875 53.8C124.929 53.96 124.975 54.1133 125.015 54.26C125.069 54.4067 125.122 54.56 125.175 54.72C125.229 54.56 125.275 54.4067 125.315 54.26C125.369 54.1133 125.422 53.96 125.475 53.8C125.529 53.64 125.589 53.4667 125.655 53.28C125.722 53.08 125.795 52.8467 125.875 52.58C125.929 52.4067 125.982 52.2067 126.035 51.98C126.102 51.7533 126.169 51.5267 126.235 51.3C126.302 51.06 126.369 50.8333 126.435 50.62C126.515 50.4067 126.602 50.2267 126.695 50.08C126.789 49.9333 126.915 49.8133 127.075 49.72C127.235 49.6133 127.402 49.5533 127.575 49.54C127.749 49.5133 127.922 49.5333 128.095 49.6C128.282 49.6667 128.442 49.8 128.575 50ZM147.169 54.34C147.196 54.7667 147.209 55.1733 147.209 55.56C147.209 55.9333 147.196 56.3333 147.169 56.76C147.169 56.92 147.169 57.1 147.169 57.3C147.169 57.5 147.156 57.6933 147.129 57.88C147.103 58.0667 147.056 58.24 146.989 58.4C146.923 58.56 146.823 58.6867 146.689 58.78C146.529 58.8867 146.349 58.96 146.149 59C145.949 59.0267 145.763 59.0133 145.589 58.96C145.416 58.9067 145.263 58.8067 145.129 58.66C145.009 58.5133 144.943 58.3067 144.929 58.04C144.889 57.4267 144.869 56.8133 144.869 56.2C144.869 55.8933 144.863 55.6 144.849 55.32C144.849 55.04 144.856 54.6467 144.869 54.14C144.869 53.8867 144.849 53.6 144.809 53.28C144.769 52.9467 144.669 52.7133 144.509 52.58C144.389 52.4733 144.256 52.4133 144.109 52.4C143.963 52.3733 143.816 52.3867 143.669 52.44C143.536 52.4933 143.416 52.5933 143.309 52.74C143.203 52.8733 143.129 53.0467 143.089 53.26C143.089 53.4333 143.083 53.6133 143.069 53.8C143.069 53.9733 143.076 54.14 143.089 54.3C143.103 54.7267 143.109 55.1333 143.109 55.52C143.109 55.8933 143.103 56.2933 143.089 56.72C143.076 56.8933 143.069 57.08 143.069 57.28C143.083 57.48 143.083 57.68 143.069 57.88C143.056 58.0667 143.016 58.24 142.949 58.4C142.896 58.56 142.796 58.6867 142.649 58.78C142.489 58.8867 142.316 58.9533 142.129 58.98C141.956 58.9933 141.789 58.9667 141.629 58.9C141.483 58.82 141.349 58.7 141.229 58.54C141.123 58.38 141.063 58.1667 141.049 57.9C141.023 57.5933 141.003 57.3133 140.989 57.06C140.989 56.7933 140.989 56.5133 140.989 56.22C140.989 55.9133 140.996 55.6 141.009 55.28C141.023 54.9467 141.016 54.6267 140.989 54.32C140.989 54.2267 140.983 54.12 140.969 54C140.969 53.8667 140.963 53.7333 140.949 53.6C140.949 53.4667 140.936 53.34 140.909 53.22C140.896 53.0867 140.869 52.98 140.829 52.9C140.723 52.7133 140.529 52.5933 140.249 52.54C139.983 52.4867 139.756 52.5067 139.569 52.6C139.383 52.6933 139.243 52.8133 139.149 52.96C139.056 53.1067 138.989 53.2667 138.949 53.44C138.909 53.6133 138.889 53.8 138.889 54C138.889 54.1867 138.889 54.3667 138.889 54.54C138.889 55.4067 138.889 56.16 138.889 56.8C138.903 57.4267 138.836 57.9333 138.689 58.32C138.623 58.52 138.483 58.6733 138.269 58.78C138.069 58.8867 137.849 58.94 137.609 58.94C137.383 58.94 137.169 58.8867 136.969 58.78C136.769 58.6733 136.636 58.5067 136.569 58.28C136.529 58.1333 136.489 57.9267 136.449 57.66C136.423 57.38 136.403 57.0733 136.389 56.74C136.376 56.4067 136.369 56.0733 136.369 55.74C136.369 55.3933 136.369 55.08 136.369 54.8V51.92C136.356 51.6133 136.349 51.28 136.349 50.92C136.349 50.56 136.403 50.2333 136.509 49.94C136.603 49.6867 136.749 49.5267 136.949 49.46C137.149 49.38 137.356 49.3467 137.569 49.36C137.809 49.36 137.996 49.4267 138.129 49.56C138.276 49.68 138.383 49.8333 138.449 50.02C138.516 50.1933 138.556 50.3933 138.569 50.62C138.583 50.8333 138.596 51.04 138.609 51.24C138.756 50.9067 138.929 50.6333 139.129 50.42C139.343 50.1933 139.643 50.0467 140.029 49.98C141.016 49.7933 141.803 50.0467 142.389 50.74C142.656 50.4733 142.996 50.2533 143.409 50.08C143.729 49.96 144.056 49.9067 144.389 49.92C144.723 49.92 145.036 49.98 145.329 50.1C145.636 50.22 145.909 50.3933 146.149 50.62C146.403 50.8467 146.603 51.12 146.749 51.44C146.949 51.8667 147.063 52.34 147.089 52.86C147.116 53.38 147.143 53.8733 147.169 54.34ZM151.15 50.58C151.55 50.38 151.97 50.24 152.41 50.16C152.85 50.0667 153.283 50.0467 153.71 50.1C154.15 50.14 154.57 50.2533 154.97 50.44C155.37 50.6133 155.743 50.8667 156.09 51.2C156.436 51.5467 156.703 51.9267 156.89 52.34C157.076 52.7533 157.21 53.2133 157.29 53.72C157.343 54.0667 157.43 54.3867 157.55 54.68C157.67 54.9733 157.796 55.2667 157.93 55.56C158.076 55.8533 158.21 56.1467 158.33 56.44C158.463 56.7333 158.57 57.04 158.65 57.36C158.716 57.6667 158.69 57.9667 158.57 58.26C158.463 58.54 158.236 58.7133 157.89 58.78C157.69 58.82 157.496 58.8067 157.31 58.74C157.136 58.66 156.976 58.5533 156.83 58.42C156.683 58.2733 156.55 58.12 156.43 57.96C156.323 57.7867 156.223 57.6267 156.13 57.48C155.823 57.88 155.49 58.1933 155.13 58.42C154.77 58.6333 154.336 58.7733 153.83 58.84C153.403 58.8933 152.996 58.9067 152.61 58.88C152.223 58.8533 151.81 58.78 151.37 58.66C150.796 58.5133 150.323 58.26 149.95 57.9C149.59 57.5267 149.31 57.1 149.11 56.62C148.923 56.1267 148.823 55.6 148.81 55.04C148.796 54.48 148.863 53.9267 149.01 53.38C149.196 52.66 149.476 52.0733 149.85 51.62C150.223 51.1667 150.656 50.82 151.15 50.58ZM151.65 52.92C151.463 53.1067 151.316 53.3267 151.21 53.58C151.103 53.8333 151.036 54.1 151.01 54.38C150.996 54.66 151.023 54.94 151.09 55.22C151.156 55.5 151.263 55.7467 151.41 55.96C151.543 56.1467 151.77 56.3067 152.09 56.44C152.41 56.56 152.743 56.6333 153.09 56.66C153.49 56.6867 153.836 56.58 154.13 56.34C154.436 56.1 154.663 55.8 154.81 55.44C154.97 55.0667 155.043 54.6733 155.03 54.26C155.016 53.8333 154.903 53.4467 154.69 53.1C154.53 52.8467 154.316 52.66 154.05 52.54C153.796 52.42 153.523 52.36 153.23 52.36C152.936 52.3467 152.643 52.3933 152.35 52.5C152.07 52.5933 151.836 52.7333 151.65 52.92ZM160.334 51.86C160.334 51.5533 160.327 51.2267 160.314 50.88C160.314 50.5333 160.374 50.22 160.494 49.94C160.6 49.6867 160.774 49.5067 161.014 49.4C161.267 49.28 161.514 49.2533 161.754 49.32C161.994 49.36 162.18 49.4333 162.314 49.54C162.447 49.6467 162.54 49.7733 162.594 49.92C162.66 50.0533 162.7 50.2133 162.714 50.4C162.727 50.5733 162.74 50.7467 162.754 50.92C162.887 50.68 163.054 50.4867 163.254 50.34C163.454 50.1933 163.66 50.0733 163.874 49.98C164.087 49.8867 164.287 49.82 164.474 49.78C164.674 49.74 164.827 49.72 164.934 49.72C165.44 49.72 165.94 49.8333 166.434 50.06C166.94 50.2733 167.36 50.58 167.694 50.98C167.88 51.22 168.02 51.4733 168.114 51.74C168.22 51.9933 168.294 52.26 168.334 52.54C168.387 52.82 168.42 53.1067 168.434 53.4C168.447 53.68 168.46 53.9667 168.474 54.26C168.54 55.1133 168.54 55.96 168.474 56.8C168.46 56.9733 168.454 57.1733 168.454 57.4C168.454 57.6267 168.434 57.8533 168.394 58.08C168.367 58.2933 168.307 58.4867 168.214 58.66C168.134 58.82 167.994 58.92 167.794 58.96C167.514 59.0267 167.28 59.04 167.094 59C166.92 58.9733 166.78 58.9133 166.674 58.82C166.567 58.7267 166.487 58.6067 166.434 58.46C166.38 58.3133 166.334 58.1467 166.294 57.96C166.267 57.8133 166.24 57.6467 166.214 57.46C166.2 57.26 166.187 57.06 166.174 56.86C166.174 56.66 166.167 56.4667 166.154 56.28C166.154 56.08 166.154 55.9 166.154 55.74C166.154 55.4867 166.147 55.2067 166.134 54.9C166.12 54.5933 166.12 54.3067 166.134 54.04C166.134 53.4133 165.967 52.94 165.634 52.62C165.314 52.2867 164.874 52.1467 164.314 52.2C163.887 52.2533 163.514 52.4267 163.194 52.72C162.874 53 162.72 53.3667 162.734 53.82C162.734 53.9933 162.734 54.1533 162.734 54.3C162.734 54.4467 162.727 54.5933 162.714 54.74C162.714 54.8867 162.714 55.0467 162.714 55.22C162.714 55.3933 162.714 55.5867 162.714 55.8C162.714 56.24 162.714 56.7067 162.714 57.2C162.714 57.68 162.654 58.0733 162.534 58.38C162.427 58.7 162.247 58.92 161.994 59.04C161.74 59.16 161.44 59.1267 161.094 58.94C160.947 58.86 160.827 58.7533 160.734 58.62C160.654 58.4733 160.587 58.32 160.534 58.16C160.494 58 160.467 57.84 160.454 57.68C160.44 57.5067 160.427 57.3467 160.414 57.2C160.374 56.76 160.347 56.3533 160.334 55.98C160.334 55.5933 160.334 55.18 160.334 54.74V51.86ZM178.927 50.08C179.047 50.2667 179.101 50.4667 179.087 50.68C179.087 50.9867 179.034 51.2533 178.927 51.48C178.901 51.5467 178.861 51.6333 178.807 51.74C178.767 51.8467 178.721 51.96 178.667 52.08C178.627 52.2 178.581 52.3133 178.527 52.42C178.474 52.5267 178.434 52.6067 178.407 52.66L178.367 52.76C178.181 53.1733 178.001 53.5733 177.827 53.96C177.654 54.3467 177.461 54.76 177.247 55.2C177.034 55.6267 176.827 56.0467 176.627 56.46C176.441 56.86 176.254 57.2533 176.067 57.64C176.014 57.7467 175.967 57.8533 175.927 57.96C175.887 58.0533 175.834 58.1533 175.767 58.26L174.807 60.32C174.634 60.6667 174.467 61.0067 174.307 61.34C174.161 61.6733 173.994 62.0067 173.807 62.34C173.767 62.4067 173.727 62.4667 173.687 62.52C173.661 62.5867 173.634 62.6533 173.607 62.72C173.514 62.88 173.374 63.0333 173.187 63.18C173.014 63.34 172.827 63.4267 172.627 63.44C172.267 63.4667 171.954 63.36 171.687 63.12C171.527 63.0267 171.401 62.8933 171.307 62.72C171.254 62.6 171.227 62.4467 171.227 62.26C171.241 62.18 171.247 62.1 171.247 62.02C171.261 61.9533 171.274 61.8867 171.287 61.82C171.314 61.7533 171.334 61.6867 171.347 61.62C171.361 61.5533 171.381 61.5 171.407 61.46C171.447 61.3533 171.481 61.3 171.507 61.3L172.967 58.14C172.901 57.9933 172.834 57.8467 172.767 57.7C172.701 57.54 172.641 57.4 172.587 57.28C172.414 56.8667 172.227 56.4333 172.027 55.98C171.841 55.5133 171.647 55.0533 171.447 54.6C171.247 54.1333 171.041 53.68 170.827 53.24C170.614 52.8 170.401 52.38 170.187 51.98C170.107 51.8467 170.034 51.7067 169.967 51.56C169.901 51.4 169.847 51.2467 169.807 51.1C169.767 50.94 169.754 50.78 169.767 50.62C169.781 50.46 169.841 50.3 169.947 50.14C170.054 49.94 170.194 49.8 170.367 49.72C170.541 49.6267 170.721 49.5867 170.907 49.6C171.107 49.6 171.294 49.64 171.467 49.72C171.641 49.8 171.781 49.9067 171.887 50.04C172.114 50.28 172.294 50.5467 172.427 50.84C172.561 51.1333 172.687 51.4333 172.807 51.74C173.061 52.2733 173.321 52.8333 173.587 53.42C173.854 54.0067 174.121 54.58 174.387 55.14L175.427 52.94C175.534 52.7267 175.627 52.52 175.707 52.32C175.801 52.12 175.894 51.9267 175.987 51.74C176.094 51.5133 176.194 51.28 176.287 51.04C176.394 50.8 176.514 50.58 176.647 50.38C176.674 50.3267 176.701 50.28 176.727 50.24C176.754 50.2 176.781 50.1533 176.807 50.1C176.927 49.94 177.034 49.8133 177.127 49.72C177.194 49.6667 177.247 49.6267 177.287 49.6C177.341 49.56 177.401 49.5333 177.467 49.52C177.561 49.4933 177.647 49.48 177.727 49.48C177.821 49.4667 177.907 49.4667 177.987 49.48C178.121 49.52 178.281 49.58 178.467 49.66C178.667 49.74 178.821 49.88 178.927 50.08ZM192.3 50C192.687 50.16 193.04 50.3933 193.36 50.7C193.68 50.9933 193.954 51.3333 194.18 51.72C194.42 52.1067 194.6 52.5267 194.72 52.98C194.854 53.42 194.92 53.8667 194.92 54.32C194.934 55 194.774 55.64 194.44 56.24C194.12 56.84 193.594 57.3 192.86 57.62C192.3 57.8467 191.72 58.02 191.12 58.14C190.534 58.2467 189.92 58.32 189.28 58.36V62.02C189.28 62.1 189.267 62.1733 189.24 62.24C189.227 62.3067 189.22 62.3733 189.22 62.44C189.194 62.5733 189.16 62.6933 189.12 62.8C189.094 62.9067 189.054 63.02 189 63.14C188.947 63.22 188.894 63.2933 188.84 63.36C188.787 63.4267 188.727 63.4933 188.66 63.56C188.34 63.72 188.007 63.7533 187.66 63.66C187.447 63.6467 187.274 63.58 187.14 63.46C187.02 63.34 186.934 63.2133 186.88 63.08C186.827 62.9467 186.78 62.7933 186.74 62.62C186.727 62.5533 186.714 62.4867 186.7 62.42C186.7 62.3667 186.7 62.3067 186.7 62.24V51.1C186.7 51.02 186.7 50.94 186.7 50.86C186.714 50.7667 186.727 50.6733 186.74 50.58C186.754 50.42 186.794 50.26 186.86 50.1C186.98 49.7667 187.227 49.54 187.6 49.42C187.974 49.3 188.394 49.2467 188.86 49.26C189.18 49.2733 189.507 49.3067 189.84 49.36C190.187 49.4133 190.514 49.48 190.82 49.56C191.14 49.6267 191.427 49.7 191.68 49.78C191.934 49.86 192.14 49.9333 192.3 50ZM192.34 54.32C192.394 53.9467 192.347 53.6333 192.2 53.38C192.067 53.1133 191.874 52.9 191.62 52.74C191.367 52.5667 191.074 52.4333 190.74 52.34C190.42 52.2467 190.1 52.18 189.78 52.14C189.74 52.1267 189.674 52.12 189.58 52.12C189.5 52.12 189.407 52.12 189.3 52.12C189.3 52.5467 189.3 52.96 189.3 53.36C189.314 53.7467 189.314 54.1667 189.3 54.62V55.96C189.607 55.9467 189.927 55.9133 190.26 55.86C190.607 55.8067 190.927 55.72 191.22 55.6C191.514 55.48 191.76 55.32 191.96 55.12C192.174 54.92 192.3 54.6533 192.34 54.32ZM203.464 56.26C203.624 56.22 203.784 56.1933 203.944 56.18C204.117 56.1667 204.271 56.1867 204.404 56.24C204.551 56.2933 204.671 56.3867 204.764 56.52C204.857 56.64 204.904 56.8133 204.904 57.04C204.904 57.2 204.864 57.3533 204.784 57.5C204.704 57.6467 204.604 57.78 204.484 57.9C204.364 58.02 204.231 58.1267 204.084 58.22C203.937 58.3 203.797 58.3667 203.664 58.42C203.277 58.5933 202.831 58.7267 202.324 58.82C201.831 58.9133 201.317 58.9467 200.784 58.92C200.064 58.8933 199.371 58.7533 198.704 58.5C198.051 58.2333 197.537 57.8 197.164 57.2C196.817 56.6133 196.611 55.96 196.544 55.24C196.477 54.52 196.511 53.84 196.644 53.2C196.791 52.4267 197.037 51.8 197.384 51.32C197.744 50.8267 198.171 50.4333 198.664 50.14C199.264 49.7933 199.937 49.6133 200.684 49.6C201.431 49.5867 202.144 49.7333 202.824 50.04C203.277 50.24 203.684 50.5133 204.044 50.86C204.404 51.1933 204.677 51.6 204.864 52.08C204.917 52.2 204.957 52.3467 204.984 52.52C205.024 52.6933 205.051 52.88 205.064 53.08C205.077 53.2667 205.077 53.4533 205.064 53.64C205.051 53.8267 205.017 53.9933 204.964 54.14C204.884 54.38 204.784 54.5667 204.664 54.7C204.544 54.8333 204.391 54.9333 204.204 55C204.017 55.0667 203.791 55.1133 203.524 55.14C203.271 55.1533 202.964 55.1667 202.604 55.18C202.284 55.1933 201.984 55.2 201.704 55.2C201.424 55.2 201.137 55.2 200.844 55.2C200.551 55.1867 200.244 55.18 199.924 55.18C199.617 55.1667 199.271 55.1533 198.884 55.14C198.844 55.4067 198.877 55.64 198.984 55.84C199.104 56.0267 199.264 56.1867 199.464 56.32C199.664 56.44 199.891 56.5333 200.144 56.6C200.397 56.6667 200.644 56.7067 200.884 56.72C201.337 56.7467 201.771 56.7133 202.184 56.62C202.597 56.5133 203.024 56.3933 203.464 56.26ZM202.604 52.38C202.351 52.0867 202.084 51.8733 201.804 51.74C201.591 51.6467 201.364 51.6067 201.124 51.62C200.897 51.62 200.677 51.6533 200.464 51.72C200.077 51.8133 199.751 52.0133 199.484 52.32C199.457 52.3467 199.411 52.4133 199.344 52.52C199.277 52.6133 199.211 52.7133 199.144 52.82C199.091 52.9267 199.051 53.0267 199.024 53.12C198.997 53.2133 199.011 53.26 199.064 53.26H202.984C202.971 53.0733 202.937 52.92 202.884 52.8C202.831 52.6667 202.737 52.5267 202.604 52.38ZM209.261 49.96C209.701 49.7467 210.161 49.5933 210.641 49.5C211.121 49.4067 211.594 49.3867 212.061 49.44C212.541 49.4933 213.001 49.62 213.441 49.82C213.894 50.02 214.308 50.3 214.681 50.66C214.988 50.9667 215.254 51.34 215.481 51.78C215.708 52.2067 215.874 52.6267 215.981 53.04C216.208 53.7733 216.241 54.5133 216.081 55.26C215.921 56.0067 215.648 56.7 215.261 57.34C215.074 57.6333 214.841 57.9 214.561 58.14C214.294 58.3667 214.008 58.5533 213.701 58.7C213.301 58.8867 212.868 59.0133 212.401 59.08C211.934 59.16 211.481 59.18 211.041 59.14C210.241 59.1 209.534 58.9 208.921 58.54C208.321 58.18 207.834 57.72 207.461 57.16C207.101 56.6 206.861 55.9667 206.741 55.26C206.634 54.54 206.681 53.8067 206.881 53.06C207.094 52.26 207.401 51.6133 207.801 51.12C208.214 50.6133 208.701 50.2267 209.261 49.96ZM209.861 52.64C209.661 52.8267 209.508 53.06 209.401 53.34C209.294 53.62 209.228 53.9133 209.201 54.22C209.174 54.5133 209.194 54.8133 209.261 55.12C209.341 55.4133 209.461 55.68 209.621 55.92C209.754 56.12 209.994 56.2867 210.341 56.42C210.688 56.5533 211.048 56.6333 211.421 56.66C211.848 56.6867 212.221 56.5733 212.541 56.32C212.861 56.0533 213.101 55.7267 213.261 55.34C213.434 54.9533 213.514 54.5333 213.501 54.08C213.488 53.6267 213.368 53.2133 213.141 52.84C212.981 52.5733 212.754 52.38 212.461 52.26C212.181 52.1267 211.881 52.06 211.561 52.06C211.254 52.0467 210.948 52.0933 210.641 52.2C210.334 52.2933 210.074 52.44 209.861 52.64ZM223.375 50C223.761 50.16 224.115 50.3933 224.435 50.7C224.755 50.9933 225.028 51.3333 225.255 51.72C225.495 52.1067 225.675 52.5267 225.795 52.98C225.928 53.42 225.995 53.8667 225.995 54.32C226.008 55 225.848 55.64 225.515 56.24C225.195 56.84 224.668 57.3 223.935 57.62C223.375 57.8467 222.795 58.02 222.195 58.14C221.608 58.2467 220.995 58.32 220.355 58.36V62.02C220.355 62.1 220.341 62.1733 220.315 62.24C220.301 62.3067 220.295 62.3733 220.295 62.44C220.268 62.5733 220.235 62.6933 220.195 62.8C220.168 62.9067 220.128 63.02 220.075 63.14C220.021 63.22 219.968 63.2933 219.915 63.36C219.861 63.4267 219.801 63.4933 219.735 63.56C219.415 63.72 219.081 63.7533 218.735 63.66C218.521 63.6467 218.348 63.58 218.215 63.46C218.095 63.34 218.008 63.2133 217.955 63.08C217.901 62.9467 217.855 62.7933 217.815 62.62C217.801 62.5533 217.788 62.4867 217.775 62.42C217.775 62.3667 217.775 62.3067 217.775 62.24V51.1C217.775 51.02 217.775 50.94 217.775 50.86C217.788 50.7667 217.801 50.6733 217.815 50.58C217.828 50.42 217.868 50.26 217.935 50.1C218.055 49.7667 218.301 49.54 218.675 49.42C219.048 49.3 219.468 49.2467 219.935 49.26C220.255 49.2733 220.581 49.3067 220.915 49.36C221.261 49.4133 221.588 49.48 221.895 49.56C222.215 49.6267 222.501 49.7 222.755 49.78C223.008 49.86 223.215 49.9333 223.375 50ZM223.415 54.32C223.468 53.9467 223.421 53.6333 223.275 53.38C223.141 53.1133 222.948 52.9 222.695 52.74C222.441 52.5667 222.148 52.4333 221.815 52.34C221.495 52.2467 221.175 52.18 220.855 52.14C220.815 52.1267 220.748 52.12 220.655 52.12C220.575 52.12 220.481 52.12 220.375 52.12C220.375 52.5467 220.375 52.96 220.375 53.36C220.388 53.7467 220.388 54.1667 220.375 54.62V55.96C220.681 55.9467 221.001 55.9133 221.335 55.86C221.681 55.8067 222.001 55.72 222.295 55.6C222.588 55.48 222.835 55.32 223.035 55.12C223.248 54.92 223.375 54.6533 223.415 54.32ZM230.278 57.4C230.265 57.4667 230.252 57.5333 230.238 57.6C230.238 57.6533 230.238 57.7133 230.238 57.78L230.118 58.2C230.092 58.2533 230.072 58.2867 230.058 58.3L229.998 58.42C229.932 58.5667 229.812 58.6867 229.638 58.78C229.318 58.94 228.978 58.98 228.618 58.9C228.392 58.8733 228.212 58.8067 228.078 58.7C227.945 58.6067 227.852 58.4933 227.798 58.36C227.745 58.2267 227.705 58.0933 227.678 57.96C227.638 57.8267 227.618 57.7067 227.618 57.6V46.4C227.618 46.3067 227.618 46.2267 227.618 46.16C227.632 46.08 227.645 46.0067 227.658 45.94C227.672 45.8467 227.685 45.7667 227.698 45.7C227.725 45.6333 227.752 45.56 227.778 45.48C227.818 45.3467 227.892 45.24 227.998 45.16C228.158 45.04 228.312 44.9733 228.458 44.96C228.552 44.9333 228.638 44.92 228.718 44.92C228.798 44.9067 228.892 44.9 228.998 44.9C229.185 44.9 229.398 44.9533 229.638 45.06C229.825 45.1667 229.958 45.3133 230.038 45.5C230.172 45.7667 230.238 46.0133 230.238 46.24C230.252 46.3733 230.258 46.5733 230.258 46.84C230.272 47.1067 230.278 47.3067 230.278 47.44V47.52C230.305 47.9467 230.318 48.36 230.318 48.76C230.318 49.1467 230.312 49.5733 230.298 50.04C230.298 50.4933 230.292 50.9333 230.278 51.36C230.278 51.7733 230.278 52.1867 230.278 52.6V56.8C230.278 56.8533 230.278 56.9067 230.278 56.96C230.292 57 230.298 57.0467 230.298 57.1C230.298 57.2333 230.292 57.3333 230.278 57.4ZM238.835 56.26C238.995 56.22 239.155 56.1933 239.315 56.18C239.489 56.1667 239.642 56.1867 239.775 56.24C239.922 56.2933 240.042 56.3867 240.135 56.52C240.229 56.64 240.275 56.8133 240.275 57.04C240.275 57.2 240.235 57.3533 240.155 57.5C240.075 57.6467 239.975 57.78 239.855 57.9C239.735 58.02 239.602 58.1267 239.455 58.22C239.309 58.3 239.169 58.3667 239.035 58.42C238.649 58.5933 238.202 58.7267 237.695 58.82C237.202 58.9133 236.689 58.9467 236.155 58.92C235.435 58.8933 234.742 58.7533 234.075 58.5C233.422 58.2333 232.909 57.8 232.535 57.2C232.189 56.6133 231.982 55.96 231.915 55.24C231.849 54.52 231.882 53.84 232.015 53.2C232.162 52.4267 232.409 51.8 232.755 51.32C233.115 50.8267 233.542 50.4333 234.035 50.14C234.635 49.7933 235.309 49.6133 236.055 49.6C236.802 49.5867 237.515 49.7333 238.195 50.04C238.649 50.24 239.055 50.5133 239.415 50.86C239.775 51.1933 240.049 51.6 240.235 52.08C240.289 52.2 240.329 52.3467 240.355 52.52C240.395 52.6933 240.422 52.88 240.435 53.08C240.449 53.2667 240.449 53.4533 240.435 53.64C240.422 53.8267 240.389 53.9933 240.335 54.14C240.255 54.38 240.155 54.5667 240.035 54.7C239.915 54.8333 239.762 54.9333 239.575 55C239.389 55.0667 239.162 55.1133 238.895 55.14C238.642 55.1533 238.335 55.1667 237.975 55.18C237.655 55.1933 237.355 55.2 237.075 55.2C236.795 55.2 236.509 55.2 236.215 55.2C235.922 55.1867 235.615 55.18 235.295 55.18C234.989 55.1667 234.642 55.1533 234.255 55.14C234.215 55.4067 234.249 55.64 234.355 55.84C234.475 56.0267 234.635 56.1867 234.835 56.32C235.035 56.44 235.262 56.5333 235.515 56.6C235.769 56.6667 236.015 56.7067 236.255 56.72C236.709 56.7467 237.142 56.7133 237.555 56.62C237.969 56.5133 238.395 56.3933 238.835 56.26ZM237.975 52.38C237.722 52.0867 237.455 51.8733 237.175 51.74C236.962 51.6467 236.735 51.6067 236.495 51.62C236.269 51.62 236.049 51.6533 235.835 51.72C235.449 51.8133 235.122 52.0133 234.855 52.32C234.829 52.3467 234.782 52.4133 234.715 52.52C234.649 52.6133 234.582 52.7133 234.515 52.82C234.462 52.9267 234.422 53.0267 234.395 53.12C234.369 53.2133 234.382 53.26 234.435 53.26H238.355C238.342 53.0733 238.309 52.92 238.255 52.8C238.202 52.6667 238.109 52.5267 237.975 52.38ZM250.628 49.96C251.068 49.7467 251.528 49.5933 252.008 49.5C252.488 49.4067 252.961 49.3867 253.428 49.44C253.908 49.4933 254.368 49.62 254.808 49.82C255.261 50.02 255.675 50.3 256.048 50.66C256.355 50.9667 256.621 51.34 256.848 51.78C257.075 52.2067 257.241 52.6267 257.348 53.04C257.575 53.7733 257.608 54.5133 257.448 55.26C257.288 56.0067 257.015 56.7 256.628 57.34C256.441 57.6333 256.208 57.9 255.928 58.14C255.661 58.3667 255.375 58.5533 255.068 58.7C254.668 58.8867 254.235 59.0133 253.768 59.08C253.301 59.16 252.848 59.18 252.408 59.14C251.608 59.1 250.901 58.9 250.288 58.54C249.688 58.18 249.201 57.72 248.828 57.16C248.468 56.6 248.228 55.9667 248.108 55.26C248.001 54.54 248.048 53.8067 248.248 53.06C248.461 52.26 248.768 51.6133 249.168 51.12C249.581 50.6133 250.068 50.2267 250.628 49.96ZM251.228 52.64C251.028 52.8267 250.875 53.06 250.768 53.34C250.661 53.62 250.595 53.9133 250.568 54.22C250.541 54.5133 250.561 54.8133 250.628 55.12C250.708 55.4133 250.828 55.68 250.988 55.92C251.121 56.12 251.361 56.2867 251.708 56.42C252.055 56.5533 252.415 56.6333 252.788 56.66C253.215 56.6867 253.588 56.5733 253.908 56.32C254.228 56.0533 254.468 55.7267 254.628 55.34C254.801 54.9533 254.881 54.5333 254.868 54.08C254.855 53.6267 254.735 53.2133 254.508 52.84C254.348 52.5733 254.121 52.38 253.828 52.26C253.548 52.1267 253.248 52.06 252.928 52.06C252.621 52.0467 252.315 52.0933 252.008 52.2C251.701 52.2933 251.441 52.44 251.228 52.64ZM259.162 51.86C259.162 51.5533 259.155 51.2267 259.142 50.88C259.142 50.5333 259.202 50.22 259.322 49.94C259.428 49.6867 259.602 49.5067 259.842 49.4C260.095 49.28 260.342 49.2533 260.582 49.32C260.822 49.36 261.008 49.4333 261.142 49.54C261.275 49.6467 261.368 49.7733 261.422 49.92C261.488 50.0533 261.528 50.2133 261.542 50.4C261.555 50.5733 261.568 50.7467 261.582 50.92C261.715 50.68 261.882 50.4867 262.082 50.34C262.282 50.1933 262.488 50.0733 262.702 49.98C262.915 49.8867 263.115 49.82 263.302 49.78C263.502 49.74 263.655 49.72 263.762 49.72C264.268 49.72 264.768 49.8333 265.262 50.06C265.768 50.2733 266.188 50.58 266.522 50.98C266.708 51.22 266.848 51.4733 266.942 51.74C267.048 51.9933 267.122 52.26 267.162 52.54C267.215 52.82 267.248 53.1067 267.262 53.4C267.275 53.68 267.288 53.9667 267.302 54.26C267.368 55.1133 267.368 55.96 267.302 56.8C267.288 56.9733 267.282 57.1733 267.282 57.4C267.282 57.6267 267.262 57.8533 267.222 58.08C267.195 58.2933 267.135 58.4867 267.042 58.66C266.962 58.82 266.822 58.92 266.622 58.96C266.342 59.0267 266.108 59.04 265.922 59C265.748 58.9733 265.608 58.9133 265.502 58.82C265.395 58.7267 265.315 58.6067 265.262 58.46C265.208 58.3133 265.162 58.1467 265.122 57.96C265.095 57.8133 265.068 57.6467 265.042 57.46C265.028 57.26 265.015 57.06 265.002 56.86C265.002 56.66 264.995 56.4667 264.982 56.28C264.982 56.08 264.982 55.9 264.982 55.74C264.982 55.4867 264.975 55.2067 264.962 54.9C264.948 54.5933 264.948 54.3067 264.962 54.04C264.962 53.4133 264.795 52.94 264.462 52.62C264.142 52.2867 263.702 52.1467 263.142 52.2C262.715 52.2533 262.342 52.4267 262.022 52.72C261.702 53 261.548 53.3667 261.562 53.82C261.562 53.9933 261.562 54.1533 261.562 54.3C261.562 54.4467 261.555 54.5933 261.542 54.74C261.542 54.8867 261.542 55.0467 261.542 55.22C261.542 55.3933 261.542 55.5867 261.542 55.8C261.542 56.24 261.542 56.7067 261.542 57.2C261.542 57.68 261.482 58.0733 261.362 58.38C261.255 58.7 261.075 58.92 260.822 59.04C260.568 59.16 260.268 59.1267 259.922 58.94C259.775 58.86 259.655 58.7533 259.562 58.62C259.482 58.4733 259.415 58.32 259.362 58.16C259.322 58 259.295 57.84 259.282 57.68C259.268 57.5067 259.255 57.3467 259.242 57.2C259.202 56.76 259.175 56.3533 259.162 55.98C259.162 55.5933 259.162 55.18 259.162 54.74V51.86ZM147.566 75.58C147.966 75.38 148.386 75.24 148.826 75.16C149.266 75.0667 149.699 75.0467 150.126 75.1C150.566 75.14 150.986 75.2533 151.386 75.44C151.786 75.6133 152.159 75.8667 152.506 76.2C152.852 76.5467 153.119 76.9267 153.306 77.34C153.492 77.7533 153.626 78.2133 153.706 78.72C153.759 79.0667 153.846 79.3867 153.966 79.68C154.086 79.9733 154.212 80.2667 154.346 80.56C154.492 80.8533 154.626 81.1467 154.746 81.44C154.879 81.7333 154.986 82.04 155.066 82.36C155.132 82.6667 155.106 82.9667 154.986 83.26C154.879 83.54 154.652 83.7133 154.306 83.78C154.106 83.82 153.912 83.8067 153.726 83.74C153.552 83.66 153.392 83.5533 153.246 83.42C153.099 83.2733 152.966 83.12 152.846 82.96C152.739 82.7867 152.639 82.6267 152.546 82.48C152.239 82.88 151.906 83.1933 151.546 83.42C151.186 83.6333 150.752 83.7733 150.246 83.84C149.819 83.8933 149.412 83.9067 149.026 83.88C148.639 83.8533 148.226 83.78 147.786 83.66C147.212 83.5133 146.739 83.26 146.366 82.9C146.006 82.5267 145.726 82.1 145.526 81.62C145.339 81.1267 145.239 80.6 145.226 80.04C145.212 79.48 145.279 78.9267 145.426 78.38C145.612 77.66 145.892 77.0733 146.266 76.62C146.639 76.1667 147.072 75.82 147.566 75.58ZM148.066 77.92C147.879 78.1067 147.732 78.3267 147.626 78.58C147.519 78.8333 147.452 79.1 147.426 79.38C147.412 79.66 147.439 79.94 147.506 80.22C147.572 80.5 147.679 80.7467 147.826 80.96C147.959 81.1467 148.186 81.3067 148.506 81.44C148.826 81.56 149.159 81.6333 149.506 81.66C149.906 81.6867 150.252 81.58 150.546 81.34C150.852 81.1 151.079 80.8 151.226 80.44C151.386 80.0667 151.459 79.6733 151.446 79.26C151.432 78.8333 151.319 78.4467 151.106 78.1C150.946 77.8467 150.732 77.66 150.466 77.54C150.212 77.42 149.939 77.36 149.646 77.36C149.352 77.3467 149.059 77.3933 148.766 77.5C148.486 77.5933 148.252 77.7333 148.066 77.92ZM171.266 75.18C171.372 75.4333 171.379 75.7133 171.286 76.02C171.206 76.3267 171.052 76.5267 170.826 76.62C170.706 76.6733 170.546 76.72 170.346 76.76C170.146 76.7867 169.926 76.8133 169.686 76.84C169.459 76.8667 169.232 76.8867 169.006 76.9C168.779 76.9133 168.586 76.92 168.426 76.92C168.439 77.32 168.452 77.7333 168.466 78.16C168.479 78.5733 168.492 78.98 168.506 79.38C168.519 79.78 168.526 80.1667 168.526 80.54C168.526 80.9 168.519 81.2267 168.506 81.52C168.506 81.72 168.506 81.9533 168.506 82.22C168.506 82.4733 168.486 82.72 168.446 82.96C168.419 83.2 168.372 83.4133 168.306 83.6C168.239 83.7733 168.139 83.8867 168.006 83.94C167.592 84.1133 167.212 84.16 166.866 84.08C166.532 84.0133 166.292 83.8733 166.146 83.66C166.039 83.4867 165.959 83.2867 165.906 83.06C165.852 82.82 165.812 82.58 165.786 82.34C165.772 82.0867 165.766 81.8467 165.766 81.62C165.779 81.38 165.786 81.1733 165.786 81C165.799 80.44 165.806 79.8067 165.806 79.1C165.819 78.38 165.826 77.66 165.826 76.94H165.526C165.366 76.94 165.159 76.94 164.906 76.94C164.666 76.9267 164.419 76.9067 164.166 76.88C163.926 76.84 163.699 76.7933 163.486 76.74C163.272 76.6733 163.119 76.58 163.026 76.46C162.879 76.2867 162.786 76.1 162.746 75.9C162.719 75.7 162.732 75.5133 162.786 75.34C162.852 75.1533 162.952 74.9933 163.086 74.86C163.219 74.7133 163.372 74.62 163.546 74.58C163.786 74.5133 164.126 74.48 164.566 74.48C165.006 74.4667 165.419 74.4667 165.806 74.48C165.792 74.3467 165.786 74.22 165.786 74.1C165.786 73.9667 165.779 73.84 165.766 73.72C165.752 73.56 165.746 73.36 165.746 73.12C165.746 72.8667 165.759 72.62 165.786 72.38C165.826 72.1267 165.886 71.8933 165.966 71.68C166.046 71.4533 166.159 71.28 166.306 71.16C166.506 71 166.706 70.9133 166.906 70.9C167.119 70.8733 167.312 70.9 167.486 70.98C167.672 71.06 167.826 71.18 167.946 71.34C168.079 71.4867 168.172 71.6533 168.226 71.84C168.266 72 168.299 72.1933 168.326 72.42C168.352 72.6333 168.366 72.86 168.366 73.1C168.379 73.34 168.386 73.58 168.386 73.82C168.386 74.06 168.386 74.28 168.386 74.48H168.586C168.786 74.48 169.019 74.4733 169.286 74.46C169.552 74.4467 169.812 74.4533 170.066 74.48C170.332 74.5067 170.572 74.5733 170.786 74.68C170.999 74.7733 171.159 74.94 171.266 75.18ZM179.079 81.26C179.239 81.22 179.399 81.1933 179.559 81.18C179.733 81.1667 179.886 81.1867 180.019 81.24C180.166 81.2933 180.286 81.3867 180.379 81.52C180.473 81.64 180.519 81.8133 180.519 82.04C180.519 82.2 180.479 82.3533 180.399 82.5C180.319 82.6467 180.219 82.78 180.099 82.9C179.979 83.02 179.846 83.1267 179.699 83.22C179.553 83.3 179.413 83.3667 179.279 83.42C178.893 83.5933 178.446 83.7267 177.939 83.82C177.446 83.9133 176.933 83.9467 176.399 83.92C175.679 83.8933 174.986 83.7533 174.319 83.5C173.666 83.2333 173.153 82.8 172.779 82.2C172.433 81.6133 172.226 80.96 172.159 80.24C172.093 79.52 172.126 78.84 172.259 78.2C172.406 77.4267 172.653 76.8 172.999 76.32C173.359 75.8267 173.786 75.4333 174.279 75.14C174.879 74.7933 175.553 74.6133 176.299 74.6C177.046 74.5867 177.759 74.7333 178.439 75.04C178.893 75.24 179.299 75.5133 179.659 75.86C180.019 76.1933 180.293 76.6 180.479 77.08C180.533 77.2 180.573 77.3467 180.599 77.52C180.639 77.6933 180.666 77.88 180.679 78.08C180.693 78.2667 180.693 78.4533 180.679 78.64C180.666 78.8267 180.633 78.9933 180.579 79.14C180.499 79.38 180.399 79.5667 180.279 79.7C180.159 79.8333 180.006 79.9333 179.819 80C179.633 80.0667 179.406 80.1133 179.139 80.14C178.886 80.1533 178.579 80.1667 178.219 80.18C177.899 80.1933 177.599 80.2 177.319 80.2C177.039 80.2 176.753 80.2 176.459 80.2C176.166 80.1867 175.859 80.18 175.539 80.18C175.233 80.1667 174.886 80.1533 174.499 80.14C174.459 80.4067 174.493 80.64 174.599 80.84C174.719 81.0267 174.879 81.1867 175.079 81.32C175.279 81.44 175.506 81.5333 175.759 81.6C176.013 81.6667 176.259 81.7067 176.499 81.72C176.953 81.7467 177.386 81.7133 177.799 81.62C178.213 81.5133 178.639 81.3933 179.079 81.26ZM178.219 77.38C177.966 77.0867 177.699 76.8733 177.419 76.74C177.206 76.6467 176.979 76.6067 176.739 76.62C176.513 76.62 176.293 76.6533 176.079 76.72C175.693 76.8133 175.366 77.0133 175.099 77.32C175.073 77.3467 175.026 77.4133 174.959 77.52C174.893 77.6133 174.826 77.7133 174.759 77.82C174.706 77.9267 174.666 78.0267 174.639 78.12C174.613 78.2133 174.626 78.26 174.679 78.26H178.599C178.586 78.0733 178.553 77.92 178.499 77.8C178.446 77.6667 178.353 77.5267 178.219 77.38ZM184.441 75.58C184.841 75.38 185.261 75.24 185.701 75.16C186.141 75.0667 186.574 75.0467 187.001 75.1C187.441 75.14 187.861 75.2533 188.261 75.44C188.661 75.6133 189.034 75.8667 189.381 76.2C189.727 76.5467 189.994 76.9267 190.181 77.34C190.367 77.7533 190.501 78.2133 190.581 78.72C190.634 79.0667 190.721 79.3867 190.841 79.68C190.961 79.9733 191.087 80.2667 191.221 80.56C191.367 80.8533 191.501 81.1467 191.621 81.44C191.754 81.7333 191.861 82.04 191.941 82.36C192.007 82.6667 191.981 82.9667 191.861 83.26C191.754 83.54 191.527 83.7133 191.181 83.78C190.981 83.82 190.787 83.8067 190.601 83.74C190.427 83.66 190.267 83.5533 190.121 83.42C189.974 83.2733 189.841 83.12 189.721 82.96C189.614 82.7867 189.514 82.6267 189.421 82.48C189.114 82.88 188.781 83.1933 188.421 83.42C188.061 83.6333 187.627 83.7733 187.121 83.84C186.694 83.8933 186.287 83.9067 185.901 83.88C185.514 83.8533 185.101 83.78 184.661 83.66C184.087 83.5133 183.614 83.26 183.241 82.9C182.881 82.5267 182.601 82.1 182.401 81.62C182.214 81.1267 182.114 80.6 182.101 80.04C182.087 79.48 182.154 78.9267 182.301 78.38C182.487 77.66 182.767 77.0733 183.141 76.62C183.514 76.1667 183.947 75.82 184.441 75.58ZM184.941 77.92C184.754 78.1067 184.607 78.3267 184.501 78.58C184.394 78.8333 184.327 79.1 184.301 79.38C184.287 79.66 184.314 79.94 184.381 80.22C184.447 80.5 184.554 80.7467 184.701 80.96C184.834 81.1467 185.061 81.3067 185.381 81.44C185.701 81.56 186.034 81.6333 186.381 81.66C186.781 81.6867 187.127 81.58 187.421 81.34C187.727 81.1 187.954 80.8 188.101 80.44C188.261 80.0667 188.334 79.6733 188.321 79.26C188.307 78.8333 188.194 78.4467 187.981 78.1C187.821 77.8467 187.607 77.66 187.341 77.54C187.087 77.42 186.814 77.36 186.521 77.36C186.227 77.3467 185.934 77.3933 185.641 77.5C185.361 77.5933 185.127 77.7333 184.941 77.92ZM204.445 79.34C204.471 79.7667 204.485 80.1733 204.485 80.56C204.485 80.9333 204.471 81.3333 204.445 81.76C204.445 81.92 204.445 82.1 204.445 82.3C204.445 82.5 204.431 82.6933 204.405 82.88C204.378 83.0667 204.331 83.24 204.265 83.4C204.198 83.56 204.098 83.6867 203.965 83.78C203.805 83.8867 203.625 83.96 203.425 84C203.225 84.0267 203.038 84.0133 202.865 83.96C202.691 83.9067 202.538 83.8067 202.405 83.66C202.285 83.5133 202.218 83.3067 202.205 83.04C202.165 82.4267 202.145 81.8133 202.145 81.2C202.145 80.8933 202.138 80.6 202.125 80.32C202.125 80.04 202.131 79.6467 202.145 79.14C202.145 78.8867 202.125 78.6 202.085 78.28C202.045 77.9467 201.945 77.7133 201.785 77.58C201.665 77.4733 201.531 77.4133 201.385 77.4C201.238 77.3733 201.091 77.3867 200.945 77.44C200.811 77.4933 200.691 77.5933 200.585 77.74C200.478 77.8733 200.405 78.0467 200.365 78.26C200.365 78.4333 200.358 78.6133 200.345 78.8C200.345 78.9733 200.351 79.14 200.365 79.3C200.378 79.7267 200.385 80.1333 200.385 80.52C200.385 80.8933 200.378 81.2933 200.365 81.72C200.351 81.8933 200.345 82.08 200.345 82.28C200.358 82.48 200.358 82.68 200.345 82.88C200.331 83.0667 200.291 83.24 200.225 83.4C200.171 83.56 200.071 83.6867 199.925 83.78C199.765 83.8867 199.591 83.9533 199.405 83.98C199.231 83.9933 199.065 83.9667 198.905 83.9C198.758 83.82 198.625 83.7 198.505 83.54C198.398 83.38 198.338 83.1667 198.325 82.9C198.298 82.5933 198.278 82.3133 198.265 82.06C198.265 81.7933 198.265 81.5133 198.265 81.22C198.265 80.9133 198.271 80.6 198.285 80.28C198.298 79.9467 198.291 79.6267 198.265 79.32C198.265 79.2267 198.258 79.12 198.245 79C198.245 78.8667 198.238 78.7333 198.225 78.6C198.225 78.4667 198.211 78.34 198.185 78.22C198.171 78.0867 198.145 77.98 198.105 77.9C197.998 77.7133 197.805 77.5933 197.525 77.54C197.258 77.4867 197.031 77.5067 196.845 77.6C196.658 77.6933 196.518 77.8133 196.425 77.96C196.331 78.1067 196.265 78.2667 196.225 78.44C196.185 78.6133 196.165 78.8 196.165 79C196.165 79.1867 196.165 79.3667 196.165 79.54C196.165 80.4067 196.165 81.16 196.165 81.8C196.178 82.4267 196.111 82.9333 195.965 83.32C195.898 83.52 195.758 83.6733 195.545 83.78C195.345 83.8867 195.125 83.94 194.885 83.94C194.658 83.94 194.445 83.8867 194.245 83.78C194.045 83.6733 193.911 83.5067 193.845 83.28C193.805 83.1333 193.765 82.9267 193.725 82.66C193.698 82.38 193.678 82.0733 193.665 81.74C193.651 81.4067 193.645 81.0733 193.645 80.74C193.645 80.3933 193.645 80.08 193.645 79.8V76.92C193.631 76.6133 193.625 76.28 193.625 75.92C193.625 75.56 193.678 75.2333 193.785 74.94C193.878 74.6867 194.025 74.5267 194.225 74.46C194.425 74.38 194.631 74.3467 194.845 74.36C195.085 74.36 195.271 74.4267 195.405 74.56C195.551 74.68 195.658 74.8333 195.725 75.02C195.791 75.1933 195.831 75.3933 195.845 75.62C195.858 75.8333 195.871 76.04 195.885 76.24C196.031 75.9067 196.205 75.6333 196.405 75.42C196.618 75.1933 196.918 75.0467 197.305 74.98C198.291 74.7933 199.078 75.0467 199.665 75.74C199.931 75.4733 200.271 75.2533 200.685 75.08C201.005 74.96 201.331 74.9067 201.665 74.92C201.998 74.92 202.311 74.98 202.605 75.1C202.911 75.22 203.185 75.3933 203.425 75.62C203.678 75.8467 203.878 76.12 204.025 76.44C204.225 76.8667 204.338 77.34 204.365 77.86C204.391 78.38 204.418 78.8733 204.445 79.34ZM206.565 73.5C206.512 73.1533 206.485 72.8 206.485 72.44C206.498 72.08 206.565 71.7267 206.685 71.38C206.832 70.9267 207.072 70.5267 207.405 70.18C207.738 69.8333 208.118 69.56 208.545 69.36C208.998 69.1467 209.458 69 209.925 68.92C210.405 68.8267 210.872 68.8067 211.325 68.86C211.792 68.9133 212.238 69.0333 212.665 69.22C213.105 69.3933 213.518 69.6467 213.905 69.98C214.318 70.34 214.625 70.76 214.825 71.24C215.038 71.7067 215.152 72.1933 215.165 72.7C215.192 73.2067 215.132 73.7133 214.985 74.22C214.852 74.7133 214.645 75.1733 214.365 75.6C214.365 75.6 214.358 75.6133 214.345 75.64C214.118 75.9467 213.858 76.2267 213.565 76.48C213.272 76.72 212.998 76.98 212.745 77.26C212.452 77.5667 212.278 77.88 212.225 78.2C212.172 78.5067 212.118 78.8533 212.065 79.24C212.025 79.6133 211.925 79.94 211.765 80.22C211.618 80.4867 211.338 80.6133 210.925 80.6C210.645 80.5867 210.432 80.5 210.285 80.34C210.152 80.1667 210.052 79.9667 209.985 79.74C209.932 79.5 209.912 79.2533 209.925 79C209.938 78.7333 209.958 78.5 209.985 78.3C210.065 77.8333 210.212 77.3933 210.425 76.98C210.638 76.5533 210.898 76.1533 211.205 75.78C211.378 75.58 211.552 75.4 211.725 75.24C211.898 75.0667 212.058 74.8867 212.205 74.7C212.352 74.5133 212.478 74.3133 212.585 74.1C212.692 73.8867 212.765 73.64 212.805 73.36C212.845 73.1067 212.825 72.8533 212.745 72.6C212.665 72.3333 212.545 72.1 212.385 71.9C212.225 71.6867 212.032 71.5133 211.805 71.38C211.578 71.2333 211.332 71.1533 211.065 71.14C210.825 71.1267 210.572 71.16 210.305 71.24C210.038 71.3067 209.792 71.42 209.565 71.58C209.338 71.7267 209.152 71.9067 209.005 72.12C208.872 72.3333 208.812 72.5733 208.825 72.84C208.838 73 208.865 73.1667 208.905 73.34C208.958 73.5 208.992 73.66 209.005 73.82C209.032 73.9667 209.025 74.1133 208.985 74.26C208.958 74.4067 208.872 74.5467 208.725 74.68C208.485 74.9067 208.245 75.02 208.005 75.02C207.765 75.0067 207.545 74.9267 207.345 74.78C207.145 74.6333 206.972 74.4467 206.825 74.22C206.692 73.98 206.605 73.74 206.565 73.5ZM212.325 83.48C212.325 83.8667 212.178 84.2133 211.885 84.52C211.605 84.8133 211.278 84.96 210.905 84.96C210.545 84.96 210.225 84.8133 209.945 84.52C209.665 84.2 209.525 83.8533 209.525 83.48C209.525 83.0667 209.665 82.72 209.945 82.44C210.225 82.1333 210.545 81.98 210.905 81.98C211.278 81.98 211.605 82.1333 211.885 82.44C212.178 82.7333 212.325 83.08 212.325 83.48Z" fill="black"/>
</g>
<defs>
<filter id="filter0_d_450_777" x="0" y="0" width="362" height="432" filterUnits="userSpaceOnUse" color-interpolation-filters="sRGB">
<feFlood flood-opacity="0" result="BackgroundImageFix"/>
<feColorMatrix in="SourceAlpha" type="matrix" values="0 0 0 0 0 0 0 0 0 0 0 0 0 0 0 0 0 0 127 0" result="hardAlpha"/>
<feOffset dy="4"/>
<feGaussianBlur stdDeviation="2"/>
<feComposite in2="hardAlpha" operator="out"/>
<feColorMatrix type="matrix" values="0 0 0 0 0 0 0 0 0 0 0 0 0 0 0 0 0 0 0.25 0"/>
<feBlend mode="normal" in2="BackgroundImageFix" result="effect1_dropShadow_450_777"/>
<feBlend mode="normal" in="SourceGraphic" in2="effect1_dropShadow_450_777" result="shape"/>
</filter>
<clipPath id="clip0_450_777">
<rect width="354" height="424" fill="white" transform="translate(4)"/>
</clipPath>
</defs>
</svg>
