<svg width="362" height="432" viewBox="0 0 362 432" fill="none" xmlns="http://www.w3.org/2000/svg">
<g filter="url(#filter0_d_450_749)">
<path d="M45 0H313.5L358 424H4L45 0Z" fill="#BDF0F2"/>
<line x1="41" y1="31" x2="317" y2="31" stroke="#88E2E7" stroke-width="18"/>
<path d="M116.88 45.82C116.893 45.9133 116.9 46 116.9 46.08C116.9 46.16 116.9 46.24 116.9 46.32V47.14L116.78 57.52V57.72C116.78 57.8 116.76 57.92 116.72 58.08C116.706 58.1467 116.686 58.22 116.66 58.3C116.633 58.3667 116.606 58.44 116.58 58.52C116.513 58.68 116.42 58.8 116.3 58.88C116.193 58.9867 116.02 59.06 115.78 59.1C115.406 59.18 115.066 59.1467 114.76 59C114.586 58.8933 114.466 58.76 114.4 58.6C114.373 58.5733 114.346 58.5333 114.32 58.48C114.32 58.4533 114.306 58.4133 114.28 58.36C114.253 58.2933 114.233 58.2267 114.22 58.16C114.206 58.08 114.193 58 114.18 57.92C114.18 57.8533 114.173 57.7867 114.16 57.72C114.16 57.6533 114.153 57.5867 114.14 57.52C114.113 57.4533 114.1 57.4 114.1 57.36C114.1 57.3067 114.1 57.2467 114.1 57.18C114.126 57.1267 114.14 57.0267 114.14 56.88L114.16 55.3L114.18 52.78H113.1L109.04 52.8L109 57.52V57.72C109 57.8 108.98 57.92 108.94 58.08C108.926 58.1467 108.906 58.22 108.88 58.3C108.853 58.3667 108.826 58.44 108.8 58.52C108.733 58.68 108.64 58.8 108.52 58.88C108.413 58.9867 108.24 59.06 108 59.1C107.626 59.18 107.286 59.1467 106.98 59C106.846 58.92 106.72 58.7867 106.6 58.6C106.573 58.5467 106.56 58.5067 106.56 58.48L106.5 58.36C106.473 58.2933 106.453 58.2267 106.44 58.16C106.426 58.08 106.413 58 106.4 57.92C106.4 57.8533 106.393 57.7867 106.38 57.72C106.366 57.6533 106.353 57.5867 106.34 57.52C106.326 57.4133 106.326 57.3 106.34 57.18V56.88L106.36 55.3L106.4 52.36C106.413 51.9333 106.42 51.4933 106.42 51.04C106.42 50.5867 106.42 50.12 106.42 49.64C106.406 49.16 106.4 48.7333 106.4 48.36C106.413 47.9867 106.433 47.5667 106.46 47.1V47.02C106.473 46.8867 106.48 46.7533 106.48 46.62C106.48 46.4733 106.486 46.3267 106.5 46.18C106.513 46.0467 106.533 45.92 106.56 45.8C106.6 45.6667 106.653 45.5333 106.72 45.4C106.76 45.2933 106.813 45.2067 106.88 45.14C106.946 45.06 107.026 44.9867 107.12 44.92C107.333 44.8133 107.546 44.76 107.76 44.76C107.866 44.76 107.96 44.7667 108.04 44.78C108.12 44.78 108.2 44.7867 108.28 44.8C108.44 44.8133 108.593 44.8933 108.74 45.04C108.846 45.1333 108.92 45.24 108.96 45.36C109.026 45.5333 109.066 45.6867 109.08 45.82C109.093 45.9133 109.1 46 109.1 46.08C109.1 46.16 109.1 46.24 109.1 46.32V47.14L109.06 50.44C109.166 50.44 109.286 50.44 109.42 50.44C109.566 50.44 109.733 50.4333 109.92 50.42C110.613 50.42 111.3 50.4267 111.98 50.44C112.673 50.4533 113.4 50.46 114.16 50.46H114.18C114.18 49.86 114.18 49.2867 114.18 48.74C114.193 48.1933 114.213 47.62 114.24 47.02C114.24 46.8867 114.24 46.7533 114.24 46.62C114.253 46.4733 114.266 46.3267 114.28 46.18C114.293 46.0467 114.313 45.92 114.34 45.8C114.38 45.6667 114.433 45.5333 114.5 45.4C114.526 45.2933 114.573 45.2067 114.64 45.14C114.72 45.06 114.813 44.9867 114.92 44.92C115.106 44.8133 115.313 44.76 115.54 44.76C115.646 44.76 115.74 44.7667 115.82 44.78C115.913 44.78 115.993 44.7867 116.06 44.8C116.246 44.8267 116.4 44.9067 116.52 45.04C116.626 45.1067 116.7 45.2133 116.74 45.36C116.766 45.44 116.786 45.52 116.8 45.6C116.826 45.6667 116.853 45.74 116.88 45.82ZM121.087 49.96C121.527 49.7467 121.987 49.5933 122.467 49.5C122.947 49.4067 123.42 49.3867 123.887 49.44C124.367 49.4933 124.827 49.62 125.267 49.82C125.72 50.02 126.134 50.3 126.507 50.66C126.814 50.9667 127.08 51.34 127.307 51.78C127.534 52.2067 127.7 52.6267 127.807 53.04C128.034 53.7733 128.067 54.5133 127.907 55.26C127.747 56.0067 127.474 56.7 127.087 57.34C126.9 57.6333 126.667 57.9 126.387 58.14C126.12 58.3667 125.834 58.5533 125.527 58.7C125.127 58.8867 124.694 59.0133 124.227 59.08C123.76 59.16 123.307 59.18 122.867 59.14C122.067 59.1 121.36 58.9 120.747 58.54C120.147 58.18 119.66 57.72 119.287 57.16C118.927 56.6 118.687 55.9667 118.567 55.26C118.46 54.54 118.507 53.8067 118.707 53.06C118.92 52.26 119.227 51.6133 119.627 51.12C120.04 50.6133 120.527 50.2267 121.087 49.96ZM121.687 52.64C121.487 52.8267 121.334 53.06 121.227 53.34C121.12 53.62 121.054 53.9133 121.027 54.22C121 54.5133 121.02 54.8133 121.087 55.12C121.167 55.4133 121.287 55.68 121.447 55.92C121.58 56.12 121.82 56.2867 122.167 56.42C122.514 56.5533 122.874 56.6333 123.247 56.66C123.674 56.6867 124.047 56.5733 124.367 56.32C124.687 56.0533 124.927 55.7267 125.087 55.34C125.26 54.9533 125.34 54.5333 125.327 54.08C125.314 53.6267 125.194 53.2133 124.967 52.84C124.807 52.5733 124.58 52.38 124.287 52.26C124.007 52.1267 123.707 52.06 123.387 52.06C123.08 52.0467 122.774 52.0933 122.467 52.2C122.16 52.2933 121.9 52.44 121.687 52.64ZM141.261 50C141.381 50.1733 141.421 50.4467 141.381 50.82C141.354 51.18 141.287 51.5733 141.181 52C141.074 52.4133 140.947 52.8267 140.801 53.24C140.654 53.64 140.534 53.9733 140.441 54.24C140.214 54.8533 140.014 55.4267 139.841 55.96C139.667 56.4933 139.461 57.08 139.221 57.72C139.141 57.9067 139.061 58.0933 138.981 58.28C138.914 58.4667 138.827 58.6333 138.721 58.78C138.627 58.9267 138.507 59.0467 138.361 59.14C138.227 59.2333 138.061 59.28 137.861 59.28C137.634 59.28 137.434 59.2 137.261 59.04C137.101 58.88 136.961 58.68 136.841 58.44C136.734 58.2 136.641 57.9467 136.561 57.68C136.481 57.4133 136.414 57.18 136.361 56.98C136.187 56.3933 136.034 55.86 135.901 55.38C135.767 54.8867 135.647 54.4467 135.541 54.06C135.421 54.4467 135.301 54.8667 135.181 55.32C135.061 55.7733 134.907 56.2867 134.721 56.86C134.667 57.06 134.601 57.3067 134.521 57.6C134.441 57.88 134.341 58.1467 134.221 58.4C134.114 58.6533 133.974 58.8667 133.801 59.04C133.641 59.2267 133.447 59.3067 133.221 59.28C132.901 59.2667 132.621 59.14 132.381 58.9C132.154 58.6467 131.954 58.3467 131.781 58C131.621 57.6533 131.481 57.2933 131.361 56.92C131.241 56.5467 131.141 56.22 131.061 55.94C130.954 55.58 130.827 55.18 130.681 54.74C130.534 54.3 130.387 53.8533 130.241 53.4C130.107 52.9333 129.981 52.4733 129.861 52.02C129.741 51.5533 129.661 51.1267 129.621 50.74C129.594 50.4867 129.641 50.2533 129.761 50.04C129.894 49.8267 130.061 49.68 130.261 49.6C130.474 49.5067 130.701 49.4867 130.941 49.54C131.194 49.5933 131.421 49.7533 131.621 50.02C131.727 50.1533 131.821 50.32 131.901 50.52C131.994 50.72 132.074 50.94 132.141 51.18C132.207 51.4067 132.274 51.64 132.341 51.88C132.407 52.12 132.474 52.3533 132.541 52.58C132.687 53.0867 132.807 53.4867 132.901 53.78C133.007 54.06 133.114 54.3533 133.221 54.66C133.314 54.3533 133.407 54.06 133.501 53.78C133.607 53.4867 133.734 53.0867 133.881 52.58C133.934 52.42 133.994 52.24 134.061 52.04C134.141 51.8267 134.221 51.6267 134.301 51.44C134.394 51.2533 134.494 51.08 134.601 50.92C134.721 50.7467 134.847 50.62 134.981 50.54C135.274 50.34 135.541 50.2933 135.781 50.4C136.021 50.4933 136.227 50.66 136.401 50.9C136.574 51.14 136.721 51.42 136.841 51.74C136.974 52.0467 137.081 52.3267 137.161 52.58C137.241 52.8467 137.314 53.08 137.381 53.28C137.447 53.4667 137.507 53.64 137.561 53.8C137.614 53.96 137.661 54.1133 137.701 54.26C137.754 54.4067 137.807 54.56 137.861 54.72C137.914 54.56 137.961 54.4067 138.001 54.26C138.054 54.1133 138.107 53.96 138.161 53.8C138.214 53.64 138.274 53.4667 138.341 53.28C138.407 53.08 138.481 52.8467 138.561 52.58C138.614 52.4067 138.667 52.2067 138.721 51.98C138.787 51.7533 138.854 51.5267 138.921 51.3C138.987 51.06 139.054 50.8333 139.121 50.62C139.201 50.4067 139.287 50.2267 139.381 50.08C139.474 49.9333 139.601 49.8133 139.761 49.72C139.921 49.6133 140.087 49.5533 140.261 49.54C140.434 49.5133 140.607 49.5333 140.781 49.6C140.967 49.6667 141.127 49.8 141.261 50ZM159.855 54.34C159.882 54.7667 159.895 55.1733 159.895 55.56C159.895 55.9333 159.882 56.3333 159.855 56.76C159.855 56.92 159.855 57.1 159.855 57.3C159.855 57.5 159.842 57.6933 159.815 57.88C159.788 58.0667 159.742 58.24 159.675 58.4C159.608 58.56 159.508 58.6867 159.375 58.78C159.215 58.8867 159.035 58.96 158.835 59C158.635 59.0267 158.448 59.0133 158.275 58.96C158.102 58.9067 157.948 58.8067 157.815 58.66C157.695 58.5133 157.628 58.3067 157.615 58.04C157.575 57.4267 157.555 56.8133 157.555 56.2C157.555 55.8933 157.548 55.6 157.535 55.32C157.535 55.04 157.542 54.6467 157.555 54.14C157.555 53.8867 157.535 53.6 157.495 53.28C157.455 52.9467 157.355 52.7133 157.195 52.58C157.075 52.4733 156.942 52.4133 156.795 52.4C156.648 52.3733 156.502 52.3867 156.355 52.44C156.222 52.4933 156.102 52.5933 155.995 52.74C155.888 52.8733 155.815 53.0467 155.775 53.26C155.775 53.4333 155.768 53.6133 155.755 53.8C155.755 53.9733 155.762 54.14 155.775 54.3C155.788 54.7267 155.795 55.1333 155.795 55.52C155.795 55.8933 155.788 56.2933 155.775 56.72C155.762 56.8933 155.755 57.08 155.755 57.28C155.768 57.48 155.768 57.68 155.755 57.88C155.742 58.0667 155.702 58.24 155.635 58.4C155.582 58.56 155.482 58.6867 155.335 58.78C155.175 58.8867 155.002 58.9533 154.815 58.98C154.642 58.9933 154.475 58.9667 154.315 58.9C154.168 58.82 154.035 58.7 153.915 58.54C153.808 58.38 153.748 58.1667 153.735 57.9C153.708 57.5933 153.688 57.3133 153.675 57.06C153.675 56.7933 153.675 56.5133 153.675 56.22C153.675 55.9133 153.682 55.6 153.695 55.28C153.708 54.9467 153.702 54.6267 153.675 54.32C153.675 54.2267 153.668 54.12 153.655 54C153.655 53.8667 153.648 53.7333 153.635 53.6C153.635 53.4667 153.622 53.34 153.595 53.22C153.582 53.0867 153.555 52.98 153.515 52.9C153.408 52.7133 153.215 52.5933 152.935 52.54C152.668 52.4867 152.442 52.5067 152.255 52.6C152.068 52.6933 151.928 52.8133 151.835 52.96C151.742 53.1067 151.675 53.2667 151.635 53.44C151.595 53.6133 151.575 53.8 151.575 54C151.575 54.1867 151.575 54.3667 151.575 54.54C151.575 55.4067 151.575 56.16 151.575 56.8C151.588 57.4267 151.522 57.9333 151.375 58.32C151.308 58.52 151.168 58.6733 150.955 58.78C150.755 58.8867 150.535 58.94 150.295 58.94C150.068 58.94 149.855 58.8867 149.655 58.78C149.455 58.6733 149.322 58.5067 149.255 58.28C149.215 58.1333 149.175 57.9267 149.135 57.66C149.108 57.38 149.088 57.0733 149.075 56.74C149.062 56.4067 149.055 56.0733 149.055 55.74C149.055 55.3933 149.055 55.08 149.055 54.8V51.92C149.042 51.6133 149.035 51.28 149.035 50.92C149.035 50.56 149.088 50.2333 149.195 49.94C149.288 49.6867 149.435 49.5267 149.635 49.46C149.835 49.38 150.042 49.3467 150.255 49.36C150.495 49.36 150.682 49.4267 150.815 49.56C150.962 49.68 151.068 49.8333 151.135 50.02C151.202 50.1933 151.242 50.3933 151.255 50.62C151.268 50.8333 151.282 51.04 151.295 51.24C151.442 50.9067 151.615 50.6333 151.815 50.42C152.028 50.1933 152.328 50.0467 152.715 49.98C153.702 49.7933 154.488 50.0467 155.075 50.74C155.342 50.4733 155.682 50.2533 156.095 50.08C156.415 49.96 156.742 49.9067 157.075 49.92C157.408 49.92 157.722 49.98 158.015 50.1C158.322 50.22 158.595 50.3933 158.835 50.62C159.088 50.8467 159.288 51.12 159.435 51.44C159.635 51.8667 159.748 52.34 159.775 52.86C159.802 53.38 159.828 53.8733 159.855 54.34ZM169.715 54.24C169.689 54.68 169.662 55.1267 169.635 55.58C169.609 56.02 169.535 56.4467 169.415 56.86C169.309 57.2733 169.135 57.6467 168.895 57.98C168.669 58.3133 168.342 58.58 167.915 58.78C167.542 58.9667 167.142 59.0933 166.715 59.16C166.289 59.24 165.862 59.2733 165.435 59.26C165.009 59.2467 164.595 59.18 164.195 59.06C163.795 58.9533 163.435 58.8 163.115 58.6C162.795 58.4 162.535 58.14 162.335 57.82C162.135 57.5 161.975 57.1533 161.855 56.78C161.749 56.4067 161.675 56.02 161.635 55.62C161.595 55.22 161.569 54.8467 161.555 54.5C161.502 53.58 161.502 52.6733 161.555 51.78C161.555 51.6067 161.555 51.4133 161.555 51.2C161.555 50.9733 161.569 50.7533 161.595 50.54C161.635 50.3267 161.695 50.1333 161.775 49.96C161.855 49.7733 161.989 49.6333 162.175 49.54C162.575 49.3267 162.942 49.3133 163.275 49.5C163.622 49.6867 163.829 50.0733 163.895 50.66C163.935 50.9667 163.949 51.3067 163.935 51.68C163.935 52.0533 163.949 52.3933 163.975 52.7C163.989 53.1533 164.002 53.6467 164.015 54.18C164.029 54.7 164.102 55.1667 164.235 55.58C164.382 55.9933 164.615 56.3067 164.935 56.52C165.269 56.72 165.762 56.7267 166.415 56.54C166.722 56.4467 166.922 56.2133 167.015 55.84C167.122 55.4667 167.175 54.9133 167.175 54.18C167.175 53.86 167.169 53.5067 167.155 53.12C167.142 52.7333 167.135 52.3533 167.135 51.98C167.135 51.5933 167.142 51.24 167.155 50.92C167.182 50.5867 167.222 50.3333 167.275 50.16C167.342 49.92 167.482 49.74 167.695 49.62C167.909 49.5 168.135 49.44 168.375 49.44C168.615 49.4267 168.842 49.4733 169.055 49.58C169.269 49.6867 169.415 49.86 169.495 50.1C169.575 50.3133 169.629 50.5867 169.655 50.92C169.695 51.24 169.722 51.5933 169.735 51.98C169.749 52.3533 169.749 52.74 169.735 53.14C169.735 53.5267 169.729 53.8933 169.715 54.24ZM178.799 51.3C178.905 51.4867 178.959 51.6867 178.959 51.9C178.972 52.1133 178.925 52.3133 178.819 52.5C178.699 52.74 178.525 52.9067 178.299 53C178.085 53.08 177.845 53.0867 177.579 53.02C177.459 52.9933 177.352 52.9467 177.259 52.88C177.165 52.8133 177.065 52.7467 176.959 52.68C176.865 52.6 176.752 52.5267 176.619 52.46C176.499 52.3933 176.339 52.3467 176.139 52.32C175.939 52.2933 175.719 52.2933 175.479 52.32C175.252 52.3467 175.045 52.4 174.859 52.48C174.565 52.6267 174.332 52.8533 174.159 53.16C173.985 53.4533 173.872 53.7733 173.819 54.12C173.765 54.4533 173.772 54.7933 173.839 55.14C173.919 55.4867 174.065 55.78 174.279 56.02C174.439 56.2067 174.645 56.36 174.899 56.48C175.165 56.6 175.419 56.6733 175.659 56.7C175.885 56.7267 176.112 56.7267 176.339 56.7C176.565 56.66 176.785 56.6067 176.999 56.54C177.159 56.4733 177.339 56.3867 177.539 56.28C177.739 56.16 177.932 56.0867 178.119 56.06C178.359 56.06 178.545 56.1267 178.679 56.26C178.812 56.38 178.905 56.5333 178.959 56.72C179.012 56.8933 179.019 57.08 178.979 57.28C178.952 57.48 178.879 57.6533 178.759 57.8C178.599 58 178.372 58.1933 178.079 58.38C177.785 58.5533 177.505 58.68 177.239 58.76C176.919 58.8667 176.559 58.9267 176.159 58.94C175.772 58.9533 175.405 58.94 175.059 58.9C174.899 58.8733 174.732 58.84 174.559 58.8C174.385 58.76 174.219 58.7133 174.059 58.66C173.472 58.4467 172.979 58.1467 172.579 57.76C172.192 57.36 171.892 56.9133 171.679 56.42C171.479 55.9267 171.365 55.4 171.339 54.84C171.312 54.28 171.379 53.7267 171.539 53.18C171.685 52.66 171.865 52.22 172.079 51.86C172.305 51.5 172.565 51.2067 172.859 50.98C173.165 50.74 173.505 50.5533 173.879 50.42C174.252 50.2733 174.665 50.1467 175.119 50.04C175.585 49.9467 176.079 49.9467 176.599 50.04C177.119 50.1333 177.585 50.3067 177.999 50.56C178.319 50.7333 178.585 50.98 178.799 51.3ZM188.397 55.06C188.41 55.3267 188.417 55.6067 188.417 55.9C188.417 56.18 188.41 56.44 188.397 56.68C188.384 57.04 188.364 57.3733 188.337 57.68C188.31 57.9733 188.257 58.2267 188.177 58.44C188.097 58.64 187.97 58.7933 187.797 58.9C187.637 58.9933 187.41 59.02 187.117 58.98C186.81 58.94 186.59 58.7933 186.457 58.54C186.324 58.2867 186.23 58 186.177 57.68C186.137 57.3467 186.124 57.0133 186.137 56.68C186.15 56.3467 186.15 56.0867 186.137 55.9C186.124 55.6067 186.11 55.2733 186.097 54.9C186.097 54.5133 186.057 54.1533 185.977 53.82C185.91 53.4733 185.79 53.18 185.617 52.94C185.444 52.7 185.184 52.5733 184.837 52.56C184.397 52.5333 184.057 52.5667 183.817 52.66C183.59 52.7533 183.424 52.8933 183.317 53.08C183.21 53.2533 183.144 53.4667 183.117 53.72C183.104 53.9733 183.077 54.2467 183.037 54.54L183.017 55.32V56.78C183.017 57.02 183.01 57.2733 182.997 57.54C182.997 57.7933 182.957 58.0267 182.877 58.24C182.797 58.4533 182.67 58.6333 182.497 58.78C182.337 58.9267 182.097 59 181.777 59C181.377 59 181.077 58.8733 180.877 58.62C180.69 58.3533 180.597 58.0267 180.597 57.64V46.14C180.597 46.06 180.597 45.9867 180.597 45.92C180.61 45.84 180.624 45.76 180.637 45.68C180.664 45.6 180.684 45.5267 180.697 45.46C180.71 45.38 180.73 45.3067 180.757 45.24C180.797 45.1067 180.864 45.0067 180.957 44.94C181.024 44.8733 181.09 44.82 181.157 44.78C181.224 44.74 181.297 44.7133 181.377 44.7C181.444 44.6867 181.517 44.68 181.597 44.68C181.677 44.6667 181.757 44.66 181.837 44.66C182.037 44.66 182.23 44.72 182.417 44.84C182.497 44.8933 182.57 44.9533 182.637 45.02C182.704 45.0733 182.757 45.1533 182.797 45.26C182.904 45.5133 182.957 45.7533 182.957 45.98C182.97 46.0467 182.977 46.1467 182.977 46.28C182.99 46.4 182.997 46.5267 182.997 46.66C182.997 46.7933 182.997 46.9267 182.997 47.06C183.01 47.18 183.017 47.2733 183.017 47.34V47.44C183.03 47.8667 183.037 48.3 183.037 48.74C183.037 49.18 183.037 49.6267 183.037 50.08V50.42C183.597 50.2333 184.184 50.1467 184.797 50.16C185.41 50.16 185.957 50.28 186.437 50.52C186.93 50.7733 187.304 51.06 187.557 51.38C187.824 51.7 188.017 52.0533 188.137 52.44C188.257 52.8267 188.324 53.24 188.337 53.68C188.364 54.12 188.384 54.58 188.397 55.06ZM202.247 45.02C202.5 44.9533 202.72 44.9467 202.907 45C203.107 45.04 203.274 45.1267 203.407 45.26C203.554 45.3933 203.66 45.56 203.727 45.76C203.807 45.96 203.847 46.18 203.847 46.42C203.86 47.0867 203.86 47.6067 203.847 47.98C203.847 48.3533 203.847 48.68 203.847 48.96V55.1C203.847 55.82 203.847 56.42 203.847 56.9C203.847 57.38 203.82 57.7733 203.767 58.08C203.727 58.3733 203.647 58.5933 203.527 58.74C203.42 58.8867 203.254 58.9867 203.027 59.04C202.8 59.1067 202.5 59.14 202.127 59.14C201.767 59.14 201.314 59.14 200.767 59.14C199.327 59.14 198.187 58.8 197.347 58.12C196.52 57.44 196.08 56.36 196.027 54.88C196 54.24 196.08 53.6533 196.267 53.12C196.454 52.5867 196.727 52.1333 197.087 51.76C197.46 51.3733 197.914 51.08 198.447 50.88C198.994 50.6667 199.614 50.5667 200.307 50.58H201.407V47C201.407 46.7867 201.407 46.58 201.407 46.38C201.407 46.1667 201.427 45.9733 201.467 45.8C201.507 45.6133 201.587 45.4533 201.707 45.32C201.827 45.1867 202.007 45.0867 202.247 45.02ZM198.767 56.12C199.047 56.5067 199.554 56.72 200.287 56.76C200.434 56.7733 200.574 56.78 200.707 56.78C200.84 56.7667 200.96 56.7467 201.067 56.72C201.187 56.7067 201.3 56.6867 201.407 56.66V52.96C200.94 52.88 200.514 52.8333 200.127 52.82C199.754 52.7933 199.38 52.9267 199.007 53.22C198.807 53.38 198.654 53.5867 198.547 53.84C198.44 54.08 198.38 54.34 198.367 54.62C198.354 54.8867 198.38 55.1533 198.447 55.42C198.514 55.6867 198.62 55.92 198.767 56.12ZM208.04 49.96C208.48 49.7467 208.94 49.5933 209.42 49.5C209.9 49.4067 210.373 49.3867 210.84 49.44C211.32 49.4933 211.78 49.62 212.22 49.82C212.673 50.02 213.087 50.3 213.46 50.66C213.767 50.9667 214.033 51.34 214.26 51.78C214.487 52.2067 214.653 52.6267 214.76 53.04C214.987 53.7733 215.02 54.5133 214.86 55.26C214.7 56.0067 214.427 56.7 214.04 57.34C213.853 57.6333 213.62 57.9 213.34 58.14C213.073 58.3667 212.787 58.5533 212.48 58.7C212.08 58.8867 211.647 59.0133 211.18 59.08C210.713 59.16 210.26 59.18 209.82 59.14C209.02 59.1 208.313 58.9 207.7 58.54C207.1 58.18 206.613 57.72 206.24 57.16C205.88 56.6 205.64 55.9667 205.52 55.26C205.413 54.54 205.46 53.8067 205.66 53.06C205.873 52.26 206.18 51.6133 206.58 51.12C206.993 50.6133 207.48 50.2267 208.04 49.96ZM208.64 52.64C208.44 52.8267 208.287 53.06 208.18 53.34C208.073 53.62 208.007 53.9133 207.98 54.22C207.953 54.5133 207.973 54.8133 208.04 55.12C208.12 55.4133 208.24 55.68 208.4 55.92C208.533 56.12 208.773 56.2867 209.12 56.42C209.467 56.5533 209.827 56.6333 210.2 56.66C210.627 56.6867 211 56.5733 211.32 56.32C211.64 56.0533 211.88 55.7267 212.04 55.34C212.213 54.9533 212.293 54.5333 212.28 54.08C212.267 53.6267 212.147 53.2133 211.92 52.84C211.76 52.5733 211.533 52.38 211.24 52.26C210.96 52.1267 210.66 52.06 210.34 52.06C210.033 52.0467 209.727 52.0933 209.42 52.2C209.113 52.2933 208.853 52.44 208.64 52.64ZM223.474 56.26C223.634 56.22 223.794 56.1933 223.954 56.18C224.127 56.1667 224.281 56.1867 224.414 56.24C224.561 56.2933 224.681 56.3867 224.774 56.52C224.867 56.64 224.914 56.8133 224.914 57.04C224.914 57.2 224.874 57.3533 224.794 57.5C224.714 57.6467 224.614 57.78 224.494 57.9C224.374 58.02 224.241 58.1267 224.094 58.22C223.947 58.3 223.807 58.3667 223.674 58.42C223.287 58.5933 222.841 58.7267 222.334 58.82C221.841 58.9133 221.327 58.9467 220.794 58.92C220.074 58.8933 219.381 58.7533 218.714 58.5C218.061 58.2333 217.547 57.8 217.174 57.2C216.827 56.6133 216.621 55.96 216.554 55.24C216.487 54.52 216.521 53.84 216.654 53.2C216.801 52.4267 217.047 51.8 217.394 51.32C217.754 50.8267 218.181 50.4333 218.674 50.14C219.274 49.7933 219.947 49.6133 220.694 49.6C221.441 49.5867 222.154 49.7333 222.834 50.04C223.287 50.24 223.694 50.5133 224.054 50.86C224.414 51.1933 224.687 51.6 224.874 52.08C224.927 52.2 224.967 52.3467 224.994 52.52C225.034 52.6933 225.061 52.88 225.074 53.08C225.087 53.2667 225.087 53.4533 225.074 53.64C225.061 53.8267 225.027 53.9933 224.974 54.14C224.894 54.38 224.794 54.5667 224.674 54.7C224.554 54.8333 224.401 54.9333 224.214 55C224.027 55.0667 223.801 55.1133 223.534 55.14C223.281 55.1533 222.974 55.1667 222.614 55.18C222.294 55.1933 221.994 55.2 221.714 55.2C221.434 55.2 221.147 55.2 220.854 55.2C220.561 55.1867 220.254 55.18 219.934 55.18C219.627 55.1667 219.281 55.1533 218.894 55.14C218.854 55.4067 218.887 55.64 218.994 55.84C219.114 56.0267 219.274 56.1867 219.474 56.32C219.674 56.44 219.901 56.5333 220.154 56.6C220.407 56.6667 220.654 56.7067 220.894 56.72C221.347 56.7467 221.781 56.7133 222.194 56.62C222.607 56.5133 223.034 56.3933 223.474 56.26ZM222.614 52.38C222.361 52.0867 222.094 51.8733 221.814 51.74C221.601 51.6467 221.374 51.6067 221.134 51.62C220.907 51.62 220.687 51.6533 220.474 51.72C220.087 51.8133 219.761 52.0133 219.494 52.32C219.467 52.3467 219.421 52.4133 219.354 52.52C219.287 52.6133 219.221 52.7133 219.154 52.82C219.101 52.9267 219.061 53.0267 219.034 53.12C219.007 53.2133 219.021 53.26 219.074 53.26H222.994C222.981 53.0733 222.947 52.92 222.894 52.8C222.841 52.6667 222.747 52.5267 222.614 52.38ZM231.471 55.48C231.217 55.32 230.931 55.1933 230.611 55.1C230.304 55.0067 229.984 54.92 229.651 54.84C229.331 54.76 229.017 54.6733 228.711 54.58C228.404 54.4733 228.124 54.3267 227.871 54.14C227.324 53.7267 227.004 53.22 226.911 52.62C226.831 52.0067 226.964 51.3933 227.311 50.78C227.497 50.46 227.744 50.2 228.051 50C228.357 49.7867 228.691 49.6267 229.051 49.52C229.424 49.4 229.804 49.3333 230.191 49.32C230.577 49.3067 230.944 49.3267 231.291 49.38C231.517 49.42 231.757 49.48 232.011 49.56C232.264 49.6267 232.497 49.72 232.711 49.84C232.937 49.96 233.137 50.1133 233.311 50.3C233.497 50.4733 233.631 50.6933 233.711 50.96C233.764 51.1333 233.771 51.3 233.731 51.46C233.704 51.62 233.637 51.7533 233.531 51.86C233.437 51.9667 233.311 52.0467 233.151 52.1C233.004 52.1533 232.844 52.1667 232.671 52.14C232.471 52.1 232.284 52.04 232.111 51.96C231.937 51.88 231.764 51.7933 231.591 51.7C231.417 51.6067 231.237 51.5267 231.051 51.46C230.877 51.3933 230.691 51.36 230.491 51.36C230.184 51.3467 229.931 51.4 229.731 51.52C229.531 51.64 229.391 51.7867 229.311 51.96C229.244 52.1333 229.251 52.32 229.331 52.52C229.424 52.72 229.611 52.8933 229.891 53.04C230.144 53.1733 230.424 53.28 230.731 53.36C231.037 53.44 231.337 53.52 231.631 53.6C231.937 53.68 232.231 53.7733 232.511 53.88C232.804 53.9867 233.064 54.1333 233.291 54.32C233.731 54.68 233.997 55.1 234.091 55.58C234.197 56.06 234.171 56.5333 234.011 57C233.851 57.4667 233.571 57.88 233.171 58.24C232.784 58.6 232.324 58.84 231.791 58.96C231.404 59.04 230.984 59.08 230.531 59.08C230.091 59.08 229.651 59.0333 229.211 58.94C228.784 58.8467 228.371 58.7 227.971 58.5C227.584 58.3 227.257 58.0467 226.991 57.74C226.804 57.5267 226.704 57.2867 226.691 57.02C226.691 56.74 226.744 56.5 226.851 56.3C226.971 56.0867 227.137 55.94 227.351 55.86C227.564 55.78 227.804 55.8267 228.071 56C228.284 56.1467 228.537 56.2933 228.831 56.44C229.124 56.5733 229.417 56.68 229.711 56.76C230.004 56.84 230.284 56.88 230.551 56.88C230.831 56.88 231.071 56.82 231.271 56.7C231.564 56.5133 231.717 56.3 231.731 56.06C231.744 55.8067 231.657 55.6133 231.471 55.48ZM244.289 51.42C244.289 51.7933 244.289 52.2133 244.289 52.68C244.302 53.1467 244.309 53.6333 244.309 54.14C244.309 54.6333 244.309 55.1267 244.309 55.62C244.309 56.1 244.302 56.5467 244.289 56.96C244.275 57.16 244.255 57.38 244.229 57.62C244.202 57.8467 244.149 58.06 244.069 58.26C243.989 58.46 243.862 58.6267 243.689 58.76C243.529 58.88 243.309 58.9333 243.029 58.92C242.615 58.8933 242.315 58.7133 242.129 58.38C241.955 58.0467 241.855 57.58 241.829 56.98C241.829 56.6733 241.822 56.32 241.809 55.92C241.809 55.52 241.802 55.1133 241.789 54.7C241.789 54.2867 241.789 53.8867 241.789 53.5C241.789 53.1 241.789 52.74 241.789 52.42C241.789 52.2333 241.782 52.0067 241.769 51.74C241.769 51.4733 241.775 51.2 241.789 50.92C241.802 50.64 241.835 50.3733 241.889 50.12C241.942 49.8533 242.029 49.6333 242.149 49.46C242.242 49.3533 242.375 49.2733 242.549 49.22C242.722 49.1533 242.902 49.12 243.089 49.12C243.289 49.12 243.475 49.1533 243.649 49.22C243.835 49.2867 243.969 49.38 244.049 49.5C244.102 49.58 244.142 49.6933 244.169 49.84C244.195 49.9867 244.215 50.1533 244.229 50.34C244.255 50.5133 244.269 50.7 244.269 50.9C244.282 51.0867 244.289 51.26 244.289 51.42ZM243.529 47.38C243.115 47.4867 242.769 47.4467 242.489 47.26C242.222 47.06 242.055 46.7667 241.989 46.38C241.935 46.1 241.955 45.8533 242.049 45.64C242.142 45.4267 242.282 45.2667 242.469 45.16C242.655 45.04 242.869 44.9867 243.109 45C243.349 45.0133 243.589 45.1067 243.829 45.28C244.055 45.44 244.215 45.6267 244.309 45.84C244.415 46.0533 244.449 46.26 244.409 46.46C244.382 46.66 244.295 46.8467 244.149 47.02C244.002 47.18 243.795 47.3 243.529 47.38ZM254.586 50.18C254.693 50.4333 254.699 50.7133 254.606 51.02C254.526 51.3267 254.373 51.5267 254.146 51.62C254.026 51.6733 253.866 51.72 253.666 51.76C253.466 51.7867 253.246 51.8133 253.006 51.84C252.779 51.8667 252.553 51.8867 252.326 51.9C252.099 51.9133 251.906 51.92 251.746 51.92C251.759 52.32 251.773 52.7333 251.786 53.16C251.799 53.5733 251.813 53.98 251.826 54.38C251.839 54.78 251.846 55.1667 251.846 55.54C251.846 55.9 251.839 56.2267 251.826 56.52C251.826 56.72 251.826 56.9533 251.826 57.22C251.826 57.4733 251.806 57.72 251.766 57.96C251.739 58.2 251.693 58.4133 251.626 58.6C251.559 58.7733 251.459 58.8867 251.326 58.94C250.913 59.1133 250.533 59.16 250.186 59.08C249.853 59.0133 249.613 58.8733 249.466 58.66C249.359 58.4867 249.279 58.2867 249.226 58.06C249.173 57.82 249.133 57.58 249.106 57.34C249.093 57.0867 249.086 56.8467 249.086 56.62C249.099 56.38 249.106 56.1733 249.106 56C249.119 55.44 249.126 54.8067 249.126 54.1C249.139 53.38 249.146 52.66 249.146 51.94H248.846C248.686 51.94 248.479 51.94 248.226 51.94C247.986 51.9267 247.739 51.9067 247.486 51.88C247.246 51.84 247.019 51.7933 246.806 51.74C246.593 51.6733 246.439 51.58 246.346 51.46C246.199 51.2867 246.106 51.1 246.066 50.9C246.039 50.7 246.053 50.5133 246.106 50.34C246.173 50.1533 246.273 49.9933 246.406 49.86C246.539 49.7133 246.693 49.62 246.866 49.58C247.106 49.5133 247.446 49.48 247.886 49.48C248.326 49.4667 248.739 49.4667 249.126 49.48C249.113 49.3467 249.106 49.22 249.106 49.1C249.106 48.9667 249.099 48.84 249.086 48.72C249.073 48.56 249.066 48.36 249.066 48.12C249.066 47.8667 249.079 47.62 249.106 47.38C249.146 47.1267 249.206 46.8933 249.286 46.68C249.366 46.4533 249.479 46.28 249.626 46.16C249.826 46 250.026 45.9133 250.226 45.9C250.439 45.8733 250.633 45.9 250.806 45.98C250.993 46.06 251.146 46.18 251.266 46.34C251.399 46.4867 251.493 46.6533 251.546 46.84C251.586 47 251.619 47.1933 251.646 47.42C251.673 47.6333 251.686 47.86 251.686 48.1C251.699 48.34 251.706 48.58 251.706 48.82C251.706 49.06 251.706 49.28 251.706 49.48H251.906C252.106 49.48 252.339 49.4733 252.606 49.46C252.873 49.4467 253.133 49.4533 253.386 49.48C253.653 49.5067 253.893 49.5733 254.106 49.68C254.319 49.7733 254.479 49.94 254.586 50.18ZM118.467 76.3C118.573 76.4867 118.627 76.6867 118.627 76.9C118.64 77.1133 118.593 77.3133 118.487 77.5C118.367 77.74 118.193 77.9067 117.967 78C117.753 78.08 117.513 78.0867 117.247 78.02C117.127 77.9933 117.02 77.9467 116.927 77.88C116.833 77.8133 116.733 77.7467 116.627 77.68C116.533 77.6 116.42 77.5267 116.287 77.46C116.167 77.3933 116.007 77.3467 115.807 77.32C115.607 77.2933 115.387 77.2933 115.147 77.32C114.92 77.3467 114.713 77.4 114.527 77.48C114.233 77.6267 114 77.8533 113.827 78.16C113.653 78.4533 113.54 78.7733 113.487 79.12C113.433 79.4533 113.44 79.7933 113.507 80.14C113.587 80.4867 113.733 80.78 113.947 81.02C114.107 81.2067 114.313 81.36 114.567 81.48C114.833 81.6 115.087 81.6733 115.327 81.7C115.553 81.7267 115.78 81.7267 116.007 81.7C116.233 81.66 116.453 81.6067 116.667 81.54C116.827 81.4733 117.007 81.3867 117.207 81.28C117.407 81.16 117.6 81.0867 117.787 81.06C118.027 81.06 118.213 81.1267 118.347 81.26C118.48 81.38 118.573 81.5333 118.627 81.72C118.68 81.8933 118.687 82.08 118.647 82.28C118.62 82.48 118.547 82.6533 118.427 82.8C118.267 83 118.04 83.1933 117.747 83.38C117.453 83.5533 117.173 83.68 116.907 83.76C116.587 83.8667 116.227 83.9267 115.827 83.94C115.44 83.9533 115.073 83.94 114.727 83.9C114.567 83.8733 114.4 83.84 114.227 83.8C114.053 83.76 113.887 83.7133 113.727 83.66C113.14 83.4467 112.647 83.1467 112.247 82.76C111.86 82.36 111.56 81.9133 111.347 81.42C111.147 80.9267 111.033 80.4 111.007 79.84C110.98 79.28 111.047 78.7267 111.207 78.18C111.353 77.66 111.533 77.22 111.747 76.86C111.973 76.5 112.233 76.2067 112.527 75.98C112.833 75.74 113.173 75.5533 113.547 75.42C113.92 75.2733 114.333 75.1467 114.787 75.04C115.253 74.9467 115.747 74.9467 116.267 75.04C116.787 75.1333 117.253 75.3067 117.667 75.56C117.987 75.7333 118.253 75.98 118.467 76.3ZM122.845 74.96C123.285 74.7467 123.745 74.5933 124.225 74.5C124.705 74.4067 125.178 74.3867 125.645 74.44C126.125 74.4933 126.585 74.62 127.025 74.82C127.478 75.02 127.892 75.3 128.265 75.66C128.572 75.9667 128.838 76.34 129.065 76.78C129.292 77.2067 129.458 77.6267 129.565 78.04C129.792 78.7733 129.825 79.5133 129.665 80.26C129.505 81.0067 129.232 81.7 128.845 82.34C128.658 82.6333 128.425 82.9 128.145 83.14C127.878 83.3667 127.592 83.5533 127.285 83.7C126.885 83.8867 126.452 84.0133 125.985 84.08C125.518 84.16 125.065 84.18 124.625 84.14C123.825 84.1 123.118 83.9 122.505 83.54C121.905 83.18 121.418 82.72 121.045 82.16C120.685 81.6 120.445 80.9667 120.325 80.26C120.218 79.54 120.265 78.8067 120.465 78.06C120.678 77.26 120.985 76.6133 121.385 76.12C121.798 75.6133 122.285 75.2267 122.845 74.96ZM123.445 77.64C123.245 77.8267 123.092 78.06 122.985 78.34C122.878 78.62 122.812 78.9133 122.785 79.22C122.758 79.5133 122.778 79.8133 122.845 80.12C122.925 80.4133 123.045 80.68 123.205 80.92C123.338 81.12 123.578 81.2867 123.925 81.42C124.272 81.5533 124.632 81.6333 125.005 81.66C125.432 81.6867 125.805 81.5733 126.125 81.32C126.445 81.0533 126.685 80.7267 126.845 80.34C127.018 79.9533 127.098 79.5333 127.085 79.08C127.072 78.6267 126.952 78.2133 126.725 77.84C126.565 77.5733 126.338 77.38 126.045 77.26C125.765 77.1267 125.465 77.06 125.145 77.06C124.838 77.0467 124.532 77.0933 124.225 77.2C123.918 77.2933 123.658 77.44 123.445 77.64ZM136.139 80.48C135.885 80.32 135.599 80.1933 135.279 80.1C134.972 80.0067 134.652 79.92 134.319 79.84C133.999 79.76 133.685 79.6733 133.379 79.58C133.072 79.4733 132.792 79.3267 132.539 79.14C131.992 78.7267 131.672 78.22 131.579 77.62C131.499 77.0067 131.632 76.3933 131.979 75.78C132.165 75.46 132.412 75.2 132.719 75C133.025 74.7867 133.359 74.6267 133.719 74.52C134.092 74.4 134.472 74.3333 134.859 74.32C135.245 74.3067 135.612 74.3267 135.959 74.38C136.185 74.42 136.425 74.48 136.679 74.56C136.932 74.6267 137.165 74.72 137.379 74.84C137.605 74.96 137.805 75.1133 137.979 75.3C138.165 75.4733 138.299 75.6933 138.379 75.96C138.432 76.1333 138.439 76.3 138.399 76.46C138.372 76.62 138.305 76.7533 138.199 76.86C138.105 76.9667 137.979 77.0467 137.819 77.1C137.672 77.1533 137.512 77.1667 137.339 77.14C137.139 77.1 136.952 77.04 136.779 76.96C136.605 76.88 136.432 76.7933 136.259 76.7C136.085 76.6067 135.905 76.5267 135.719 76.46C135.545 76.3933 135.359 76.36 135.159 76.36C134.852 76.3467 134.599 76.4 134.399 76.52C134.199 76.64 134.059 76.7867 133.979 76.96C133.912 77.1333 133.919 77.32 133.999 77.52C134.092 77.72 134.279 77.8933 134.559 78.04C134.812 78.1733 135.092 78.28 135.399 78.36C135.705 78.44 136.005 78.52 136.299 78.6C136.605 78.68 136.899 78.7733 137.179 78.88C137.472 78.9867 137.732 79.1333 137.959 79.32C138.399 79.68 138.665 80.1 138.759 80.58C138.865 81.06 138.839 81.5333 138.679 82C138.519 82.4667 138.239 82.88 137.839 83.24C137.452 83.6 136.992 83.84 136.459 83.96C136.072 84.04 135.652 84.08 135.199 84.08C134.759 84.08 134.319 84.0333 133.879 83.94C133.452 83.8467 133.039 83.7 132.639 83.5C132.252 83.3 131.925 83.0467 131.659 82.74C131.472 82.5267 131.372 82.2867 131.359 82.02C131.359 81.74 131.412 81.5 131.519 81.3C131.639 81.0867 131.805 80.94 132.019 80.86C132.232 80.78 132.472 80.8267 132.739 81C132.952 81.1467 133.205 81.2933 133.499 81.44C133.792 81.5733 134.085 81.68 134.379 81.76C134.672 81.84 134.952 81.88 135.219 81.88C135.499 81.88 135.739 81.82 135.939 81.7C136.232 81.5133 136.385 81.3 136.399 81.06C136.412 80.8067 136.325 80.6133 136.139 80.48ZM148.121 75.18C148.228 75.4333 148.235 75.7133 148.141 76.02C148.061 76.3267 147.908 76.5267 147.681 76.62C147.561 76.6733 147.401 76.72 147.201 76.76C147.001 76.7867 146.781 76.8133 146.541 76.84C146.315 76.8667 146.088 76.8867 145.861 76.9C145.635 76.9133 145.441 76.92 145.281 76.92C145.295 77.32 145.308 77.7333 145.321 78.16C145.335 78.5733 145.348 78.98 145.361 79.38C145.375 79.78 145.381 80.1667 145.381 80.54C145.381 80.9 145.375 81.2267 145.361 81.52C145.361 81.72 145.361 81.9533 145.361 82.22C145.361 82.4733 145.341 82.72 145.301 82.96C145.275 83.2 145.228 83.4133 145.161 83.6C145.095 83.7733 144.995 83.8867 144.861 83.94C144.448 84.1133 144.068 84.16 143.721 84.08C143.388 84.0133 143.148 83.8733 143.001 83.66C142.895 83.4867 142.815 83.2867 142.761 83.06C142.708 82.82 142.668 82.58 142.641 82.34C142.628 82.0867 142.621 81.8467 142.621 81.62C142.635 81.38 142.641 81.1733 142.641 81C142.655 80.44 142.661 79.8067 142.661 79.1C142.675 78.38 142.681 77.66 142.681 76.94H142.381C142.221 76.94 142.015 76.94 141.761 76.94C141.521 76.9267 141.275 76.9067 141.021 76.88C140.781 76.84 140.555 76.7933 140.341 76.74C140.128 76.6733 139.975 76.58 139.881 76.46C139.735 76.2867 139.641 76.1 139.601 75.9C139.575 75.7 139.588 75.5133 139.641 75.34C139.708 75.1533 139.808 74.9933 139.941 74.86C140.075 74.7133 140.228 74.62 140.401 74.58C140.641 74.5133 140.981 74.48 141.421 74.48C141.861 74.4667 142.275 74.4667 142.661 74.48C142.648 74.3467 142.641 74.22 142.641 74.1C142.641 73.9667 142.635 73.84 142.621 73.72C142.608 73.56 142.601 73.36 142.601 73.12C142.601 72.8667 142.615 72.62 142.641 72.38C142.681 72.1267 142.741 71.8933 142.821 71.68C142.901 71.4533 143.015 71.28 143.161 71.16C143.361 71 143.561 70.9133 143.761 70.9C143.975 70.8733 144.168 70.9 144.341 70.98C144.528 71.06 144.681 71.18 144.801 71.34C144.935 71.4867 145.028 71.6533 145.081 71.84C145.121 72 145.155 72.1933 145.181 72.42C145.208 72.6333 145.221 72.86 145.221 73.1C145.235 73.34 145.241 73.58 145.241 73.82C145.241 74.06 145.241 74.28 145.241 74.48H145.441C145.641 74.48 145.875 74.4733 146.141 74.46C146.408 74.4467 146.668 74.4533 146.921 74.48C147.188 74.5067 147.428 74.5733 147.641 74.68C147.855 74.7733 148.015 74.94 148.121 75.18ZM164.352 75.18C164.458 75.4333 164.465 75.7133 164.372 76.02C164.292 76.3267 164.138 76.5267 163.912 76.62C163.792 76.6733 163.632 76.72 163.432 76.76C163.232 76.7867 163.012 76.8133 162.772 76.84C162.545 76.8667 162.318 76.8867 162.092 76.9C161.865 76.9133 161.672 76.92 161.512 76.92C161.525 77.32 161.538 77.7333 161.552 78.16C161.565 78.5733 161.578 78.98 161.592 79.38C161.605 79.78 161.612 80.1667 161.612 80.54C161.612 80.9 161.605 81.2267 161.592 81.52C161.592 81.72 161.592 81.9533 161.592 82.22C161.592 82.4733 161.572 82.72 161.532 82.96C161.505 83.2 161.458 83.4133 161.392 83.6C161.325 83.7733 161.225 83.8867 161.092 83.94C160.678 84.1133 160.298 84.16 159.952 84.08C159.618 84.0133 159.378 83.8733 159.232 83.66C159.125 83.4867 159.045 83.2867 158.992 83.06C158.938 82.82 158.898 82.58 158.872 82.34C158.858 82.0867 158.852 81.8467 158.852 81.62C158.865 81.38 158.872 81.1733 158.872 81C158.885 80.44 158.892 79.8067 158.892 79.1C158.905 78.38 158.912 77.66 158.912 76.94H158.612C158.452 76.94 158.245 76.94 157.992 76.94C157.752 76.9267 157.505 76.9067 157.252 76.88C157.012 76.84 156.785 76.7933 156.572 76.74C156.358 76.6733 156.205 76.58 156.112 76.46C155.965 76.2867 155.872 76.1 155.832 75.9C155.805 75.7 155.818 75.5133 155.872 75.34C155.938 75.1533 156.038 74.9933 156.172 74.86C156.305 74.7133 156.458 74.62 156.632 74.58C156.872 74.5133 157.212 74.48 157.652 74.48C158.092 74.4667 158.505 74.4667 158.892 74.48C158.878 74.3467 158.872 74.22 158.872 74.1C158.872 73.9667 158.865 73.84 158.852 73.72C158.838 73.56 158.832 73.36 158.832 73.12C158.832 72.8667 158.845 72.62 158.872 72.38C158.912 72.1267 158.972 71.8933 159.052 71.68C159.132 71.4533 159.245 71.28 159.392 71.16C159.592 71 159.792 70.9133 159.992 70.9C160.205 70.8733 160.398 70.9 160.572 70.98C160.758 71.06 160.912 71.18 161.032 71.34C161.165 71.4867 161.258 71.6533 161.312 71.84C161.352 72 161.385 72.1933 161.412 72.42C161.438 72.6333 161.452 72.86 161.452 73.1C161.465 73.34 161.472 73.58 161.472 73.82C161.472 74.06 161.472 74.28 161.472 74.48H161.672C161.872 74.48 162.105 74.4733 162.372 74.46C162.638 74.4467 162.898 74.4533 163.152 74.48C163.418 74.5067 163.658 74.5733 163.872 74.68C164.085 74.7733 164.245 74.94 164.352 75.18ZM167.552 74.96C167.992 74.7467 168.452 74.5933 168.932 74.5C169.412 74.4067 169.885 74.3867 170.352 74.44C170.832 74.4933 171.292 74.62 171.732 74.82C172.185 75.02 172.599 75.3 172.972 75.66C173.279 75.9667 173.545 76.34 173.772 76.78C173.999 77.2067 174.165 77.6267 174.272 78.04C174.499 78.7733 174.532 79.5133 174.372 80.26C174.212 81.0067 173.939 81.7 173.552 82.34C173.365 82.6333 173.132 82.9 172.852 83.14C172.585 83.3667 172.299 83.5533 171.992 83.7C171.592 83.8867 171.159 84.0133 170.692 84.08C170.225 84.16 169.772 84.18 169.332 84.14C168.532 84.1 167.825 83.9 167.212 83.54C166.612 83.18 166.125 82.72 165.752 82.16C165.392 81.6 165.152 80.9667 165.032 80.26C164.925 79.54 164.972 78.8067 165.172 78.06C165.385 77.26 165.692 76.6133 166.092 76.12C166.505 75.6133 166.992 75.2267 167.552 74.96ZM168.152 77.64C167.952 77.8267 167.799 78.06 167.692 78.34C167.585 78.62 167.519 78.9133 167.492 79.22C167.465 79.5133 167.485 79.8133 167.552 80.12C167.632 80.4133 167.752 80.68 167.912 80.92C168.045 81.12 168.285 81.2867 168.632 81.42C168.979 81.5533 169.339 81.6333 169.712 81.66C170.139 81.6867 170.512 81.5733 170.832 81.32C171.152 81.0533 171.392 80.7267 171.552 80.34C171.725 79.9533 171.805 79.5333 171.792 79.08C171.779 78.6267 171.659 78.2133 171.432 77.84C171.272 77.5733 171.045 77.38 170.752 77.26C170.472 77.1267 170.172 77.06 169.852 77.06C169.545 77.0467 169.239 77.0933 168.932 77.2C168.625 77.2933 168.365 77.44 168.152 77.64ZM184.402 75.58C184.802 75.38 185.222 75.24 185.662 75.16C186.102 75.0667 186.535 75.0467 186.962 75.1C187.402 75.14 187.822 75.2533 188.222 75.44C188.622 75.6133 188.995 75.8667 189.342 76.2C189.688 76.5467 189.955 76.9267 190.142 77.34C190.328 77.7533 190.462 78.2133 190.542 78.72C190.595 79.0667 190.682 79.3867 190.802 79.68C190.922 79.9733 191.048 80.2667 191.182 80.56C191.328 80.8533 191.462 81.1467 191.582 81.44C191.715 81.7333 191.822 82.04 191.902 82.36C191.968 82.6667 191.942 82.9667 191.822 83.26C191.715 83.54 191.488 83.7133 191.142 83.78C190.942 83.82 190.748 83.8067 190.562 83.74C190.388 83.66 190.228 83.5533 190.082 83.42C189.935 83.2733 189.802 83.12 189.682 82.96C189.575 82.7867 189.475 82.6267 189.382 82.48C189.075 82.88 188.742 83.1933 188.382 83.42C188.022 83.6333 187.588 83.7733 187.082 83.84C186.655 83.8933 186.248 83.9067 185.862 83.88C185.475 83.8533 185.062 83.78 184.622 83.66C184.048 83.5133 183.575 83.26 183.202 82.9C182.842 82.5267 182.562 82.1 182.362 81.62C182.175 81.1267 182.075 80.6 182.062 80.04C182.048 79.48 182.115 78.9267 182.262 78.38C182.448 77.66 182.728 77.0733 183.102 76.62C183.475 76.1667 183.908 75.82 184.402 75.58ZM184.902 77.92C184.715 78.1067 184.568 78.3267 184.462 78.58C184.355 78.8333 184.288 79.1 184.262 79.38C184.248 79.66 184.275 79.94 184.342 80.22C184.408 80.5 184.515 80.7467 184.662 80.96C184.795 81.1467 185.022 81.3067 185.342 81.44C185.662 81.56 185.995 81.6333 186.342 81.66C186.742 81.6867 187.088 81.58 187.382 81.34C187.688 81.1 187.915 80.8 188.062 80.44C188.222 80.0667 188.295 79.6733 188.282 79.26C188.268 78.8333 188.155 78.4467 187.942 78.1C187.782 77.8467 187.568 77.66 187.302 77.54C187.048 77.42 186.775 77.36 186.482 77.36C186.188 77.3467 185.895 77.3933 185.602 77.5C185.322 77.5933 185.088 77.7333 184.902 77.92ZM199.742 75.18C199.849 75.4333 199.856 75.7133 199.762 76.02C199.682 76.3267 199.529 76.5267 199.302 76.62C199.182 76.6733 199.022 76.72 198.822 76.76C198.622 76.7867 198.402 76.8133 198.162 76.84C197.936 76.8667 197.709 76.8867 197.482 76.9C197.256 76.9133 197.062 76.92 196.902 76.92C196.916 77.32 196.929 77.7333 196.942 78.16C196.956 78.5733 196.969 78.98 196.982 79.38C196.996 79.78 197.002 80.1667 197.002 80.54C197.002 80.9 196.996 81.2267 196.982 81.52C196.982 81.72 196.982 81.9533 196.982 82.22C196.982 82.4733 196.962 82.72 196.922 82.96C196.896 83.2 196.849 83.4133 196.782 83.6C196.716 83.7733 196.616 83.8867 196.482 83.94C196.069 84.1133 195.689 84.16 195.342 84.08C195.009 84.0133 194.769 83.8733 194.622 83.66C194.516 83.4867 194.436 83.2867 194.382 83.06C194.329 82.82 194.289 82.58 194.262 82.34C194.249 82.0867 194.242 81.8467 194.242 81.62C194.256 81.38 194.262 81.1733 194.262 81C194.276 80.44 194.282 79.8067 194.282 79.1C194.296 78.38 194.302 77.66 194.302 76.94H194.002C193.842 76.94 193.636 76.94 193.382 76.94C193.142 76.9267 192.896 76.9067 192.642 76.88C192.402 76.84 192.176 76.7933 191.962 76.74C191.749 76.6733 191.596 76.58 191.502 76.46C191.356 76.2867 191.262 76.1 191.222 75.9C191.196 75.7 191.209 75.5133 191.262 75.34C191.329 75.1533 191.429 74.9933 191.562 74.86C191.696 74.7133 191.849 74.62 192.022 74.58C192.262 74.5133 192.602 74.48 193.042 74.48C193.482 74.4667 193.896 74.4667 194.282 74.48C194.269 74.3467 194.262 74.22 194.262 74.1C194.262 73.9667 194.256 73.84 194.242 73.72C194.229 73.56 194.222 73.36 194.222 73.12C194.222 72.8667 194.236 72.62 194.262 72.38C194.302 72.1267 194.362 71.8933 194.442 71.68C194.522 71.4533 194.636 71.28 194.782 71.16C194.982 71 195.182 70.9133 195.382 70.9C195.596 70.8733 195.789 70.9 195.962 70.98C196.149 71.06 196.302 71.18 196.422 71.34C196.556 71.4867 196.649 71.6533 196.702 71.84C196.742 72 196.776 72.1933 196.802 72.42C196.829 72.6333 196.842 72.86 196.842 73.1C196.856 73.34 196.862 73.58 196.862 73.82C196.862 74.06 196.862 74.28 196.862 74.48H197.062C197.262 74.48 197.496 74.4733 197.762 74.46C198.029 74.4467 198.289 74.4533 198.542 74.48C198.809 74.5067 199.049 74.5733 199.262 74.68C199.476 74.7733 199.636 74.94 199.742 75.18ZM209.977 75.18C210.083 75.4333 210.09 75.7133 209.997 76.02C209.917 76.3267 209.763 76.5267 209.537 76.62C209.417 76.6733 209.257 76.72 209.057 76.76C208.857 76.7867 208.637 76.8133 208.397 76.84C208.17 76.8667 207.943 76.8867 207.717 76.9C207.49 76.9133 207.297 76.92 207.137 76.92C207.15 77.32 207.163 77.7333 207.177 78.16C207.19 78.5733 207.203 78.98 207.217 79.38C207.23 79.78 207.237 80.1667 207.237 80.54C207.237 80.9 207.23 81.2267 207.217 81.52C207.217 81.72 207.217 81.9533 207.217 82.22C207.217 82.4733 207.197 82.72 207.157 82.96C207.13 83.2 207.083 83.4133 207.017 83.6C206.95 83.7733 206.85 83.8867 206.717 83.94C206.303 84.1133 205.923 84.16 205.577 84.08C205.243 84.0133 205.003 83.8733 204.857 83.66C204.75 83.4867 204.67 83.2867 204.617 83.06C204.563 82.82 204.523 82.58 204.497 82.34C204.483 82.0867 204.477 81.8467 204.477 81.62C204.49 81.38 204.497 81.1733 204.497 81C204.51 80.44 204.517 79.8067 204.517 79.1C204.53 78.38 204.537 77.66 204.537 76.94H204.237C204.077 76.94 203.87 76.94 203.617 76.94C203.377 76.9267 203.13 76.9067 202.877 76.88C202.637 76.84 202.41 76.7933 202.197 76.74C201.983 76.6733 201.83 76.58 201.737 76.46C201.59 76.2867 201.497 76.1 201.457 75.9C201.43 75.7 201.443 75.5133 201.497 75.34C201.563 75.1533 201.663 74.9933 201.797 74.86C201.93 74.7133 202.083 74.62 202.257 74.58C202.497 74.5133 202.837 74.48 203.277 74.48C203.717 74.4667 204.13 74.4667 204.517 74.48C204.503 74.3467 204.497 74.22 204.497 74.1C204.497 73.9667 204.49 73.84 204.477 73.72C204.463 73.56 204.457 73.36 204.457 73.12C204.457 72.8667 204.47 72.62 204.497 72.38C204.537 72.1267 204.597 71.8933 204.677 71.68C204.757 71.4533 204.87 71.28 205.017 71.16C205.217 71 205.417 70.9133 205.617 70.9C205.83 70.8733 206.023 70.9 206.197 70.98C206.383 71.06 206.537 71.18 206.657 71.34C206.79 71.4867 206.883 71.6533 206.937 71.84C206.977 72 207.01 72.1933 207.037 72.42C207.063 72.6333 207.077 72.86 207.077 73.1C207.09 73.34 207.097 73.58 207.097 73.82C207.097 74.06 207.097 74.28 207.097 74.48H207.297C207.497 74.48 207.73 74.4733 207.997 74.46C208.263 74.4467 208.523 74.4533 208.777 74.48C209.043 74.5067 209.283 74.5733 209.497 74.68C209.71 74.7733 209.87 74.94 209.977 75.18ZM217.79 81.26C217.95 81.22 218.11 81.1933 218.27 81.18C218.444 81.1667 218.597 81.1867 218.73 81.24C218.877 81.2933 218.997 81.3867 219.09 81.52C219.184 81.64 219.23 81.8133 219.23 82.04C219.23 82.2 219.19 82.3533 219.11 82.5C219.03 82.6467 218.93 82.78 218.81 82.9C218.69 83.02 218.557 83.1267 218.41 83.22C218.264 83.3 218.124 83.3667 217.99 83.42C217.604 83.5933 217.157 83.7267 216.65 83.82C216.157 83.9133 215.644 83.9467 215.11 83.92C214.39 83.8933 213.697 83.7533 213.03 83.5C212.377 83.2333 211.864 82.8 211.49 82.2C211.144 81.6133 210.937 80.96 210.87 80.24C210.804 79.52 210.837 78.84 210.97 78.2C211.117 77.4267 211.364 76.8 211.71 76.32C212.07 75.8267 212.497 75.4333 212.99 75.14C213.59 74.7933 214.264 74.6133 215.01 74.6C215.757 74.5867 216.47 74.7333 217.15 75.04C217.604 75.24 218.01 75.5133 218.37 75.86C218.73 76.1933 219.004 76.6 219.19 77.08C219.244 77.2 219.284 77.3467 219.31 77.52C219.35 77.6933 219.377 77.88 219.39 78.08C219.404 78.2667 219.404 78.4533 219.39 78.64C219.377 78.8267 219.344 78.9933 219.29 79.14C219.21 79.38 219.11 79.5667 218.99 79.7C218.87 79.8333 218.717 79.9333 218.53 80C218.344 80.0667 218.117 80.1133 217.85 80.14C217.597 80.1533 217.29 80.1667 216.93 80.18C216.61 80.1933 216.31 80.2 216.03 80.2C215.75 80.2 215.464 80.2 215.17 80.2C214.877 80.1867 214.57 80.18 214.25 80.18C213.944 80.1667 213.597 80.1533 213.21 80.14C213.17 80.4067 213.204 80.64 213.31 80.84C213.43 81.0267 213.59 81.1867 213.79 81.32C213.99 81.44 214.217 81.5333 214.47 81.6C214.724 81.6667 214.97 81.7067 215.21 81.72C215.664 81.7467 216.097 81.7133 216.51 81.62C216.924 81.5133 217.35 81.3933 217.79 81.26ZM216.93 77.38C216.677 77.0867 216.41 76.8733 216.13 76.74C215.917 76.6467 215.69 76.6067 215.45 76.62C215.224 76.62 215.004 76.6533 214.79 76.72C214.404 76.8133 214.077 77.0133 213.81 77.32C213.784 77.3467 213.737 77.4133 213.67 77.52C213.604 77.6133 213.537 77.7133 213.47 77.82C213.417 77.9267 213.377 78.0267 213.35 78.12C213.324 78.2133 213.337 78.26 213.39 78.26H217.31C217.297 78.0733 217.264 77.92 217.21 77.8C217.157 77.6667 217.064 77.5267 216.93 77.38ZM221.027 76.86C221.027 76.5533 221.02 76.2267 221.007 75.88C221.007 75.5333 221.067 75.22 221.187 74.94C221.294 74.6867 221.467 74.5067 221.707 74.4C221.96 74.28 222.207 74.2533 222.447 74.32C222.687 74.36 222.874 74.4333 223.007 74.54C223.14 74.6467 223.234 74.7733 223.287 74.92C223.354 75.0533 223.394 75.2133 223.407 75.4C223.42 75.5733 223.434 75.7467 223.447 75.92C223.58 75.68 223.747 75.4867 223.947 75.34C224.147 75.1933 224.354 75.0733 224.567 74.98C224.78 74.8867 224.98 74.82 225.167 74.78C225.367 74.74 225.52 74.72 225.627 74.72C226.134 74.72 226.634 74.8333 227.127 75.06C227.634 75.2733 228.054 75.58 228.387 75.98C228.574 76.22 228.714 76.4733 228.807 76.74C228.914 76.9933 228.987 77.26 229.027 77.54C229.08 77.82 229.114 78.1067 229.127 78.4C229.14 78.68 229.154 78.9667 229.167 79.26C229.234 80.1133 229.234 80.96 229.167 81.8C229.154 81.9733 229.147 82.1733 229.147 82.4C229.147 82.6267 229.127 82.8533 229.087 83.08C229.06 83.2933 229 83.4867 228.907 83.66C228.827 83.82 228.687 83.92 228.487 83.96C228.207 84.0267 227.974 84.04 227.787 84C227.614 83.9733 227.474 83.9133 227.367 83.82C227.26 83.7267 227.18 83.6067 227.127 83.46C227.074 83.3133 227.027 83.1467 226.987 82.96C226.96 82.8133 226.934 82.6467 226.907 82.46C226.894 82.26 226.88 82.06 226.867 81.86C226.867 81.66 226.86 81.4667 226.847 81.28C226.847 81.08 226.847 80.9 226.847 80.74C226.847 80.4867 226.84 80.2067 226.827 79.9C226.814 79.5933 226.814 79.3067 226.827 79.04C226.827 78.4133 226.66 77.94 226.327 77.62C226.007 77.2867 225.567 77.1467 225.007 77.2C224.58 77.2533 224.207 77.4267 223.887 77.72C223.567 78 223.414 78.3667 223.427 78.82C223.427 78.9933 223.427 79.1533 223.427 79.3C223.427 79.4467 223.42 79.5933 223.407 79.74C223.407 79.8867 223.407 80.0467 223.407 80.22C223.407 80.3933 223.407 80.5867 223.407 80.8C223.407 81.24 223.407 81.7067 223.407 82.2C223.407 82.68 223.347 83.0733 223.227 83.38C223.12 83.7 222.94 83.92 222.687 84.04C222.434 84.16 222.134 84.1267 221.787 83.94C221.64 83.86 221.52 83.7533 221.427 83.62C221.347 83.4733 221.28 83.32 221.227 83.16C221.187 83 221.16 82.84 221.147 82.68C221.134 82.5067 221.12 82.3467 221.107 82.2C221.067 81.76 221.04 81.3533 221.027 80.98C221.027 80.5933 221.027 80.18 221.027 79.74V76.86ZM237.071 70.02C237.325 69.9533 237.545 69.9467 237.731 70C237.931 70.04 238.098 70.1267 238.231 70.26C238.378 70.3933 238.485 70.56 238.551 70.76C238.631 70.96 238.671 71.18 238.671 71.42C238.685 72.0867 238.685 72.6067 238.671 72.98C238.671 73.3533 238.671 73.68 238.671 73.96V80.1C238.671 80.82 238.671 81.42 238.671 81.9C238.671 82.38 238.645 82.7733 238.591 83.08C238.551 83.3733 238.471 83.5933 238.351 83.74C238.245 83.8867 238.078 83.9867 237.851 84.04C237.625 84.1067 237.325 84.14 236.951 84.14C236.591 84.14 236.138 84.14 235.591 84.14C234.151 84.14 233.011 83.8 232.171 83.12C231.345 82.44 230.905 81.36 230.851 79.88C230.825 79.24 230.905 78.6533 231.091 78.12C231.278 77.5867 231.551 77.1333 231.911 76.76C232.285 76.3733 232.738 76.08 233.271 75.88C233.818 75.6667 234.438 75.5667 235.131 75.58H236.231V72C236.231 71.7867 236.231 71.58 236.231 71.38C236.231 71.1667 236.251 70.9733 236.291 70.8C236.331 70.6133 236.411 70.4533 236.531 70.32C236.651 70.1867 236.831 70.0867 237.071 70.02ZM233.591 81.12C233.871 81.5067 234.378 81.72 235.111 81.76C235.258 81.7733 235.398 81.78 235.531 81.78C235.665 81.7667 235.785 81.7467 235.891 81.72C236.011 81.7067 236.125 81.6867 236.231 81.66V77.96C235.765 77.88 235.338 77.8333 234.951 77.82C234.578 77.7933 234.205 77.9267 233.831 78.22C233.631 78.38 233.478 78.5867 233.371 78.84C233.265 79.08 233.205 79.34 233.191 79.62C233.178 79.8867 233.205 80.1533 233.271 80.42C233.338 80.6867 233.445 80.92 233.591 81.12ZM240.764 73.5C240.711 73.1533 240.684 72.8 240.684 72.44C240.698 72.08 240.764 71.7267 240.884 71.38C241.031 70.9267 241.271 70.5267 241.604 70.18C241.938 69.8333 242.318 69.56 242.744 69.36C243.198 69.1467 243.658 69 244.124 68.92C244.604 68.8267 245.071 68.8067 245.524 68.86C245.991 68.9133 246.438 69.0333 246.864 69.22C247.304 69.3933 247.718 69.6467 248.104 69.98C248.518 70.34 248.824 70.76 249.024 71.24C249.238 71.7067 249.351 72.1933 249.364 72.7C249.391 73.2067 249.331 73.7133 249.184 74.22C249.051 74.7133 248.844 75.1733 248.564 75.6C248.564 75.6 248.558 75.6133 248.544 75.64C248.318 75.9467 248.058 76.2267 247.764 76.48C247.471 76.72 247.198 76.98 246.944 77.26C246.651 77.5667 246.478 77.88 246.424 78.2C246.371 78.5067 246.318 78.8533 246.264 79.24C246.224 79.6133 246.124 79.94 245.964 80.22C245.818 80.4867 245.538 80.6133 245.124 80.6C244.844 80.5867 244.631 80.5 244.484 80.34C244.351 80.1667 244.251 79.9667 244.184 79.74C244.131 79.5 244.111 79.2533 244.124 79C244.138 78.7333 244.158 78.5 244.184 78.3C244.264 77.8333 244.411 77.3933 244.624 76.98C244.838 76.5533 245.098 76.1533 245.404 75.78C245.578 75.58 245.751 75.4 245.924 75.24C246.098 75.0667 246.258 74.8867 246.404 74.7C246.551 74.5133 246.678 74.3133 246.784 74.1C246.891 73.8867 246.964 73.64 247.004 73.36C247.044 73.1067 247.024 72.8533 246.944 72.6C246.864 72.3333 246.744 72.1 246.584 71.9C246.424 71.6867 246.231 71.5133 246.004 71.38C245.778 71.2333 245.531 71.1533 245.264 71.14C245.024 71.1267 244.771 71.16 244.504 71.24C244.238 71.3067 243.991 71.42 243.764 71.58C243.538 71.7267 243.351 71.9067 243.204 72.12C243.071 72.3333 243.011 72.5733 243.024 72.84C243.038 73 243.064 73.1667 243.104 73.34C243.158 73.5 243.191 73.66 243.204 73.82C243.231 73.9667 243.224 74.1133 243.184 74.26C243.158 74.4067 243.071 74.5467 242.924 74.68C242.684 74.9067 242.444 75.02 242.204 75.02C241.964 75.0067 241.744 74.9267 241.544 74.78C241.344 74.6333 241.171 74.4467 241.024 74.22C240.891 73.98 240.804 73.74 240.764 73.5ZM246.524 83.48C246.524 83.8667 246.378 84.2133 246.084 84.52C245.804 84.8133 245.478 84.96 245.104 84.96C244.744 84.96 244.424 84.8133 244.144 84.52C243.864 84.2 243.724 83.8533 243.724 83.48C243.724 83.0667 243.864 82.72 244.144 82.44C244.424 82.1333 244.744 81.98 245.104 81.98C245.478 81.98 245.804 82.1333 246.084 82.44C246.378 82.7333 246.524 83.08 246.524 83.48Z" fill="black"/>
</g>
<defs>
<filter id="filter0_d_450_749" x="0" y="0" width="362" height="432" filterUnits="userSpaceOnUse" color-interpolation-filters="sRGB">
<feFlood flood-opacity="0" result="BackgroundImageFix"/>
<feColorMatrix in="SourceAlpha" type="matrix" values="0 0 0 0 0 0 0 0 0 0 0 0 0 0 0 0 0 0 127 0" result="hardAlpha"/>
<feOffset dy="4"/>
<feGaussianBlur stdDeviation="2"/>
<feComposite in2="hardAlpha" operator="out"/>
<feColorMatrix type="matrix" values="0 0 0 0 0 0 0 0 0 0 0 0 0 0 0 0 0 0 0.25 0"/>
<feBlend mode="normal" in2="BackgroundImageFix" result="effect1_dropShadow_450_749"/>
<feBlend mode="normal" in="SourceGraphic" in2="effect1_dropShadow_450_749" result="shape"/>
</filter>
</defs>
</svg>
