<svg width="362" height="432" viewBox="0 0 362 432" fill="none" xmlns="http://www.w3.org/2000/svg">
<g filter="url(#filter0_d_450_786)">
<path d="M45 0H313.5L358 424H4L45 0Z" fill="#FFFFC8"/>
<path d="M110.268 54.64C110.321 54.8933 110.321 55.16 110.268 55.44C110.241 55.5733 110.214 55.7067 110.188 55.84C110.174 55.96 110.154 56.0867 110.128 56.22L110.108 56.3C109.921 57.1267 109.708 58 109.468 58.92C109.241 59.8267 109.034 60.6867 108.848 61.5C108.688 62.1667 108.521 62.9 108.348 63.7C108.174 64.5 107.994 65.2333 107.808 65.9C107.741 66.1267 107.668 66.3533 107.588 66.58C107.521 66.8067 107.434 67.0333 107.328 67.26C107.234 67.46 107.121 67.64 106.988 67.8C106.868 67.9467 106.728 68.0533 106.568 68.12C106.408 68.2 106.234 68.2267 106.048 68.2C105.874 68.1867 105.681 68.1067 105.467 67.96C105.148 67.7333 104.908 67.42 104.748 67.02C104.601 66.62 104.448 66.2533 104.288 65.92C104.234 65.8267 104.154 65.62 104.048 65.3C103.941 64.98 103.828 64.6333 103.708 64.26C103.588 63.8733 103.468 63.5067 103.348 63.16C103.241 62.8 103.148 62.5333 103.068 62.36C102.948 62.6533 102.828 62.9867 102.708 63.36C102.588 63.7333 102.474 64.1 102.368 64.46C102.261 64.82 102.161 65.1467 102.068 65.44C101.988 65.72 101.928 65.9267 101.888 66.06C101.781 66.3267 101.661 66.62 101.528 66.94C101.408 67.26 101.254 67.5333 101.067 67.76C100.894 67.9867 100.681 68.1333 100.428 68.2C100.174 68.28 99.8742 68.2067 99.5275 67.98C99.2608 67.82 99.0742 67.5933 98.9675 67.3C98.9008 67.1133 98.8342 66.9333 98.7675 66.76C98.7008 66.5867 98.6475 66.4067 98.6075 66.22L98.2075 64.72L97.3875 61.5C97.2808 61.0867 97.1742 60.6667 97.0675 60.24C96.9742 59.8 96.8608 59.3467 96.7275 58.88C96.6608 58.6533 96.6008 58.4333 96.5475 58.22C96.5075 57.9933 96.4608 57.7533 96.4075 57.5C96.3675 57.2333 96.3142 56.9333 96.2475 56.6C96.1942 56.2667 96.1275 55.88 96.0475 55.44C96.0208 55.2933 96.0008 55.16 95.9875 55.04C95.9875 54.9067 96.0008 54.7733 96.0275 54.64C96.0542 54.44 96.1475 54.2667 96.3075 54.12C96.3742 54.0533 96.4542 54 96.5475 53.96C96.6408 53.92 96.7408 53.8867 96.8475 53.86C97.0075 53.8067 97.1742 53.78 97.3475 53.78C97.5075 53.78 97.6742 53.8333 97.8475 53.94C97.9675 54.0067 98.0608 54.0933 98.1275 54.2L98.3675 54.62C98.3942 54.7133 98.4208 54.8 98.4475 54.88C98.4742 54.9467 98.5008 55.02 98.5275 55.1C98.5542 55.1933 98.5742 55.28 98.5875 55.36C98.6008 55.4267 98.6142 55.4933 98.6275 55.56C98.7475 56.2533 98.8942 56.9267 99.0675 57.58C99.2408 58.2333 99.4008 58.86 99.5475 59.46C99.6008 59.7 99.6675 60 99.7475 60.36C99.8275 60.7067 99.9075 61.0733 99.9875 61.46C100.068 61.8333 100.148 62.1933 100.228 62.54C100.308 62.8867 100.388 63.16 100.467 63.36C100.641 62.76 100.814 62.16 100.988 61.56C101.174 60.96 101.374 60.3533 101.588 59.74C101.694 59.42 101.801 59.1333 101.908 58.88C102.028 58.6133 102.161 58.3933 102.308 58.22C102.454 58.0467 102.621 57.9333 102.808 57.88C102.994 57.8267 103.214 57.8467 103.468 57.94C103.694 58.0333 103.894 58.2333 104.068 58.54C104.241 58.8467 104.394 59.16 104.528 59.48C104.648 59.7733 104.761 60.0867 104.868 60.42C104.988 60.74 105.101 61.06 105.208 61.38C105.328 61.6867 105.441 61.98 105.548 62.26C105.654 62.54 105.761 62.78 105.868 62.98C105.908 62.8333 105.954 62.6467 106.008 62.42C106.061 62.1933 106.114 61.9533 106.168 61.7C106.234 61.4333 106.294 61.1733 106.348 60.92C106.401 60.6667 106.454 60.4333 106.508 60.22C106.681 59.5 106.861 58.78 107.048 58.06C107.234 57.3267 107.414 56.6067 107.588 55.9L107.688 55.56C107.714 55.4933 107.728 55.4267 107.728 55.36C107.741 55.28 107.761 55.1933 107.788 55.1C107.814 55.02 107.841 54.9467 107.868 54.88C107.894 54.8 107.921 54.7133 107.948 54.62C107.974 54.5533 108.001 54.4867 108.028 54.42C108.068 54.34 108.114 54.2667 108.168 54.2C108.208 54.1333 108.254 54.08 108.308 54.04C108.361 54 108.414 53.9667 108.468 53.94C108.654 53.8333 108.814 53.78 108.948 53.78C109.121 53.78 109.288 53.8067 109.448 53.86C109.661 53.9 109.854 53.9867 110.028 54.12C110.161 54.2533 110.241 54.4267 110.268 54.64ZM119.725 64.06C119.738 64.3267 119.745 64.6067 119.745 64.9C119.745 65.18 119.738 65.44 119.725 65.68C119.712 66.04 119.692 66.3733 119.665 66.68C119.638 66.9733 119.585 67.2267 119.505 67.44C119.425 67.64 119.298 67.7933 119.125 67.9C118.965 67.9933 118.738 68.02 118.445 67.98C118.138 67.94 117.918 67.7933 117.785 67.54C117.652 67.2867 117.558 67 117.505 66.68C117.465 66.3467 117.452 66.0133 117.465 65.68C117.478 65.3467 117.478 65.0867 117.465 64.9C117.452 64.6067 117.438 64.2733 117.425 63.9C117.425 63.5133 117.385 63.1533 117.305 62.82C117.238 62.4733 117.118 62.18 116.945 61.94C116.772 61.7 116.512 61.5733 116.165 61.56C115.725 61.5333 115.385 61.5667 115.145 61.66C114.918 61.7533 114.752 61.8933 114.645 62.08C114.538 62.2533 114.472 62.4667 114.445 62.72C114.432 62.9733 114.405 63.2467 114.365 63.54L114.345 64.32V65.78C114.345 66.02 114.338 66.2733 114.325 66.54C114.325 66.7933 114.285 67.0267 114.205 67.24C114.125 67.4533 113.998 67.6333 113.825 67.78C113.665 67.9267 113.425 68 113.105 68C112.705 68 112.405 67.8733 112.205 67.62C112.018 67.3533 111.925 67.0267 111.925 66.64V55.14C111.925 55.06 111.925 54.9867 111.925 54.92C111.938 54.84 111.952 54.76 111.965 54.68C111.992 54.6 112.012 54.5267 112.025 54.46C112.038 54.38 112.058 54.3067 112.085 54.24C112.125 54.1067 112.192 54.0067 112.285 53.94C112.352 53.8733 112.418 53.82 112.485 53.78C112.552 53.74 112.625 53.7133 112.705 53.7C112.772 53.6867 112.845 53.68 112.925 53.68C113.005 53.6667 113.085 53.66 113.165 53.66C113.365 53.66 113.558 53.72 113.745 53.84C113.825 53.8933 113.898 53.9533 113.965 54.02C114.032 54.0733 114.085 54.1533 114.125 54.26C114.232 54.5133 114.285 54.7533 114.285 54.98C114.298 55.0467 114.305 55.1467 114.305 55.28C114.318 55.4 114.325 55.5267 114.325 55.66C114.325 55.7933 114.325 55.9267 114.325 56.06C114.338 56.18 114.345 56.2733 114.345 56.34V56.44C114.358 56.8667 114.365 57.3 114.365 57.74C114.365 58.18 114.365 58.6267 114.365 59.08V59.42C114.925 59.2333 115.512 59.1467 116.125 59.16C116.738 59.16 117.285 59.28 117.765 59.52C118.258 59.7733 118.632 60.06 118.885 60.38C119.152 60.7 119.345 61.0533 119.465 61.44C119.585 61.8267 119.652 62.24 119.665 62.68C119.692 63.12 119.712 63.58 119.725 64.06ZM123.679 59.58C124.079 59.38 124.499 59.24 124.939 59.16C125.379 59.0667 125.812 59.0467 126.239 59.1C126.679 59.14 127.099 59.2533 127.499 59.44C127.899 59.6133 128.272 59.8667 128.619 60.2C128.966 60.5467 129.232 60.9267 129.419 61.34C129.606 61.7533 129.739 62.2133 129.819 62.72C129.872 63.0667 129.959 63.3867 130.079 63.68C130.199 63.9733 130.326 64.2667 130.459 64.56C130.606 64.8533 130.739 65.1467 130.859 65.44C130.992 65.7333 131.099 66.04 131.179 66.36C131.246 66.6667 131.219 66.9667 131.099 67.26C130.992 67.54 130.766 67.7133 130.419 67.78C130.219 67.82 130.026 67.8067 129.839 67.74C129.666 67.66 129.506 67.5533 129.359 67.42C129.212 67.2733 129.079 67.12 128.959 66.96C128.852 66.7867 128.752 66.6267 128.659 66.48C128.352 66.88 128.019 67.1933 127.659 67.42C127.299 67.6333 126.866 67.7733 126.359 67.84C125.932 67.8933 125.526 67.9067 125.139 67.88C124.752 67.8533 124.339 67.78 123.899 67.66C123.326 67.5133 122.852 67.26 122.479 66.9C122.119 66.5267 121.839 66.1 121.639 65.62C121.452 65.1267 121.352 64.6 121.339 64.04C121.326 63.48 121.392 62.9267 121.539 62.38C121.726 61.66 122.006 61.0733 122.379 60.62C122.752 60.1667 123.186 59.82 123.679 59.58ZM124.179 61.92C123.992 62.1067 123.846 62.3267 123.739 62.58C123.632 62.8333 123.566 63.1 123.539 63.38C123.526 63.66 123.552 63.94 123.619 64.22C123.686 64.5 123.792 64.7467 123.939 64.96C124.072 65.1467 124.299 65.3067 124.619 65.44C124.939 65.56 125.272 65.6333 125.619 65.66C126.019 65.6867 126.366 65.58 126.659 65.34C126.966 65.1 127.192 64.8 127.339 64.44C127.499 64.0667 127.572 63.6733 127.559 63.26C127.546 62.8333 127.432 62.4467 127.219 62.1C127.059 61.8467 126.846 61.66 126.579 61.54C126.326 61.42 126.052 61.36 125.759 61.36C125.466 61.3467 125.172 61.3933 124.879 61.5C124.599 61.5933 124.366 61.7333 124.179 61.92ZM139.02 59.18C139.126 59.4333 139.133 59.7133 139.04 60.02C138.96 60.3267 138.806 60.5267 138.58 60.62C138.46 60.6733 138.3 60.72 138.1 60.76C137.9 60.7867 137.68 60.8133 137.44 60.84C137.213 60.8667 136.986 60.8867 136.76 60.9C136.533 60.9133 136.34 60.92 136.18 60.92C136.193 61.32 136.206 61.7333 136.22 62.16C136.233 62.5733 136.246 62.98 136.26 63.38C136.273 63.78 136.28 64.1667 136.28 64.54C136.28 64.9 136.273 65.2267 136.26 65.52C136.26 65.72 136.26 65.9533 136.26 66.22C136.26 66.4733 136.24 66.72 136.2 66.96C136.173 67.2 136.126 67.4133 136.06 67.6C135.993 67.7733 135.893 67.8867 135.76 67.94C135.346 68.1133 134.966 68.16 134.62 68.08C134.286 68.0133 134.046 67.8733 133.9 67.66C133.793 67.4867 133.713 67.2867 133.66 67.06C133.606 66.82 133.566 66.58 133.54 66.34C133.526 66.0867 133.52 65.8467 133.52 65.62C133.533 65.38 133.54 65.1733 133.54 65C133.553 64.44 133.56 63.8067 133.56 63.1C133.573 62.38 133.58 61.66 133.58 60.94H133.28C133.12 60.94 132.913 60.94 132.66 60.94C132.42 60.9267 132.173 60.9067 131.92 60.88C131.68 60.84 131.453 60.7933 131.24 60.74C131.026 60.6733 130.873 60.58 130.78 60.46C130.633 60.2867 130.54 60.1 130.5 59.9C130.473 59.7 130.486 59.5133 130.54 59.34C130.606 59.1533 130.706 58.9933 130.84 58.86C130.973 58.7133 131.126 58.62 131.3 58.58C131.54 58.5133 131.88 58.48 132.32 58.48C132.76 58.4667 133.173 58.4667 133.56 58.48C133.546 58.3467 133.54 58.22 133.54 58.1C133.54 57.9667 133.533 57.84 133.52 57.72C133.506 57.56 133.5 57.36 133.5 57.12C133.5 56.8667 133.513 56.62 133.54 56.38C133.58 56.1267 133.64 55.8933 133.72 55.68C133.8 55.4533 133.913 55.28 134.06 55.16C134.26 55 134.46 54.9133 134.66 54.9C134.873 54.8733 135.066 54.9 135.24 54.98C135.426 55.06 135.58 55.18 135.7 55.34C135.833 55.4867 135.926 55.6533 135.98 55.84C136.02 56 136.053 56.1933 136.08 56.42C136.106 56.6333 136.12 56.86 136.12 57.1C136.133 57.34 136.14 57.58 136.14 57.82C136.14 58.06 136.14 58.28 136.14 58.48H136.34C136.54 58.48 136.773 58.4733 137.04 58.46C137.306 58.4467 137.566 58.4533 137.82 58.48C138.086 58.5067 138.326 58.5733 138.54 58.68C138.753 58.7733 138.913 58.94 139.02 59.18ZM149.23 60.42C149.23 60.7933 149.23 61.2133 149.23 61.68C149.243 62.1467 149.25 62.6333 149.25 63.14C149.25 63.6333 149.25 64.1267 149.25 64.62C149.25 65.1 149.243 65.5467 149.23 65.96C149.217 66.16 149.197 66.38 149.17 66.62C149.143 66.8467 149.09 67.06 149.01 67.26C148.93 67.46 148.803 67.6267 148.63 67.76C148.47 67.88 148.25 67.9333 147.97 67.92C147.557 67.8933 147.257 67.7133 147.07 67.38C146.897 67.0467 146.797 66.58 146.77 65.98C146.77 65.6733 146.763 65.32 146.75 64.92C146.75 64.52 146.743 64.1133 146.73 63.7C146.73 63.2867 146.73 62.8867 146.73 62.5C146.73 62.1 146.73 61.74 146.73 61.42C146.73 61.2333 146.723 61.0067 146.71 60.74C146.71 60.4733 146.717 60.2 146.73 59.92C146.743 59.64 146.777 59.3733 146.83 59.12C146.883 58.8533 146.97 58.6333 147.09 58.46C147.183 58.3533 147.317 58.2733 147.49 58.22C147.663 58.1533 147.843 58.12 148.03 58.12C148.23 58.12 148.417 58.1533 148.59 58.22C148.777 58.2867 148.91 58.38 148.99 58.5C149.043 58.58 149.083 58.6933 149.11 58.84C149.137 58.9867 149.157 59.1533 149.17 59.34C149.197 59.5133 149.21 59.7 149.21 59.9C149.223 60.0867 149.23 60.26 149.23 60.42ZM148.47 56.38C148.057 56.4867 147.71 56.4467 147.43 56.26C147.163 56.06 146.997 55.7667 146.93 55.38C146.877 55.1 146.897 54.8533 146.99 54.64C147.083 54.4267 147.223 54.2667 147.41 54.16C147.597 54.04 147.81 53.9867 148.05 54C148.29 54.0133 148.53 54.1067 148.77 54.28C148.997 54.44 149.157 54.6267 149.25 54.84C149.357 55.0533 149.39 55.26 149.35 55.46C149.323 55.66 149.237 55.8467 149.09 56.02C148.943 56.18 148.737 56.3 148.47 56.38ZM156.728 59.54C156.954 59.6067 157.101 59.7333 157.168 59.92C157.234 60.0933 157.254 60.28 157.228 60.48C157.148 60.8933 156.921 61.1467 156.548 61.24C156.334 61.2933 156.114 61.32 155.888 61.32C155.674 61.32 155.454 61.3267 155.228 61.34V65.96C155.228 66.28 155.208 66.6067 155.168 66.94C155.168 67.06 155.134 67.1867 155.068 67.32C155.041 67.3867 155.021 67.4267 155.008 67.44C155.008 67.4667 154.994 67.5067 154.968 67.56C154.888 67.7067 154.781 67.8267 154.648 67.92C154.354 68.08 154.041 68.12 153.708 68.04C153.508 68 153.354 67.9333 153.248 67.84C153.128 67.7467 153.041 67.6333 152.988 67.5C152.961 67.4333 152.941 67.3667 152.928 67.3C152.914 67.2333 152.894 67.1667 152.868 67.1C152.854 67.0333 152.841 66.9733 152.827 66.92C152.827 66.8533 152.827 66.8 152.827 66.76V65.6C152.827 64.9067 152.827 64.1867 152.827 63.44C152.841 62.6933 152.848 61.9733 152.848 61.28C152.541 61.2667 152.221 61.26 151.888 61.26C151.568 61.2467 151.334 61.1667 151.188 61.02C151.108 60.94 151.054 60.84 151.028 60.72C151.001 60.5867 150.988 60.4533 150.988 60.32C151.001 60.1867 151.028 60.0667 151.068 59.96C151.108 59.84 151.161 59.7533 151.228 59.7C151.401 59.54 151.554 59.4533 151.688 59.44C151.834 59.4133 152.014 59.3933 152.228 59.38C152.254 59.38 152.341 59.38 152.488 59.38C152.648 59.3667 152.748 59.36 152.788 59.36C152.801 58.9067 152.814 58.4533 152.827 58C152.841 57.5467 152.881 57.1333 152.948 56.76C153.028 56.3733 153.141 56.04 153.288 55.76C153.448 55.4667 153.688 55.2467 154.008 55.1C154.394 54.9267 154.834 54.82 155.327 54.78C155.821 54.74 156.268 54.8 156.668 54.96C156.854 55.0267 157.034 55.16 157.208 55.36C157.394 55.56 157.481 55.78 157.468 56.02C157.454 56.26 157.408 56.48 157.328 56.68C157.248 56.88 157.074 57.0133 156.808 57.08C156.688 57.1067 156.561 57.12 156.428 57.12C156.308 57.1067 156.181 57.1 156.048 57.1C155.914 57.1 155.788 57.12 155.668 57.16C155.561 57.1867 155.468 57.2467 155.388 57.34C155.321 57.42 155.274 57.5267 155.248 57.66C155.234 57.7933 155.221 57.9333 155.208 58.08C155.194 58.2267 155.188 58.3733 155.188 58.52C155.201 58.6533 155.208 58.7667 155.208 58.86V59.36C155.514 59.3867 155.794 59.4067 156.048 59.42C156.314 59.4333 156.541 59.4733 156.728 59.54ZM165.709 65.88L165.729 64.3L165.749 61.36C165.762 60.9333 165.769 60.4933 165.769 60.04C165.769 59.5867 165.769 59.12 165.769 58.64C165.769 58.16 165.769 57.7333 165.769 57.36C165.769 56.9867 165.782 56.5667 165.809 56.1V56.02C165.822 55.8867 165.829 55.7533 165.829 55.62C165.842 55.4733 165.849 55.3267 165.849 55.18C165.862 54.94 165.936 54.68 166.069 54.4C166.162 54.2133 166.302 54.0533 166.489 53.92C166.702 53.8133 166.909 53.76 167.109 53.76C167.216 53.76 167.309 53.7667 167.389 53.78C167.482 53.78 167.569 53.7867 167.649 53.8C167.822 53.8267 167.976 53.9067 168.109 54.04C168.189 54.1067 168.262 54.2133 168.329 54.36C168.356 54.44 168.376 54.52 168.389 54.6C168.416 54.6667 168.436 54.74 168.449 54.82C168.462 54.9133 168.469 55 168.469 55.08C168.482 55.16 168.489 55.24 168.489 55.32C168.489 55.4133 168.482 55.5 168.469 55.58C168.469 55.6467 168.469 55.72 168.469 55.8V56.14L168.349 66.52V66.72C168.349 66.76 168.342 66.8133 168.329 66.88C168.329 66.9333 168.322 67 168.309 67.08C168.282 67.1467 168.256 67.22 168.229 67.3C168.216 67.3667 168.196 67.44 168.169 67.52C168.129 67.5867 168.082 67.6533 168.029 67.72C167.989 67.7733 167.936 67.8267 167.869 67.88C167.762 67.9867 167.589 68.06 167.349 68.1C166.989 68.18 166.649 68.1467 166.329 68C166.169 67.8933 166.056 67.76 165.989 67.6C165.949 67.56 165.929 67.52 165.929 67.48C165.916 67.4533 165.902 67.4333 165.889 67.42C165.876 67.4067 165.862 67.3867 165.849 67.36C165.822 67.2933 165.802 67.2267 165.789 67.16C165.776 67.08 165.769 67 165.769 66.92C165.756 66.8533 165.742 66.7867 165.729 66.72C165.729 66.6533 165.722 66.5867 165.709 66.52C165.696 66.4133 165.696 66.3 165.709 66.18V65.88ZM182.931 54.02C183.184 53.9533 183.404 53.9467 183.591 54C183.791 54.04 183.957 54.1267 184.091 54.26C184.237 54.3933 184.344 54.56 184.411 54.76C184.491 54.96 184.531 55.18 184.531 55.42C184.544 56.0867 184.544 56.6067 184.531 56.98C184.531 57.3533 184.531 57.68 184.531 57.96V64.1C184.531 64.82 184.531 65.42 184.531 65.9C184.531 66.38 184.504 66.7733 184.451 67.08C184.411 67.3733 184.331 67.5933 184.211 67.74C184.104 67.8867 183.937 67.9867 183.711 68.04C183.484 68.1067 183.184 68.14 182.811 68.14C182.451 68.14 181.997 68.14 181.451 68.14C180.011 68.14 178.871 67.8 178.031 67.12C177.204 66.44 176.764 65.36 176.711 63.88C176.684 63.24 176.764 62.6533 176.951 62.12C177.137 61.5867 177.411 61.1333 177.771 60.76C178.144 60.3733 178.597 60.08 179.131 59.88C179.677 59.6667 180.297 59.5667 180.991 59.58H182.091V56C182.091 55.7867 182.091 55.58 182.091 55.38C182.091 55.1667 182.111 54.9733 182.151 54.8C182.191 54.6133 182.271 54.4533 182.391 54.32C182.511 54.1867 182.691 54.0867 182.931 54.02ZM179.451 65.12C179.731 65.5067 180.237 65.72 180.971 65.76C181.117 65.7733 181.257 65.78 181.391 65.78C181.524 65.7667 181.644 65.7467 181.751 65.72C181.871 65.7067 181.984 65.6867 182.091 65.66V61.96C181.624 61.88 181.197 61.8333 180.811 61.82C180.437 61.7933 180.064 61.9267 179.691 62.22C179.491 62.38 179.337 62.5867 179.231 62.84C179.124 63.08 179.064 63.34 179.051 63.62C179.037 63.8867 179.064 64.1533 179.131 64.42C179.197 64.6867 179.304 64.92 179.451 65.12ZM188.724 58.96C189.164 58.7467 189.624 58.5933 190.104 58.5C190.584 58.4067 191.057 58.3867 191.524 58.44C192.004 58.4933 192.464 58.62 192.904 58.82C193.357 59.02 193.77 59.3 194.144 59.66C194.45 59.9667 194.717 60.34 194.944 60.78C195.17 61.2067 195.337 61.6267 195.444 62.04C195.67 62.7733 195.704 63.5133 195.544 64.26C195.384 65.0067 195.11 65.7 194.724 66.34C194.537 66.6333 194.304 66.9 194.024 67.14C193.757 67.3667 193.47 67.5533 193.164 67.7C192.764 67.8867 192.33 68.0133 191.864 68.08C191.397 68.16 190.944 68.18 190.504 68.14C189.704 68.1 188.997 67.9 188.384 67.54C187.784 67.18 187.297 66.72 186.924 66.16C186.564 65.6 186.324 64.9667 186.204 64.26C186.097 63.54 186.144 62.8067 186.344 62.06C186.557 61.26 186.864 60.6133 187.264 60.12C187.677 59.6133 188.164 59.2267 188.724 58.96ZM189.324 61.64C189.124 61.8267 188.97 62.06 188.864 62.34C188.757 62.62 188.69 62.9133 188.664 63.22C188.637 63.5133 188.657 63.8133 188.724 64.12C188.804 64.4133 188.924 64.68 189.084 64.92C189.217 65.12 189.457 65.2867 189.804 65.42C190.15 65.5533 190.51 65.6333 190.884 65.66C191.31 65.6867 191.684 65.5733 192.004 65.32C192.324 65.0533 192.564 64.7267 192.724 64.34C192.897 63.9533 192.977 63.5333 192.964 63.08C192.95 62.6267 192.83 62.2133 192.604 61.84C192.444 61.5733 192.217 61.38 191.924 61.26C191.644 61.1267 191.344 61.06 191.024 61.06C190.717 61.0467 190.41 61.0933 190.104 61.2C189.797 61.2933 189.537 61.44 189.324 61.64ZM197.258 60.86C197.258 60.5533 197.251 60.2267 197.238 59.88C197.238 59.5333 197.298 59.22 197.418 58.94C197.524 58.6867 197.698 58.5067 197.938 58.4C198.191 58.28 198.438 58.2533 198.678 58.32C198.918 58.36 199.104 58.4333 199.238 58.54C199.371 58.6467 199.464 58.7733 199.518 58.92C199.584 59.0533 199.624 59.2133 199.638 59.4C199.651 59.5733 199.664 59.7467 199.678 59.92C199.811 59.68 199.978 59.4867 200.178 59.34C200.378 59.1933 200.584 59.0733 200.798 58.98C201.011 58.8867 201.211 58.82 201.398 58.78C201.598 58.74 201.751 58.72 201.858 58.72C202.364 58.72 202.864 58.8333 203.358 59.06C203.864 59.2733 204.284 59.58 204.618 59.98C204.804 60.22 204.944 60.4733 205.038 60.74C205.144 60.9933 205.218 61.26 205.258 61.54C205.311 61.82 205.344 62.1067 205.358 62.4C205.371 62.68 205.384 62.9667 205.398 63.26C205.464 64.1133 205.464 64.96 205.398 65.8C205.384 65.9733 205.378 66.1733 205.378 66.4C205.378 66.6267 205.358 66.8533 205.318 67.08C205.291 67.2933 205.231 67.4867 205.138 67.66C205.058 67.82 204.918 67.92 204.718 67.96C204.438 68.0267 204.204 68.04 204.018 68C203.844 67.9733 203.704 67.9133 203.598 67.82C203.491 67.7267 203.411 67.6067 203.358 67.46C203.304 67.3133 203.258 67.1467 203.218 66.96C203.191 66.8133 203.164 66.6467 203.138 66.46C203.124 66.26 203.111 66.06 203.098 65.86C203.098 65.66 203.091 65.4667 203.078 65.28C203.078 65.08 203.078 64.9 203.078 64.74C203.078 64.4867 203.071 64.2067 203.058 63.9C203.044 63.5933 203.044 63.3067 203.058 63.04C203.058 62.4133 202.891 61.94 202.558 61.62C202.238 61.2867 201.798 61.1467 201.238 61.2C200.811 61.2533 200.438 61.4267 200.118 61.72C199.798 62 199.644 62.3667 199.658 62.82C199.658 62.9933 199.658 63.1533 199.658 63.3C199.658 63.4467 199.651 63.5933 199.638 63.74C199.638 63.8867 199.638 64.0467 199.638 64.22C199.638 64.3933 199.638 64.5867 199.638 64.8C199.638 65.24 199.638 65.7067 199.638 66.2C199.638 66.68 199.578 67.0733 199.458 67.38C199.351 67.7 199.171 67.92 198.918 68.04C198.664 68.16 198.364 68.1267 198.018 67.94C197.871 67.86 197.751 67.7533 197.658 67.62C197.578 67.4733 197.511 67.32 197.458 67.16C197.418 67 197.391 66.84 197.378 66.68C197.364 66.5067 197.351 66.3467 197.338 66.2C197.298 65.76 197.271 65.3533 197.258 64.98C197.258 64.5933 197.258 64.18 197.258 63.74V60.86ZM209.522 53.94C209.402 54.4067 209.248 54.9133 209.062 55.46C208.875 56.0067 208.668 56.5533 208.442 57.1C208.228 57.6333 208.015 58.14 207.802 58.62H206.502C206.595 58.2467 206.688 57.8467 206.782 57.42C206.888 56.9933 206.982 56.5667 207.062 56.14C207.155 55.7 207.235 55.2733 207.302 54.86C207.382 54.4467 207.448 54.0667 207.502 53.72H209.382L209.522 53.94ZM219.098 59.18C219.204 59.4333 219.211 59.7133 219.118 60.02C219.038 60.3267 218.884 60.5267 218.658 60.62C218.538 60.6733 218.378 60.72 218.178 60.76C217.978 60.7867 217.758 60.8133 217.518 60.84C217.291 60.8667 217.064 60.8867 216.838 60.9C216.611 60.9133 216.418 60.92 216.258 60.92C216.271 61.32 216.284 61.7333 216.298 62.16C216.311 62.5733 216.324 62.98 216.338 63.38C216.351 63.78 216.358 64.1667 216.358 64.54C216.358 64.9 216.351 65.2267 216.338 65.52C216.338 65.72 216.338 65.9533 216.338 66.22C216.338 66.4733 216.318 66.72 216.278 66.96C216.251 67.2 216.204 67.4133 216.138 67.6C216.071 67.7733 215.971 67.8867 215.838 67.94C215.424 68.1133 215.044 68.16 214.698 68.08C214.364 68.0133 214.124 67.8733 213.978 67.66C213.871 67.4867 213.791 67.2867 213.738 67.06C213.684 66.82 213.644 66.58 213.618 66.34C213.604 66.0867 213.598 65.8467 213.598 65.62C213.611 65.38 213.618 65.1733 213.618 65C213.631 64.44 213.638 63.8067 213.638 63.1C213.651 62.38 213.658 61.66 213.658 60.94H213.358C213.198 60.94 212.991 60.94 212.738 60.94C212.498 60.9267 212.251 60.9067 211.998 60.88C211.758 60.84 211.531 60.7933 211.318 60.74C211.104 60.6733 210.951 60.58 210.858 60.46C210.711 60.2867 210.618 60.1 210.578 59.9C210.551 59.7 210.564 59.5133 210.618 59.34C210.684 59.1533 210.784 58.9933 210.918 58.86C211.051 58.7133 211.204 58.62 211.378 58.58C211.618 58.5133 211.958 58.48 212.398 58.48C212.838 58.4667 213.251 58.4667 213.638 58.48C213.624 58.3467 213.618 58.22 213.618 58.1C213.618 57.9667 213.611 57.84 213.598 57.72C213.584 57.56 213.578 57.36 213.578 57.12C213.578 56.8667 213.591 56.62 213.618 56.38C213.658 56.1267 213.718 55.8933 213.798 55.68C213.878 55.4533 213.991 55.28 214.138 55.16C214.338 55 214.538 54.9133 214.738 54.9C214.951 54.8733 215.144 54.9 215.318 54.98C215.504 55.06 215.658 55.18 215.778 55.34C215.911 55.4867 216.004 55.6533 216.058 55.84C216.098 56 216.131 56.1933 216.158 56.42C216.184 56.6333 216.198 56.86 216.198 57.1C216.211 57.34 216.218 57.58 216.218 57.82C216.218 58.06 216.218 58.28 216.218 58.48H216.418C216.618 58.48 216.851 58.4733 217.118 58.46C217.384 58.4467 217.644 58.4533 217.898 58.48C218.164 58.5067 218.404 58.5733 218.618 58.68C218.831 58.7733 218.991 58.94 219.098 59.18ZM234.588 64.06C234.602 64.3267 234.608 64.6067 234.608 64.9C234.608 65.18 234.602 65.44 234.588 65.68C234.575 66.04 234.555 66.3733 234.528 66.68C234.502 66.9733 234.448 67.2267 234.368 67.44C234.288 67.64 234.162 67.7933 233.988 67.9C233.828 67.9933 233.602 68.02 233.308 67.98C233.002 67.94 232.782 67.7933 232.648 67.54C232.515 67.2867 232.422 67 232.368 66.68C232.328 66.3467 232.315 66.0133 232.328 65.68C232.342 65.3467 232.342 65.0867 232.328 64.9C232.315 64.6067 232.302 64.2733 232.288 63.9C232.288 63.5133 232.248 63.1533 232.168 62.82C232.102 62.4733 231.982 62.18 231.808 61.94C231.635 61.7 231.375 61.5733 231.028 61.56C230.588 61.5333 230.248 61.5667 230.008 61.66C229.782 61.7533 229.615 61.8933 229.508 62.08C229.402 62.2533 229.335 62.4667 229.308 62.72C229.295 62.9733 229.268 63.2467 229.228 63.54L229.208 64.32V65.78C229.208 66.02 229.202 66.2733 229.188 66.54C229.188 66.7933 229.148 67.0267 229.068 67.24C228.988 67.4533 228.862 67.6333 228.688 67.78C228.528 67.9267 228.288 68 227.968 68C227.568 68 227.268 67.8733 227.068 67.62C226.882 67.3533 226.788 67.0267 226.788 66.64V55.14C226.788 55.06 226.788 54.9867 226.788 54.92C226.802 54.84 226.815 54.76 226.828 54.68C226.855 54.6 226.875 54.5267 226.888 54.46C226.902 54.38 226.922 54.3067 226.948 54.24C226.988 54.1067 227.055 54.0067 227.148 53.94C227.215 53.8733 227.282 53.82 227.348 53.78C227.415 53.74 227.488 53.7133 227.568 53.7C227.635 53.6867 227.708 53.68 227.788 53.68C227.868 53.6667 227.948 53.66 228.028 53.66C228.228 53.66 228.422 53.72 228.608 53.84C228.688 53.8933 228.762 53.9533 228.828 54.02C228.895 54.0733 228.948 54.1533 228.988 54.26C229.095 54.5133 229.148 54.7533 229.148 54.98C229.162 55.0467 229.168 55.1467 229.168 55.28C229.182 55.4 229.188 55.5267 229.188 55.66C229.188 55.7933 229.188 55.9267 229.188 56.06C229.202 56.18 229.208 56.2733 229.208 56.34V56.44C229.222 56.8667 229.228 57.3 229.228 57.74C229.228 58.18 229.228 58.6267 229.228 59.08V59.42C229.788 59.2333 230.375 59.1467 230.988 59.16C231.602 59.16 232.148 59.28 232.628 59.52C233.122 59.7733 233.495 60.06 233.748 60.38C234.015 60.7 234.208 61.0533 234.328 61.44C234.448 61.8267 234.515 62.24 234.528 62.68C234.555 63.12 234.575 63.58 234.588 64.06ZM238.542 59.58C238.942 59.38 239.362 59.24 239.802 59.16C240.242 59.0667 240.676 59.0467 241.102 59.1C241.542 59.14 241.962 59.2533 242.362 59.44C242.762 59.6133 243.136 59.8667 243.482 60.2C243.829 60.5467 244.096 60.9267 244.282 61.34C244.469 61.7533 244.602 62.2133 244.682 62.72C244.736 63.0667 244.822 63.3867 244.942 63.68C245.062 63.9733 245.189 64.2667 245.322 64.56C245.469 64.8533 245.602 65.1467 245.722 65.44C245.856 65.7333 245.962 66.04 246.042 66.36C246.109 66.6667 246.082 66.9667 245.962 67.26C245.856 67.54 245.629 67.7133 245.282 67.78C245.082 67.82 244.889 67.8067 244.702 67.74C244.529 67.66 244.369 67.5533 244.222 67.42C244.076 67.2733 243.942 67.12 243.822 66.96C243.716 66.7867 243.616 66.6267 243.522 66.48C243.216 66.88 242.882 67.1933 242.522 67.42C242.162 67.6333 241.729 67.7733 241.222 67.84C240.796 67.8933 240.389 67.9067 240.002 67.88C239.616 67.8533 239.202 67.78 238.762 67.66C238.189 67.5133 237.716 67.26 237.342 66.9C236.982 66.5267 236.702 66.1 236.502 65.62C236.316 65.1267 236.216 64.6 236.202 64.04C236.189 63.48 236.256 62.9267 236.402 62.38C236.589 61.66 236.869 61.0733 237.242 60.62C237.616 60.1667 238.049 59.82 238.542 59.58ZM239.042 61.92C238.856 62.1067 238.709 62.3267 238.602 62.58C238.496 62.8333 238.429 63.1 238.402 63.38C238.389 63.66 238.416 63.94 238.482 64.22C238.549 64.5 238.656 64.7467 238.802 64.96C238.936 65.1467 239.162 65.3067 239.482 65.44C239.802 65.56 240.136 65.6333 240.482 65.66C240.882 65.6867 241.229 65.58 241.522 65.34C241.829 65.1 242.056 64.8 242.202 64.44C242.362 64.0667 242.436 63.6733 242.422 63.26C242.409 62.8333 242.296 62.4467 242.082 62.1C241.922 61.8467 241.709 61.66 241.442 61.54C241.189 61.42 240.916 61.36 240.622 61.36C240.329 61.3467 240.036 61.3933 239.742 61.5C239.462 61.5933 239.229 61.7333 239.042 61.92ZM255.415 59.24C255.468 59.4 255.482 59.58 255.455 59.78C255.428 59.98 255.382 60.1867 255.315 60.4C255.248 60.6 255.168 60.8 255.075 61C254.995 61.1867 254.922 61.3533 254.855 61.5C254.508 62.2067 254.182 62.9 253.875 63.58C253.568 64.26 253.208 65 252.795 65.8C252.715 65.96 252.622 66.1533 252.515 66.38C252.422 66.5933 252.315 66.8067 252.195 67.02C252.075 67.22 251.942 67.4067 251.795 67.58C251.662 67.7533 251.515 67.88 251.355 67.96C251.222 68.04 251.088 68.0733 250.955 68.06C250.848 68.0867 250.728 68.0533 250.595 67.96C250.435 67.88 250.282 67.7533 250.135 67.58C250.002 67.4067 249.875 67.22 249.755 67.02C249.635 66.8067 249.522 66.5933 249.415 66.38C249.322 66.1533 249.235 65.96 249.155 65.8C248.995 65.4933 248.842 65.2067 248.695 64.94C248.562 64.6733 248.415 64.3867 248.255 64.08C248.108 63.76 247.942 63.4 247.755 63C247.568 62.5867 247.348 62.0867 247.095 61.5C247.028 61.34 246.955 61.1733 246.875 61C246.795 60.8267 246.722 60.64 246.655 60.44C246.602 60.24 246.562 60.04 246.535 59.84C246.522 59.6267 246.535 59.4133 246.575 59.2C246.615 59 246.715 58.84 246.875 58.72C247.035 58.6 247.215 58.52 247.415 58.48C247.615 58.44 247.815 58.4467 248.015 58.5C248.215 58.54 248.375 58.6267 248.495 58.76C248.615 58.88 248.728 59.04 248.835 59.24C248.942 59.44 249.042 59.6533 249.135 59.88C249.242 60.0933 249.335 60.3133 249.415 60.54C249.508 60.7533 249.595 60.94 249.675 61.1C249.862 61.4867 250.068 61.9067 250.295 62.36C250.535 62.8133 250.748 63.2333 250.935 63.62C251.068 63.3133 251.188 63.06 251.295 62.86C251.402 62.6467 251.502 62.44 251.595 62.24C251.702 62.04 251.808 61.82 251.915 61.58C252.035 61.34 252.182 61.0333 252.355 60.66C252.515 60.3133 252.675 59.9733 252.835 59.64C253.008 59.3067 253.215 59.0133 253.455 58.76C253.575 58.6267 253.728 58.54 253.915 58.5C254.102 58.4467 254.295 58.44 254.495 58.48C254.695 58.52 254.875 58.6067 255.035 58.74C255.208 58.86 255.335 59.0267 255.415 59.24ZM263.396 65.26C263.556 65.22 263.716 65.1933 263.876 65.18C264.049 65.1667 264.202 65.1867 264.336 65.24C264.482 65.2933 264.602 65.3867 264.696 65.52C264.789 65.64 264.836 65.8133 264.836 66.04C264.836 66.2 264.796 66.3533 264.716 66.5C264.636 66.6467 264.536 66.78 264.416 66.9C264.296 67.02 264.162 67.1267 264.016 67.22C263.869 67.3 263.729 67.3667 263.596 67.42C263.209 67.5933 262.762 67.7267 262.256 67.82C261.762 67.9133 261.249 67.9467 260.716 67.92C259.996 67.8933 259.302 67.7533 258.636 67.5C257.982 67.2333 257.469 66.8 257.096 66.2C256.749 65.6133 256.542 64.96 256.476 64.24C256.409 63.52 256.442 62.84 256.576 62.2C256.722 61.4267 256.969 60.8 257.316 60.32C257.676 59.8267 258.102 59.4333 258.596 59.14C259.196 58.7933 259.869 58.6133 260.616 58.6C261.362 58.5867 262.076 58.7333 262.756 59.04C263.209 59.24 263.616 59.5133 263.976 59.86C264.336 60.1933 264.609 60.6 264.796 61.08C264.849 61.2 264.889 61.3467 264.916 61.52C264.956 61.6933 264.982 61.88 264.996 62.08C265.009 62.2667 265.009 62.4533 264.996 62.64C264.982 62.8267 264.949 62.9933 264.896 63.14C264.816 63.38 264.716 63.5667 264.596 63.7C264.476 63.8333 264.322 63.9333 264.136 64C263.949 64.0667 263.722 64.1133 263.456 64.14C263.202 64.1533 262.896 64.1667 262.536 64.18C262.216 64.1933 261.916 64.2 261.636 64.2C261.356 64.2 261.069 64.2 260.776 64.2C260.482 64.1867 260.176 64.18 259.856 64.18C259.549 64.1667 259.202 64.1533 258.816 64.14C258.776 64.4067 258.809 64.64 258.916 64.84C259.036 65.0267 259.196 65.1867 259.396 65.32C259.596 65.44 259.822 65.5333 260.076 65.6C260.329 65.6667 260.576 65.7067 260.816 65.72C261.269 65.7467 261.702 65.7133 262.116 65.62C262.529 65.5133 262.956 65.3933 263.396 65.26ZM262.536 61.38C262.282 61.0867 262.016 60.8733 261.736 60.74C261.522 60.6467 261.296 60.6067 261.056 60.62C260.829 60.62 260.609 60.6533 260.396 60.72C260.009 60.8133 259.682 61.0133 259.416 61.32C259.389 61.3467 259.342 61.4133 259.276 61.52C259.209 61.6133 259.142 61.7133 259.076 61.82C259.022 61.9267 258.982 62.0267 258.956 62.12C258.929 62.2133 258.942 62.26 258.996 62.26H262.916C262.902 62.0733 262.869 61.92 262.816 61.8C262.762 61.6667 262.669 61.5267 262.536 61.38ZM147.566 84.58C147.966 84.38 148.386 84.24 148.826 84.16C149.266 84.0667 149.699 84.0467 150.126 84.1C150.566 84.14 150.986 84.2533 151.386 84.44C151.786 84.6133 152.159 84.8667 152.506 85.2C152.852 85.5467 153.119 85.9267 153.306 86.34C153.492 86.7533 153.626 87.2133 153.706 87.72C153.759 88.0667 153.846 88.3867 153.966 88.68C154.086 88.9733 154.212 89.2667 154.346 89.56C154.492 89.8533 154.626 90.1467 154.746 90.44C154.879 90.7333 154.986 91.04 155.066 91.36C155.132 91.6667 155.106 91.9667 154.986 92.26C154.879 92.54 154.652 92.7133 154.306 92.78C154.106 92.82 153.912 92.8067 153.726 92.74C153.552 92.66 153.392 92.5533 153.246 92.42C153.099 92.2733 152.966 92.12 152.846 91.96C152.739 91.7867 152.639 91.6267 152.546 91.48C152.239 91.88 151.906 92.1933 151.546 92.42C151.186 92.6333 150.752 92.7733 150.246 92.84C149.819 92.8933 149.412 92.9067 149.026 92.88C148.639 92.8533 148.226 92.78 147.786 92.66C147.212 92.5133 146.739 92.26 146.366 91.9C146.006 91.5267 145.726 91.1 145.526 90.62C145.339 90.1267 145.239 89.6 145.226 89.04C145.212 88.48 145.279 87.9267 145.426 87.38C145.612 86.66 145.892 86.0733 146.266 85.62C146.639 85.1667 147.072 84.82 147.566 84.58ZM148.066 86.92C147.879 87.1067 147.732 87.3267 147.626 87.58C147.519 87.8333 147.452 88.1 147.426 88.38C147.412 88.66 147.439 88.94 147.506 89.22C147.572 89.5 147.679 89.7467 147.826 89.96C147.959 90.1467 148.186 90.3067 148.506 90.44C148.826 90.56 149.159 90.6333 149.506 90.66C149.906 90.6867 150.252 90.58 150.546 90.34C150.852 90.1 151.079 89.8 151.226 89.44C151.386 89.0667 151.459 88.6733 151.446 88.26C151.432 87.8333 151.319 87.4467 151.106 87.1C150.946 86.8467 150.732 86.66 150.466 86.54C150.212 86.42 149.939 86.36 149.646 86.36C149.352 86.3467 149.059 86.3933 148.766 86.5C148.486 86.5933 148.252 86.7333 148.066 86.92ZM171.266 84.18C171.372 84.4333 171.379 84.7133 171.286 85.02C171.206 85.3267 171.052 85.5267 170.826 85.62C170.706 85.6733 170.546 85.72 170.346 85.76C170.146 85.7867 169.926 85.8133 169.686 85.84C169.459 85.8667 169.232 85.8867 169.006 85.9C168.779 85.9133 168.586 85.92 168.426 85.92C168.439 86.32 168.452 86.7333 168.466 87.16C168.479 87.5733 168.492 87.98 168.506 88.38C168.519 88.78 168.526 89.1667 168.526 89.54C168.526 89.9 168.519 90.2267 168.506 90.52C168.506 90.72 168.506 90.9533 168.506 91.22C168.506 91.4733 168.486 91.72 168.446 91.96C168.419 92.2 168.372 92.4133 168.306 92.6C168.239 92.7733 168.139 92.8867 168.006 92.94C167.592 93.1133 167.212 93.16 166.866 93.08C166.532 93.0133 166.292 92.8733 166.146 92.66C166.039 92.4867 165.959 92.2867 165.906 92.06C165.852 91.82 165.812 91.58 165.786 91.34C165.772 91.0867 165.766 90.8467 165.766 90.62C165.779 90.38 165.786 90.1733 165.786 90C165.799 89.44 165.806 88.8067 165.806 88.1C165.819 87.38 165.826 86.66 165.826 85.94H165.526C165.366 85.94 165.159 85.94 164.906 85.94C164.666 85.9267 164.419 85.9067 164.166 85.88C163.926 85.84 163.699 85.7933 163.486 85.74C163.272 85.6733 163.119 85.58 163.026 85.46C162.879 85.2867 162.786 85.1 162.746 84.9C162.719 84.7 162.732 84.5133 162.786 84.34C162.852 84.1533 162.952 83.9933 163.086 83.86C163.219 83.7133 163.372 83.62 163.546 83.58C163.786 83.5133 164.126 83.48 164.566 83.48C165.006 83.4667 165.419 83.4667 165.806 83.48C165.792 83.3467 165.786 83.22 165.786 83.1C165.786 82.9667 165.779 82.84 165.766 82.72C165.752 82.56 165.746 82.36 165.746 82.12C165.746 81.8667 165.759 81.62 165.786 81.38C165.826 81.1267 165.886 80.8933 165.966 80.68C166.046 80.4533 166.159 80.28 166.306 80.16C166.506 80 166.706 79.9133 166.906 79.9C167.119 79.8733 167.312 79.9 167.486 79.98C167.672 80.06 167.826 80.18 167.946 80.34C168.079 80.4867 168.172 80.6533 168.226 80.84C168.266 81 168.299 81.1933 168.326 81.42C168.352 81.6333 168.366 81.86 168.366 82.1C168.379 82.34 168.386 82.58 168.386 82.82C168.386 83.06 168.386 83.28 168.386 83.48H168.586C168.786 83.48 169.019 83.4733 169.286 83.46C169.552 83.4467 169.812 83.4533 170.066 83.48C170.332 83.5067 170.572 83.5733 170.786 83.68C170.999 83.7733 171.159 83.94 171.266 84.18ZM179.079 90.26C179.239 90.22 179.399 90.1933 179.559 90.18C179.733 90.1667 179.886 90.1867 180.019 90.24C180.166 90.2933 180.286 90.3867 180.379 90.52C180.473 90.64 180.519 90.8133 180.519 91.04C180.519 91.2 180.479 91.3533 180.399 91.5C180.319 91.6467 180.219 91.78 180.099 91.9C179.979 92.02 179.846 92.1267 179.699 92.22C179.553 92.3 179.413 92.3667 179.279 92.42C178.893 92.5933 178.446 92.7267 177.939 92.82C177.446 92.9133 176.933 92.9467 176.399 92.92C175.679 92.8933 174.986 92.7533 174.319 92.5C173.666 92.2333 173.153 91.8 172.779 91.2C172.433 90.6133 172.226 89.96 172.159 89.24C172.093 88.52 172.126 87.84 172.259 87.2C172.406 86.4267 172.653 85.8 172.999 85.32C173.359 84.8267 173.786 84.4333 174.279 84.14C174.879 83.7933 175.553 83.6133 176.299 83.6C177.046 83.5867 177.759 83.7333 178.439 84.04C178.893 84.24 179.299 84.5133 179.659 84.86C180.019 85.1933 180.293 85.6 180.479 86.08C180.533 86.2 180.573 86.3467 180.599 86.52C180.639 86.6933 180.666 86.88 180.679 87.08C180.693 87.2667 180.693 87.4533 180.679 87.64C180.666 87.8267 180.633 87.9933 180.579 88.14C180.499 88.38 180.399 88.5667 180.279 88.7C180.159 88.8333 180.006 88.9333 179.819 89C179.633 89.0667 179.406 89.1133 179.139 89.14C178.886 89.1533 178.579 89.1667 178.219 89.18C177.899 89.1933 177.599 89.2 177.319 89.2C177.039 89.2 176.753 89.2 176.459 89.2C176.166 89.1867 175.859 89.18 175.539 89.18C175.233 89.1667 174.886 89.1533 174.499 89.14C174.459 89.4067 174.493 89.64 174.599 89.84C174.719 90.0267 174.879 90.1867 175.079 90.32C175.279 90.44 175.506 90.5333 175.759 90.6C176.013 90.6667 176.259 90.7067 176.499 90.72C176.953 90.7467 177.386 90.7133 177.799 90.62C178.213 90.5133 178.639 90.3933 179.079 90.26ZM178.219 86.38C177.966 86.0867 177.699 85.8733 177.419 85.74C177.206 85.6467 176.979 85.6067 176.739 85.62C176.513 85.62 176.293 85.6533 176.079 85.72C175.693 85.8133 175.366 86.0133 175.099 86.32C175.073 86.3467 175.026 86.4133 174.959 86.52C174.893 86.6133 174.826 86.7133 174.759 86.82C174.706 86.9267 174.666 87.0267 174.639 87.12C174.613 87.2133 174.626 87.26 174.679 87.26H178.599C178.586 87.0733 178.553 86.92 178.499 86.8C178.446 86.6667 178.353 86.5267 178.219 86.38ZM184.441 84.58C184.841 84.38 185.261 84.24 185.701 84.16C186.141 84.0667 186.574 84.0467 187.001 84.1C187.441 84.14 187.861 84.2533 188.261 84.44C188.661 84.6133 189.034 84.8667 189.381 85.2C189.727 85.5467 189.994 85.9267 190.181 86.34C190.367 86.7533 190.501 87.2133 190.581 87.72C190.634 88.0667 190.721 88.3867 190.841 88.68C190.961 88.9733 191.087 89.2667 191.221 89.56C191.367 89.8533 191.501 90.1467 191.621 90.44C191.754 90.7333 191.861 91.04 191.941 91.36C192.007 91.6667 191.981 91.9667 191.861 92.26C191.754 92.54 191.527 92.7133 191.181 92.78C190.981 92.82 190.787 92.8067 190.601 92.74C190.427 92.66 190.267 92.5533 190.121 92.42C189.974 92.2733 189.841 92.12 189.721 91.96C189.614 91.7867 189.514 91.6267 189.421 91.48C189.114 91.88 188.781 92.1933 188.421 92.42C188.061 92.6333 187.627 92.7733 187.121 92.84C186.694 92.8933 186.287 92.9067 185.901 92.88C185.514 92.8533 185.101 92.78 184.661 92.66C184.087 92.5133 183.614 92.26 183.241 91.9C182.881 91.5267 182.601 91.1 182.401 90.62C182.214 90.1267 182.114 89.6 182.101 89.04C182.087 88.48 182.154 87.9267 182.301 87.38C182.487 86.66 182.767 86.0733 183.141 85.62C183.514 85.1667 183.947 84.82 184.441 84.58ZM184.941 86.92C184.754 87.1067 184.607 87.3267 184.501 87.58C184.394 87.8333 184.327 88.1 184.301 88.38C184.287 88.66 184.314 88.94 184.381 89.22C184.447 89.5 184.554 89.7467 184.701 89.96C184.834 90.1467 185.061 90.3067 185.381 90.44C185.701 90.56 186.034 90.6333 186.381 90.66C186.781 90.6867 187.127 90.58 187.421 90.34C187.727 90.1 187.954 89.8 188.101 89.44C188.261 89.0667 188.334 88.6733 188.321 88.26C188.307 87.8333 188.194 87.4467 187.981 87.1C187.821 86.8467 187.607 86.66 187.341 86.54C187.087 86.42 186.814 86.36 186.521 86.36C186.227 86.3467 185.934 86.3933 185.641 86.5C185.361 86.5933 185.127 86.7333 184.941 86.92ZM204.445 88.34C204.471 88.7667 204.485 89.1733 204.485 89.56C204.485 89.9333 204.471 90.3333 204.445 90.76C204.445 90.92 204.445 91.1 204.445 91.3C204.445 91.5 204.431 91.6933 204.405 91.88C204.378 92.0667 204.331 92.24 204.265 92.4C204.198 92.56 204.098 92.6867 203.965 92.78C203.805 92.8867 203.625 92.96 203.425 93C203.225 93.0267 203.038 93.0133 202.865 92.96C202.691 92.9067 202.538 92.8067 202.405 92.66C202.285 92.5133 202.218 92.3067 202.205 92.04C202.165 91.4267 202.145 90.8133 202.145 90.2C202.145 89.8933 202.138 89.6 202.125 89.32C202.125 89.04 202.131 88.6467 202.145 88.14C202.145 87.8867 202.125 87.6 202.085 87.28C202.045 86.9467 201.945 86.7133 201.785 86.58C201.665 86.4733 201.531 86.4133 201.385 86.4C201.238 86.3733 201.091 86.3867 200.945 86.44C200.811 86.4933 200.691 86.5933 200.585 86.74C200.478 86.8733 200.405 87.0467 200.365 87.26C200.365 87.4333 200.358 87.6133 200.345 87.8C200.345 87.9733 200.351 88.14 200.365 88.3C200.378 88.7267 200.385 89.1333 200.385 89.52C200.385 89.8933 200.378 90.2933 200.365 90.72C200.351 90.8933 200.345 91.08 200.345 91.28C200.358 91.48 200.358 91.68 200.345 91.88C200.331 92.0667 200.291 92.24 200.225 92.4C200.171 92.56 200.071 92.6867 199.925 92.78C199.765 92.8867 199.591 92.9533 199.405 92.98C199.231 92.9933 199.065 92.9667 198.905 92.9C198.758 92.82 198.625 92.7 198.505 92.54C198.398 92.38 198.338 92.1667 198.325 91.9C198.298 91.5933 198.278 91.3133 198.265 91.06C198.265 90.7933 198.265 90.5133 198.265 90.22C198.265 89.9133 198.271 89.6 198.285 89.28C198.298 88.9467 198.291 88.6267 198.265 88.32C198.265 88.2267 198.258 88.12 198.245 88C198.245 87.8667 198.238 87.7333 198.225 87.6C198.225 87.4667 198.211 87.34 198.185 87.22C198.171 87.0867 198.145 86.98 198.105 86.9C197.998 86.7133 197.805 86.5933 197.525 86.54C197.258 86.4867 197.031 86.5067 196.845 86.6C196.658 86.6933 196.518 86.8133 196.425 86.96C196.331 87.1067 196.265 87.2667 196.225 87.44C196.185 87.6133 196.165 87.8 196.165 88C196.165 88.1867 196.165 88.3667 196.165 88.54C196.165 89.4067 196.165 90.16 196.165 90.8C196.178 91.4267 196.111 91.9333 195.965 92.32C195.898 92.52 195.758 92.6733 195.545 92.78C195.345 92.8867 195.125 92.94 194.885 92.94C194.658 92.94 194.445 92.8867 194.245 92.78C194.045 92.6733 193.911 92.5067 193.845 92.28C193.805 92.1333 193.765 91.9267 193.725 91.66C193.698 91.38 193.678 91.0733 193.665 90.74C193.651 90.4067 193.645 90.0733 193.645 89.74C193.645 89.3933 193.645 89.08 193.645 88.8V85.92C193.631 85.6133 193.625 85.28 193.625 84.92C193.625 84.56 193.678 84.2333 193.785 83.94C193.878 83.6867 194.025 83.5267 194.225 83.46C194.425 83.38 194.631 83.3467 194.845 83.36C195.085 83.36 195.271 83.4267 195.405 83.56C195.551 83.68 195.658 83.8333 195.725 84.02C195.791 84.1933 195.831 84.3933 195.845 84.62C195.858 84.8333 195.871 85.04 195.885 85.24C196.031 84.9067 196.205 84.6333 196.405 84.42C196.618 84.1933 196.918 84.0467 197.305 83.98C198.291 83.7933 199.078 84.0467 199.665 84.74C199.931 84.4733 200.271 84.2533 200.685 84.08C201.005 83.96 201.331 83.9067 201.665 83.92C201.998 83.92 202.311 83.98 202.605 84.1C202.911 84.22 203.185 84.3933 203.425 84.62C203.678 84.8467 203.878 85.12 204.025 85.44C204.225 85.8667 204.338 86.34 204.365 86.86C204.391 87.38 204.418 87.8733 204.445 88.34ZM206.565 82.5C206.512 82.1533 206.485 81.8 206.485 81.44C206.498 81.08 206.565 80.7267 206.685 80.38C206.832 79.9267 207.072 79.5267 207.405 79.18C207.738 78.8333 208.118 78.56 208.545 78.36C208.998 78.1467 209.458 78 209.925 77.92C210.405 77.8267 210.872 77.8067 211.325 77.86C211.792 77.9133 212.238 78.0333 212.665 78.22C213.105 78.3933 213.518 78.6467 213.905 78.98C214.318 79.34 214.625 79.76 214.825 80.24C215.038 80.7067 215.152 81.1933 215.165 81.7C215.192 82.2067 215.132 82.7133 214.985 83.22C214.852 83.7133 214.645 84.1733 214.365 84.6C214.365 84.6 214.358 84.6133 214.345 84.64C214.118 84.9467 213.858 85.2267 213.565 85.48C213.272 85.72 212.998 85.98 212.745 86.26C212.452 86.5667 212.278 86.88 212.225 87.2C212.172 87.5067 212.118 87.8533 212.065 88.24C212.025 88.6133 211.925 88.94 211.765 89.22C211.618 89.4867 211.338 89.6133 210.925 89.6C210.645 89.5867 210.432 89.5 210.285 89.34C210.152 89.1667 210.052 88.9667 209.985 88.74C209.932 88.5 209.912 88.2533 209.925 88C209.938 87.7333 209.958 87.5 209.985 87.3C210.065 86.8333 210.212 86.3933 210.425 85.98C210.638 85.5533 210.898 85.1533 211.205 84.78C211.378 84.58 211.552 84.4 211.725 84.24C211.898 84.0667 212.058 83.8867 212.205 83.7C212.352 83.5133 212.478 83.3133 212.585 83.1C212.692 82.8867 212.765 82.64 212.805 82.36C212.845 82.1067 212.825 81.8533 212.745 81.6C212.665 81.3333 212.545 81.1 212.385 80.9C212.225 80.6867 212.032 80.5133 211.805 80.38C211.578 80.2333 211.332 80.1533 211.065 80.14C210.825 80.1267 210.572 80.16 210.305 80.24C210.038 80.3067 209.792 80.42 209.565 80.58C209.338 80.7267 209.152 80.9067 209.005 81.12C208.872 81.3333 208.812 81.5733 208.825 81.84C208.838 82 208.865 82.1667 208.905 82.34C208.958 82.5 208.992 82.66 209.005 82.82C209.032 82.9667 209.025 83.1133 208.985 83.26C208.958 83.4067 208.872 83.5467 208.725 83.68C208.485 83.9067 208.245 84.02 208.005 84.02C207.765 84.0067 207.545 83.9267 207.345 83.78C207.145 83.6333 206.972 83.4467 206.825 83.22C206.692 82.98 206.605 82.74 206.565 82.5ZM212.325 92.48C212.325 92.8667 212.178 93.2133 211.885 93.52C211.605 93.8133 211.278 93.96 210.905 93.96C210.545 93.96 210.225 93.8133 209.945 93.52C209.665 93.2 209.525 92.8533 209.525 92.48C209.525 92.0667 209.665 91.72 209.945 91.44C210.225 91.1333 210.545 90.98 210.905 90.98C211.278 90.98 211.605 91.1333 211.885 91.44C212.178 91.7333 212.325 92.08 212.325 92.48Z" fill="black"/>
</g>
<defs>
<filter id="filter0_d_450_786" x="0" y="0" width="362" height="432" filterUnits="userSpaceOnUse" color-interpolation-filters="sRGB">
<feFlood flood-opacity="0" result="BackgroundImageFix"/>
<feColorMatrix in="SourceAlpha" type="matrix" values="0 0 0 0 0 0 0 0 0 0 0 0 0 0 0 0 0 0 127 0" result="hardAlpha"/>
<feOffset dy="4"/>
<feGaussianBlur stdDeviation="2"/>
<feComposite in2="hardAlpha" operator="out"/>
<feColorMatrix type="matrix" values="0 0 0 0 0 0 0 0 0 0 0 0 0 0 0 0 0 0 0.25 0"/>
<feBlend mode="normal" in2="BackgroundImageFix" result="effect1_dropShadow_450_786"/>
<feBlend mode="normal" in="SourceGraphic" in2="effect1_dropShadow_450_786" result="shape"/>
</filter>
</defs>
</svg>
