<svg width="38" height="28" viewBox="0 0 38 28" fill="none" xmlns="http://www.w3.org/2000/svg">
<path fill-rule="evenodd" clip-rule="evenodd" d="M34.3106 0C35.4425 0 36.4477 0.512105 37.0802 1.3042L18.7112 15.8434L0.505928 1.56822C1.11463 0.627746 2.21249 0 3.46572 0H34.3106ZM0 24.203V4.14815L13.0628 14.391L0.0269278 24.6127C0.00915927 24.4785 0 24.3418 0 24.203ZM1.19467 26.6737C1.80291 27.172 2.59698 27.4737 3.46572 27.4737H34.3106C35.0573 27.4737 35.7488 27.2508 36.3146 26.8718L22.4338 15.885L19.9377 17.8608C19.2317 18.4195 18.2033 18.4218 17.4946 17.8661L14.9608 15.8793L1.19467 26.6737ZM24.3215 14.391L37.6816 24.9656C37.7435 24.721 37.7763 24.4656 37.7763 24.203V3.74133L24.3215 14.391Z" fill="black"/>
</svg>
