<svg width="522" height="584" viewBox="0 0 522 584" fill="none" xmlns="http://www.w3.org/2000/svg">
<path d="M378.447 143.504C436.135 159.546 451.141 550.292 329.341 537.49C207.54 524.688 320.759 127.462 378.447 143.504Z" fill="#98DAED"/>
<path d="M329.341 537.49C451.141 550.292 436.135 159.546 378.447 143.504C320.759 127.462 207.54 524.688 329.341 537.49ZM329.341 537.49L358.439 302.485" stroke="#208DAC" stroke-width="8"/>
<path d="M383.432 14.5L369.188 15.4357L390.488 530.388L417.32 530.388L383.432 14.5Z" fill="#765C3A" stroke="#533D21" stroke-width="5"/>
<path d="M140.065 160.668C196.451 164.157 286.953 521.831 172.032 533.909C57.1112 545.987 83.6776 157.179 140.065 160.668Z" fill="#FFBD9A"/>
<path d="M172.032 533.909C286.953 521.831 196.451 164.157 140.065 160.668C83.6776 157.179 57.1112 545.987 172.032 533.909ZM172.032 533.909L152.786 311.316" stroke="#F96635" stroke-width="6.86817"/>
<path d="M387.212 6.5C394.74 70.9411 408.42 106.528 485.212 167H439.1H392.988H322.988H263.488H202.988H145.212C140.783 161.384 136.843 155.823 133.364 150H19.4878C48.3462 114.699 65.9282 100.658 79.4878 2.5H357.988L387.212 6.5Z" fill="#FFF2CA"/>
<path d="M111.712 6.5H153.488M111.712 6.5L79.4878 2.5M111.712 6.5C110.204 86.1024 116.18 121.243 133.364 150M387.212 6.5C394.74 70.9411 408.42 106.528 485.212 167H439.1M387.212 6.5H344.35M387.212 6.5L357.988 2.5H79.4878M153.488 6.5C160.173 98.2644 170.165 135.343 202.988 167M153.488 6.5H202.988M202.988 167H145.212C140.783 161.384 136.843 155.823 133.364 150M202.988 167H263.488M202.988 6.5C204.279 90.8769 213.098 130.321 263.488 167M202.988 6.5H251.988M263.488 167H322.988M251.988 6.5C255.727 96.8059 271.256 131.835 322.988 167M251.988 6.5H301.488M322.988 167H392.988M301.488 6.5C304.084 88.6009 323.545 124.083 392.988 167M301.488 6.5H344.35M392.988 167H439.1M344.35 6.5C360.021 94.9487 380.272 130.67 439.1 167M79.4878 2.5C65.9282 100.658 48.3462 114.699 19.4878 150H133.364" stroke="#EED588" stroke-width="5"/>
<path d="M107.488 23.5H93.2133L2.98779 527H23.9878L93.2133 75.5L81.4878 540.5H107.488V23.5Z" fill="#765C3A" stroke="#533D21" stroke-width="5"/>
<path d="M272.594 177.987C328.111 187.229 378.968 537.923 263.736 537.392C148.503 536.86 217.078 168.744 272.594 177.987Z" fill="#D3FFB0"/>
<path d="M263.736 537.392C378.968 537.923 328.111 187.229 272.594 177.987C217.078 168.744 148.503 536.86 263.736 537.392ZM263.736 537.392L268.839 323.031" stroke="#A0E26C" stroke-width="8"/>
<path d="M431.488 547.5C451.462 529.684 424.488 428.5 416.988 428.5C409.488 428.5 406.988 441.444 397.488 444.472C387.988 447.5 385.145 384.104 375.488 383.5C365.831 382.896 338.062 445.321 330.488 444.472C324.718 442.612 327.588 411.238 311.988 421.5C296.388 431.762 277.462 538 296.461 553C315.461 568 411.514 565.316 431.488 547.5Z" fill="#956AEC"/>
<path d="M377.526 507.316C376.026 503.816 356.526 503.316 354.026 507.316C351.526 511.316 358.075 523.316 366.526 523.316C374.977 523.316 379.027 510.816 377.526 507.316Z" fill="#4D168F"/>
<path d="M426.439 483.636V476.33C397.465 466.672 379.96 473.576 373.32 478.204C367.042 474.34 360.644 476.594 358.229 478.204C346.761 471.564 341.328 472.167 328.652 471.564C318.511 471.081 309.336 474.116 304.507 475.726C304.687 478.253 304.544 483.437 304.512 484.127C304.509 484.141 304.507 484.157 304.507 484.177C304.507 484.227 304.509 484.206 304.512 484.127C304.624 483.734 306.317 486.071 306.317 486.654C306.317 487.137 307.525 497.52 309.939 503.556C310.784 505.668 313.561 510.133 318.39 511.34C320.381 511.838 331.066 514.358 343.742 511.34C353.883 508.926 358.028 497.52 358.833 490.88C359.437 489.006 359.437 488.402 360.04 487.258C360.392 486.591 360.885 485.143 361.851 484.177C365.473 482.366 366.68 482.97 368.491 484.177C370.275 485.366 370.696 486.588 370.897 487.169L370.906 487.195C371.509 488.943 371.93 489.443 372.113 490.817C374.045 505.304 382.978 509.932 387.204 511.34C393.039 513.151 406.64 515.324 414.367 509.529C424.025 502.286 423.421 489.069 424.025 486.654C424.508 484.723 425.031 483.837 426.439 483.636Z" fill="black" stroke="black" stroke-width="1.20726"/>
<path d="M398.069 475.123H407.727L419.8 491.421C419.428 495.772 418.783 497.896 416.782 501.079L398.069 475.123Z" fill="white"/>
<path d="M405.916 507.719C406.882 508.202 411.148 506.31 413.16 505.304L392.033 475.726L384.186 477.537C391.027 487.397 404.951 507.236 405.916 507.719Z" fill="white"/>
<path d="M398.069 475.123H407.727L419.8 491.421C419.428 495.772 418.783 497.896 416.782 501.079L398.069 475.123Z" stroke="white" stroke-width="1.20726"/>
<path d="M405.916 507.719C406.882 508.202 411.148 506.31 413.16 505.304L392.033 475.726L384.186 477.537C391.027 487.397 404.951 507.236 405.916 507.719Z" stroke="white" stroke-width="1.20726"/>
<path d="M332.877 475.123H342.535L354.608 491.421C354.236 495.772 353.592 497.896 351.59 501.079L332.877 475.123Z" fill="white"/>
<path d="M340.724 507.719C341.69 508.202 345.956 506.31 347.968 505.304L326.841 475.726L318.994 477.537C325.835 487.397 339.759 507.236 340.724 507.719Z" fill="white"/>
<path d="M332.877 475.123H342.535L354.608 491.421C354.236 495.772 353.592 497.896 351.59 501.079L332.877 475.123Z" stroke="white" stroke-width="1.20726"/>
<path d="M340.724 507.719C341.69 508.202 345.956 506.31 347.968 505.304L326.841 475.726L318.994 477.537C325.835 487.397 339.759 507.236 340.724 507.719Z" stroke="white" stroke-width="1.20726"/>
<path d="M40.8947 89.0919C36.8112 12.2892 513.139 -13.0357 517.416 67.4165C521.693 147.869 44.9782 165.895 40.8947 89.0919Z" fill="#FCE6A3" stroke="#FFC000" stroke-width="8.64213"/>
</svg>
