<svg width="400" height="735" viewBox="0 0 400 735" fill="none" xmlns="http://www.w3.org/2000/svg">
<path d="M99.2674 699.216C82.5394 682.488 44.6314 653.574 27.7685 641.208C18.8801 599.364 18.7992 555.078 24.5292 511C28.8401 477.839 36.44 444.796 46.0529 413C56.2357 379.319 68.6773 347.039 81.8608 317.5C92.509 293.642 103.641 271.573 114.458 252C127.116 229.097 139.342 209.611 149.856 194.677L180.21 220.983C169.497 241.449 159.933 261.826 151.413 282C141.924 304.468 133.73 326.686 126.687 348.5C117.035 378.391 109.542 407.523 103.836 435.5C96.7994 470.004 92.4797 502.752 90.1779 533C84.5491 606.971 90.9883 665.997 99.2674 699.216Z" fill="#88746C"/>
<path d="M114.458 252C127.116 229.097 139.342 209.611 149.856 194.677L180.21 220.983C169.497 241.449 159.933 261.826 151.413 282M114.458 252C117.178 262.833 128.375 284 151.413 282M114.458 252C103.641 271.573 92.509 293.642 81.8608 317.5M151.413 282C141.924 304.468 133.73 326.686 126.687 348.5M81.8608 317.5C84.6984 330.667 97.6362 355.3 126.687 348.5M81.8608 317.5C68.6773 347.039 56.2357 379.319 46.0529 413M126.687 348.5C117.035 378.391 109.542 407.523 103.836 435.5M46.0529 413C51.593 426 70.9059 448.7 103.836 435.5M46.0529 413C36.44 444.796 28.8401 477.839 24.5292 511M103.836 435.5C96.7994 470.004 92.4797 502.752 90.1779 533M24.5292 511C18.7992 555.078 18.8801 599.364 27.7685 641.208C44.6314 653.574 82.5394 682.488 99.2674 699.216C90.9882 665.997 84.5491 606.971 90.1779 533M24.5292 511C29.4716 524.167 49.5207 547 90.1779 533" stroke="#78645D" stroke-width="5"/>
<path d="M196.219 192.888C276.526 186.576 351.109 312.715 227.806 375.728L231.787 347.399C238.007 342.027 251.49 328.308 255.662 316.402L231.655 337.231L228.303 305.531C233.376 300.909 244.487 287.585 248.343 271.263L225.813 292.689L217.928 262.694C221.267 256.527 227.931 243.176 227.878 239.109L213.201 251.88L187.515 204.653L156.894 186.168L95.4633 211.914L90.5635 196.782C88.5538 197.748 85.8912 209.658 84.8111 215.491C75.3705 218.224 57.552 232.61 49.8228 239.461C48.9421 236.839 46.141 223.069 44.8505 216.511C41.6639 219.186 38.8312 238.046 37.8131 247.142L22.0478 262.102C19.0665 258.873 17.3472 246.478 16.8603 240.684C14.119 246.857 15.9029 260.458 17.1376 266.487L-0.570737 292.495C-36.7589 183.724 66.0971 137.783 117.408 162.332L102.163 153.129L104.609 146.837L99.37 150.785C93.8527 147.824 73.2173 141.514 65.3957 139.764C65.0414 137.841 76.2287 127.494 80.772 122.017C76.1783 121.371 61.4973 132.32 55.8256 138.419L29.9626 136.346C30.5543 132.135 37.4138 119.437 40.4638 114.4C32.0711 116.343 21.8775 130.916 18.4847 137.466C0.985767 135.319 -22.4243 146.16 -31.1764 151.956C19.36 17.3563 149.451 80.5307 164.848 168.185C164.333 134.073 133.402 91.0273 118.001 73.7688L135.203 65.256L114.986 70.2221L93.8474 53.9788C97.7276 48.5906 109.296 44.0486 114.595 42.4511C104.705 39.4994 90.9478 44.9832 85.3057 48.094L53.7296 33.897C164.701 -16.8685 200.178 68.9229 192.538 123.281C201.953 97.3585 218.337 73.6482 245.473 66.7001C296.657 53.5946 319.899 92.6446 325.123 113.808C315.71 109.674 299.329 110.313 292.315 111.149C287.051 104.163 277.82 99.4826 273.862 98.0156C282.978 106.479 285.162 114.828 285.115 117.944L254.743 128.509L241.26 113.342L251.794 130.047L205.855 163.168C247.573 134.672 287.5 136.64 302.881 141.521C378.319 178.043 361.779 246.478 344.079 276.131C343.059 270.054 333.807 254.779 329.309 247.901C334.672 240.847 334.413 224.546 333.613 217.276C333.073 230.005 325.406 238.634 321.64 241.358L301.53 220.573C303.793 215.581 302.072 194.497 300.696 190.4L292.669 214.837C281.324 206.024 259.568 199.056 249.814 196.911L246.727 185.547C247.435 189.394 246.018 194.296 245.22 196.266C232.173 190.783 210.233 191.412 196.219 192.888Z" fill="#339426"/>
<path d="M188.961 193.822C271.859 178.93 354.818 310.819 227.806 375.728L231.787 347.399C238.007 342.027 251.49 328.308 255.662 316.402L231.655 337.231L228.303 305.531C233.376 300.909 244.487 287.585 248.343 271.263L225.813 292.689L217.928 262.694C221.267 256.527 227.931 243.176 227.878 239.109L213.201 251.88L187.515 204.653M188.961 193.822L187.454 204.541L187.515 204.653M188.961 193.822C201.202 191.901 229.592 189.699 245.22 196.266C246.018 194.296 247.435 189.394 246.727 185.547L249.814 196.911C259.568 199.056 281.324 206.024 292.669 214.837L300.696 190.4C302.072 194.497 303.793 215.581 301.53 220.573L321.64 241.358C325.406 238.634 333.073 230.005 333.613 217.276C334.413 224.546 334.672 240.847 329.309 247.901C333.807 254.779 343.059 270.054 344.079 276.131C361.779 246.478 378.319 178.043 302.881 141.521C286.687 136.382 243.287 134.472 199.234 167.942M188.961 193.822L191.015 188.648M199.234 167.942L251.794 130.047L241.26 113.342L254.743 128.509L285.115 117.944C285.162 114.828 282.978 106.479 273.862 98.0156C277.82 99.4826 287.051 104.163 292.315 111.149C299.329 110.313 315.71 109.674 325.123 113.808C319.899 92.6446 296.657 53.5946 245.473 66.7001C218.337 73.6482 201.953 97.3585 192.538 123.281M199.234 167.942L191.015 188.648M191.015 188.648L181.292 187.281C181.299 183.434 181.465 179.121 181.822 174.474M192.538 123.281C200.178 68.9229 164.701 -16.8685 53.7296 33.897L85.3057 48.094C90.9478 44.9832 104.705 39.4994 114.595 42.4511C109.296 44.0486 97.7276 48.5906 93.8474 53.9788L114.986 70.2221L135.203 65.256L118.001 73.7688C133.402 91.0273 164.333 134.073 164.848 168.185M192.538 123.281C186.161 140.837 182.981 159.409 181.822 174.474M164.848 168.185L181.822 174.474M164.848 168.185C149.451 80.5307 19.36 17.3563 -31.1764 151.956C-22.4243 146.16 0.985766 135.319 18.4847 137.466C21.8775 130.916 32.0711 116.343 40.4638 114.4C37.4138 119.437 30.5543 132.135 29.9626 136.346L55.8256 138.419C61.4973 132.32 76.1783 121.371 80.772 122.017C76.2287 127.494 65.0414 137.841 65.3957 139.764C73.2173 141.514 93.8527 147.824 99.37 150.785L104.609 146.837L102.163 153.129L126.272 167.683M187.515 204.653L156.894 186.168M126.272 167.683C79.3194 132.353 -38.9918 177.012 -0.570738 292.495L17.1376 266.487C15.9029 260.458 14.119 246.857 16.8603 240.684C17.3472 246.478 19.0665 258.873 22.0478 262.102L37.8131 247.142C38.8312 238.046 41.6639 219.186 44.8505 216.511C46.141 223.069 48.9421 236.839 49.8228 239.461C57.552 232.61 75.3705 218.224 84.811 215.491C85.8912 209.658 88.5538 197.748 90.5635 196.782L95.4633 211.914L156.894 186.168M126.272 167.683L156.894 186.168" stroke="#1E6315" stroke-width="3"/>
<circle cx="137.893" cy="199.016" r="36.3935" fill="#AC7B49" stroke="#A26E3A" stroke-width="3"/>
<circle cx="195.557" cy="208.902" r="36.9426" fill="#BB8855" stroke="#A56F3A" stroke-width="3"/>
<circle cx="171.942" cy="170.459" r="25.959" fill="#BE9163" stroke="#9B632E" stroke-width="3"/>
<path d="M400 705.161C400 749.068 293.22 730.079 161.5 730.079C29.7801 730.079 -77 749.068 -77 705.161C-77 661.255 29.7801 625.661 161.5 625.661C293.22 625.661 400 661.255 400 705.161Z" fill="#FFDFAA"/>
<path d="M-71.7869 678.421C-74.5834 680.129 -75.466 683.78 -73.7584 686.577C-72.0507 689.373 -68.3994 690.256 -65.603 688.548L-68.695 683.485L-71.7869 678.421ZM-68.695 683.485L-65.603 688.548C66.6692 607.776 263.543 605.514 390.827 688.456L394.066 683.485L397.305 678.514C265.906 592.892 64.0927 595.447 -71.7869 678.421L-68.695 683.485Z" fill="#FFCE7D"/>
</svg>
