<?xml version="1.0" encoding="UTF-8"?>
<svg version="1.1" xmlns="http://www.w3.org/2000/svg" width="312" height="739">
<path d="M0 0 C0.66243018 7.01466243 1.06253219 13.92244103 1.03125 20.96484375 C1.02899414 21.64671753 1.02673828 22.32859131 1.02441406 23.03112793 C1.01860503 24.68742843 1.00964123 26.34371738 1 28 C1.57834595 27.92705215 2.15669189 27.85410431 2.75256348 27.77894592 C8.85302376 27.01048549 14.95433506 26.24906326 21.05615234 25.49145508 C23.32362366 25.20902582 25.59088322 24.9248904 27.85791016 24.63891602 C39.43897307 23.17913965 50.94484593 21.83310331 62.60400391 21.2434082 C65.77862162 21.01586731 68.80169486 20.58221802 71.9296875 20.0078125 C78.87360097 18.74293607 85.84724096 18.36895017 92.88232422 17.99462891 C95.12905177 17.87478387 97.37502383 17.74482769 99.62109375 17.61328125 C103.74632486 17.37686609 107.87189266 17.17966727 112 17 C113.55195068 16.92773193 113.55195068 16.92773193 115.13525391 16.85400391 C116.01358887 16.82999512 116.89192383 16.80598633 117.796875 16.78125 C118.52487305 16.75869141 119.25287109 16.73613281 120.00292969 16.71289062 C124.52145851 17.36249819 127.28083369 20.57647133 130 24 C142.10305603 42.3319182 142.10305603 42.3319182 141.9375 51.4375 C141.9684375 52.7059375 141.9684375 52.7059375 142 54 C143.15822266 54.59167969 143.15822266 54.59167969 144.33984375 55.1953125 C147.92425374 57.62702676 148.55711595 60.44004318 149.625 64.4375 C149.82955811 65.15035156 150.03411621 65.86320312 150.24487305 66.59765625 C150.84899901 68.72700351 151.42562436 70.86246943 152 73 C152.32355469 74.13566406 152.64710938 75.27132812 152.98046875 76.44140625 C154.50926282 82.06133938 155.74069316 87.18026806 155 93 C151.88974134 96.15475715 149.0868366 96.48667343 144.7734375 96.8515625 C143.4622998 96.9762793 142.15116211 97.10099609 140.80029297 97.22949219 C140.0856488 97.29309937 139.37100464 97.35670654 138.63470459 97.42224121 C126.15624976 98.54190809 113.81445909 100.11636398 101.46875 102.2578125 C69.64176756 107.73170501 39.29028614 110.25680754 7 109 C7.495 117.415 7.495 117.415 8 126 C10.87603344 125.71661725 13.75053851 125.42358747 16.625 125.125 C17.43324219 125.04636719 18.24148437 124.96773438 19.07421875 124.88671875 C19.86699219 124.80292969 20.65976563 124.71914062 21.4765625 124.6328125 C22.5605835 124.52283936 22.5605835 124.52283936 23.66650391 124.41064453 C26.56118243 123.9012441 29.21433837 122.9332428 32 122 C48.83052676 118.23364966 65.93124786 116.52613714 83.125 115.6875 C83.92397705 115.64834473 84.7229541 115.60918945 85.54614258 115.56884766 C90.02060194 115.35773172 94.49413077 115.19280148 98.97180176 115.06829834 C100.93647963 115.00213901 102.89958888 114.89361342 104.86230469 114.78369141 C106.01891602 114.73776855 107.17552734 114.6918457 108.3671875 114.64453125 C109.3660498 114.59272705 110.36491211 114.54092285 111.39404297 114.48754883 C114 115 114 115 116.23632812 117.29272461 C117.61555011 119.4098609 118.83350112 121.37033588 119.8515625 123.671875 C120.14474365 124.33147217 120.4379248 124.99106934 120.73999023 125.6706543 C121.03204346 126.35683838 121.32409668 127.04302246 121.625 127.75 C121.93058838 128.46518799 122.23617676 129.18037598 122.55102539 129.91723633 C126.55759158 139.50402681 129.23479995 150.08931609 126.3125 160.43359375 C122.64764601 168.51154276 116.24295529 171.59602721 108.296875 174.63867188 C107.25015625 175.02603516 106.2034375 175.41339844 105.125 175.8125 C104.05507812 176.21919922 102.98515625 176.62589844 101.8828125 177.04492188 C99.25900234 178.04056412 96.63160129 179.02517942 94 180 C95.17433594 179.9278125 96.34867188 179.855625 97.55859375 179.78125 C132.76817255 177.70402137 169.10449611 179.45473212 203 190 C203.66 190.66 204.32 191.32 205 192 C203.87811441 193.14888283 202.75238316 194.29401137 201.625 195.4375 C200.99851562 196.07558594 200.37203125 196.71367187 199.7265625 197.37109375 C198 199 198 199 196 200 C197.98 201.32 199.96 202.64 202 204 C197.94611805 213.31481864 189.50487992 221.64507476 182.75 229.125 C182.27965332 229.65665771 181.80930664 230.18831543 181.32470703 230.73608398 C176.03555467 236.4735164 170.52336827 239.25225624 162.75 240.625 C160.94789063 240.95371094 160.94789063 240.95371094 159.109375 241.2890625 C156.92201659 241.67849509 154.73890938 242.03714325 152.5390625 242.35009766 C144.73725641 243.55988938 137.79532664 246.16541862 130.5 249.125 C128.19968554 250.04868822 125.8976779 250.96817445 123.59375 251.8828125 C122.08844727 252.49213623 122.08844727 252.49213623 120.55273438 253.11376953 C118 254 118 254 115 254 C115.32226562 254.65484375 115.64453125 255.3096875 115.9765625 255.984375 C117.25555083 259.75299711 117.29219124 263.31658392 117.375 267.25 C117.83495082 278.79855909 119.14475294 290.74310822 126.078125 300.30859375 C127.5475877 303.00468422 127.26200504 305.18787541 126.63671875 308.125 C124.56348483 314.23022873 120.06244367 318.29421839 115 322 C114.47269287 322.39880371 113.94538574 322.79760742 113.40209961 323.20849609 C107.62518232 327.2388341 101.92787312 328.35141848 95.0625 329.5 C86.30788332 331.10038166 77.9021562 333.01731483 69.41932678 335.69114685 C64.98804663 337.04058617 60.51376445 338.11850981 56 339.15234375 C55.22527344 339.33212769 54.45054687 339.51191162 53.65234375 339.69714355 C51.76879506 340.13387687 49.88447769 340.56729287 48 341 C61.70932326 340.89208288 75.4185981 340.77936868 89.12783241 340.66066074 C95.49471048 340.60567804 101.86159329 340.55229979 108.22851562 340.50268555 C114.38179551 340.45467546 120.53502501 340.40232374 126.68824387 340.34705925 C129.02675483 340.32680037 131.36527952 340.30806207 133.70381546 340.29092598 C149.931579 340.1938537 149.931579 340.1938537 166.12484741 339.23204041 C181.30209421 338.00715429 194.29345093 340.37296027 208.0390625 346.6953125 C210.41926622 347.74410939 212.49104392 348.42152936 215 349 C214.51810611 364.48278429 211.19082122 376.30089585 204 390 C200.22581871 397.54836259 201.09153553 406.63156093 200 415 C184.49 415.33 168.98 415.66 153 416 C154.32 418.97 155.64 421.94 157 425 C156.75 427.9375 156.75 427.9375 156 430 C156 430.66 156 431.32 156 432 C156.66 432.66 157.32 433.32 158 434 C158.72749697 439.81997575 157.8762487 444.4305274 154.99609375 449.57421875 C150.62374829 454.8877736 144.13634186 457.24052712 138 460 C136.29288649 460.78562316 134.58579415 461.57129268 132.87908936 462.35780334 C97.39003328 478.67386273 97.39003328 478.67386273 85.5078125 479.4296875 C83.95513672 479.53990234 83.95513672 479.53990234 82.37109375 479.65234375 C80.21532837 479.80021213 78.05905748 479.94089463 75.90234375 480.07421875 C69.88917439 480.51493551 65.54550614 481.54573884 60 484 C56.14947433 484.77486689 52.27488759 485.23465772 48.375 485.6875 C47.35148437 485.81705078 46.32796875 485.94660156 45.2734375 486.08007812 C40.81010878 486.62927678 36.4989426 487.02737711 32 487 C32.03980484 487.60277267 32.07960968 488.20554535 32.12062073 488.82658386 C32.53386484 495.10402913 32.93792383 501.38201788 33.33666992 507.66040039 C33.48665987 510.0030002 33.63898603 512.34545166 33.79370117 514.68774414 C34.01576219 518.05578862 34.22939824 521.42427838 34.44140625 524.79296875 C34.51218887 525.83897751 34.5829715 526.88498627 34.65589905 527.96269226 C34.71603683 528.94333145 34.77617462 529.92397064 34.83813477 530.93432617 C34.89365005 531.79370285 34.94916534 532.65307953 35.00636292 533.53849792 C34.9995931 536.157409 34.54885091 538.44473541 34 541 C33.70903551 546.47808383 33.70903551 546.47808383 34.96557617 551.73071289 C36.01600449 555.05058203 36.46135952 558.00628763 36.78125 561.46875 C36.95938232 563.38240356 36.95938232 563.38240356 37.14111328 565.3347168 C37.26131792 566.72309481 37.38093103 568.11152413 37.5 569.5 C37.56314392 570.20710114 37.62628784 570.91420227 37.69134521 571.64273071 C38.93596431 585.61984605 39.71093394 599.61641209 40.35351562 613.6328125 C40.39028412 614.41417068 40.42705261 615.19552887 40.4649353 616.00056458 C40.53279596 617.45669932 40.59751718 618.9129855 40.65835571 620.36943054 C40.84147818 624.31444886 41.27024255 628.11888028 42 632 C42.54527344 631.39414062 43.09054688 630.78828125 43.65234375 630.1640625 C45.24298608 628.39668213 46.83417285 626.62979167 48.42578125 624.86328125 C50.07308536 623.03099913 51.71667915 621.19537017 53.35546875 619.35546875 C65.67827512 605.54798691 79.63402781 591.95496591 96 583 C96.66 583.33 97.32 583.66 98 584 C96.5207545 587.38770213 94.59166247 589.69491101 92.0625 592.375 C79.01938411 606.69726391 68.86527554 621.01902371 64 640 C64.99257812 639.48050781 65.98515625 638.96101562 67.0078125 638.42578125 C75.81275929 633.88083475 84.56164468 630.08298563 94 627 C96.54223042 626.16833123 99.08392014 625.33516199 101.625 624.5 C103.47738281 623.89285156 103.47738281 623.89285156 105.3671875 623.2734375 C109.8916311 621.68744974 114.24923298 619.80977621 118.609375 617.8203125 C121 617 121 617 124 618 C124 618.99 124 619.98 124 621 C122.02 621.99 120.04 622.98 118 624 C119.22074219 624.15855469 120.44148437 624.31710937 121.69921875 624.48046875 C131.74562092 625.87065921 140.77222283 627.61302397 150 632 C150.68964844 632.31839844 151.37929687 632.63679687 152.08984375 632.96484375 C153.75 633.875 153.75 633.875 156 636 C156.875 639.75 156.875 639.75 157 643 C153.44390863 646.38451684 150.69832888 646.35435035 145.89575195 646.30541992 C145.18786026 646.30276123 144.47996857 646.30010254 143.75062561 646.29736328 C142.21626591 646.29041874 140.68192483 646.27700762 139.14766884 646.257864 C136.71244973 646.23017504 134.27818466 646.22533176 131.84281921 646.22737122 C124.92002224 646.23089798 117.99786434 646.20809059 111.07543945 646.1340332 C106.83640724 646.09031128 102.5987994 646.08585 98.3596096 646.10561562 C96.75093919 646.10551854 95.14219598 646.09078968 93.53380775 646.06065941 C82.84678804 645.76345398 82.84678804 645.76345398 73.64916992 650.7434082 C68.51556245 656.13416757 65.20959002 662.56619562 61.91333008 669.16796875 C61.55459305 669.88621826 61.19585602 670.60446777 60.82624817 671.34448242 C60.41725533 672.16396362 60.41725533 672.16396362 60 673 C52.56259173 673.25382664 45.12630089 673.42877542 37.68554688 673.54931641 C35.15549997 673.59956721 32.62574293 673.66778278 30.09667969 673.75439453 C26.45695605 673.87590926 22.82107103 673.93244602 19.1796875 673.9765625 C18.05134491 674.02817535 16.92300232 674.07978821 15.76046753 674.13296509 C12.54661456 674.13525374 10.04576233 674.03501509 7 673 C4.19224087 669.98677945 2.63617606 666.74708143 1 663 C0.24838366 661.66423928 -0.51748926 660.336197 -1.30859375 659.0234375 C-1.65913818 658.41943115 -2.00968262 657.8154248 -2.37084961 657.19311523 C-9.07330933 645.76871205 -15.64644087 637.63749522 -28.375 632.6875 C-33.55339071 631.70539142 -38.74398177 631.32796173 -44 631 C-44 629.68 -44 628.36 -44 627 C-37.317647 623.18151257 -30.54793619 623.04528807 -23 624 C-13.81123223 626.76012416 -6.9166531 633.09462154 0.06640625 639.390625 C2.90454333 642.03640686 2.90454333 642.03640686 6 644 C5.69762481 631.37583578 5.23542729 618.29428411 -3 608 C-3.52078125 607.26394531 -4.0415625 606.52789063 -4.578125 605.76953125 C-7.8860909 601.98671218 -11.72988346 599.17758668 -15.75 596.1875 C-16.54277344 595.59001953 -17.33554688 594.99253906 -18.15234375 594.37695312 C-20.09741183 592.91229343 -22.04663066 591.45355908 -24 590 C-23.67 589.01 -23.34 588.02 -23 587 C-10.20603117 588.5507841 0.73241463 596.60947225 8.875 606.2109375 C11.30424252 609.35260211 13.24815355 612.43868058 15 616 C14.44453065 601.91075424 13.73250176 587.84287763 12.78309441 573.77470589 C12.58304608 570.80939463 12.38643546 567.84387078 12.19056702 564.87828064 C11.77575069 558.60616102 11.35695424 552.33431094 10.9375 546.0625 C10.44711492 538.72989593 9.95843435 531.39718653 9.47415352 524.06417656 C9.281285 521.15706286 9.08528675 518.25017138 8.8891449 515.34327698 C8.77091206 513.55837006 8.65282654 511.77345337 8.53491211 509.98852539 C8.48037872 509.19315369 8.42584534 508.39778198 8.36965942 507.57830811 C8.0519584 502.70742518 7.95253499 497.88140039 8 493 C7.02675781 493.30679687 6.05351563 493.61359375 5.05078125 493.9296875 C-1.44670238 495.78144584 -8.20168394 496.20070852 -14.90771484 496.80517578 C-16.64560945 496.96700074 -18.38013746 497.16450823 -20.11328125 497.37109375 C-24.94810296 497.73953273 -27.55231125 497.06233643 -31.375 494 C-38.33402195 487.01297394 -42.05038446 476.75812279 -42.328125 466.95703125 C-42.31956143 465.24201116 -42.29311183 463.52699953 -42.25 461.8125 C-42.23614258 460.90483887 -42.22228516 459.99717773 -42.20800781 459.06201172 C-42.15776107 456.37381106 -42.08139054 453.68741385 -42 451 C-41.98453125 450.23768066 -41.9690625 449.47536133 -41.953125 448.68994141 C-41.64212335 434.49725133 -41.64212335 434.49725133 -37 429 C-32.25377618 425.99405825 -27.6058648 423.9064934 -22.25 422.25 C-21.20610107 421.92588135 -21.20610107 421.92588135 -20.14111328 421.59521484 C-12.32026632 419.31045277 -4.97522933 419.27562609 3 421 C3 418.69 3 416.38 3 414 C-6.9 414 -16.8 414 -27 414 C-33.83832046 400.32335908 -33.7155112 385.44962996 -29.66796875 370.72265625 C-28.76241817 367.03161092 -28.77775208 363.77821465 -29 360 C-29.70125 360.350625 -30.4025 360.70125 -31.125 361.0625 C-34.65032253 362.21206169 -36.44397643 362.01600674 -40 361 C-45.79905891 357.68625205 -51.31827402 353.25736061 -54 347 C-53.57142857 340.57142857 -53.57142857 340.57142857 -52 339 C-51.95936168 337.33382885 -51.957279 335.66611905 -52 334 C-52.78761719 333.78085937 -53.57523438 333.56171875 -54.38671875 333.3359375 C-57 332 -57 332 -58.14453125 329.6640625 C-59.69628062 322.60405658 -60.2972945 315.84430584 -60.375 308.625 C-60.38893799 307.78146973 -60.40287598 306.93793945 -60.41723633 306.06884766 C-60.37594865 300.64997458 -59.73855792 296.72371345 -57 292 C-53.41911553 289.45082908 -49.98639471 288.27615528 -45.74609375 287.2109375 C-44.56208984 286.90929687 -43.37808594 286.60765625 -42.15820312 286.296875 C-40.93037109 285.99265625 -39.70253906 285.6884375 -38.4375 285.375 C-36.58995117 284.90707031 -36.58995117 284.90707031 -34.70507812 284.4296875 C-31.47189818 283.61214227 -28.23664586 282.80369182 -25 282 C-23.66661043 281.66689171 -22.33325043 281.33366479 -21 281 C-21.33733154 280.351521 -21.67466309 279.70304199 -22.0222168 279.03491211 C-40.75823805 242.82903358 -40.75823805 242.82903358 -35.9375 226.9375 C-35.71707031 226.20450684 -35.49664062 225.47151367 -35.26953125 224.71630859 C-29.54488683 206.52404917 -29.54488683 206.52404917 -23.53125 202.2421875 C-22.6959375 201.83226562 -21.860625 201.42234375 -21 201 C-20.236875 200.608125 -19.47375 200.21625 -18.6875 199.8125 C-17.8521875 199.4103125 -17.8521875 199.4103125 -17 199 C-18.22783203 199.2165625 -18.22783203 199.2165625 -19.48046875 199.4375 C-29.04276599 200.88847029 -38.51836379 201.27899865 -48.1875 201.375 C-50.10308716 201.41367187 -50.10308716 201.41367187 -52.05737305 201.453125 C-53.87555542 201.45699219 -53.87555542 201.45699219 -55.73046875 201.4609375 C-56.81739014 201.46915527 -57.90431152 201.47737305 -59.02416992 201.48583984 C-62.69914304 200.88585654 -64.33463152 199.54500845 -67 197 C-70.80924327 191.6388428 -75.33067131 183.80272002 -74.75 177.125 C-74 175 -74 175 -73 173 C-73.66 172.67 -74.32 172.34 -75 172 C-74.66765112 167.71124448 -74.31286521 163.42509059 -73.93798828 159.13989258 C-73.81377548 157.68466705 -73.69550008 156.22892115 -73.58349609 154.77270508 C-72.38816474 139.3338899 -72.38816474 139.3338899 -68 134 C-63.98995613 130.73317312 -60.14629379 129.17602916 -55.1875 127.8125 C-54.04667969 127.48894531 -52.90585937 127.16539062 -51.73046875 126.83203125 C-43.06404132 124.89910032 -35.71986407 125.13538293 -26.9375 126.4375 C-25.35291992 126.65889648 -25.35291992 126.65889648 -23.73632812 126.88476562 C-21.15615553 127.24669029 -18.57786224 127.62197049 -16 128 C-16.33 122.39 -16.66 116.78 -17 111 C-19.80628906 111.02320313 -22.61257812 111.04640625 -25.50390625 111.0703125 C-28.23770699 111.08593355 -30.97150267 111.09806432 -33.70532227 111.10986328 C-35.59759771 111.11988815 -37.48985778 111.13351155 -39.38208008 111.15087891 C-42.1102275 111.17528222 -44.83816915 111.18651845 -47.56640625 111.1953125 C-48.40522842 111.20563507 -49.2440506 111.21595764 -50.10829163 111.22659302 C-55.113729 111.22753783 -59.3036896 110.80301021 -64 109 C-67.09022949 103.35697223 -66.60018843 96.65569731 -64.94140625 90.60546875 C-64.49295419 89.12936852 -64.03320075 87.65665688 -63.5625 86.1875 C-63.21735352 85.06311523 -63.21735352 85.06311523 -62.86523438 83.91601562 C-61.94522859 80.93199688 -60.98745099 77.96235297 -60 75 C-59.87370083 73.10551241 -59.77250336 71.20928917 -59.6875 69.3125 C-59.32018896 64.51449948 -58.49934979 61.31004194 -56.09765625 57.1953125 C-54.68204033 54.36408066 -53.95580816 51.48959022 -53.125 48.4375 C-50.99657231 41.2623707 -48.30838094 36.98502857 -41.875 33.125 C-37.96776694 31.59608272 -34.69995795 30.86061658 -30.5 30.875 C-29.7471875 30.87242188 -28.994375 30.86984375 -28.21875 30.8671875 C-26.02247372 30.99865474 -24.12076385 31.43976674 -22 32 C-22.09087891 31.07102905 -22.09087891 31.07102905 -22.18359375 30.12329102 C-22.46016326 27.27010418 -22.73011734 24.4163268 -23 21.5625 C-23.09539063 20.58861328 -23.19078125 19.61472656 -23.2890625 18.61132812 C-23.84174098 12.70951151 -24.09807559 6.92744322 -24 1 C-20.66666667 1 -17.33333333 1 -14 1 C-13.13375 0.835 -12.2675 0.67 -11.375 0.5 C-7.50750467 -0.07296227 -3.90616004 -0.06734759 0 0 Z M27 413 C27 414.98 27 416.96 27 419 C37.55510009 417.99306004 47.72794239 416.72227675 58 414 C56.14680112 411.71671545 56.14680112 411.71671545 53.26953125 411.76953125 C44.47731659 411.87881301 35.76590041 412.3124784 27 413 Z " fill="#755C39" transform="translate(84,20)"/>
<path d="M0 0 C0.82243698 -0.01243744 1.64487396 -0.02487488 2.49223328 -0.03768921 C19.91049723 -0.24858796 37.0086378 0.17138468 54.28515625 2.5234375 C55.05173553 2.62585754 55.81831482 2.72827759 56.60812378 2.83380127 C64.70608807 3.94061589 72.67790149 5.38763555 80.62109375 7.3203125 C81.30064117 7.48356018 81.9801886 7.64680786 82.68032837 7.81500244 C85.68486805 8.58351674 87.42773511 9.04101636 89.66015625 11.2734375 C85.2750275 14.58902265 82.28557466 15.82340403 76.66015625 16.2734375 C82.10515625 19.2434375 82.10515625 19.2434375 87.66015625 22.2734375 C86.49103361 26.94992807 84.21228175 29.46098779 81.09765625 32.9609375 C80.55334961 33.5801709 80.00904297 34.1994043 79.44824219 34.83740234 C78.35637389 36.07874877 77.26217109 37.3180461 76.16552734 38.55517578 C74.87275445 40.03077352 73.61618015 41.53794688 72.3671875 43.05078125 C66.3870896 50.22451146 60.0055661 53.88402433 50.66015625 55.2734375 C49.80897217 55.28697266 48.95778809 55.30050781 48.08081055 55.31445312 C37.2139464 55.50730849 28.0953673 59.53542838 18.16015625 63.5859375 C14.77772008 64.94373025 11.39142507 66.29166324 8.00390625 67.63671875 C7.19285934 67.96053024 6.38181244 68.28434174 5.54618835 68.6179657 C-0.14931252 70.86949616 -5.85783208 72.77327866 -11.73779297 74.49243164 C-14.80166024 75.41205178 -17.71344758 76.57641057 -20.65234375 77.8359375 C-29.34701142 81.24091514 -38.41221224 82.58458822 -47.61303711 83.88598633 C-59.41046642 85.58337298 -70.77677858 88.23820643 -82.27734375 91.3359375 C-109.65820042 98.65979654 -109.65820042 98.65979654 -119.58984375 98.3984375 C-120.5025 98.38039063 -121.41515625 98.36234375 -122.35546875 98.34375 C-123.0103125 98.32054687 -123.66515625 98.29734375 -124.33984375 98.2734375 C-130.22424737 88.53913151 -135.16361756 78.60067274 -139.55371094 68.10888672 C-140.16940721 66.67136978 -140.85529252 65.2638802 -141.56640625 63.87109375 C-143.97501054 55.78158946 -141.83383063 48.2859007 -139.08984375 40.5859375 C-138.78949219 39.68810547 -138.48914063 38.79027344 -138.1796875 37.86523438 C-133.742088 24.97731242 -133.742088 24.97731242 -128.7734375 21.453125 C-119.21310985 17.28995755 -109.49105474 14.58985049 -99.33984375 12.2734375 C-98.13585937 11.99757812 -96.931875 11.72171875 -95.69140625 11.4375 C-84.94210737 9.2306903 -74.02367031 8.02807873 -63.13598633 6.71850586 C-62.47486847 6.6389566 -61.81375061 6.55940735 -61.13259888 6.47744751 C-60.47653656 6.39852264 -59.82047424 6.31959778 -59.14453125 6.23828125 C-54.12841429 5.63312798 -49.13033652 4.96143425 -44.1328125 4.21875 C-37.69400475 3.28177294 -31.26447255 2.68946208 -24.77734375 2.2109375 C-22.71333586 2.05610492 -20.64952264 1.89864978 -18.5859375 1.73828125 C-17.25067017 1.63954712 -17.25067017 1.63954712 -15.88842773 1.53881836 C-13.36508084 1.32518757 -13.36508084 1.32518757 -11.03320312 0.76147461 C-7.362641 0.09636822 -3.71889119 0.05174455 0 0 Z " fill="#6CC2BF" transform="translate(192.33984375,202.7265625)"/>
<path d="M0 0 C7.61059412 -0.3631451 7.61059412 -0.3631451 11.12011719 2.30761719 C13.79623718 5.34977183 15.91626336 8.42201519 17.81542969 11.97949219 C18.1530835 12.59421387 18.4907373 13.20893555 18.83862305 13.84228516 C25.99307614 27.01890637 25.99307614 27.01890637 24.69042969 32.22949219 C20.40042969 32.88949219 16.11042969 33.54949219 11.69042969 34.22949219 C11.69042969 34.88949219 11.69042969 35.54949219 11.69042969 36.22949219 C12.47546875 36.20628906 13.26050781 36.18308594 14.06933594 36.15917969 C17.28262418 36.1039821 20.4781106 36.13702243 23.69042969 36.22949219 C24.42132813 36.24882813 25.15222656 36.26816406 25.90527344 36.28808594 C27.69042969 36.54199219 27.69042969 36.54199219 30.69042969 38.22949219 C32.73051888 41.6955969 33.67866194 45.35611525 34.69042969 49.22949219 C34.87234863 49.91720703 35.05426758 50.60492188 35.24169922 51.31347656 C38.98026679 65.63569821 38.98026679 65.63569821 38.69042969 72.22949219 C33.77525369 73.77185831 29.23882496 74.61079362 24.07714844 75.04589844 C23.38152298 75.107285 22.68589752 75.16867157 21.9691925 75.23191833 C19.77260638 75.42507146 17.57540458 75.6092515 15.37792969 75.79199219 C13.16271509 75.9792984 10.94773309 76.1686153 8.73310852 76.36277771 C6.73711427 76.53737283 4.74051609 76.70502233 2.74389648 76.87231445 C-0.22143697 77.04364702 -0.22143697 77.04364702 -2.30957031 78.22949219 C-3.93163663 78.48388401 -5.56095953 78.69280155 -7.19238281 78.87792969 C-8.18705566 78.99467041 -9.18172852 79.11141113 -10.20654297 79.23168945 C-11.27179199 79.35471436 -12.33704102 79.47773926 -13.43457031 79.60449219 C-21.79559784 80.60516356 -30.03975119 81.78222181 -38.28613281 83.48339844 C-39.62636828 83.7369565 -40.96766116 83.98494641 -42.30957031 84.22949219 C-43.20087646 84.39940674 -44.09218262 84.56932129 -45.01049805 84.74438477 C-56.97988132 86.75764505 -69.01568013 86.64899983 -81.12207031 86.79199219 C-85.48283048 86.85082146 -89.84348023 86.91506885 -94.20410156 86.98339844 C-95.79282074 87.00748528 -95.79282074 87.00748528 -97.41363525 87.03205872 C-103.26930828 87.13358811 -109.09599969 87.34449071 -114.93847656 87.74511719 C-124.43148378 88.38894486 -133.92167624 88.41557535 -143.43359375 88.41479492 C-146.46530546 88.41701469 -149.49667094 88.43534859 -152.52832031 88.45410156 C-154.47883992 88.45703081 -156.42936123 88.45901874 -158.37988281 88.45996094 C-159.27474396 88.46714645 -160.1696051 88.47433197 -161.09158325 88.48173523 C-166.22177382 88.4630681 -170.44915755 87.89317595 -175.30957031 86.22949219 C-177.28715787 80.04953108 -176.29262301 74.15433574 -174.55957031 68.04199219 C-174.23472656 66.8521875 -173.90988281 65.66238281 -173.57519531 64.43652344 C-172.00579291 60.45973526 -170.14244446 58.14592926 -166.30957031 56.22949219 C-167.29957031 55.56949219 -168.28957031 54.90949219 -169.30957031 54.22949219 C-169.63769531 51.91699219 -169.63769531 51.91699219 -169.55957031 49.22949219 C-169.54410156 48.34261719 -169.52863281 47.45574219 -169.51269531 46.54199219 C-169.30957031 44.22949219 -169.30957031 44.22949219 -168.30957031 42.22949219 C-165.99991183 41.17596376 -163.66659292 40.17230123 -161.30957031 39.22949219 C-162.62957031 38.89949219 -163.94957031 38.56949219 -165.30957031 38.22949219 C-164.4162769 30.97648301 -163.18071686 24.87256907 -158.30957031 19.22949219 C-152.91273398 15.01995985 -149.2936247 14.12699761 -142.55566406 14.28417969 C-134.70766917 14.37650694 -127.137446 13.4974806 -119.37207031 12.35449219 C-118.03914091 12.16658763 -116.70604894 11.97983287 -115.37280273 11.79418945 C-112.79850055 11.43415275 -110.22465958 11.07079769 -107.65136719 10.70361328 C-88.41700254 7.97471672 -68.93890033 5.32920563 -49.52050781 4.53808594 C-46.17410926 4.29622835 -46.17410926 4.29622835 -42.46582031 3.27246094 C-35.97914888 1.75954062 -29.33771914 1.57197279 -22.70849609 1.22412109 C-20.44608434 1.10509793 -18.18453277 0.97488902 -15.92285156 0.84277344 C-13.02795051 0.67698055 -10.13321622 0.5306286 -7.23632812 0.40429688 C-4.82284719 0.29685766 -2.41008388 0.16712001 0 0 Z " fill="#F4F4F4" transform="translate(197.3095703125,39.7705078125)"/>
<path d="M0 0 C-0.26549421 3.67499882 -0.61012639 7.3361275 -1 11 C-1.11408203 12.16789062 -1.11408203 12.16789062 -1.23046875 13.359375 C-1.9507128 18.27398145 -3.54297944 22.22837745 -5.80375671 26.59973145 C-9.63801283 34.08319042 -11.76556834 40.69397491 -12.75390625 49.07421875 C-12.94104187 50.51444397 -12.94104187 50.51444397 -13.13195801 51.98376465 C-13.43387069 54.32122355 -13.72296071 56.65948595 -14 59 C-20.74418027 59.12686439 -27.48805244 59.21437811 -34.2331543 59.2746582 C-36.52721658 59.29978928 -38.8211989 59.33389969 -41.11499023 59.37719727 C-44.41410049 59.43790832 -47.71215146 59.46622437 -51.01171875 59.48828125 C-52.54792122 59.52699089 -52.54792122 59.52699089 -54.11515808 59.56648254 C-56.83493445 59.56755179 -59.33110304 59.52792517 -62 59 C-63.17526245 57.7473938 -63.17526245 57.7473938 -64.37426758 56.46948242 C-68.18436165 52.8861164 -71.23986456 53.69306123 -76.30536747 53.78989887 C-82.40048534 54.1365074 -88.38223723 55.06560643 -94.41430664 55.97558594 C-110.09222194 58.19613292 -125.53920666 58.52026447 -141.37109375 58.390625 C-144.12931374 58.38085063 -146.88753335 58.37725683 -149.64576721 58.37347412 C-156.06578642 58.36124996 -162.48551921 58.32872103 -168.90541464 58.28807616 C-176.23848019 58.24270028 -183.57156256 58.22120956 -190.90473449 58.20129442 C-205.93664674 58.15995855 -220.96829417 58.09002729 -236 58 C-238.26909084 52.92039985 -239.6501784 48.6074345 -240 43 C-240.06445312 42.30777344 -240.12890625 41.61554688 -240.1953125 40.90234375 C-240.53773721 34.24789015 -239.08222964 28.10399161 -237.51098633 21.68408203 C-236.57586712 17.8291008 -235.8787468 14.1374885 -235.55078125 10.1796875 C-235.08940903 5.58442023 -233.79872132 3.59466604 -230.27243805 0.62997532 C-222.77593455 -4.74711986 -213.70130045 -5.72501843 -204.74414062 -6.22631836 C-203.57944496 -6.30136817 -202.4147493 -6.37641798 -201.21475983 -6.45374203 C-187.87639786 -7.241491 -174.52957454 -7.33466037 -161.1718998 -7.3717854 C-157.60702923 -7.38400055 -154.04223412 -7.40779683 -150.47741699 -7.43040466 C-143.76241043 -7.47149531 -137.04739635 -7.50417461 -130.33232641 -7.53287882 C-118.2815604 -7.58446017 -106.23085457 -7.646547 -94.18019152 -7.71821922 C-89.96918304 -7.74287152 -85.75819301 -7.76241661 -81.54714012 -7.77760136 C-78.31330952 -7.79030417 -75.0795108 -7.80891981 -71.84570312 -7.82641602 C-70.70272263 -7.82902939 -69.55974213 -7.83164276 -68.38212585 -7.83433533 C-62.37055943 -7.87279273 -56.45805214 -8.13630222 -50.47801971 -8.76408291 C-32.20968812 -10.50329896 -16.49317632 -8.36660088 0 0 Z " fill="#D9A06C" transform="translate(295,372)"/>
<path d="M0 0 C1.37779615 2.64960798 2.6979616 5.31281436 4 8 C4.51691406 9.02996094 5.03382813 10.05992187 5.56640625 11.12109375 C9.80713413 20.1236992 12.93976219 29.5454488 10.328125 39.58203125 C7.8033353 45.15933308 4.00054759 48.1887376 -1.6796875 50.4921875 C-3.07509563 50.9622162 -4.47373143 51.42274208 -5.875 51.875 C-7.39673796 52.38794908 -8.91755678 52.90363202 -10.4375 53.421875 C-11.200625 53.68162109 -11.96375 53.94136719 -12.75 54.20898438 C-17.31194682 55.8127938 -21.77016772 57.67127537 -26.2421875 59.5078125 C-26.83217529 59.74032715 -27.42216309 59.9728418 -28.0300293 60.21240234 C-29.45100688 60.78051161 -30.8602008 61.37841033 -32.26098633 61.99462891 C-40.93245619 65.55439985 -49.69695559 66.25701476 -58.9375 67.125 C-62.0722151 67.43426017 -65.20610942 67.75128239 -68.33984375 68.0703125 C-69.10096466 68.14653839 -69.86208557 68.22276428 -70.64627075 68.30130005 C-74.78327586 68.72708447 -78.86086861 69.26603018 -82.95703125 70 C-90.32497786 71.30853414 -97.75719054 71.92635359 -105.20172119 72.63244629 C-117.26140906 73.78032777 -129.20811221 75.01980358 -141.125 77.25 C-148.66131388 78.62387901 -156.02178857 79.43768156 -163.6875 79.5625 C-164.99001709 79.60262207 -164.99001709 79.60262207 -166.31884766 79.64355469 C-170.60529189 79.61785144 -172.44698879 79.42245949 -175.9453125 76.75 C-177.76481656 74.31477023 -179.0688368 72.24637049 -180.1875 69.4375 C-181.10418979 67.18673401 -181.99782255 65.0041804 -183.12109375 62.84765625 C-184 61 -184 61 -183.875 59 C-182.4443768 55.73000412 -180.17266967 53.58633483 -177 52 C-177 51.34 -177 50.68 -177 50 C-178.98 49.67 -180.96 49.34 -183 49 C-183.77745419 24.51019298 -183.77745419 24.51019298 -178.375 17.625 C-175.01610027 14.55888572 -171.34271941 13.15215005 -167 12 C-166.35675781 11.78472656 -165.71351563 11.56945312 -165.05078125 11.34765625 C-159.68364797 9.78352027 -154.7809836 10.09157224 -149.25170898 10.53540039 C-125.07709711 12.35412049 -98.9373854 12.52103226 -75.40234375 6.09765625 C-62.81486345 2.82556673 -50.48231413 1.45240152 -37.52709961 0.91918945 C-34.93603014 0.81243944 -32.34608631 0.68986949 -29.75585938 0.56445312 C-19.83023565 0.10194857 -9.9363386 -0.10999637 0 0 Z " fill="#EDB2C4" transform="translate(197,139)"/>
<path d="M0 0 C8.50788583 11.72708587 8.50788583 11.72708587 8.1015625 16.84375 C7.3125 19.1875 7.3125 19.1875 5.3125 22.1875 C6.9625 23.5075 8.6125 24.8275 10.3125 26.1875 C10.10721677 27.56626798 9.8717699 28.94054994 9.625 30.3125 C9.49738281 31.07820313 9.36976563 31.84390625 9.23828125 32.6328125 C7.23482659 38.16133295 4.04292423 41.06745115 -1.12890625 43.53125 C-2.82940211 44.2653284 -4.53682828 44.98351143 -6.25 45.6875 C-8.06467071 46.46542478 -9.87847923 47.24536398 -11.69140625 48.02734375 C-12.56039551 48.39843262 -13.42938477 48.76952148 -14.32470703 49.15185547 C-17.17712791 50.40211062 -19.93224601 51.79924216 -22.6875 53.25 C-30.4648686 57.23954355 -38.67558402 60.27319537 -46.81494141 63.43481445 C-48.73243809 64.17606638 -48.73243809 64.17606638 -50.6875 65.1875 C-52.41620398 65.38532095 -54.15089069 65.53212916 -55.88671875 65.65234375 C-57.45389648 65.76932617 -57.45389648 65.76932617 -59.05273438 65.88867188 C-61.24787017 66.04482204 -63.4431824 66.19851345 -65.63867188 66.34960938 C-72.53449416 66.86964993 -78.25004081 67.95858647 -84.7578125 70.28515625 C-87.80057142 71.222326 -90.38850335 71.48897157 -93.5625 71.625 C-105.04177875 72.37987321 -116.15481525 75.00450581 -127.30688477 77.69970703 C-134.71761069 79.47404606 -142.18310664 80.86813857 -149.6875 82.1875 C-150.66460937 82.36796875 -151.64171875 82.5484375 -152.6484375 82.734375 C-168.36612345 85.07788602 -168.36612345 85.07788602 -174.14453125 81.7890625 C-182.85225336 72.49323715 -183.33527743 60.29573595 -183.20898438 48.30639648 C-183.1873805 45.86147668 -183.20895634 43.41944467 -183.234375 40.97460938 C-183.23173409 39.40363942 -183.22661402 37.83267124 -183.21875 36.26171875 C-183.22684692 35.53973801 -183.23494385 34.81775726 -183.24328613 34.07389832 C-183.14968156 28.99013087 -181.83937296 26.12845102 -178.6875 22.1875 C-171.15205007 15.17173627 -159.8261697 13.90732496 -149.98828125 13.87890625 C-148.34960601 13.85373343 -146.71093422 13.8283356 -145.07226562 13.80273438 C-142.54306041 13.77417923 -140.01391504 13.75010399 -137.48461914 13.73120117 C-127.90962035 13.64605264 -119.04296094 13.25338871 -109.72412109 10.86669922 C-106.454526 10.13539084 -103.34343598 9.89506323 -100 9.75 C-94.68275713 9.44671066 -90.46809818 8.28622783 -85.61328125 6.125 C-78.90725153 3.97620543 -71.73129577 4.12192098 -64.74609375 3.99780273 C-50.98914622 3.71501595 -37.59136775 1.98452422 -24.01220703 -0.08496094 C-4.5029958 -3.03690414 -4.5029958 -3.03690414 0 0 Z " fill="#B6BA84" transform="translate(228.6875,429.8125)"/>
<path d="M0 0 C1.70067108 2.97374002 2.25481253 5.14862285 2.30859375 8.5625 C2.34291504 9.87299316 2.34291504 9.87299316 2.37792969 11.20996094 C2.39758789 12.13067383 2.41724609 13.05138672 2.4375 14 C2.79676844 24.02187875 3.480648 33.04488376 8.75 41.8125 C10.55050397 44.84982432 10.99783809 45.95820304 11.1875 49.625 C8.47415345 57.33661651 2.12668159 62.31693095 -5 66 C-9.52885226 67.5078722 -13.76000497 68.26112194 -18.5 68.6875 C-26.54386456 69.67393603 -34.00650668 71.94332902 -41.703125 74.4362793 C-47.02080774 76.14968314 -52.24142226 77.53582667 -57.73583984 78.55078125 C-60.23967623 79.01446792 -60.23967623 79.01446792 -63.58203125 80.03125 C-68.31185539 81.3718173 -73.09642344 82.09241492 -77.94726562 82.85546875 C-82.05534139 83.4829345 -82.05534139 83.4829345 -85.87207031 85.02954102 C-88.64201809 86.29279737 -90.87096187 86.2725782 -93.91015625 86.30859375 C-95.06580078 86.33373047 -96.22144531 86.35886719 -97.41210938 86.38476562 C-99.81831122 86.41952617 -102.22456541 86.45085707 -104.63085938 86.47851562 C-113.92474018 86.68938951 -123.3165769 87.40146088 -131.0625 93.0625 C-131.77535156 93.56910156 -132.48820312 94.07570313 -133.22265625 94.59765625 C-135.1032702 96.02518727 -135.1032702 96.02518727 -137 98 C-140.88972461 99.76593497 -144.73356769 100.92084798 -149 101.1875 C-153.92065471 99.23974084 -157.59035237 96.01596572 -161 92 C-162.1875 88.1875 -162.1875 88.1875 -162 85 C-161.34 84.01 -160.68 83.02 -160 82 C-159.52844039 77.82302759 -159.52844039 77.82302759 -161.3125 74.1875 C-163.10476225 72.80544154 -163.10476225 72.80544154 -166 72 C-169.40211449 62.54968197 -171.16561231 49.5800146 -168.0625 39.8125 C-165.01852843 35.66162968 -161.864204 35.18522154 -157 34 C-154.77021491 33.33540469 -152.54109409 32.66857823 -150.3125 32 C-139.34436935 28.94292529 -129.0236039 26.92726157 -117.6875 26.125 C-108.26603098 25.43769173 -100.00915342 23.5862087 -91.07666016 20.63916016 C-86.68549076 19.287634 -82.18800261 18.34045064 -77.70556641 17.34423828 C-74.80791052 16.69221261 -72.00209583 16.00073953 -69.19921875 15.01171875 C-64.54549343 13.54002784 -59.80756802 12.80653408 -55 12 C-53.97414795 11.82267334 -52.9482959 11.64534668 -51.89135742 11.46264648 C-46.37338811 10.52044812 -40.87101857 9.71607721 -35.3125 9.0625 C-29.67549155 8.30275879 -24.98611623 6.56890118 -19.81640625 4.2421875 C-13.27047051 1.35507576 -7.16863947 -0.46751997 0 0 Z " fill="#E46D31" transform="translate(196,277)"/>
<path d="M0 0 C0.66243018 7.01466243 1.06253219 13.92244103 1.03125 20.96484375 C1.02899414 21.64671753 1.02673828 22.32859131 1.02441406 23.03112793 C1.01860503 24.68742843 1.00964123 26.34371738 1 28 C1.57834595 27.92705215 2.15669189 27.85410431 2.75256348 27.77894592 C8.85302376 27.01048549 14.95433506 26.24906326 21.05615234 25.49145508 C23.32362366 25.20902582 25.59088322 24.9248904 27.85791016 24.63891602 C39.43897307 23.17913965 50.94484593 21.83310331 62.60400391 21.2434082 C65.77862162 21.01586731 68.80169486 20.58221802 71.9296875 20.0078125 C78.87360097 18.74293607 85.84724096 18.36895017 92.88232422 17.99462891 C95.12905177 17.87478387 97.37502383 17.74482769 99.62109375 17.61328125 C103.74632486 17.37686609 107.87189266 17.17966727 112 17 C113.55195068 16.92773193 113.55195068 16.92773193 115.13525391 16.85400391 C116.01358887 16.82999512 116.89192383 16.80598633 117.796875 16.78125 C118.52487305 16.75869141 119.25287109 16.73613281 120.00292969 16.71289062 C124.52145851 17.36249819 127.28083369 20.57647133 130 24 C142.10305603 42.3319182 142.10305603 42.3319182 141.9375 51.4375 C141.9684375 52.7059375 141.9684375 52.7059375 142 54 C143.15822266 54.59167969 143.15822266 54.59167969 144.33984375 55.1953125 C147.92425374 57.62702676 148.55711595 60.44004318 149.625 64.4375 C149.82955811 65.15035156 150.03411621 65.86320312 150.24487305 66.59765625 C150.84899901 68.72700351 151.42562436 70.86246943 152 73 C152.32355469 74.13566406 152.64710938 75.27132812 152.98046875 76.44140625 C154.50926282 82.06133938 155.74069316 87.18026806 155 93 C151.88974134 96.15475715 149.0868366 96.48667343 144.7734375 96.8515625 C143.4622998 96.9762793 142.15116211 97.10099609 140.80029297 97.22949219 C140.0856488 97.29309937 139.37100464 97.35670654 138.63470459 97.42224121 C126.15624976 98.54190809 113.81445909 100.11636398 101.46875 102.2578125 C69.64176756 107.73170501 39.29028614 110.25680754 7 109 C7.495 117.415 7.495 117.415 8 126 C10.87603344 125.71661725 13.75053851 125.42358747 16.625 125.125 C17.43324219 125.04636719 18.24148437 124.96773438 19.07421875 124.88671875 C19.86699219 124.80292969 20.65976563 124.71914062 21.4765625 124.6328125 C22.5605835 124.52283936 22.5605835 124.52283936 23.66650391 124.41064453 C26.56118243 123.9012441 29.21433837 122.9332428 32 122 C48.83052676 118.23364966 65.93124786 116.52613714 83.125 115.6875 C83.92397705 115.64834473 84.7229541 115.60918945 85.54614258 115.56884766 C90.02060194 115.35773172 94.49413077 115.19280148 98.97180176 115.06829834 C100.93647963 115.00213901 102.89958888 114.89361342 104.86230469 114.78369141 C106.01891602 114.73776855 107.17552734 114.6918457 108.3671875 114.64453125 C109.3660498 114.59272705 110.36491211 114.54092285 111.39404297 114.48754883 C114 115 114 115 116.23632812 117.29272461 C117.61555011 119.4098609 118.83350112 121.37033588 119.8515625 123.671875 C120.14474365 124.33147217 120.4379248 124.99106934 120.73999023 125.6706543 C121.03204346 126.35683838 121.32409668 127.04302246 121.625 127.75 C121.93058838 128.46518799 122.23617676 129.18037598 122.55102539 129.91723633 C126.55759158 139.50402681 129.23479995 150.08931609 126.3125 160.43359375 C122.64764601 168.51154276 116.24295529 171.59602721 108.296875 174.63867188 C107.25015625 175.02603516 106.2034375 175.41339844 105.125 175.8125 C104.05507812 176.21919922 102.98515625 176.62589844 101.8828125 177.04492188 C99.25900234 178.04056412 96.63160129 179.02517942 94 180 C95.17433594 179.9278125 96.34867188 179.855625 97.55859375 179.78125 C132.76817255 177.70402137 169.10449611 179.45473212 203 190 C203.66 190.66 204.32 191.32 205 192 C203.87811441 193.14888283 202.75238316 194.29401137 201.625 195.4375 C200.99851562 196.07558594 200.37203125 196.71367187 199.7265625 197.37109375 C198 199 198 199 196 200 C197.98 201.32 199.96 202.64 202 204 C197.94611805 213.31481864 189.50487992 221.64507476 182.75 229.125 C182.27965332 229.65665771 181.80930664 230.18831543 181.32470703 230.73608398 C176.03555467 236.4735164 170.52336827 239.25225624 162.75 240.625 C160.94789063 240.95371094 160.94789063 240.95371094 159.109375 241.2890625 C156.93565203 241.67758409 154.76899018 242.03154267 152.58081055 242.33032227 C143.68207711 243.67543193 135.64680733 247.05872627 127.3894043 250.4855957 C114.19525124 255.9277843 114.19525124 255.9277843 107 254 C112.37339166 250.4177389 118.63174831 248.35516854 124.6184082 245.97753906 C126.22467752 245.33509552 127.82738104 244.68365007 129.42602539 244.02246094 C139.71380763 239.77047795 149.09051639 237.12953351 160.22167969 236.36230469 C169.7072107 235.45273322 176.17087708 230.45497254 182.22265625 223.4140625 C183.77793353 221.51864946 185.31848159 219.61105056 186.84375 217.69140625 C188.68729011 215.39032086 190.59079519 213.19026643 192.5625 211 C195.31529631 208.25617825 195.31529631 208.25617825 195 205 C191.37 203.02 187.74 201.04 184 199 C184 198.67 184 198.34 184 198 C184.68707031 197.87882813 185.37414062 197.75765625 186.08203125 197.6328125 C186.98308594 197.46523437 187.88414062 197.29765625 188.8125 197.125 C189.70582031 196.96257812 190.59914063 196.80015625 191.51953125 196.6328125 C194.22727846 196.08811551 194.22727846 196.08811551 197 194 C172.79984231 185.08415243 145.56170221 183.61229776 120 183.625 C119.11307465 183.62327789 118.22614929 183.62155579 117.31234741 183.61978149 C107.50084734 183.62194304 98.01458614 184.0505689 88.30273438 185.51416016 C83.63214369 186.20121482 78.95572458 186.5316282 74.25 186.875 C62.1345424 187.84574416 50.18556987 189.64897168 38.18164062 191.51953125 C35.24413449 191.96313255 32.30542104 192.36783294 29.359375 192.75 C13.67510198 194.79150918 -2.27125921 197.27858724 -16.72265625 203.984375 C-19 205 -19 205 -21.18359375 205.328125 C-23.19702581 205.84215886 -23.19702581 205.84215886 -24.02734375 207.96484375 C-24.34832031 208.96644531 -24.66929688 209.96804687 -25 211 C-25.55843084 212.50330826 -26.12282237 214.00440863 -26.69140625 215.50390625 C-27.31586816 217.18982138 -27.9395455 218.87602729 -28.5625 220.5625 C-28.87896484 221.41263672 -29.19542969 222.26277344 -29.52148438 223.13867188 C-29.9768457 224.37133789 -29.9768457 224.37133789 -30.44140625 225.62890625 C-30.71670166 226.37213135 -30.99199707 227.11535645 -31.27563477 227.88110352 C-34.54028947 237.43079619 -33.17598406 245.17661116 -29 254.1875 C-28.59644287 255.09153564 -28.19288574 255.99557129 -27.77709961 256.92700195 C-22.24079053 270.33225803 -22.24079053 270.33225803 -14 282 C-15.98 282 -17.96 282 -20 282 C-40.70210562 243.70417612 -40.70210562 243.70417612 -36.578125 229.04931641 C-36.36671875 228.35241699 -36.1553125 227.65551758 -35.9375 226.9375 C-35.71707031 226.20450684 -35.49664062 225.47151367 -35.26953125 224.71630859 C-29.54488683 206.52404917 -29.54488683 206.52404917 -23.53125 202.2421875 C-22.6959375 201.83226562 -21.860625 201.42234375 -21 201 C-20.236875 200.608125 -19.47375 200.21625 -18.6875 199.8125 C-17.8521875 199.4103125 -17.8521875 199.4103125 -17 199 C-18.22783203 199.2165625 -18.22783203 199.2165625 -19.48046875 199.4375 C-29.04276599 200.88847029 -38.51836379 201.27899865 -48.1875 201.375 C-50.10308716 201.41367187 -50.10308716 201.41367187 -52.05737305 201.453125 C-53.87555542 201.45699219 -53.87555542 201.45699219 -55.73046875 201.4609375 C-56.81739014 201.46915527 -57.90431152 201.47737305 -59.02416992 201.48583984 C-62.69914304 200.88585654 -64.33463152 199.54500845 -67 197 C-70.80924327 191.6388428 -75.33067131 183.80272002 -74.75 177.125 C-74 175 -74 175 -73 173 C-73.66 172.67 -74.32 172.34 -75 172 C-74.66765112 167.71124448 -74.31286521 163.42509059 -73.93798828 159.13989258 C-73.81377548 157.68466705 -73.69550008 156.22892115 -73.58349609 154.77270508 C-72.38816474 139.3338899 -72.38816474 139.3338899 -68 134 C-63.98995613 130.73317312 -60.14629379 129.17602916 -55.1875 127.8125 C-54.04667969 127.48894531 -52.90585937 127.16539062 -51.73046875 126.83203125 C-43.06404132 124.89910032 -35.71986407 125.13538293 -26.9375 126.4375 C-25.35291992 126.65889648 -25.35291992 126.65889648 -23.73632812 126.88476562 C-21.15615553 127.24669029 -18.57786224 127.62197049 -16 128 C-16.33 122.39 -16.66 116.78 -17 111 C-19.80628906 111.02320313 -22.61257812 111.04640625 -25.50390625 111.0703125 C-28.23770699 111.08593355 -30.97150267 111.09806432 -33.70532227 111.10986328 C-35.59759771 111.11988815 -37.48985778 111.13351155 -39.38208008 111.15087891 C-42.1102275 111.17528222 -44.83816915 111.18651845 -47.56640625 111.1953125 C-48.40522842 111.20563507 -49.2440506 111.21595764 -50.10829163 111.22659302 C-55.113729 111.22753783 -59.3036896 110.80301021 -64 109 C-67.09022949 103.35697223 -66.60018843 96.65569731 -64.94140625 90.60546875 C-64.49295419 89.12936852 -64.03320075 87.65665688 -63.5625 86.1875 C-63.21735352 85.06311523 -63.21735352 85.06311523 -62.86523438 83.91601562 C-61.94522859 80.93199688 -60.98745099 77.96235297 -60 75 C-59.87370083 73.10551241 -59.77250336 71.20928917 -59.6875 69.3125 C-59.32018896 64.51449948 -58.49934979 61.31004194 -56.09765625 57.1953125 C-54.68204033 54.36408066 -53.95580816 51.48959022 -53.125 48.4375 C-50.99657231 41.2623707 -48.30838094 36.98502857 -41.875 33.125 C-37.96776694 31.59608272 -34.69995795 30.86061658 -30.5 30.875 C-29.7471875 30.87242188 -28.994375 30.86984375 -28.21875 30.8671875 C-26.02247372 30.99865474 -24.12076385 31.43976674 -22 32 C-22.09087891 31.07102905 -22.09087891 31.07102905 -22.18359375 30.12329102 C-22.46016326 27.27010418 -22.73011734 24.4163268 -23 21.5625 C-23.09539063 20.58861328 -23.19078125 19.61472656 -23.2890625 18.61132812 C-23.84174098 12.70951151 -24.09807559 6.92744322 -24 1 C-20.66666667 1 -17.33333333 1 -14 1 C-13.13375 0.835 -12.2675 0.67 -11.375 0.5 C-7.50750467 -0.07296227 -3.90616004 -0.06734759 0 0 Z M95.13818359 20.74462891 C92.87242346 20.87514842 90.60623843 20.99435793 88.33984375 21.11328125 C81.91492881 21.47149723 75.71296642 21.8915015 69.45996094 23.50048828 C63.15480684 24.7807925 56.59610037 24.99879954 50.1875 25.5 C41.45848835 26.18756238 32.82499212 26.92860451 24.19702148 28.47802734 C17.93691155 29.50010562 11.62282864 30.1229017 5.31811523 30.80493164 C2.93759946 31.06248924 0.5576402 31.32476209 -1.82226562 31.58789062 C-24.82321328 34.11902948 -24.82321328 34.11902948 -31.1875 33.8125 C-36.24608375 33.76424642 -39.88444079 35.07804845 -44 38 C-49.63920155 43.63920155 -51.32538948 50.30944004 -52 58 C-50.68 58.33 -49.36 58.66 -48 59 C-49.7015625 59.680625 -49.7015625 59.680625 -51.4375 60.375 C-55.04721692 61.57095806 -55.04721692 61.57095806 -56 64 C-56.14601706 65.66234811 -56.22089834 67.33150507 -56.25 69 C-56.27578125 69.886875 -56.3015625 70.77375 -56.328125 71.6875 C-56.21984375 72.450625 -56.1115625 73.21375 -56 74 C-55.01 74.66 -54.02 75.32 -53 76 C-54.16789062 76.57621094 -54.16789062 76.57621094 -55.359375 77.1640625 C-58.51155336 79.3556658 -59.08433764 80.76934946 -60.25 84.375 C-60.56453125 85.31085938 -60.8790625 86.24671875 -61.203125 87.2109375 C-62.91402428 93.19908497 -63.71750459 98.69947889 -62.375 104.875 C-61.17818528 107.25334629 -61.17818528 107.25334629 -58.52856445 107.62451172 C-54.06005018 108.10002372 -49.65852871 108.14291217 -45.16796875 108.1328125 C-44.21795486 108.13376923 -43.26794098 108.13472595 -42.28913879 108.13571167 C-40.27780084 108.13639082 -38.26646067 108.134555 -36.25512695 108.13037109 C-33.23578709 108.12508455 -30.21660048 108.13029095 -27.19726562 108.13671875 C-17.97304956 108.13985718 -8.80728517 108.01356844 0.39546204 107.37658691 C6.59541948 106.97005927 12.78807058 106.86550987 19 106.7890625 C20.05624069 106.77477203 21.11248138 106.76048157 22.20072937 106.74575806 C26.56346502 106.68829438 30.92608195 106.6336092 35.2890625 106.59863281 C48.55378863 106.48387235 61.01757984 105.70311929 74 103 C78.45134844 102.24591646 82.91271717 101.56108285 87.375 100.875 C88.44621094 100.70613281 89.51742187 100.53726563 90.62109375 100.36328125 C96.68872719 99.42696357 102.71807251 98.69598707 108.84228516 98.25048828 C111.04637853 98.11893123 111.04637853 98.11893123 113 97 C115.31182413 96.72957554 117.62975948 96.51074836 119.94921875 96.31640625 C121.36915317 96.19220067 122.78907464 96.06784689 124.20898438 95.94335938 C126.44242965 95.75232655 128.6760227 95.56345444 130.90991211 95.37768555 C133.06940626 95.19654811 135.22803285 95.00690289 137.38671875 94.81640625 C138.67795654 94.70756104 139.96919434 94.59871582 141.29956055 94.48657227 C145.07725407 93.98984183 148.37500779 93.13751067 152 92 C151.94877394 81.06323663 148.917844 67.835688 144 58 C137.76320207 55.50528083 131.63768439 55.80381228 125 56 C125 55.34 125 54.68 125 54 C129.29 53.34 133.58 52.68 138 52 C139.09277405 47.7967052 139.09277405 47.7967052 137.59375 44.20703125 C137.26528076 43.49812744 136.93681152 42.78922363 136.59838867 42.05883789 C136.23592041 41.31754639 135.87345215 40.57625488 135.5 39.8125 C135.13559814 39.05380615 134.77119629 38.2951123 134.39575195 37.51342773 C131.04161048 30.72589021 127.40828626 24.27219084 121 20 C112.54086782 19.08810752 103.628903 20.24864551 95.13818359 20.74462891 Z M78.3125 119.75 C76.98996719 119.8128569 76.98996719 119.8128569 75.64071655 119.87698364 C61.59453223 120.57190365 48.41958611 122.20356696 34.8125 125.85546875 C11.59198245 131.81177338 -14.50501093 131.27784789 -38.25 129.375 C-43.92431596 128.95535605 -48.62830654 129.07782729 -54 131 C-55.16982422 131.40412109 -55.16982422 131.40412109 -56.36328125 131.81640625 C-61.470949 133.81433193 -65.13242244 136.15703949 -68 141 C-68.83127768 143.73382534 -69.10208022 146.40742587 -69.3125 149.25 C-69.38388184 149.99564209 -69.45526367 150.74128418 -69.52880859 151.50952148 C-70.0219348 157.01689341 -70.17550571 162.47157007 -70 168 C-68.02 168.33 -66.04 168.66 -64 169 C-64 169.66 -64 170.32 -64 171 C-65.66279327 172.0064275 -67.32983484 173.00585407 -69 174 C-71.25808384 176.66404815 -71.25808384 176.66404815 -70.734375 178.84765625 C-70.49203125 179.55792969 -70.2496875 180.26820313 -70 181 C-69.60554688 182.29744141 -69.60554688 182.29744141 -69.203125 183.62109375 C-67.27593212 189.31579073 -65.70112586 193.18827633 -61 197 C-60.67 197.33 -60.34 197.66 -60 198 C-47.13221796 198.97694658 -34.89183395 197.5674637 -22.2204895 195.34204102 C-11.93747712 193.54058202 -1.71434151 192.25842124 8.6875 191.375 C18.03619211 190.57537967 27.29113464 189.6640015 36.54736328 188.11572266 C41.28171391 187.3439573 45.98869525 186.79637616 50.76953125 186.390625 C64.31930475 185.22490562 76.17879967 183.46031861 88.66992188 178.00439453 C91.21422853 176.90765547 93.78074157 175.88439163 96.359375 174.87109375 C101.25371856 172.94762725 106.13366448 170.99322435 111 169 C111.67635498 168.7304248 112.35270996 168.46084961 113.04956055 168.18310547 C118.19309993 166.08356562 120.66312029 163.75970168 123.09375 158.7421875 C127.29379446 146.03343228 120.19900143 133.04901761 114.92382812 121.80322266 C114.13130603 120.02900331 114.13130603 120.02900331 113 119 C101.47467241 118.46798124 89.82660867 119.19980508 78.3125 119.75 Z " fill="#949494" transform="translate(84,20)"/>
<path d="M0 0 C9.50853473 2.9714171 17.11261557 10.82220091 21.8515625 19.3203125 C25.7320871 27.02093653 28.2793844 34.77341449 30.2734375 43.1484375 C30.7113994 45.8816079 30.7113994 45.8816079 32 47 C32.32613281 45.9378125 32.65226562 44.875625 32.98828125 43.78125 C33.4295624 42.35412798 33.87097576 40.92704683 34.3125 39.5 C34.52583984 38.80390625 34.73917969 38.1078125 34.95898438 37.390625 C36.24985051 33.2290267 37.67153131 29.15002523 39.22583008 25.08007812 C40.64934773 21.25530033 41.90941644 17.37527557 43.1875 13.5 C43.46013672 12.67757812 43.73277344 11.85515625 44.01367188 11.0078125 C44.67717292 9.00566899 45.3387862 7.00290004 46 5 C46.33 5 46.66 5 47 5 C47.33 19.19 47.66 33.38 48 48 C51.63 43.71 55.26 39.42 59 35 C64.7941465 28.31444634 70.88402807 22.01741406 77.125 15.75 C77.88949463 14.98083252 78.65398926 14.21166504 79.44165039 13.41918945 C83.8063501 9.06678335 88.26343888 4.9450403 93 1 C93.99 1.495 93.99 1.495 95 2 C94.443125 2.63164063 93.88625 3.26328125 93.3125 3.9140625 C82.12837876 17.02517761 73.68052954 31.40831143 73 49 C74.26457031 48.45859375 74.26457031 48.45859375 75.5546875 47.90625 C76.65039062 47.4421875 77.74609375 46.978125 78.875 46.5 C79.96554688 46.0359375 81.05609375 45.571875 82.1796875 45.09375 C85 44 85 44 87 44 C87 43.34 87 42.68 87 42 C85.515 41.505 85.515 41.505 84 41 C91.9956937 36.60300204 99.63684297 33.2952571 108.43774414 30.9284668 C114.71971991 29.1988746 120.61524124 26.81190396 126.5559082 24.14648438 C131.6929852 21.89766173 131.6929852 21.89766173 135 23 C135 23.99 135 24.98 135 26 C133.02 26.99 131.04 27.98 129 29 C130.22074219 29.15855469 131.44148437 29.31710937 132.69921875 29.48046875 C142.74562092 30.87065921 151.77222283 32.61302397 161 37 C161.68964844 37.31839844 162.37929687 37.63679687 163.08984375 37.96484375 C164.75 38.875 164.75 38.875 167 41 C167.875 44.75 167.875 44.75 168 48 C164.43855032 51.39153853 161.65556001 51.36545979 156.84472656 51.34057617 C155.77583443 51.34123329 155.77583443 51.34123329 154.68534851 51.34190369 C152.33682579 51.33981851 149.98902255 51.3165012 147.640625 51.29296875 C146.00966787 51.28737181 144.37870568 51.28310217 142.7477417 51.28010559 C138.46012386 51.26866449 134.17281207 51.23920378 129.88531494 51.20599365 C125.50822082 51.17527685 121.13107714 51.16159682 116.75390625 51.14648438 C108.16913057 51.11433324 99.58460338 51.06314595 91 51 C90.67 50.01 90.34 49.02 90 48 C82.56220735 54.33054844 76.40661623 60.1140511 72 69 C71.00031014 71.00015504 70.00034251 73.00017129 69 75 C62.11371255 75.20295239 55.22819623 75.34298094 48.33959961 75.43945312 C45.99685856 75.47966907 43.65431809 75.53425187 41.31225586 75.60351562 C37.94334486 75.70064768 34.57708748 75.7459455 31.20703125 75.78125 C30.16102249 75.82254028 29.11501373 75.86383057 28.03730774 75.90637207 C20.92421475 75.910755 20.92421475 75.910755 18.26074219 73.28607178 C16.95972238 71.23509467 15.95483864 69.23016844 15 67 C14.38898438 65.87078125 13.77796875 64.7415625 13.1484375 63.578125 C12.56320313 62.47984375 11.97796875 61.3815625 11.375 60.25 C4.6640436 48.24289096 -3.64994906 39.21299291 -17.0703125 35.046875 C-19.70355155 34.30606606 -22.33672584 33.62278084 -25 33 C-25 32.67 -25 32.34 -25 32 C-14.70136482 31.01396046 -7.30570324 33.02440604 0.875 39.47949219 C4.14446185 42.19917846 7.31543866 45.01324416 10.45703125 47.87890625 C13.78623812 50.89272434 17.30098549 53.45663151 21 56 C20.74814859 51.87361579 20.47002285 47.74938869 20.1875 43.625 C20.11724609 42.46871094 20.04699219 41.31242188 19.97460938 40.12109375 C18.97171286 25.92007907 15.47252637 14.63429868 4.625 4.9375 C3.75101563 4.20402344 2.87703125 3.47054687 1.9765625 2.71484375 C1.32429688 2.14894531 0.67203125 1.58304688 0 1 C0 0.67 0 0.34 0 0 Z " fill="#339224" transform="translate(73,615)"/>
<path d="M0 0 C1.28583984 -0.02126953 1.28583984 -0.02126953 2.59765625 -0.04296875 C4.9375 0.1875 4.9375 0.1875 7.9375 2.1875 C8.94941928 5.22325783 9.0837985 7.81313627 9.17675781 10.98876953 C9.56405305 23.27635655 10.61590596 36.28722211 18.015625 46.49609375 C19.4850877 49.19218422 19.19950504 51.37537541 18.57421875 54.3125 C16.50098483 60.41772873 11.99994367 64.48171839 6.9375 68.1875 C6.41019287 68.58630371 5.88288574 68.98510742 5.33959961 69.39599609 C-0.43731768 73.4263341 -6.13462688 74.53891848 -13 75.6875 C-21.75461668 77.28788166 -30.1603438 79.20481483 -38.64317322 81.87864685 C-43.07445337 83.22808617 -47.54873555 84.30600981 -52.0625 85.33984375 C-52.83722656 85.51962769 -53.61195313 85.69941162 -54.41015625 85.88464355 C-56.29370494 86.32137687 -58.17802231 86.75479287 -60.0625 87.1875 C-46.35317674 87.07958288 -32.6439019 86.96686868 -18.93466759 86.84816074 C-12.56778952 86.79317804 -6.20090671 86.73979979 0.16601562 86.69018555 C6.31929551 86.64217546 12.47252501 86.58982374 18.62574387 86.53455925 C20.96425483 86.51430037 23.30277952 86.49556207 25.64131546 86.47842598 C41.869079 86.3813537 41.869079 86.3813537 58.06234741 85.41954041 C73.23959421 84.19465429 86.23095093 86.56046027 99.9765625 92.8828125 C102.35676622 93.93160939 104.42854392 94.60902936 106.9375 95.1875 C106.45560611 110.67028429 103.12832122 122.48839585 95.9375 136.1875 C92.16331871 143.73586259 93.02903553 152.81906093 91.9375 161.1875 C75.7675 161.1875 59.5975 161.1875 42.9375 161.1875 C42.6075 160.1975 42.2775 159.2075 41.9375 158.1875 C57.60723829 157.58221732 73.25447995 156.99854795 88.9375 157.1875 C88.93242432 156.6001709 88.92734863 156.0128418 88.92211914 155.40771484 C88.86846633 144.71438065 90.49753415 136.6695122 95.375 127.125 C100.19390184 117.68679015 101.91649082 108.66751377 102.9375 98.1875 C102.36032227 97.99559082 101.78314453 97.80368164 101.18847656 97.60595703 C97.65895647 96.431154 94.13088982 95.25332517 90.609375 94.0546875 C89.16304688 93.56355469 89.16304688 93.56355469 87.6875 93.0625 C86.71296875 92.72992188 85.7384375 92.39734375 84.734375 92.0546875 C80.45596649 90.72814184 76.50285087 90.06080811 72.0234375 90.0546875 C70.63318359 90.05275391 70.63318359 90.05275391 69.21484375 90.05078125 C68.25707031 90.05464844 67.29929687 90.05851562 66.3125 90.0625 C64.91064453 90.05669922 64.91064453 90.05669922 63.48046875 90.05078125 C62.07861328 90.05271484 62.07861328 90.05271484 60.6484375 90.0546875 C59.81618652 90.05581543 58.98393555 90.05694336 58.12646484 90.05810547 C55.40295961 90.16861364 52.75028216 90.40463159 50.04104614 90.68473816 C43.71838255 91.26568112 37.43771758 91.34657433 31.09179688 91.36108398 C29.23786568 91.3711145 29.23786568 91.3711145 27.34648132 91.38134766 C24.67733005 91.39532823 22.00823026 91.40767064 19.33906555 91.41729546 C15.08810571 91.43295607 10.83721578 91.45691037 6.58630371 91.48219299 C-5.49596683 91.55282379 -17.57827844 91.61265941 -29.66064453 91.66430664 C-36.34919929 91.69297076 -43.03768528 91.72854248 -49.7261672 91.77096039 C-53.24522647 91.79294978 -56.76422438 91.81162853 -60.28334045 91.82140923 C-74.14339334 91.86170114 -87.97193271 92.06971081 -101.80664062 92.96118164 C-102.8834182 93.021445 -103.96019577 93.08170835 -105.06960297 93.14379787 C-113.61326953 93.77485424 -124.02222494 95.37783643 -129.9921875 102.18359375 C-131.9122733 105.77849891 -132.18568562 109.60601845 -132.62890625 113.61328125 C-133.07471076 117.28815627 -133.83543419 120.77433481 -134.6875 124.375 C-136.98680153 134.92610955 -136.49504795 144.88985615 -133.0625 155.1875 C-131.92039063 155.18527939 -130.77828125 155.18305878 -129.6015625 155.18077087 C-118.77546549 155.16039411 -107.94937242 155.14545838 -97.1232605 155.13568783 C-91.55905348 155.13049565 -85.99486209 155.12346554 -80.43066406 155.11206055 C-75.04898935 155.1011002 -69.66732956 155.09519564 -64.28564453 155.09262276 C-62.24462652 155.09079198 -60.20360922 155.08721763 -58.16259766 155.08176994 C-46.4164431 155.05169898 -34.77622027 155.26097362 -23.0625 156.1875 C-23.0625 156.5175 -23.0625 156.8475 -23.0625 157.1875 C-42.46995636 158.80568463 -61.58972756 159.46818083 -81.0625 159.1875 C-81.0625 161.4975 -81.0625 163.8075 -81.0625 166.1875 C-89.07909634 167.31263633 -96.98388585 167.28329384 -105.0625 167.1875 C-105.0625 164.8775 -105.0625 162.5675 -105.0625 160.1875 C-114.9625 160.1875 -124.8625 160.1875 -135.0625 160.1875 C-141.90082046 146.51085908 -141.7780112 131.63712996 -137.73046875 116.91015625 C-136.82491817 113.21911092 -136.84025208 109.96571465 -137.0625 106.1875 C-137.76375 106.538125 -138.465 106.88875 -139.1875 107.25 C-142.71282253 108.39956169 -144.50647643 108.20350674 -148.0625 107.1875 C-153.86155891 103.87375205 -159.38077402 99.44486061 -162.0625 93.1875 C-161.63392857 86.75892857 -161.63392857 86.75892857 -160.0625 85.1875 C-160.02186168 83.52132885 -160.019779 81.85361905 -160.0625 80.1875 C-160.85011719 79.96835937 -161.63773438 79.74921875 -162.44921875 79.5234375 C-165.0625 78.1875 -165.0625 78.1875 -166.20703125 75.8515625 C-167.75878062 68.79155658 -168.3597945 62.03180584 -168.4375 54.8125 C-168.45143799 53.96896973 -168.46537598 53.12543945 -168.47973633 52.25634766 C-168.43844865 46.83747458 -167.80105792 42.91121345 -165.0625 38.1875 C-159.81475109 34.52113298 -153.99519544 33.27493511 -147.875 31.6875 C-146.68044189 31.37635254 -145.48588379 31.06520508 -144.25512695 30.74462891 C-135.03003691 28.45002337 -125.92953498 27.17029283 -116.48339844 26.24121094 C-103.48383911 24.9227573 -91.05814827 21.81430939 -78.46484375 18.4140625 C-65.89678297 15.03447595 -53.67111213 12.34868905 -40.75 10.78515625 C-30.62948753 9.55021276 -21.65102824 6.40899017 -12.3125 2.4921875 C-8.01003719 0.7649969 -4.63144862 0.03492797 0 0 Z M-13.625 6.5625 C-15.00461914 7.03816406 -15.00461914 7.03816406 -16.41210938 7.5234375 C-20.00647917 8.7637664 -23.59387357 10.015749 -27.1640625 11.32421875 C-31.02537386 12.47428588 -34.89350317 13.04623503 -38.875 13.625 C-40.57307122 13.88440699 -42.27098524 14.1448448 -43.96875 14.40625 C-44.82082031 14.53644531 -45.67289062 14.66664063 -46.55078125 14.80078125 C-56.73618261 16.36898457 -66.61869447 18.16182573 -76.50390625 21.14453125 C-81.15473325 22.50761666 -85.84755124 23.65941156 -90.55883789 24.79272461 C-93.40715039 25.48632493 -96.14643985 26.21926729 -98.890625 27.2578125 C-103.33408094 28.56020476 -107.70635125 28.66696582 -112.3125 28.9375 C-125.56584579 29.89299626 -138.24124687 32.79472561 -151.0625 36.1875 C-152.4863501 36.54352295 -152.4863501 36.54352295 -153.93896484 36.90673828 C-154.82922363 37.14505371 -155.71948242 37.38336914 -156.63671875 37.62890625 C-157.42006592 37.83330322 -158.20341309 38.0377002 -159.01049805 38.24829102 C-161.58526329 39.42677071 -162.5729166 40.81261443 -164.0625 43.1875 C-167.3452405 52.14387871 -165.14111319 64.144774 -163.0625 73.1875 C-161.68459707 75.94330586 -159.69100007 76.67611246 -157.0625 78.1875 C-156.0625 79.1875 -156.0625 79.1875 -155.875 82.0625 C-156.0625 85.1875 -156.0625 85.1875 -158.0625 88.1875 C-158.29380201 92.1196341 -157.76214034 94.36344663 -155.1953125 97.38671875 C-152.03475132 100.35040996 -149.12489717 102.7354161 -145.125 104.4375 C-139.02799884 103.93978562 -133.76475518 101.63622781 -129.125 97.6875 C-122.49543547 92.27561059 -113.52002309 90.11731407 -105.08203125 89.9765625 C-103.91736328 89.94820313 -102.75269531 89.91984375 -101.55273438 89.890625 C-99.12058854 89.83895966 -96.68827622 89.79456785 -94.25585938 89.7578125 C-88.10011438 89.59519513 -82.85314204 89.14736169 -77.09399414 86.93164062 C-73.77462113 85.71574723 -70.35286564 85.1984237 -66.875 84.625 C-62.11120027 83.82570474 -57.63993125 82.74812757 -53.0625 81.1875 C-50.94315271 80.72338977 -48.81752427 80.28734437 -46.6875 79.875 C-41.44588109 78.79374458 -36.45002071 77.39268163 -31.375 75.6875 C-25.33393804 73.66587599 -19.43288549 72.53692252 -13.125 71.6875 C-6.23512893 70.7231366 -0.66416958 69.5770436 4.9375 65.1875 C5.67484375 64.61386719 6.4121875 64.04023438 7.171875 63.44921875 C10.55436298 60.64847072 13.31017486 58.35443861 14.9375 54.1875 C14.82674356 48.6496779 12.86356554 44.71400348 10.19140625 40.0078125 C6.57447107 31.87252527 6.57797728 23.32049414 6.37109375 14.56445312 C6.34144531 13.67048828 6.31179687 12.77652344 6.28125 11.85546875 C6.26255859 11.05391357 6.24386719 10.2523584 6.22460938 9.42651367 C5.9108241 6.97946882 5.15673493 5.31598973 3.9375 3.1875 C-2.49967467 2.70936048 -7.59477125 4.42369966 -13.625 6.5625 Z " fill="#905B2B" transform="translate(192.0625,273.8125)"/>
<path d="M0 0 C0.99 0.33 1.98 0.66 3 1 C1.5207545 4.38770213 -0.40833753 6.69491101 -2.9375 9.375 C-15.98061589 23.69726391 -26.13472446 38.01902371 -31 57 C-29.4221875 56.2575 -29.4221875 56.2575 -27.8125 55.5 C-24.74547391 54.17220212 -22.37865064 53.69284994 -19 54 C-19 54.66 -19 55.32 -19 56 C-21.3115773 57.00218061 -23.62418884 58.00183658 -25.9375 59 C-26.59685547 59.28617188 -27.25621094 59.57234375 -27.93554688 59.8671875 C-32.88671875 62 -32.88671875 62 -34 62 C-34.58232517 43.59852455 -24.11262044 28.66159172 -13 15 C-20.79291854 21.08821761 -27.95314914 27.75894702 -34.9375 34.75 C-35.72729248 35.53987305 -36.51708496 36.32974609 -37.33081055 37.14355469 C-42.9589792 42.82692995 -48.12887429 48.65073959 -53 55 C-54.63524789 57.03311843 -56.29294483 59.02621746 -58 61 C-58.33 61 -58.66 61 -59 61 C-59.495 40.21 -59.495 40.21 -60 19 C-62.17155625 26.20808986 -62.17155625 26.20808986 -64.3371582 33.41796875 C-66.03786442 39.03450771 -67.87773438 44.52927084 -70 50 C-70.73240891 51.99881495 -71.46201484 53.99866162 -72.1875 56 C-72.53167969 56.94875 -72.87585938 57.8975 -73.23046875 58.875 C-73.48441406 59.57625 -73.73835938 60.2775 -74 61 C-76.21752111 57.67371834 -76.74148263 55.19749929 -77.625 51.3125 C-80.86363332 38.35478533 -86.99125576 23.93087375 -98.50390625 16.3515625 C-100.63873678 15.14215929 -102.77234244 14.02616633 -105 13 C-104.02160156 13.80050781 -104.02160156 13.80050781 -103.0234375 14.6171875 C-91.60674904 24.34999861 -86.25313975 35.07129172 -85 50 C-84.89402733 53.1685496 -84.90394327 56.3301792 -84.9375 59.5 C-84.94201172 60.32242188 -84.94652344 61.14484375 -84.95117188 61.9921875 C-84.96281511 63.99482396 -84.98074444 65.99742227 -85 68 C-88.9669464 66.34231467 -91.93280997 63.61283156 -95.125 60.8125 C-108.76335043 48.60302865 -108.76335043 48.60302865 -126 45 C-124.76636719 45.38478516 -124.76636719 45.38478516 -123.5078125 45.77734375 C-103.59531113 52.60645796 -96.0307739 68.16751306 -86 86 C-69.83 86 -53.66 86 -37 86 C-35.02 82.04 -33.04 78.08 -31 74 C-28.65625 70.81640625 -28.65625 70.81640625 -26.5 68.5625 C-25.73816406 67.76199219 -24.97632813 66.96148438 -24.19140625 66.13671875 C-21.56792816 63.5787107 -18.90369346 61.23361035 -16 59 C-15.34 59.33 -14.68 59.66 -14 60 C-15.73398727 63.57634874 -17.77240229 65.73449573 -20.8125 68.1875 C-26.65122326 73.1155967 -29.72721669 79.4335524 -33.08886719 86.17016602 C-33.44728699 86.8880983 -33.80570679 87.60603058 -34.17498779 88.34571838 C-34.44724182 88.89163132 -34.71949585 89.43754425 -35 90 C-42.43740827 90.25382664 -49.87369911 90.42877542 -57.31445312 90.54931641 C-59.84450003 90.59956721 -62.37425707 90.66778278 -64.90332031 90.75439453 C-68.54304395 90.87590926 -72.17892897 90.93244602 -75.8203125 90.9765625 C-76.94865509 91.02817535 -78.07699768 91.07978821 -79.23953247 91.13296509 C-82.45338544 91.13525374 -84.95423767 91.03501509 -88 90 C-90.80775913 86.98677945 -92.36382394 83.74708143 -94 80 C-94.75161634 78.66423928 -95.51748926 77.336197 -96.30859375 76.0234375 C-96.65913818 75.41943115 -97.00968262 74.8154248 -97.37084961 74.19311523 C-104.07330933 62.76871205 -110.64644087 54.63749522 -123.375 49.6875 C-128.55339071 48.70539142 -133.74398177 48.32796173 -139 48 C-139 46.68 -139 45.36 -139 44 C-132.317647 40.18151257 -125.54793619 40.04528807 -118 41 C-108.81123223 43.76012416 -101.9166531 50.09462154 -94.93359375 56.390625 C-92.09545667 59.03640686 -92.09545667 59.03640686 -89 61 C-89.30237519 48.37583578 -89.76457271 35.29428411 -98 25 C-98.52078125 24.26394531 -99.0415625 23.52789063 -99.578125 22.76953125 C-102.8860909 18.98671218 -106.72988346 16.17758668 -110.75 13.1875 C-111.54277344 12.59001953 -112.33554688 11.99253906 -113.15234375 11.37695312 C-115.09741183 9.91229343 -117.04663066 8.45355908 -119 7 C-118.67 6.01 -118.34 5.02 -118 4 C-104.44807139 5.64265801 -93.10906078 14.5360638 -84.6875 24.8125 C-79.55060593 32.07400182 -74.47028851 42.99490469 -75 52 C-74.34 52 -73.68 52 -73 52 C-72.87471924 50.98196289 -72.74943848 49.96392578 -72.62036133 48.91503906 C-72.03779123 45.23849675 -71.18308915 41.90755395 -70.07421875 38.359375 C-69.68943359 37.12316406 -69.30464844 35.88695312 -68.90820312 34.61328125 C-68.70718994 33.97729004 -68.50617676 33.34129883 -68.29907227 32.68603516 C-67.69396349 30.77046127 -67.09790714 28.8520355 -66.50195312 26.93359375 C-64.18957912 19.54780216 -61.72532366 12.24379599 -59 5 C-58.01 5 -57.02 5 -56 5 C-55.94465088 6.11971191 -55.88930176 7.23942383 -55.83227539 8.39306641 C-55.625169 12.56414552 -55.41348146 16.73498191 -55.20043945 20.90576172 C-55.10902791 22.70778246 -55.01884361 24.50986591 -54.92993164 26.31201172 C-54.80160251 28.90870512 -54.66879967 31.50513784 -54.53515625 34.1015625 C-54.49656998 34.9017984 -54.4579837 35.7020343 -54.41822815 36.52651978 C-54.19608492 40.75269883 -53.79549933 44.83309876 -53 49 C-52.45472656 48.39414062 -51.90945312 47.78828125 -51.34765625 47.1640625 C-49.75701392 45.39668213 -48.16582715 43.62979167 -46.57421875 41.86328125 C-44.92691464 40.03099913 -43.28332085 38.19537017 -41.64453125 36.35546875 C-31.06730751 24.5038807 -19.64892878 14.55517805 -7 5 C-6.24589844 4.41089844 -5.49179688 3.82179688 -4.71484375 3.21484375 C-2.875 1.8125 -2.875 1.8125 0 0 Z " fill="#1A5510" transform="translate(179,603)"/>
<path d="M0 0 C1.02335449 -0.04165283 2.04670898 -0.08330566 3.10107422 -0.1262207 C5.9453125 0.42578125 5.9453125 0.42578125 8.3762207 2.90820312 C11.68761006 6.15319477 13.42589449 6.07446953 17.99609375 6.1328125 C18.98430367 6.15549446 18.98430367 6.15549446 19.99247742 6.17863464 C22.0812745 6.22136691 24.1686227 6.2303339 26.2578125 6.23828125 C27.68037667 6.26143739 29.10290667 6.28680508 30.52539062 6.31445312 C33.99867054 6.37715741 37.47146863 6.40960909 40.9453125 6.42578125 C40.9453125 6.75578125 40.9453125 7.08578125 40.9453125 7.42578125 C31.3753125 7.42578125 21.8053125 7.42578125 11.9453125 7.42578125 C13.9253125 10.72578125 15.9053125 14.02578125 17.9453125 17.42578125 C18.9453125 21.42578125 18.9453125 21.42578125 18.9453125 24.42578125 C18.2853125 25.08578125 17.6253125 25.74578125 16.9453125 26.42578125 C17.4403125 26.75578125 17.9353125 27.08578125 18.4453125 27.42578125 C20.34333289 29.9564751 20.50173934 31.99626108 20.32421875 35.1171875 C19.32555491 41.20183005 17.35373791 45.6487251 12.29296875 49.3828125 C8.25973632 51.61826805 4.14901123 53.53540537 -0.0546875 55.42578125 C-1.76180101 56.21140441 -3.46889335 56.99707393 -5.17559814 57.78358459 C-40.66465422 74.09964398 -40.66465422 74.09964398 -52.546875 74.85546875 C-53.58199219 74.92894531 -54.61710937 75.00242187 -55.68359375 75.078125 C-57.83935913 75.22599338 -59.99563002 75.36667588 -62.15234375 75.5 C-68.18848783 75.94240062 -72.47294218 77.03103245 -78.0546875 79.42578125 C-82.77707105 80.32656972 -87.53432626 80.90223586 -92.3046875 81.48828125 C-104.13754946 82.99615363 -115.64320154 84.63063048 -127.1171875 87.92578125 C-136.38793879 90.47140409 -145.48391891 91.71056157 -155.0546875 92.42578125 C-156.06660156 92.544375 -157.07851562 92.66296875 -158.12109375 92.78515625 C-162.97794825 93.17073859 -165.58886748 92.50264255 -169.4296875 89.42578125 C-176.38870945 82.43875519 -180.10507196 72.18390404 -180.3828125 62.3828125 C-180.37424893 60.66779241 -180.34779933 58.95278078 -180.3046875 57.23828125 C-180.29083008 56.33062012 -180.27697266 55.42295898 -180.26269531 54.48779297 C-180.21244857 51.79959231 -180.13607804 49.1131951 -180.0546875 46.42578125 C-180.03148437 45.28230225 -180.03148437 45.28230225 -180.0078125 44.11572266 C-179.69681085 29.92303258 -179.69681085 29.92303258 -175.0546875 24.42578125 C-160.99717261 15.74767639 -147.84184252 14.89809499 -131.76586914 15.34667969 C-123.28069269 15.56816193 -115.4000375 14.9691844 -107.0546875 13.42578125 C-104.95254253 13.08793942 -102.84967325 12.75457274 -100.74609375 12.42578125 C-98.70299044 12.09327366 -96.66002069 11.75994438 -94.6171875 11.42578125 C-93.58142578 11.26078125 -92.54566406 11.09578125 -91.47851562 10.92578125 C-90.47369141 10.76078125 -89.46886719 10.59578125 -88.43359375 10.42578125 C-87.5422876 10.28140625 -86.65098145 10.13703125 -85.73266602 9.98828125 C-82.99267025 9.47676332 -82.99267025 9.47676332 -80.22021484 8.40771484 C-76.4905169 7.25077784 -72.89819592 6.94270886 -69.02734375 6.71484375 C-67.42886067 6.60541477 -65.83039116 6.49578731 -64.23193359 6.38598633 C-63.39748718 6.33149323 -62.56304077 6.27700012 -61.70330811 6.22085571 C-46.79411613 5.24036284 -32.02694345 3.87094381 -17.24243164 1.69580078 C-11.50238323 0.87687815 -5.7963432 0.23006523 0 0 Z M-19.69342041 5.50598145 C-33.43632845 7.58551678 -46.95858984 9.03787916 -60.875 9.28515625 C-71.38305425 9.4733769 -71.38305425 9.4733769 -81.3671875 12.42578125 C-86.48689547 14.43195895 -91.05937004 14.88831391 -96.5234375 15.125 C-99.93843736 15.41587941 -102.9592033 16.07218235 -106.2734375 16.921875 C-116.0399274 19.08740669 -125.79748517 18.89255565 -135.75854492 18.93701172 C-148.10052263 19.01639682 -160.39891771 19.28842602 -171.0546875 26.42578125 C-175.60966839 31.33114529 -176.22821656 34.59968299 -176.29296875 41.109375 C-176.3010405 41.87951431 -176.30911224 42.64965363 -176.31742859 43.44313049 C-176.33127776 45.07982125 -176.34199618 46.71654099 -176.34985352 48.35327148 C-176.36129883 50.01058541 -176.38163058 51.66786469 -176.41137695 53.32495117 C-176.62552925 65.25646413 -175.78463882 74.72528797 -169.3046875 85.11328125 C-165.78122401 88.75618418 -162.77910481 88.99389523 -157.8046875 89.11328125 C-144.84101184 88.63580061 -132.11923488 86.22560003 -119.75390625 82.40625 C-112.92303611 80.59574482 -105.9108935 79.71234925 -98.91723633 78.7512207 C-96.83446338 78.43471801 -96.83446338 78.43471801 -94.0546875 77.42578125 C-91.97314235 77.27388471 -89.88928299 77.15258708 -87.8046875 77.05078125 C-82.51266247 76.68441029 -78.92459123 75.52487768 -74.0546875 73.42578125 C-66.50911236 72.00984403 -59.02414847 71.40445037 -51.3671875 71.11328125 C-43.99849268 70.64941088 -38.66507057 68.55271526 -32.0546875 65.42578125 C-30.44057916 64.73494835 -28.82308305 64.05200203 -27.203125 63.375 C-16.25822947 58.7986461 -5.59608982 53.86253717 4.9453125 48.42578125 C6.57919922 47.636875 6.57919922 47.636875 8.24609375 46.83203125 C12.22001594 44.76168105 14.13802979 42.43485588 15.80859375 38.27734375 C16.51856407 35.88962234 16.97687578 33.91928052 16.9453125 31.42578125 C14.75676827 28.31716611 14.75676827 28.31716611 11.9453125 26.42578125 C12.4609375 26.05453125 12.9765625 25.68328125 13.5078125 25.30078125 C15.25123214 23.45690879 15.25123214 23.45690879 14.74609375 20.69921875 C13.85494777 17.05638785 12.4863386 14.39341157 10.5703125 11.17578125 C9.66152344 9.62117188 9.66152344 9.62117188 8.734375 8.03515625 C7.04424016 5.22265383 7.04424016 5.22265383 3.9453125 3.42578125 C-4.02946602 2.81564194 -11.83171511 4.30784537 -19.69342041 5.50598145 Z " fill="#71724A" transform="translate(222.0546875,424.57421875)"/>
<path d="M0 0 C28.72271522 -0.45143757 58.65110862 2.56541435 86.1640625 11.125 C87.1540625 12.115 87.1540625 12.115 88.1640625 13.125 C87.04217691 14.27388283 85.91644566 15.41901137 84.7890625 16.5625 C84.16257812 17.20058594 83.53609375 17.83867187 82.890625 18.49609375 C81.1640625 20.125 81.1640625 20.125 79.1640625 21.125 C81.1440625 22.445 83.1240625 23.765 85.1640625 25.125 C81.11018055 34.43981864 72.66894242 42.77007476 65.9140625 50.25 C65.44371582 50.78165771 64.97336914 51.31331543 64.48876953 51.86108398 C59.19961717 57.5985164 53.68743077 60.37725624 45.9140625 61.75 C44.71265625 61.96914063 43.51125 62.18828125 42.2734375 62.4140625 C40.09971453 62.80258409 37.93305268 63.15654267 35.74487305 63.45532227 C26.84613961 64.80043193 18.81086983 68.18372627 10.5534668 71.6105957 C-2.64068626 77.0527843 -2.64068626 77.0527843 -9.8359375 75.125 C-4.46254584 71.5427389 1.79581081 69.48016854 7.7824707 67.10253906 C9.38874002 66.46009552 10.99144354 65.80865007 12.59008789 65.14746094 C22.87787013 60.89547795 32.25457889 58.25453351 43.38574219 57.48730469 C52.8712732 56.57773322 59.33493958 51.57997254 65.38671875 44.5390625 C66.94199603 42.64364946 68.48254409 40.73605056 70.0078125 38.81640625 C71.85135261 36.51532086 73.75485769 34.31526643 75.7265625 32.125 C78.47935881 29.38117825 78.47935881 29.38117825 78.1640625 26.125 C72.7190625 23.155 72.7190625 23.155 67.1640625 20.125 C67.1640625 19.795 67.1640625 19.465 67.1640625 19.125 C67.85113281 19.00382812 68.53820312 18.88265625 69.24609375 18.7578125 C70.14714844 18.59023437 71.04820312 18.42265625 71.9765625 18.25 C72.86988281 18.08757812 73.76320313 17.92515625 74.68359375 17.7578125 C77.39134096 17.21311551 77.39134096 17.21311551 80.1640625 15.125 C55.96390481 6.20915243 28.72576471 4.73729776 3.1640625 4.75 C2.27713715 4.74827789 1.39021179 4.74655579 0.47640991 4.74478149 C-9.33509016 4.74694304 -18.82135136 5.1755689 -28.53320312 6.63916016 C-33.20379381 7.32621482 -37.88021292 7.6566282 -42.5859375 8 C-54.7013951 8.97074416 -66.65036763 10.77397168 -78.65429688 12.64453125 C-81.59180301 13.08813255 -84.53051646 13.49283294 -87.4765625 13.875 C-103.16083552 15.91650918 -119.10719671 18.40358724 -133.55859375 25.109375 C-135.8359375 26.125 -135.8359375 26.125 -138.01953125 26.453125 C-140.03296331 26.96715886 -140.03296331 26.96715886 -140.86328125 29.08984375 C-141.34474609 30.59224609 -141.34474609 30.59224609 -141.8359375 32.125 C-142.39436834 33.62830826 -142.95875987 35.12940863 -143.52734375 36.62890625 C-144.15180566 38.31482138 -144.775483 40.00102729 -145.3984375 41.6875 C-145.71490234 42.53763672 -146.03136719 43.38777344 -146.35742188 44.26367188 C-146.66099609 45.08544922 -146.96457031 45.90722656 -147.27734375 46.75390625 C-147.55263916 47.49713135 -147.82793457 48.24035645 -148.11157227 49.00610352 C-151.37622697 58.55579619 -150.01192156 66.30161116 -145.8359375 75.3125 C-145.43238037 76.21653564 -145.02882324 77.12057129 -144.61303711 78.05200195 C-139.07672803 91.45725803 -139.07672803 91.45725803 -130.8359375 103.125 C-132.8159375 103.125 -134.7959375 103.125 -136.8359375 103.125 C-157.53804312 64.82917612 -157.53804312 64.82917612 -153.4140625 50.17431641 C-153.20265625 49.47741699 -152.99125 48.78051758 -152.7734375 48.0625 C-152.44279297 46.96301025 -152.44279297 46.96301025 -152.10546875 45.84130859 C-146.37639889 27.63498564 -146.37639889 27.63498564 -140.43359375 23.421875 C-139.57636719 22.99390625 -138.71914062 22.5659375 -137.8359375 22.125 C-137.06121094 21.65320313 -136.28648437 21.18140625 -135.48828125 20.6953125 C-124.55805912 14.87634532 -112.47723499 13.60486386 -100.38818359 11.6953125 C-97.14105229 11.17398613 -93.90457492 10.61387078 -90.66796875 10.03125 C-77.74286507 7.72669079 -64.81426494 6.1635432 -51.75390625 4.84765625 C-45.20191505 4.18211236 -38.67775356 3.35635517 -32.1484375 2.5 C-21.41502251 1.12165332 -10.81241476 0.35233938 0 0 Z " fill="#417573" transform="translate(200.8359375,198.875)"/>
<path d="M0 0 C1.15661133 -0.04592285 2.31322266 -0.0918457 3.50488281 -0.13916016 C4.50374512 -0.19096436 5.50260742 -0.24276855 6.53173828 -0.29614258 C9.13769531 0.21630859 9.13769531 0.21630859 11.37402344 2.5090332 C12.75324542 4.6261695 13.97119644 6.58664447 14.98925781 8.88818359 C15.42902954 9.87757935 15.42902954 9.87757935 15.87768555 10.88696289 C16.16973877 11.57314697 16.46179199 12.25933105 16.76269531 12.96630859 C17.06828369 13.68149658 17.37387207 14.39668457 17.6887207 15.13354492 C21.69528689 24.7203354 24.37249526 35.30562468 21.45019531 45.64990234 C17.53904034 54.27073977 10.4297374 57.24056159 1.98535156 60.51708984 C1.35129395 60.75508301 0.71723633 60.99307617 0.06396484 61.23828125 C-1.83889646 61.95746153 -3.72693717 62.70836956 -5.61621094 63.46240234 C-14.14955109 66.76407165 -21.72549738 68.0931236 -30.86230469 68.21630859 C-28.40663342 66.57919442 -26.65122217 65.66891488 -23.94042969 64.70068359 C-23.16924805 64.42192383 -22.39806641 64.14316406 -21.60351562 63.85595703 C-20.78141602 63.56237305 -19.95931641 63.26878906 -19.11230469 62.96630859 C-10.62137485 59.8878205 -2.21261699 56.65932836 6.13769531 53.21630859 C6.7617627 52.97025879 7.38583008 52.72420898 8.02880859 52.47070312 C12.83631399 50.52400639 14.85187033 48.96379124 17.13769531 44.21630859 C20.16939138 32.98119962 16.10792191 22.18802108 11.13769531 12.21630859 C10.52221753 10.82542573 9.91617548 9.43027586 9.32519531 8.02880859 C8.73738281 6.63662109 8.73738281 6.63662109 8.13769531 5.21630859 C-3.44455892 5.09835636 -14.98123571 5.41351132 -26.54980469 5.96630859 C-27.87233749 6.0291655 -27.87233749 6.0291655 -29.22158813 6.09329224 C-43.26777246 6.78821225 -56.44271858 8.41987556 -70.04980469 12.07177734 C-93.27032224 18.02808198 -119.36731562 17.49415648 -143.11230469 15.59130859 C-148.7834772 15.17189712 -153.4943887 15.28883297 -158.86230469 17.21630859 C-159.65378906 17.49732422 -160.44527344 17.77833984 -161.26074219 18.06787109 C-166.11448745 19.99994445 -168.99640818 21.67040379 -171.86230469 26.21630859 C-172.4416118 29.03293975 -172.82444344 31.56419415 -173.04980469 34.40380859 C-173.12312012 35.1539624 -173.19643555 35.90411621 -173.27197266 36.67700195 C-173.41632467 38.16890734 -173.55355743 39.66152145 -173.68310547 41.15478516 C-173.91880048 43.86624106 -174.20420871 46.57194567 -174.48730469 49.27880859 C-174.61105469 50.57818359 -174.73480469 51.87755859 -174.86230469 53.21630859 C-172.88230469 53.21630859 -170.90230469 53.21630859 -168.86230469 53.21630859 C-168.86230469 54.53630859 -168.86230469 55.85630859 -168.86230469 57.21630859 C-169.66667969 57.42255859 -170.47105469 57.62880859 -171.29980469 57.84130859 C-172.56824219 58.52193359 -172.56824219 58.52193359 -173.86230469 59.21630859 C-175.29367569 64.02460341 -174.59086906 66.84521749 -172.54980469 71.34130859 C-172.09992188 72.35451172 -171.65003906 73.36771484 -171.18652344 74.41162109 C-170.74953125 75.33716797 -170.31253906 76.26271484 -169.86230469 77.21630859 C-169.37697266 78.35712891 -169.37697266 78.35712891 -168.88183594 79.52099609 C-167.90347363 81.56370767 -167.90347363 81.56370767 -164.86230469 82.21630859 C-151.07068319 83.20953236 -137.90302336 81.49665343 -124.3515625 79.14672852 C-116.53740834 77.79361447 -108.76245269 76.62317399 -100.86230469 75.90380859 C-100.03923828 75.82791504 -99.21617188 75.75202148 -98.36816406 75.67382812 C-93.8506198 75.29229164 -89.39532797 75.15000107 -84.86230469 75.21630859 C-84.86230469 75.54630859 -84.86230469 75.87630859 -84.86230469 76.21630859 C-85.62148193 76.34682617 -86.38065918 76.47734375 -87.1628418 76.61181641 C-106.86165756 80.00114566 -106.86165756 80.00114566 -126.34667969 84.41943359 C-135.05402351 86.39309819 -143.65011265 86.46229371 -152.54980469 86.52880859 C-154.50756836 86.57231445 -154.50756836 86.57231445 -156.50488281 86.61669922 C-158.38916992 86.62926758 -158.38916992 86.62926758 -160.31152344 86.64208984 C-161.44936279 86.65667236 -162.58720215 86.67125488 -163.75952148 86.6862793 C-167.53247411 86.11479973 -169.14352554 84.83595767 -171.86230469 82.21630859 C-175.67154796 76.85515139 -180.19297599 69.01902862 -179.61230469 62.34130859 C-178.86230469 60.21630859 -178.86230469 60.21630859 -177.86230469 58.21630859 C-178.52230469 57.88630859 -179.18230469 57.55630859 -179.86230469 57.21630859 C-179.52995581 52.92755307 -179.17516989 48.64139918 -178.80029297 44.35620117 C-178.67608017 42.90097565 -178.55780477 41.44522975 -178.44580078 39.98901367 C-177.25046942 24.55019849 -177.25046942 24.55019849 -172.86230469 19.21630859 C-165.3606656 13.10501478 -153.55402082 10.02306885 -143.86230469 10.21630859 C-141.33509796 10.50246093 -138.81980958 10.81493764 -136.29980469 11.15380859 C-115.8159444 13.86463771 -92.59162854 13.80113151 -72.86230469 7.21630859 C-56.03177793 3.44995825 -38.93105683 1.74244573 -21.73730469 0.90380859 C-20.93832764 0.86465332 -20.13935059 0.82549805 -19.31616211 0.78515625 C-14.84170275 0.57404031 -10.36817392 0.40911007 -5.89050293 0.28460693 C-3.92582506 0.2184476 -1.96271581 0.10992201 0 0 Z " fill="#D87291" transform="translate(188.8623046875,134.78369140625)"/>
<path d="M0 0 C1.28583984 -0.02126953 1.28583984 -0.02126953 2.59765625 -0.04296875 C4.9375 0.1875 4.9375 0.1875 7.9375 2.1875 C8.94941928 5.22325783 9.0837985 7.81313627 9.17675781 10.98876953 C9.56405305 23.27635655 10.61590596 36.28722211 18.015625 46.49609375 C19.4850877 49.19218422 19.19950504 51.37537541 18.57421875 54.3125 C16.50098483 60.41772873 11.99994367 64.48171839 6.9375 68.1875 C6.41019287 68.58630371 5.88288574 68.98510742 5.33959961 69.39599609 C-0.4373088 73.4263279 -6.13466286 74.53892649 -13 75.6875 C-20.35434106 77.0314405 -27.55564081 78.43143167 -34.6875 80.6875 C-50.90357981 85.72310352 -67.06342783 88.95405456 -84.0625 89.1875 C-83.0625 87.1875 -83.0625 87.1875 -80.76171875 86.40625 C-74.48373496 84.90800225 -68.24109939 83.63895033 -61.8515625 82.71484375 C-58.79859043 82.13760113 -56.00605772 81.17623349 -53.0625 80.1875 C-50.94315271 79.72338977 -48.81752427 79.28734437 -46.6875 78.875 C-41.44588109 77.79374458 -36.45002071 76.39268163 -31.375 74.6875 C-25.33403718 72.66590917 -19.4329049 71.53639244 -13.125 70.6875 C-6.23525418 69.72844519 -0.68216197 68.54610493 4.9375 64.1875 C5.60136719 63.68734375 6.26523438 63.1871875 6.94921875 62.671875 C10.13364605 60.11399831 12.39452587 58.04493532 13.9375 54.1875 C13.82674356 48.6496779 11.86356554 44.71400348 9.19140625 40.0078125 C5.95863986 32.73660586 5.60247101 25.16857181 5.375 17.3125 C5.31506232 15.46080838 5.25142592 13.60923174 5.18359375 11.7578125 C5.15966553 10.95102051 5.1357373 10.14422852 5.11108398 9.31298828 C5.00699613 6.99939065 5.00699613 6.99939065 3.9375 4.1875 C-2.49967467 3.70936048 -7.59477125 5.42369966 -13.625 7.5625 C-15.00461914 8.03816406 -15.00461914 8.03816406 -16.41210938 8.5234375 C-20.00647917 9.7637664 -23.59387357 11.015749 -27.1640625 12.32421875 C-31.02537386 13.47428588 -34.89350317 14.04623503 -38.875 14.625 C-40.57307122 14.88440699 -42.27098524 15.1448448 -43.96875 15.40625 C-44.82082031 15.53644531 -45.67289062 15.66664063 -46.55078125 15.80078125 C-56.73618261 17.36898457 -66.61869447 19.16182573 -76.50390625 22.14453125 C-81.15473325 23.50761666 -85.84755124 24.65941156 -90.55883789 25.79272461 C-93.40715039 26.48632493 -96.14643985 27.21926729 -98.890625 28.2578125 C-103.33408094 29.56020476 -107.70635125 29.66696582 -112.3125 29.9375 C-125.56162752 30.89269215 -138.24807265 33.77993851 -151.0625 37.1875 C-152.02188477 37.43862549 -152.98126953 37.68975098 -153.96972656 37.94848633 C-155.31695801 38.32203247 -155.31695801 38.32203247 -156.69140625 38.703125 C-157.48490479 38.92129883 -158.27840332 39.13947266 -159.09594727 39.36425781 C-161.39023609 40.13086812 -161.39023609 40.13086812 -163.1875 43 C-166.19690664 53.15941531 -163.79958935 64.98210009 -162.0625 75.1875 C-161.43859375 75.32800781 -160.8146875 75.46851563 -160.171875 75.61328125 C-157.55827875 76.32476023 -156.60289343 76.95392953 -155.0625 79.1875 C-154.63771414 83.26544425 -154.74967413 84.71826119 -157.0625 88.1875 C-157.20605893 91.92003206 -156.8411561 94.25163305 -154.41796875 97.1640625 C-150.61648141 100.69661096 -147.47165293 103.3077034 -142.0625 103.1875 C-140.38504318 102.54846883 -138.71688613 101.88408363 -137.0625 101.1875 C-134.75 101.5625 -134.75 101.5625 -133.0625 102.1875 C-135.82472949 105.25664388 -138.03249611 107.13202279 -142.0625 108.1875 C-148.3488198 107.91999703 -152.21135654 104.86644407 -156.75 100.75 C-159.01480061 98.24035608 -160.73037049 96.29580218 -162.0625 93.1875 C-161.63392857 86.75892857 -161.63392857 86.75892857 -160.0625 85.1875 C-160.02186168 83.52132885 -160.019779 81.85361905 -160.0625 80.1875 C-160.85011719 79.96835937 -161.63773438 79.74921875 -162.44921875 79.5234375 C-165.0625 78.1875 -165.0625 78.1875 -166.20703125 75.8515625 C-167.75878062 68.79155658 -168.3597945 62.03180584 -168.4375 54.8125 C-168.45143799 53.96896973 -168.46537598 53.12543945 -168.47973633 52.25634766 C-168.43844865 46.83747458 -167.80105792 42.91121345 -165.0625 38.1875 C-159.81475109 34.52113298 -153.99519544 33.27493511 -147.875 31.6875 C-146.68044189 31.37635254 -145.48588379 31.06520508 -144.25512695 30.74462891 C-135.03003691 28.45002337 -125.92953498 27.17029283 -116.48339844 26.24121094 C-103.48383911 24.9227573 -91.05814827 21.81430939 -78.46484375 18.4140625 C-65.89678297 15.03447595 -53.67111213 12.34868905 -40.75 10.78515625 C-30.62948753 9.55021276 -21.65102824 6.40899017 -12.3125 2.4921875 C-8.01003719 0.7649969 -4.63144862 0.03492797 0 0 Z " fill="#A84D1F" transform="translate(192.0625,273.8125)"/>
<path d="M0 0 C0.87833496 -0.02400879 1.75666992 -0.04801758 2.66162109 -0.07275391 C3.38961914 -0.0953125 4.11761719 -0.11787109 4.86767578 -0.14111328 C9.38620461 0.50849429 12.14557978 3.72246743 14.86474609 7.14599609 C26.96780213 25.4779143 26.96780213 25.4779143 26.80224609 34.58349609 C26.83318359 35.85193359 26.83318359 35.85193359 26.86474609 37.14599609 C28.02296875 37.73767578 28.02296875 37.73767578 29.20458984 38.34130859 C32.78899983 40.77302286 33.42186205 43.58603927 34.48974609 47.58349609 C34.79658325 48.65277344 34.79658325 48.65277344 35.10961914 49.74365234 C35.7137451 51.8729996 36.29037045 54.00846552 36.86474609 56.14599609 C37.18830078 57.28166016 37.51185547 58.41732422 37.84521484 59.58740234 C39.37400891 65.20733547 40.60543925 70.32626415 39.86474609 76.14599609 C36.75448743 79.30075324 33.95158269 79.63266952 29.63818359 79.99755859 C28.32785156 80.12227539 27.01751953 80.24699219 25.66748047 80.37548828 C24.95293701 80.43909546 24.23839355 80.50270264 23.50219727 80.5682373 C11.13355782 81.67670337 -1.08735462 83.22392564 -13.31494141 85.40380859 C-39.52574313 90.020716 -64.74398281 93.00206106 -91.32275391 92.77099609 C-92.62841309 92.75967651 -93.93407227 92.74835693 -95.27929688 92.73669434 C-117.35769468 92.47991997 -117.35769468 92.47991997 -125.13525391 91.14599609 C-125.13525391 90.81599609 -125.13525391 90.48599609 -125.13525391 90.14599609 C-115.46848196 89.44625211 -105.82708385 89.05542231 -96.13525391 88.93505859 C-95.08088135 88.9207782 -94.02650879 88.9064978 -92.94018555 88.89178467 C-88.57556245 88.83435542 -84.21105875 88.77962042 -79.84619141 88.74462891 C-66.58146528 88.62986845 -54.11767406 87.84911539 -41.13525391 85.14599609 C-36.68390547 84.39191255 -32.22253674 83.70707894 -27.76025391 83.02099609 C-26.1534375 82.76769531 -26.1534375 82.76769531 -24.51416016 82.50927734 C-18.44652672 81.57295967 -12.41718139 80.84198316 -6.29296875 80.39648438 C-4.08887537 80.26492732 -4.08887537 80.26492732 -2.13525391 79.14599609 C0.17632203 78.8635872 2.49431678 78.63308815 4.81396484 78.42724609 C5.85022758 78.33304382 5.85022758 78.33304382 6.90742493 78.23693848 C9.12204187 78.03614712 11.33709079 77.84075087 13.55224609 77.64599609 C15.74946986 77.45048349 17.94657342 77.25378003 20.14350891 77.05505371 C22.15021765 76.87388676 24.15725474 76.69636783 26.16430664 76.51904297 C29.7548689 76.15707298 33.29718544 75.68284384 36.86474609 75.14599609 C36.09897471 71.54073532 35.326171 67.93701463 34.55224609 64.33349609 C34.33890625 63.32867187 34.12556641 62.32384766 33.90576172 61.28857422 C32.44470812 54.50666872 30.76026207 47.81943153 28.86474609 41.14599609 C26.82332216 40.97638224 24.78159298 40.81044014 22.73974609 40.64599609 C21.60279297 40.55318359 20.46583984 40.46037109 19.29443359 40.36474609 C16.13877461 40.16347399 13.02553444 40.10756706 9.86474609 40.14599609 C9.86474609 38.82599609 9.86474609 37.50599609 9.86474609 36.14599609 C14.15474609 35.48599609 18.44474609 34.82599609 22.86474609 34.14599609 C22.15383447 30.59143796 21.73192437 28.49701339 20.22802734 25.43896484 C19.9007666 24.77324463 19.57350586 24.10752441 19.23632812 23.42163086 C18.88683105 22.73254639 18.53733398 22.04346191 18.17724609 21.33349609 C17.64139893 20.26989868 17.64139893 20.26989868 17.09472656 19.18481445 C12.88948567 10.40103532 12.88948567 10.40103532 5.86474609 4.14599609 C-2.71342764 3.59506577 -11.4252529 4.38990429 -19.99707031 4.890625 C-22.26283045 5.02114452 -24.52901548 5.14035402 -26.79541016 5.25927734 C-33.2203251 5.61749333 -39.42228749 6.03749759 -45.67529297 7.64648438 C-51.98044706 8.92678859 -58.53915353 9.14479563 -64.94775391 9.64599609 C-73.93354768 10.35378456 -82.80148691 11.11951946 -91.68383789 12.71337891 C-112.20710886 16.33525284 -112.20710886 16.33525284 -120.13525391 12.14599609 C-112.59633374 11.15994874 -105.05635383 10.18232313 -97.515625 9.21020508 C-94.95711276 8.87940461 -92.39883762 8.54676438 -89.84082031 8.2121582 C-77.37508281 6.58269779 -64.98685705 4.97461774 -52.42578125 4.37182617 C-49.28565305 4.15631804 -46.29920912 3.72169483 -43.20556641 3.15380859 C-36.26165294 1.88893216 -29.28801294 1.51494627 -22.25292969 1.140625 C-20.00620214 1.02077996 -17.76023007 0.89082379 -15.51416016 0.75927734 C-10.34446908 0.46300465 -5.17250059 0.24086243 0 0 Z " fill="#959595" transform="translate(199.13525390625,36.85400390625)"/>
<path d="M0 0 C9.2504313 3.72040433 9.2504313 3.72040433 12.58984375 6.79296875 C13.33984375 10.48046875 13.33984375 10.48046875 13.58984375 13.79296875 C10.02839407 17.18450728 7.24540376 17.15842854 2.43457031 17.13354492 C1.36567818 17.13420204 1.36567818 17.13420204 0.27519226 17.13487244 C-2.07333046 17.13278726 -4.4211337 17.10946995 -6.76953125 17.0859375 C-8.40048838 17.08034056 -10.03145057 17.07607092 -11.66241455 17.07307434 C-15.95003239 17.06163324 -20.23734418 17.03217253 -24.52484131 16.9989624 C-28.90193543 16.9682456 -33.27907911 16.95456557 -37.65625 16.93945312 C-46.24102568 16.90730199 -54.82555287 16.8561147 -63.41015625 16.79296875 C-60.05086898 13.35385083 -56.98802551 10.70975035 -52.8125 8.3125 C-51.23952148 7.40274414 -51.23952148 7.40274414 -49.63476562 6.47460938 C-48.55001953 5.85779297 -47.46527344 5.24097656 -46.34765625 4.60546875 C-45.25904297 3.97705078 -44.17042969 3.34863281 -43.04882812 2.70117188 C-28.2320602 -5.82416844 -16.4273575 -5.81449423 0 0 Z " fill="#FEDEA9" transform="translate(227.41015625,649.20703125)"/>
<path d="M0 0 C0.92972557 9.69570954 1.11237377 19.27342548 1 29 C-2.08252089 29.50509639 -5.16613525 30.00317999 -8.25 30.5 C-9.12269531 30.64308594 -9.99539062 30.78617188 -10.89453125 30.93359375 C-11.73886719 31.06894531 -12.58320312 31.20429687 -13.453125 31.34375 C-14.22817383 31.46943359 -15.00322266 31.59511719 -15.80175781 31.72460938 C-18 32 -18 32 -22 32 C-22.34029508 28.52147832 -22.6709387 25.04210091 -23 21.5625 C-23.09539063 20.58861328 -23.19078125 19.61472656 -23.2890625 18.61132812 C-23.84174098 12.70951151 -24.09807559 6.92744322 -24 1 C-20.66666667 1 -17.33333333 1 -14 1 C-13.13375 0.835 -12.2675 0.67 -11.375 0.5 C-7.50750467 -0.07296227 -3.90616004 -0.06734759 0 0 Z " fill="#765C3A" transform="translate(84,20)"/>
<path d="M0 0 C0.495 8.415 0.495 8.415 1 17 C-5.75 19.25 -5.75 19.25 -9.5234375 19.1953125 C-10.71259766 19.18564453 -10.71259766 19.18564453 -11.92578125 19.17578125 C-12.73402344 19.15902344 -13.54226562 19.14226562 -14.375 19.125 C-15.20644531 19.11597656 -16.03789063 19.10695312 -16.89453125 19.09765625 C-18.92981337 19.0742622 -20.96494564 19.03839725 -23 19 C-23.33 13.39 -23.66 7.78 -24 2 C-8.14285714 -0.28571429 -8.14285714 -0.28571429 0 0 Z " fill="#775C3B" transform="translate(91,129)"/>
<path d="M0 0 C0 0.99 0 1.98 0 3 C-1.12792969 3.49886719 -2.25585938 3.99773438 -3.41796875 4.51171875 C-15.54686731 10.00235428 -26.7432665 16.49966092 -37.91967773 23.72241211 C-39.9011679 24.93930426 -41.90442611 25.99494064 -44 27 C-43.32942834 24.06624899 -42.5040235 22.38058917 -40.0859375 20.5546875 C-38.08267818 19.3159229 -36.06666551 18.12945673 -34 17 C-39.05255964 17.63156995 -43.29593201 19.13459373 -48 21 C-48 20.34 -48 19.68 -48 19 C-48.99 18.67 -49.98 18.34 -51 18 C-43.0043063 13.60300204 -35.36315703 10.2952571 -26.56225586 7.9284668 C-20.28028009 6.1988746 -14.38475876 3.81190396 -8.4440918 1.14648438 C-3.3070148 -1.10233827 -3.3070148 -1.10233827 0 0 Z " fill="#7A8B3F" transform="translate(208,638)"/>
<path d="M0 0 C7.92 0 15.84 0 24 0 C24 2.31 24 4.62 24 7 C15.98340366 8.12513633 8.07861415 8.09579384 0 8 C0 5.36 0 2.72 0 0 Z " fill="#765C3A" transform="translate(87,433)"/>
<path d="M0 0 C0 0.99 0 1.98 0 3 C-0.54414551 3.25168945 -1.08829102 3.50337891 -1.64892578 3.76269531 C-4.14336181 4.92001179 -6.63417369 6.08493608 -9.125 7.25 C-9.9809375 7.64574219 -10.836875 8.04148437 -11.71875 8.44921875 C-15.4669535 10.20799116 -19.07797605 11.94324839 -22.4921875 14.296875 C-25 16 -25 16 -27 16 C-27 10.90824145 -27 10.90824145 -25 8 C-22.80102539 6.70385742 -22.80102539 6.70385742 -20.09765625 5.60546875 C-19.12505859 5.20779297 -18.15246094 4.81011719 -17.15039062 4.40039062 C-16.13138672 4.00013672 -15.11238281 3.59988281 -14.0625 3.1875 C-12.53979492 2.55811523 -12.53979492 2.55811523 -10.98632812 1.91601562 C-3.39760045 -1.13253348 -3.39760045 -1.13253348 0 0 Z " fill="#1B5410" transform="translate(208,638)"/>
<path d="M0 0 C7.93160735 1.86990967 16.70315584 4.30988638 22.9375 9.8125 C22.9375 10.4725 22.9375 11.1325 22.9375 11.8125 C19.42097329 10.73049178 16.12815929 9.45129704 12.8125 7.875 C0.99226866 2.52394933 -11.2723419 1.63940012 -24.0625 1.8125 C-17.69546325 -3.94525093 -7.77964657 -1.51103013 0 0 Z " fill="#FDCE7F" transform="translate(217.0625,646.1875)"/>
<path d="M0 0 C-2.80934934 1.1334376 -5.62208095 2.25681938 -8.4375 3.375 C-9.22060547 3.69210937 -10.00371094 4.00921875 -10.81054688 4.3359375 C-24.90844868 9.90547895 -24.90844868 9.90547895 -31 8 C-28.00265117 6.86784922 -25.00167493 5.74562531 -22 4.625 C-21.16082031 4.30789063 -20.32164062 3.99078125 -19.45703125 3.6640625 C-5.26554942 -1.61648888 -5.26554942 -1.61648888 0 0 Z " fill="#4D7872" transform="translate(183,276)"/>
<path d="M0 0 C-1.50607883 4.10088936 -3.96188878 5.53509554 -7.625 7.75 C-9.12933594 8.67039062 -9.12933594 8.67039062 -10.6640625 9.609375 C-11.43492187 10.06828125 -12.20578125 10.5271875 -13 11 C-13.33 10.34 -13.66 9.68 -14 9 C-10.44113418 5.11760093 -5.62095916 0 0 0 Z " fill="#285E19" transform="translate(178,654)"/>
<path d="M0 0 C3.63 0 7.26 0 11 0 C11.33 0.66 11.66 1.32 12 2 C5.565 2.495 5.565 2.495 -1 3 C-0.67 2.01 -0.34 1.02 0 0 Z " fill="#8E8B87" transform="translate(70,128)"/>
<path d="M0 0 C-0.6875 1.9375 -0.6875 1.9375 -2 4 C-4.625 4.75 -4.625 4.75 -7 5 C-7 4.34 -7 3.68 -7 3 C-2.61538462 0 -2.61538462 0 0 0 Z " fill="#1F5713" transform="translate(178,654)"/>
<path d="M0 0 C3 1 3 1 4 3 C1.69 3.33 -0.62 3.66 -3 4 C-2.01 2.68 -1.02 1.36 0 0 Z " fill="#236115" transform="translate(179,648)"/>
</svg>
