<svg width="859" height="474" viewBox="0 0 859 474" fill="none" xmlns="http://www.w3.org/2000/svg">
<g clip-path="url(#clip0_602_151)">
<path d="M546.139 450.127V449.996C546.139 436.941 556.214 425.992 570.461 425.992C584.707 425.992 594.642 436.8 594.642 449.855V449.986C594.642 463.052 584.566 473.99 570.32 473.99C556.073 473.99 546.139 463.183 546.139 450.127ZM586.098 450.127V449.996C586.098 440.983 579.539 433.483 570.33 433.483C561.121 433.483 554.693 440.842 554.693 449.855V449.986C554.693 459.009 561.252 466.429 570.461 466.429C579.67 466.429 586.098 459.13 586.098 450.117V450.127Z" fill="#003FA2"/>
<path d="M604.213 426.789H611.769L636.615 458.878V426.789H644.635V473.204H637.814L612.233 440.187V473.204H604.223V426.789H604.213Z" fill="#003FA2"/>
<path d="M667.97 434.35H653.26V426.789H690.891V434.35H676.181V473.204H667.96V434.35H667.97Z" fill="#003FA2"/>
<path d="M709.34 426.456H716.897L737.309 473.194H728.695L723.99 461.993H702.065L697.29 473.194H688.947L709.36 426.456H709.34ZM721.007 454.765L712.987 436.205L705.038 454.765H721.007Z" fill="#003FA2"/>
<path d="M743.617 426.789H764.292C770.126 426.789 774.69 428.513 777.672 431.426C780.12 433.947 781.511 437.395 781.511 441.437V441.568C781.511 449.19 776.947 453.767 770.519 455.622L783.042 473.194H773.37L761.975 457.013H751.768V473.194H743.617V426.779V426.789ZM763.687 449.795C769.521 449.795 773.229 446.75 773.229 442.042V441.911C773.229 436.941 769.652 434.219 763.627 434.219H751.768V449.795H763.697H763.687Z" fill="#003FA2"/>
<path d="M792 426.789H800.151V473.204H792V426.789Z" fill="#003FA2"/>
<path d="M810.498 450.127V449.996C810.498 436.941 820.573 425.992 834.82 425.992C849.067 425.992 859.001 436.8 859.001 449.855V449.986C859.001 463.052 848.926 473.99 834.679 473.99C820.432 473.99 810.498 463.183 810.498 450.127ZM850.457 450.127V449.996C850.457 440.983 843.898 433.483 834.689 433.483C825.48 433.483 819.052 440.842 819.052 449.855V449.986C819.052 459.009 825.611 466.429 834.82 466.429C844.029 466.429 850.457 459.13 850.457 450.117V450.127Z" fill="#003FA2"/>
<path d="M542.229 170.447C507.197 170.447 481.656 175.71 471.782 180.569C471.197 180.861 469.666 181.779 469.666 183.321V424.833C469.666 425.941 470.573 426.829 471.691 426.829H528.98C530.068 426.829 530.975 425.941 530.975 424.833V373.689H558.692C612.535 373.689 638.691 325.923 638.691 272.814C638.691 205.843 604.767 170.437 542.229 170.437M547.438 328.182H530.975V217.568H548.446C573.634 217.568 577.181 245.161 577.181 272.814C577.181 300.468 573.624 328.182 547.438 328.182Z" fill="#003FA2"/>
<path d="M842.345 360.614C831.313 314.854 799.464 209.614 779.938 173.613C779.575 172.958 778.88 172.534 778.175 172.534H707.788C707.042 172.534 706.378 172.958 706.015 173.633C686.972 209.836 654.126 316.83 643.598 360.624C643.567 360.805 643.537 360.967 643.537 361.118V371.683C643.537 372.802 644.444 373.71 645.582 373.71H699.194C700.111 373.71 700.897 373.064 701.128 372.167C702.196 367.812 703.254 363.064 704.463 358.033C706.156 350.754 708.02 341.207 709.985 333.142H772.311C774.024 340.31 775.505 348.889 776.966 355.603C778.215 361.531 779.414 367.127 780.603 372.167C780.835 373.064 781.651 373.71 782.568 373.71H840.401C841.499 373.71 842.426 372.802 842.426 371.683V361.118C842.426 360.967 842.386 360.816 842.365 360.624M719.788 290.699C722.528 279.67 741.047 218.415 741.047 218.415H742.992C742.992 218.415 760.624 279.72 763.072 290.699H719.798H719.788Z" fill="#003FA2"/>
<path d="M385.807 217.568C405.767 217.568 422.21 232.277 422.21 232.277C422.381 232.317 422.562 232.327 422.724 232.327H440.335C441.413 232.327 442.33 231.43 442.33 230.311V186.144C442.33 185.358 441.837 184.702 441.121 184.319C429.635 177.897 400.87 170.447 376.377 170.447C312.71 170.447 276.277 214.735 276.277 273.137C276.277 331.539 314.705 375.786 376.377 375.786C401.263 375.786 429.635 368.004 441.121 361.914C441.847 361.521 442.33 360.836 442.33 360.059V315.903C442.33 314.784 441.413 313.856 440.335 313.856H422.724C422.552 313.856 422.371 313.896 422.21 313.927C422.21 313.927 405.767 328.635 385.807 328.635C352.579 328.635 339.289 300.841 339.289 273.127C339.289 245.413 352.579 217.558 385.807 217.558" fill="#003FA2"/>
<path d="M132.602 214.402C126.123 214.402 120.864 219.665 120.864 226.137C120.864 232.61 126.123 237.872 132.602 237.872C139.08 237.872 144.319 232.63 144.319 226.137C144.319 219.645 139.08 214.402 132.602 214.402ZM132.602 244.112C127.524 244.112 123.413 248.236 123.413 253.327C123.413 258.418 127.524 262.511 132.602 262.511C137.68 262.511 141.8 258.388 141.8 253.327C141.8 248.266 137.68 244.112 132.602 244.112ZM161.79 156.424C157.317 156.424 153.307 158.39 150.536 161.485C149.105 158.783 147.06 156.474 144.621 154.68C147.201 151.817 148.803 148.026 148.803 143.852C148.803 137.39 144.994 131.835 139.513 129.244C143.997 126.784 147.009 122.046 147.009 116.592C147.009 108.618 140.541 102.166 132.602 102.166C124.662 102.166 118.184 108.618 118.184 116.592C118.184 122.046 121.206 126.784 125.68 129.244C120.209 131.835 116.42 137.4 116.42 143.852C116.42 148.026 118.012 151.817 120.592 154.68C118.153 156.474 116.108 158.783 114.677 161.485C111.907 158.38 107.876 156.424 103.423 156.424C95.0706 156.424 88.31 163.199 88.31 171.546C88.31 179.894 95.0706 186.648 103.423 186.648C108.068 186.648 112.199 184.561 114.98 181.275C116.43 183.805 118.425 185.983 120.793 187.697C118.184 190.53 116.572 194.3 116.572 198.464C116.572 207.275 123.715 214.412 132.511 214.412C141.307 214.412 148.45 207.275 148.45 198.464C148.45 194.34 146.878 190.61 144.299 187.787C146.727 186.063 148.752 183.866 150.223 181.285C153.004 184.581 157.155 186.658 161.8 186.658C170.153 186.658 176.913 179.914 176.913 171.556C176.913 163.199 170.153 156.434 161.8 156.434L161.79 156.424ZM132.602 274.034C129.005 274.034 126.063 276.978 126.063 280.577C126.063 284.176 129.005 287.12 132.602 287.12C136.198 287.12 139.12 284.186 139.12 280.577C139.12 276.968 136.209 274.034 132.602 274.034ZM132.551 302.978C129.851 302.978 127.634 305.186 127.634 307.908C127.634 310.63 129.851 312.818 132.551 312.818C135.251 312.818 137.488 310.63 137.488 307.908C137.488 305.186 135.282 302.978 132.551 302.978ZM190.767 158.985C183.14 158.985 176.933 165.175 176.933 172.806C176.933 180.438 183.14 186.628 190.767 186.628C198.394 186.628 204.6 180.458 204.6 172.806C204.6 165.154 198.414 158.985 190.767 158.985ZM74.4563 158.985C66.8191 158.985 60.6328 165.175 60.6328 172.806C60.6328 180.438 66.8191 186.628 74.4563 186.628C82.0935 186.628 88.2798 180.458 88.2798 172.806C88.2798 165.154 82.0935 158.985 74.4563 158.985Z" fill="#003FA2"/>
<path d="M132.601 101.964C139.574 101.964 145.236 96.2979 145.236 89.3215C145.236 82.3452 139.574 76.6895 132.601 76.6895C125.629 76.6895 119.967 82.3452 119.967 89.3215C119.967 96.2979 125.629 101.964 132.601 101.964Z" fill="#003FA2"/>
<path d="M219.684 163.42C213.317 163.42 208.158 168.582 208.158 174.944C208.158 181.305 213.307 186.477 219.684 186.477C226.062 186.477 231.211 181.325 231.211 174.944C231.211 168.562 226.062 163.42 219.684 163.42Z" fill="#003FA2"/>
<path d="M57.0464 174.944C57.0464 168.582 51.8676 163.42 45.5201 163.42C39.1726 163.42 34.0039 168.582 34.0039 174.944C34.0039 181.305 39.1625 186.477 45.5201 186.477C51.8777 186.477 57.0464 181.325 57.0464 174.944Z" fill="#003FA2"/>
<path d="M163.424 104.585C156.532 104.585 150.971 110.16 150.971 117.036C150.971 123.911 156.532 129.496 163.424 129.496C170.316 129.496 175.847 123.911 175.847 117.036C175.847 110.16 170.275 104.585 163.424 104.585Z" fill="#007195"/>
<path d="M162.619 130.837C155.193 130.837 149.158 136.876 149.158 144.306C149.158 151.736 155.193 157.755 162.619 157.755C170.045 157.755 176.06 151.736 176.06 144.306C176.06 136.876 170.024 130.837 162.619 130.837Z" fill="#007195"/>
<path d="M160.985 186.265C153.943 186.265 148.25 191.961 148.25 198.988C148.25 206.015 153.943 211.741 160.985 211.741C168.028 211.741 173.731 206.045 173.731 198.988C173.731 191.931 168.018 186.265 160.985 186.265Z" fill="#007195"/>
<path d="M160.18 212.85C152.673 212.85 146.588 218.939 146.588 226.45C146.588 233.961 152.673 240.04 160.18 240.04C167.686 240.04 173.771 233.971 173.771 226.45C173.771 218.929 167.686 212.85 160.18 212.85Z" fill="#007195"/>
<path d="M192.362 132.813C185.319 132.813 179.586 138.529 179.586 145.586C179.586 152.643 185.309 158.38 192.362 158.38C199.414 158.38 205.147 152.653 205.147 145.586C205.147 138.519 199.424 132.813 192.362 132.813Z" fill="#007195"/>
<path d="M101.783 104.585C94.9112 104.585 89.3496 110.16 89.3496 117.036C89.3496 123.911 94.9112 129.496 101.783 129.496C108.654 129.496 114.236 123.911 114.236 117.036C114.236 110.16 108.654 104.585 101.783 104.585Z" fill="#007195"/>
<path d="M102.599 130.837C95.1735 130.837 89.1484 136.876 89.1484 144.306C89.1484 151.736 95.1735 157.755 102.599 157.755C110.025 157.755 116.05 151.736 116.05 144.306C116.05 136.876 110.025 130.837 102.599 130.837Z" fill="#007195"/>
<path d="M104.212 186.265C97.1692 186.265 91.4766 191.961 91.4766 198.988C91.4766 206.015 97.1692 211.741 104.212 211.741C111.255 211.741 116.937 206.045 116.937 198.988C116.937 191.931 111.245 186.265 104.212 186.265Z" fill="#007195"/>
<path d="M105.017 212.85C97.5211 212.85 91.4355 218.939 91.4355 226.45C91.4355 233.961 97.5211 240.04 105.017 240.04C112.513 240.04 118.629 233.971 118.629 226.45C118.629 218.929 112.523 212.85 105.017 212.85Z" fill="#007195"/>
<path d="M72.8463 132.813C65.7935 132.813 60.0605 138.529 60.0605 145.586C60.0605 152.643 65.7834 158.38 72.8463 158.38C79.9091 158.38 85.6219 152.653 85.6219 145.586C85.6219 138.519 79.8991 132.813 72.8463 132.813Z" fill="#007195"/>
<path d="M100.986 101.793C107.606 101.793 112.976 96.4292 112.976 89.7855C112.976 83.1418 107.616 77.7886 100.986 77.7886C94.3565 77.7886 88.9863 83.1519 88.9863 89.7855C88.9863 96.4191 94.3465 101.793 100.986 101.793Z" fill="#007195"/>
<path d="M64.6543 200.248C64.6543 206.539 69.7726 211.65 76.0597 211.65C82.3467 211.65 87.465 206.539 87.465 200.248C87.465 193.957 82.3467 188.826 76.0597 188.826C69.7726 188.826 64.6543 193.937 64.6543 200.248Z" fill="#007195"/>
<path d="M164.22 101.793C170.84 101.793 176.21 96.4292 176.21 89.7855C176.21 83.1418 170.85 77.7886 164.22 77.7886C157.591 77.7886 152.23 83.1519 152.23 89.7855C152.23 96.4191 157.601 101.793 164.22 101.793Z" fill="#007195"/>
<path d="M132.604 73.1713C138.861 73.1713 143.939 68.1104 143.939 61.8397C143.939 55.569 138.861 50.498 132.604 50.498C126.348 50.498 121.27 55.5791 121.27 61.8397C121.27 68.1003 126.327 73.1713 132.604 73.1713Z" fill="#007195"/>
<path d="M189.146 211.65C195.433 211.65 200.542 206.539 200.542 200.248C200.542 193.957 195.433 188.826 189.146 188.826C182.859 188.826 177.721 193.937 177.721 200.248C177.721 206.559 182.839 211.65 189.146 211.65Z" fill="#007195"/>
<path d="M79.2926 247.137C75.0206 247.137 71.5547 250.585 71.5547 254.869C71.5547 259.154 75.0206 262.602 79.2926 262.602C83.5646 262.602 87.0104 259.154 87.0104 254.869C87.0104 250.585 83.5545 247.137 79.2926 247.137Z" fill="#6DAC3B"/>
<path d="M18.2167 123.78C18.2167 119.395 14.6702 115.846 10.2773 115.846C5.88444 115.846 2.33789 119.395 2.33789 123.78C2.33789 128.166 5.89451 131.735 10.2773 131.735C14.6601 131.735 18.2167 128.176 18.2167 123.78Z" fill="#6DAC3B"/>
<path d="M38.3265 101.178C42.5784 101.178 46.0141 97.7297 46.0141 93.4854C46.0141 89.2412 42.5784 85.7832 38.3265 85.7832C34.0747 85.7832 30.6289 89.2311 30.6289 93.4854C30.6289 97.7398 34.0747 101.178 38.3265 101.178Z" fill="#6DAC3B"/>
<path d="M7.07294 103.748C10.9721 103.748 14.1459 100.583 14.1459 96.6813C14.1459 92.7798 10.9721 89.584 7.07294 89.584C3.17376 89.584 0 92.7596 0 96.6813C0 100.603 3.16368 103.748 7.07294 103.748Z" fill="#6DAC3B"/>
<path d="M165.025 71.901C170.294 71.901 174.586 67.6164 174.586 62.3438C174.586 57.0712 170.294 52.7563 165.025 52.7563C159.755 52.7563 155.453 57.041 155.453 62.3438C155.453 67.6467 159.735 71.901 165.025 71.901Z" fill="#6DAC3B"/>
<path d="M100.179 71.901C105.449 71.901 109.731 67.6164 109.731 62.3438C109.731 57.0712 105.449 52.7563 100.179 52.7563C94.9099 52.7563 90.5977 57.041 90.5977 62.3438C90.5977 67.6467 94.8898 71.901 100.179 71.901Z" fill="#6DAC3B"/>
<path d="M132.602 14.6786C136.653 14.6786 139.937 11.4021 139.937 7.3393C139.937 3.27647 136.653 0 132.602 0C128.552 0 125.268 3.28656 125.268 7.3393C125.268 11.3921 128.552 14.6786 132.602 14.6786Z" fill="#6DAC3B"/>
<path d="M165.821 42.0194C169.669 42.0194 172.773 38.9143 172.773 35.0733C172.773 31.2322 169.669 28.1372 165.821 28.1372C161.972 28.1372 158.889 31.2423 158.889 35.0733C158.889 38.9042 161.992 42.0194 165.821 42.0194Z" fill="#6DAC3B"/>
<path d="M99.3837 42.0194C103.212 42.0194 106.326 38.9143 106.326 35.0733C106.326 31.2322 103.212 28.1372 99.3837 28.1372C95.555 28.1372 92.4316 31.2423 92.4316 35.0733C92.4316 38.9042 95.5349 42.0194 99.3837 42.0194Z" fill="#6DAC3B"/>
<path d="M258.111 103.748C262.031 103.748 265.194 100.583 265.194 96.6813C265.194 92.7798 262.031 89.584 258.111 89.584C254.192 89.584 251.059 92.7596 251.059 96.6813C251.059 100.603 254.222 103.748 258.111 103.748Z" fill="#6DAC3B"/>
<path d="M212.441 251.189C209.318 251.189 206.799 253.72 206.799 256.835C206.799 259.95 209.318 262.461 212.441 262.461C215.564 262.461 218.073 259.94 218.073 256.835C218.073 253.73 215.544 251.189 212.441 251.189Z" fill="#6DAC3B"/>
<path d="M178.184 254.869C178.184 259.154 181.629 262.602 185.911 262.602C190.193 262.602 193.639 259.154 193.639 254.869C193.639 250.585 190.173 247.137 185.911 247.137C181.65 247.137 178.184 250.585 178.184 254.869Z" fill="#6DAC3B"/>
<path d="M254.918 115.846C250.545 115.846 246.979 119.395 246.979 123.78C246.979 128.166 250.535 131.735 254.918 131.735C259.301 131.735 262.857 128.176 262.857 123.78C262.857 119.385 259.311 115.846 254.918 115.846Z" fill="#6DAC3B"/>
<path d="M224.48 109.898C218.565 109.898 213.77 114.687 213.77 120.604C213.77 126.522 218.565 131.331 224.48 131.331C230.394 131.331 235.19 126.532 235.19 120.604C235.19 114.677 230.394 109.898 224.48 109.898Z" fill="#6DAC3B"/>
<path d="M52.765 251.189C49.6517 251.189 47.1328 253.72 47.1328 256.835C47.1328 259.95 49.6517 262.461 52.765 262.461C55.8783 262.461 58.3971 259.94 58.3971 256.835C58.3971 253.73 55.8884 251.189 52.765 251.189Z" fill="#6DAC3B"/>
<path d="M226.879 101.178C231.111 101.178 234.566 97.7297 234.566 93.4854C234.566 89.2412 231.121 85.7832 226.879 85.7832C222.637 85.7832 219.191 89.2311 219.191 93.4854C219.191 97.7398 222.627 101.178 226.879 101.178Z" fill="#6DAC3B"/>
<path d="M40.7258 131.331C46.6401 131.331 51.4259 126.532 51.4259 120.604C51.4259 114.677 46.6401 109.898 40.7258 109.898C34.8115 109.898 30.0156 114.687 30.0156 120.604C30.0156 126.522 34.8216 131.331 40.7258 131.331Z" fill="#6DAC3B"/>
<path d="M77.6705 217.679C72.129 217.679 67.6152 222.196 67.6152 227.751C67.6152 233.305 72.129 237.842 77.6705 237.842C83.212 237.842 87.7358 233.326 87.7358 227.751C87.7358 222.176 83.2321 217.679 77.6705 217.679Z" fill="#3C974C"/>
<path d="M71.2232 128.458C76.805 128.458 81.3087 123.952 81.3087 118.387C81.3087 112.822 76.7949 108.305 71.2232 108.305C65.6515 108.305 61.168 112.822 61.168 118.387C61.168 123.952 65.6717 128.458 71.2232 128.458Z" fill="#3C974C"/>
<path d="M16.664 171.204C12.9663 171.204 9.93359 174.208 9.93359 177.928C9.93359 181.648 12.9663 184.652 16.664 184.652C20.3617 184.652 23.4044 181.648 23.4044 177.928C23.4044 174.208 20.3717 171.204 16.664 171.204Z" fill="#3C974C"/>
<path d="M132.601 43.9352C137.75 43.9352 141.951 39.7312 141.951 34.5897C141.951 29.4481 137.75 25.2441 132.601 25.2441C127.453 25.2441 123.271 29.4179 123.271 34.5897C123.271 39.7614 127.443 43.9352 132.601 43.9352Z" fill="#3C974C"/>
<path d="M217.255 193.584C212.439 193.584 208.52 197.496 208.52 202.325C208.52 207.154 212.439 211.046 217.255 211.046C222.071 211.046 225.97 207.144 225.97 202.325C225.97 197.506 222.081 193.584 217.255 193.584Z" fill="#3C974C"/>
<path d="M222.071 136.322C215.724 136.322 210.605 141.463 210.605 147.805C210.605 154.146 215.734 159.297 222.071 159.297C228.409 159.297 233.547 154.156 233.547 147.805C233.547 141.453 228.409 136.322 222.071 136.322Z" fill="#3C974C"/>
<path d="M248.539 171.204C244.811 171.204 241.809 174.208 241.809 177.928C241.809 181.648 244.811 184.652 248.539 184.652C252.267 184.652 255.259 181.648 255.259 177.928C255.259 174.208 252.247 171.204 248.539 171.204Z" fill="#3C974C"/>
<path d="M193.96 128.458C199.522 128.458 204.036 123.952 204.036 118.387C204.036 112.822 199.522 108.305 193.96 108.305C188.399 108.305 183.885 112.822 183.885 118.387C183.885 123.952 188.399 128.458 193.96 128.458Z" fill="#3C974C"/>
<path d="M56.6739 202.325C56.6739 197.506 52.7646 193.584 47.9385 193.584C43.1124 193.584 39.2031 197.496 39.2031 202.325C39.2031 207.154 43.1124 211.046 47.9385 211.046C52.7646 211.046 56.6739 207.144 56.6739 202.325Z" fill="#3C974C"/>
<path d="M43.1322 159.297C49.4696 159.297 54.598 154.156 54.598 147.805C54.598 141.453 49.4696 136.322 43.1322 136.322C36.7947 136.322 31.6562 141.463 31.6562 147.805C31.6562 154.146 36.7846 159.297 43.1322 159.297Z" fill="#3C974C"/>
<path d="M187.522 237.842C193.074 237.842 197.588 233.326 197.588 227.751C197.588 222.176 193.074 217.679 187.522 217.679C181.971 217.679 177.457 222.196 177.457 227.751C177.457 233.305 181.961 237.842 187.522 237.842Z" fill="#3C974C"/>
</g>
<defs>
<clipPath id="clip0_602_151">
<rect width="859" height="474" fill="white"/>
</clipPath>
</defs>
</svg>
